<?xml version="1.0" encoding="UTF-8"?>
<svg width="24px" height="31px" viewBox="0 0 24 31" version="1.1" xmlns="http://www.w3.org/2000/svg" xmlns:xlink="http://www.w3.org/1999/xlink">
    <title>Combined Shape</title>
    <defs>
        <linearGradient x1="42.2991794%" y1="25.284182%" x2="64.3172324%" y2="86.0333934%" id="linearGradient-1">
            <stop stop-color="#C52A2E" offset="0%"></stop>
            <stop stop-color="#A71E22" offset="100%"></stop>
        </linearGradient>
    </defs>
    <g id="Page-1" stroke="none" stroke-width="1" fill="none" fill-rule="evenodd">
        <g id="0.Elements" transform="translate(-1133.000000, -485.000000)" fill="url(#linearGradient-1)">
            <path d="M1145,485 C1151.61684,485 1157,490.383163 1157,497 C1157,500.214286 1155.05263,504.342041 1151.21202,509.268041 C1149.45245,511.519074 1147.54694,513.652113 1145.5078,515.653388 C1145.22376,515.925033 1144.77624,515.925033 1144.4922,515.653388 C1142.45306,513.652113 1140.54755,511.519074 1138.78798,509.268041 C1134.94737,504.342041 1133,500.214286 1133,497 C1133,490.383163 1138.38316,485 1145,485 Z M1145,488.428571 C1140.27347,488.428571 1136.42857,492.273469 1136.42857,497 C1136.42857,501.726531 1140.27347,505.571429 1145,505.571429 C1149.72653,505.571429 1153.57143,501.726531 1153.57143,497 C1153.57143,492.273469 1149.72653,488.428571 1145,488.428571 Z M1144.5058,491.068633 C1144.78602,490.813886 1145.21398,490.813886 1145.4942,491.068633 L1145.4942,491.068633 L1150.88196,495.966592 C1151.14075,496.201928 1151.19786,496.587039 1151.01849,496.887347 C1150.87887,497.112922 1150.6311,497.248661 1150.36584,497.244898 L1150.36584,497.244898 L1149.65306,497.244898 L1149.65306,501.897959 C1149.65306,502.303719 1149.32413,502.632653 1148.91837,502.632653 L1148.91837,502.632653 L1147.20408,502.632653 C1146.79832,502.632653 1146.46939,502.303719 1146.46939,501.897959 L1146.46939,501.897959 L1146.46939,499.204082 C1146.46939,498.798321 1146.14045,498.469388 1145.73469,498.469388 L1145.73469,498.469388 L1144.26531,498.469388 C1143.85955,498.469388 1143.53061,498.798321 1143.53061,499.204082 L1143.53061,499.204082 L1143.53061,501.897959 C1143.53061,502.303719 1143.20168,502.632653 1142.79592,502.632653 L1142.79592,502.632653 L1141.08163,502.632653 C1140.67587,502.632653 1140.34694,502.303719 1140.34694,501.897959 L1140.34694,501.897959 L1140.34694,497.244898 L1139.63416,497.244898 C1139.3689,497.248661 1139.12113,497.112922 1138.98151,496.887347 C1138.80214,496.587039 1138.85925,496.201928 1139.11804,495.966592 L1139.11804,495.966592 Z" id="Combined-Shape"></path>
        </g>
    </g>
</svg>
