<?xml version="1.0" encoding="UTF-8"?>
<svg width="6px" height="10px" viewBox="0 0 6 10" version="1.1" xmlns="http://www.w3.org/2000/svg" xmlns:xlink="http://www.w3.org/1999/xlink">
    <title>Combined Shape</title>
    <g id="Page-1" stroke="none" stroke-width="1" fill="none" fill-rule="evenodd">
        <g id="0.Elements" transform="translate(-56.000000, -570.000000)" fill="#000000">
            <path d="M56.1809467,575.120182 C56.1948114,574.884278 56.2918648,574.652349 56.4721068,574.472107 C56.4884053,574.455808 56.5051264,574.44019 56.5222348,574.425252 L60.0076407,570.942107 C60.398165,570.551582 61.03133,570.551582 61.4218542,570.942107 C61.8123785,571.332631 61.8123785,571.965796 61.4218542,572.35632 L58.5959467,575.181214 L61.4218542,578.007641 C61.7823382,578.368125 61.8100677,578.935356 61.5050429,579.327647 L61.4218542,579.421854 C61.03133,579.812379 60.398165,579.812379 60.0076407,579.421854 L60.0076407,579.421854 L56.5142125,575.931629 C56.4998909,575.918854 56.4858486,575.905596 56.4721068,575.891854 C56.2918648,575.711612 56.1948114,575.479684 56.1809467,575.243779 Z" id="Combined-Shape"></path>
        </g>
    </g>
</svg>