<?xml version="1.0" encoding="UTF-8"?>
<svg width="6px" height="10px" viewBox="0 0 6 10" version="1.1" xmlns="http://www.w3.org/2000/svg" xmlns:xlink="http://www.w3.org/1999/xlink">
    <title>Combined Shape</title>
    <g id="Page-1" stroke="none" stroke-width="1" fill="none" fill-rule="evenodd">
        <g id="0.Elements" transform="translate(-101.000000, -609.000000)" fill="#FFFFFF">
            <path d="M106.713014,614.243779 C106.69915,614.479684 106.602096,614.711612 106.421854,614.891854 C106.408112,614.905596 106.39407,614.918854 106.379749,614.931629 L102.88632,618.421854 C102.495796,618.812379 101.862631,618.812379 101.472107,618.421854 C101.081582,618.03133 101.081582,617.398165 101.472107,617.007641 L104.297214,614.181214 L101.472107,611.35632 C101.111623,610.995836 101.083893,610.428605 101.388918,610.036314 L101.472107,609.942107 C101.862631,609.551582 102.495796,609.551582 102.88632,609.942107 L102.88632,609.942107 L106.371726,613.425252 C106.388835,613.44019 106.405556,613.455808 106.421854,613.472107 C106.602096,613.652349 106.69915,613.884278 106.713014,614.120182 Z" id="Combined-Shape"></path>
        </g>
    </g>
</svg>