<?xml version="1.0" encoding="UTF-8"?>
<svg width="10px" height="6px" viewBox="0 0 10 6" version="1.1" xmlns="http://www.w3.org/2000/svg" xmlns:xlink="http://www.w3.org/1999/xlink">
    <title>Combined Shape</title>
    <g id="Page-1" stroke="none" stroke-width="1" fill="none" fill-rule="evenodd">
        <g id="0.Elements" transform="translate(-143.000000, -572.000000)" fill="#000000">
            <path d="M147.885182,577.948014 C147.649278,577.93415 147.417349,577.837096 147.237107,577.656854 C147.220808,577.640556 147.20519,577.623835 147.190252,577.606726 L143.707107,574.12132 C143.316582,573.730796 143.316582,573.097631 143.707107,572.707107 C144.097631,572.316582 144.730796,572.316582 145.12132,572.707107 L147.946214,575.532214 L150.772641,572.707107 C151.133125,572.346623 151.700356,572.318893 152.092647,572.623918 L152.186854,572.707107 C152.577379,573.097631 152.577379,573.730796 152.186854,574.12132 L152.186854,574.12132 L148.696629,577.614749 C148.683854,577.62907 148.670596,577.643112 148.656854,577.656854 C148.476612,577.837096 148.244684,577.93415 148.008779,577.948014 Z" id="Combined-Shape"></path>
        </g>
    </g>
</svg>