<?xml version="1.0" encoding="UTF-8"?>
<svg width="10px" height="6px" viewBox="0 0 10 6" version="1.1" xmlns="http://www.w3.org/2000/svg" xmlns:xlink="http://www.w3.org/1999/xlink">
    <title>Combined Shape</title>
    <g id="Page-1" stroke="none" stroke-width="1" fill="none" fill-rule="evenodd">
        <g id="0.Elements" transform="translate(-190.000000, -611.000000)" fill="#FFFFFF">
            <path d="M195.008779,611.415947 C195.244684,611.429811 195.476612,611.526865 195.656854,611.707107 C195.670596,611.720849 195.683854,611.734891 195.696629,611.749213 L199.186854,615.242641 C199.577379,615.633165 199.577379,616.26633 199.186854,616.656854 C198.79633,617.047379 198.163165,617.047379 197.772641,616.656854 L194.946214,613.830947 L192.12132,616.656854 C191.760836,617.017338 191.193605,617.045068 190.801314,616.740043 L190.707107,616.656854 C190.316582,616.26633 190.316582,615.633165 190.707107,615.242641 L190.707107,615.242641 L194.190252,611.757235 C194.20519,611.740126 194.220808,611.723405 194.237107,611.707107 C194.417349,611.526865 194.649278,611.429811 194.885182,611.415947 Z" id="Combined-Shape"></path>
        </g>
    </g>
</svg>
