<?xml version="1.0" encoding="UTF-8"?>
<svg width="49px" height="49px" viewBox="0 0 49 49" version="1.1" xmlns="http://www.w3.org/2000/svg" xmlns:xlink="http://www.w3.org/1999/xlink">
    <title>Group 19</title>
    <defs>
        <polygon id="path-1" points="0 0 14.0263653 0 14.0263653 22.7891525 0 22.7891525"></polygon>
    </defs>
    <g id="Page-1" stroke="none" stroke-width="1" fill="none" fill-rule="evenodd">
        <g id="0.Elements" transform="translate(-522.000000, -565.000000)">
            <g id="Group-19" transform="translate(522.000000, 565.000000)">
                <g id="Group-3" transform="translate(24.546139, 0.000000)">
                    <mask id="mask-2" fill="white">
                        <use xlink:href="#path-1"></use>
                    </mask>
                    <g id="Clip-2"></g>
                    <path d="M4.88295007,22.7891525 C4.88295007,22.7891525 -2.92072967,12.497711 1.20240719,9.11561464 C5.32554406,5.733982 9.30006594,3.96989388 9.00608693,-0.000231872782 C10.0366389,1.91132733 16.5153232,9.11561464 12.9815377,15.4373941 C9.4482165,21.7596374 4.88295007,22.7891525 4.88295007,22.7891525" id="Fill-1" fill="#A71E22" mask="url(#mask-2)"></path>
                </g>
                <path d="M28.0527307,23.5925057 C28.0527307,23.5925057 20.8088624,11.380098 16.4926837,12.3252286 C12.176505,13.2708177 7.55258347,16.4684866 4.93215058,16.9050535 C2.31220386,17.3420789 0,16.9050535 0,16.9050535 C0,16.9050535 7.24338211,27.0822892 14.025393,27.9549643 C20.8078901,28.8258052 28.0527307,23.5925057 28.0527307,23.5925057" id="Fill-4" fill="#721011"></path>
                <path d="M29.1444463,26.2071563 C29.1444463,26.2071563 34.1431262,31.9276846 34.1431262,35.6183011 C34.1431262,39.3094027 30.8341153,41.1559239 29.2519789,43.3095516 C27.6702963,45.4626943 26.1838957,47.4630113 26.0641125,49 C24.9370615,46.8463722 20.1906522,37.7719289 22.4914878,33.6189544 C24.7927772,29.4654947 29.1444463,26.2071563 29.1444463,26.2071563" id="Fill-6" fill="#A71E22"></path>
                <path d="M30.7288136,24.703673 C30.7288136,24.703673 35.8947986,20.4563879 40.1139618,22.3616559 C44.3335839,24.2669238 46.5159096,27.6011428 48.2617702,29.8244563 C46.0789855,29.5064108 43.8966598,30.3007733 41.714334,31.7297243 C39.5320082,33.1586752 35.2784235,32.8636692 30.7288136,24.703673" id="Fill-8" fill="#721011"></path>
                <path d="M23.807247,15.0395137 C23.84683,15.1976618 22.1103165,5.51878996 19.3374467,6.32236739 C16.1132274,7.92387409 23.807247,15.0395137 23.807247,15.0395137" id="Fill-10" fill="#6F0F10"></path>
                <path d="M19.391129,8.02824859 C19.391129,8.02824859 19.1164906,4.07189456 21.1318267,2.76836158" id="Stroke-12" stroke="#6F0F10" stroke-width="0.995" stroke-linecap="round"></path>
                <path d="M19.3785311,8.02824859 C19.3785311,8.02824859 15.9602193,5.11902703 14.1186441,6.79551444" id="Stroke-14" stroke="#6F0F10" stroke-width="0.995" stroke-linecap="round"></path>
            </g>
        </g>
    </g>
</svg>
