<?xml version="1.0" encoding="UTF-8"?>
<svg width="265px" height="90px" viewBox="0 0 265 90" version="1.1" xmlns="http://www.w3.org/2000/svg" xmlns:xlink="http://www.w3.org/1999/xlink">
    <title>Artboard Copy 3</title>
    <g id="Artboard-Copy-3" stroke="none" stroke-width="1" fill="none" fill-rule="evenodd">
        <g id="Group-17" transform="translate(9.000000, 26.000000)">
            <g id="Group-11" transform="translate(73.838484, 8.666053)" fill="#182D00">
                <g id="Group-2">
                    <polygon id="Clip-126" points="3.90295581 0.99105912 7.46612344 7.40802583 11.0120866 0.99105912 14.8658868 0.99105912 9.2768934 11.1051996 9.2768934 18.8301233 5.6148001 18.8301233 5.6148001 11.1051996 0 0.99105912"></polygon>
                    <path d="M19.2905242,5.94635472 L19.2905242,12.460734 C19.2905242,13.728661 19.3770702,14.6094436 19.5525171,15.103082 C19.7267865,15.596132 20.0076193,15.9791578 20.3944267,16.2527476 C20.7806454,16.5263374 21.2563538,16.6628381 21.8221406,16.6628381 C22.3873386,16.6628381 22.867757,16.5281025 23.2622182,16.2586312 C23.6572681,15.9897483 23.9504646,15.5931902 24.1418077,15.0713103 C24.2831072,14.6824009 24.3537569,13.8492758 24.3537569,12.5725234 L24.3537569,5.94635472 L27.7496554,5.94635472 L27.7496554,11.6776199 C27.7496554,14.0393178 27.5630222,15.6555569 27.1903448,16.5263374 C26.7334763,17.5871598 26.0617149,18.4014572 25.1744716,18.9692296 C24.2872284,19.537002 23.1591873,19.8211824 21.7909369,19.8211824 C20.3067032,19.8211824 19.1056573,19.4893444 18.1889767,18.8262569 C17.2728848,18.1631693 16.6282058,17.239436 16.2549396,16.0538802 C15.9894142,15.2331107 15.8569459,13.741605 15.8569459,11.5775979 L15.8569459,5.94635472 L19.2905242,5.94635472 Z" id="Clip-129"></path>
                    <path d="M47.9156995,4.9552956 C48.8817458,4.9552956 49.7313939,5.17946273 50.4646437,5.62662027 C51.1973027,6.07436617 51.7243445,6.6586128 52.0451782,7.37994851 C52.3660119,8.10069585 52.5261334,9.27389602 52.5261334,10.8977839 L52.5261334,18.8301233 L49.0926807,18.8301233 L49.0926807,11.9668435 C49.0926807,10.4341522 48.9006532,9.39627598 48.5183706,8.85321492 C48.1354972,8.31015386 47.5605963,8.03832914 46.7954404,8.03832914 C46.2128583,8.03832914 45.6905434,8.20483649 45.2284955,8.53608609 C44.7664477,8.86733568 44.4231615,9.32508379 44.198637,9.90933042 C43.9741125,10.493577 43.8618502,11.4326079 43.8618502,12.7258345 L43.8618502,18.8301233 L40.4283976,18.8301233 L40.4283976,12.2780886 C40.4283976,11.0678215 40.3385878,10.1911573 40.1589682,9.64809628 C39.9793485,9.10562358 39.71051,8.7014167 39.3518616,8.43606401 C38.9932132,8.17129968 38.5589355,8.03832914 38.0502102,8.03832914 C37.4829904,8.03832914 36.9683565,8.20660159 36.5045361,8.54196974 C36.0418974,8.87733789 35.695657,9.3486184 35.4658148,9.95345781 C35.2365634,10.5582972 35.1219377,11.5114488 35.1219377,12.8123242 L35.1219377,18.8301233 L31.7138918,18.8301233 L31.7138918,5.30360779 L35.1219377,5.30360779 L35.1219377,6.85748023 C35.7051107,6.21910401 36.3526866,5.74311658 37.0646657,5.42775284 C37.7772357,5.11297747 38.5536178,4.9552956 39.3949939,4.9552956 C40.244642,4.9552956 41.0103888,5.16240014 41.693416,5.5771976 C42.3764432,5.99140668 42.9265283,6.59624609 43.3430804,7.39171581 C43.8843027,6.59624609 44.5484226,5.99140668 45.3354401,5.5771976 C46.1224576,5.16240014 46.9827411,4.9552956 47.9156995,4.9552956 Z" id="Mask"></path>
                    <polygon id="Clip-135" points="68.0859078 0.99105912 72.3788906 13.4330072 76.7105972 0.99105912 80.1427196 0.99105912 83.2489661 18.8301233 79.8406737 18.8301233 77.8550352 7.56355736 73.9212903 18.8301233 70.8150438 18.8301233 66.9152568 7.56355736 64.8825538 18.8301233 61.4456654 18.8301233 64.6519981 0.99105912"></polygon>
                    <path d="M91.5212317,4.9552956 C92.3247751,4.9552956 93.0793362,5.11641343 93.784915,5.43680422 C94.4910769,5.75719501 95.1430084,6.23808868 95.7412925,6.87887026 L95.7412925,5.31996305 L99.105912,5.31996305 L99.105912,19.4571299 L95.7412925,19.4571299 L95.7412925,17.9627928 C95.0852792,18.6214081 94.4269334,19.0955372 93.7674213,19.3857953 C93.1061599,19.6754384 92.3900849,19.8211824 91.6191963,19.8211824 C89.8879043,19.8211824 88.3898614,19.1127559 87.1268171,17.6965179 C85.8631896,16.2802799 85.2310843,14.519668 85.2310843,12.414682 C85.2310843,10.230982 85.8421972,8.44269711 87.0655892,7.04798249 C88.2878149,5.65326786 89.7724459,4.9552956 91.5212317,4.9552956 Z M92.205818,8.23053814 C91.1661098,8.23053814 90.3025047,8.61795887 89.6155858,9.39280032 C88.9269176,10.1682567 88.5828751,11.1632516 88.5828751,12.375325 C88.5828751,13.5972377 88.9327489,14.6020717 89.6330795,15.3898272 C90.3334102,16.1781976 91.1946828,16.5723829 92.2180636,16.5723829 C93.2740993,16.5723829 94.14995,16.1849621 94.8456157,15.4095057 C95.5424476,14.6346643 95.8894058,13.618761 95.8894058,12.362411 C95.8894058,11.1318889 95.5424476,10.1362791 94.8456157,9.37373676 C94.14995,8.61180933 93.2706006,8.23053814 92.205818,8.23053814 Z" id="Combined-Shape"></path>
                    <polygon id="Clip-141" points="107.062037 0.99105912 107.062037 5.79569408 109.016503 5.79569408 109.016503 8.61077699 107.062037 8.61077699 107.062037 18.8301233 103.768621 18.8301233 103.768621 8.61077699 102.079089 8.61077699 102.079089 5.79569408 103.768621 5.79569408 103.768621 0.99105912"></polygon>
                    <path d="M117.651845,4.9552956 C118.992751,4.9552956 120.196806,5.23448451 121.263423,5.79347727 C122.330627,6.35247004 123.204595,7.14699001 123.88239,8.17765213 L121.061377,9.80235938 C120.531592,9.22184324 120.007094,8.81904867 119.489644,8.59336072 C118.972781,8.36890268 118.365468,8.25575123 117.670052,8.25575123 C116.402564,8.25575123 115.377649,8.65178131 114.594719,9.44322651 C113.81179,10.2346717 113.420031,11.2487301 113.420031,12.4854017 C113.420031,13.6876358 113.796519,14.6697166 114.550668,15.4304141 C115.304818,16.1917266 116.294493,16.5723829 117.520867,16.5723829 C119.036802,16.5723829 120.217363,16.0312238 121.061377,14.9476756 L123.733205,16.8632559 C122.285402,18.8354119 120.242032,19.8211824 117.603095,19.8211824 C115.228463,19.8211824 113.368345,19.0844681 112.024502,17.6116543 C110.679484,16.1394556 110.007562,14.4151259 110.007562,12.4398951 C110.007562,11.0716235 110.334713,9.81096873 110.987252,8.6585458 C111.641553,7.50673782 112.553111,6.60152622 113.723688,5.94291098 C114.894852,5.28429574 116.204629,4.9552956 117.651845,4.9552956 Z" id="Clip-144"></path>
                    <path d="M130.198184,0 L130.198184,6.61787386 C130.857366,6.04348567 131.518299,5.61269452 132.185071,5.32550042 C132.851259,5.03830633 133.525621,4.89470928 134.208157,4.89470928 C135.540532,4.89470928 136.663301,5.36095649 137.57588,6.2934509 C138.357088,7.10125817 138.748277,8.28667249 138.748277,9.8520576 L138.748277,18.8301233 L135.430182,18.8301233 L135.430182,12.873505 C135.430182,11.3004377 135.355448,10.2349831 135.207147,9.67655009 C135.058845,9.11988993 134.806616,8.70328121 134.448708,8.42849673 C134.091384,8.15371226 133.648816,8.01602455 133.122755,8.01602455 C132.439051,8.01602455 131.85402,8.24530708 131.364743,8.70328121 C130.874882,9.16125533 130.535657,9.78528201 130.346485,10.5759522 C130.247813,10.9842878 130.198184,11.9167822 130.198184,13.3728445 L130.198184,18.8301233 L126.855567,18.8301233 L126.855567,0 L130.198184,0 Z" id="Clip-147"></path>
                    <path d="M148.010964,4.9552956 C148.815158,4.9552956 149.569783,5.11641343 150.275421,5.43680422 C150.981059,5.75719501 151.633045,6.23808868 152.231963,6.87887026 L152.231963,5.31996305 L155.596282,5.31996305 L155.596282,19.4571299 L152.231963,19.4571299 L152.231963,17.9627928 C151.575894,18.6214081 150.917493,19.0955372 150.257342,19.3857953 C149.596609,19.6754384 148.87989,19.8211824 148.10952,19.8211824 C146.377499,19.8211824 144.87933,19.1127559 143.61618,17.6965179 C142.353029,16.2802799 141.721454,14.519668 141.721454,12.414682 C141.721454,10.230982 142.332618,8.44269711 143.55553,7.04798249 C144.777275,5.65326786 146.262614,4.9552956 148.010964,4.9552956 Z M148.695608,8.23053814 C147.655812,8.23053814 146.792135,8.61795887 146.105158,9.39280032 C145.416432,10.1682567 145.07236,11.1632516 145.07236,12.375325 C145.07236,13.5972377 145.42343,14.6020717 146.123236,15.3898272 C146.823043,16.1781976 147.684388,16.5723829 148.707854,16.5723829 C149.764562,16.5723829 150.639903,16.1849621 151.336211,15.4095057 C152.032518,14.6346643 152.380088,13.618761 152.380088,12.362411 C152.380088,11.1318889 152.032518,10.1362791 151.336211,9.37373676 C150.639903,8.61180933 149.76048,8.23053814 148.695608,8.23053814 Z" id="Combined-Shape"></path>
                </g>
                <g id="Group-14" transform="translate(157.783041, 5.328962)">
                    <polygon id="Path" points="9.24549665 0 11.1059894 4.21732034 13.0584063 0 15.3073109 0 15.3073109 6.56027608 13.8158094 6.56027608 13.8158094 1.16372764 11.4788648 6.56027608 10.7318193 6.56027608 8.47255707 1.16372764 8.47255707 6.56027608 6.97846617 6.56027608 6.97846617 0"></polygon>
                    <polygon id="Path" points="6.00355244 0 6.00355244 1.14822717 3.78313138 1.14822717 3.78313138 6.56027608 2.23854694 6.56027608 2.23854694 1.14822717 1.54306974e-13 1.14822717 1.54306974e-13 0"></polygon>
                </g>
            </g>
            <path d="M37.9593163,3.55068879 C44.3088852,7.52952541 54.1518763,14.7655004 63.9616564,12.8131166 C62.6795861,15.5872235 60.4989387,20.1332896 58.8051773,22.5155271 C54.2615353,28.8974924 49.3331469,33.7866817 41.6319526,36.5398974 C33.2959894,39.5026588 23.8321051,39.1418096 17.846604,33.5372527 C12.5090309,28.5277803 9.47116352,21.9818502 9.05884571,16.2285221 C9.00269404,15.4737839 8.92177386,14.1240768 8.73348213,12.7275792 L8.69296607,12.4381609 C8.67627033,12.3232694 8.65881348,12.2083174 8.6405499,12.0936077 L8.60293359,11.864601 C8.07377407,8.74170944 6.91917601,5.95060891 4.20753193,9.67372901 C2.08954683,12.5940748 1.18094376,20.1801367 8.1189115,27.1831424 C-0.457048265,23.4208153 -1.29672283,13.4727741 1.2893495,7.91822957 C3.01569534,4.20844714 6.00844588,3.3101227 9.25184554,4.6902124 C12.7910112,6.19881505 12.0710216,11.9698691 12.9482935,16.1740782 C14.088747,21.6824087 16.9950236,26.3000116 19.5340992,28.8860971 C31.7125135,41.2575252 53.8830551,29.3697616 59.280784,15.8125959 C54.1555117,16.340612 47.7619554,13.1092429 41.3054067,9.58883729 L40.2673901,9.02110284 L39.5633953,8.63488165 C38.0383373,7.79790542 36.5158091,6.96220915 35.0116826,6.17349231 C26.8946182,1.90685001 20.7623321,5.89721275 21.4495793,11.1070452 C21.7200419,10.8628636 22.0119611,10.6379314 22.3219252,10.4318009 C24.1964887,9.17813582 26.7511758,8.60622743 29.5273567,8.75559781 C31.8611757,8.8677709 34.3633049,9.51116784 36.7540615,10.6904383 C37.5924844,11.1054206 38.3864834,11.570968 39.1191649,12.0742939 C39.0515906,12.041165 38.99653,12.0004805 38.9264528,11.976651 C34.3589251,9.71982141 29.4116043,9.45014103 25.924641,10.9537254 C25.1300163,11.2850138 24.4085972,11.7203384 23.7922938,12.2562119 C23.6196037,12.4015138 23.4569246,12.5491406 23.3030052,12.7078103 C22.9560177,13.0438155 22.6589432,13.4093255 22.4050829,13.8083848 C22.4324219,13.8583185 22.4617666,13.9083168 22.4917589,13.9583378 C23.0720116,14.9288321 23.8991537,15.8993263 24.9944904,16.817909 C29.8307652,20.8948713 46.0176856,20.9524805 52.0871542,19.4229866 C42.6715198,23.4790576 26.8693458,23.9924763 20.6983644,17.6320353 C20.1770142,17.0964592 19.7208328,16.5102376 19.3492455,15.8765359 C19.1675249,15.5663322 19.0083627,15.250431 18.8717589,14.9275659 C15.4059081,7.0971395 21.9773015,-6.46888911 37.9593163,3.55068879 Z M17.829278,17.1471675 C18.4516883,18.0266075 19.2391318,18.7867906 20.1639905,19.4538641 C20.3371068,22.8995598 22.3936207,26.1367155 26.7181603,28.5786124 C20.4738484,26.8095286 17.5591626,21.487609 17.829278,17.1471675 Z" id="Combined-Shape" fill="#83A300"></path>
        </g>
    </g>
</svg>