<?xml version="1.0" encoding="UTF-8"?>
<svg width="170px" height="90px" viewBox="0 0 170 90" version="1.1" xmlns="http://www.w3.org/2000/svg" xmlns:xlink="http://www.w3.org/1999/xlink">
    <title>Artboard Copy</title>
    <defs>
        <polygon id="path-1" points="0 4.21321671e-15 11.576903 4.21321671e-15 11.576903 11.1612397 0 11.1612397"></polygon>
        <polygon id="path-3" points="0 63.788 147.529021 63.788 147.529021 0 0 0"></polygon>
    </defs>
    <g id="Artboard-Copy" stroke="none" stroke-width="1" fill="none" fill-rule="evenodd">
        <g id="Group-29" transform="translate(13.000000, 7.000000)">
            <path d="M60.3636702,54.6124565 C60.3636702,53.8724455 60.2095013,53.7965469 59.5785944,53.7965469 L58.285947,53.7965469 C56.5462096,53.7965469 57.0075306,55.8126025 56.3149562,55.8126025 C55.9912013,55.8126025 56.0848886,55.4746167 56.1157224,55.2741971 L56.3612068,53.2415387 C56.3766237,53.0885556 56.3766237,52.8727191 56.6078772,52.8727191 C58.0404626,52.8727191 59.0710228,52.9332007 61.3183319,52.9332007 C63.5656409,52.9332007 64.5962011,52.8727191 66.0287865,52.8727191 C66.2588541,52.8727191 66.2588541,53.0885556 66.2754569,53.2415387 L66.4438568,54.6575213 C66.4758765,54.842524 66.6442765,55.442597 66.2446231,55.442597 C65.6291332,55.442597 66.1212879,53.7336934 64.3519026,53.795361 L63.0438383,53.795361 C62.4129315,53.795361 62.2587625,53.8724455 62.2587625,54.6124565 L62.2587625,61.5690343 C62.2587625,63.4617548 64.2285674,63.0158507 64.2285674,63.4475238 C64.2285674,63.8163434 63.9214154,63.7712786 63.4743255,63.7712786 C62.8588355,63.7712786 62.3512639,63.7084251 61.3195178,63.7084251 C60.2889576,63.7084251 59.7802,63.7712786 59.1647101,63.7712786 C58.887206,63.7712786 58.6263046,63.7855096 58.6263046,63.4475238 C58.6263046,62.8474508 60.3648561,63.5862758 60.3648561,61.7540371 L60.3648561,54.6124565 L60.3636702,54.6124565 Z" id="Fill-1" fill="#1D4522"></path>
            <path d="M70.4937568,56.827983 C70.4937568,57.4909095 70.4937568,57.5976419 71.1566833,57.5976419 L72.1255759,57.5976419 C73.4490572,57.5976419 73.4953078,56.1816593 73.8036458,56.1816593 C73.911564,56.1816593 74.079964,56.1508255 74.0953809,56.5670817 L74.2032991,59.3065455 C74.218716,59.5057793 74.3112174,60.0607875 73.9412119,60.0607875 C73.4490572,60.0607875 73.8795443,58.4289684 72.278559,58.4289684 L71.1400805,58.4289684 C70.4320892,58.4289684 70.4937568,58.6139711 70.4937568,59.5057793 L70.4937568,61.4767701 C70.4937568,62.4314317 70.4320892,62.9852541 71.5409198,62.9852541 C75.3583804,62.9852541 75.1425439,60.9691985 75.7272,60.9691985 C75.7888676,60.9691985 75.8967859,61.0142632 75.8967859,61.3083702 C75.8967859,62.5085162 74.9883749,63.7703299 73.7265613,63.7703299 C71.3867508,63.7703299 70.462923,63.7086623 69.6932641,63.7086623 C69.2165263,63.7086623 68.5702025,63.7703299 67.7234592,63.7703299 C67.5230395,63.7703299 67.4305381,63.6932454 67.4305381,63.600744 C67.4305381,62.8927527 68.6010363,63.7228933 68.6010363,61.8455897 L68.6010363,54.6423415 C68.6010363,53.2571927 66.8612989,53.7505334 66.8612989,53.1338576 C66.8612989,52.9951055 66.9846341,52.8729563 67.2004706,52.8729563 C67.8301915,52.8729563 68.9390221,52.9334379 71.2942495,52.9334379 C72.3864772,52.9334379 73.4490572,52.8729563 74.8033722,52.8729563 C75.0037918,52.8729563 75.1117101,53.0259393 75.1117101,53.1646914 L75.1733777,54.6885922 C75.1876086,54.887826 75.2646931,55.3965835 74.9112904,55.3965835 C74.1878822,55.3965835 75.3880283,53.5951785 72.418497,53.5951785 C70.5554244,53.5951785 70.4937568,53.6105954 70.4937568,54.6731753 L70.4937568,56.827983 Z" id="Fill-3" fill="#1D4522"></path>
            <g id="Group-7" transform="translate(76.466262, 52.626760)">
                <mask id="mask-2" fill="white">
                    <use xlink:href="#path-1"></use>
                </mask>
                <g id="Clip-6"></g>
                <path d="M6.21893865,6.52609065 C6.49644278,6.52609065 6.71227932,6.54150755 6.71227932,6.38733859 C6.71227932,6.17150205 6.61977794,6.0031021 6.54150755,5.81809935 L5.27969391,3.03238484 C5.18719253,2.90904968 5.23344322,2.90904968 5.15754466,2.90904968 C5.12671086,2.90904968 5.06504328,2.92446657 4.98677289,3.09405243 L3.80204373,5.81809935 C3.72495925,6.0031021 3.63245787,6.17268796 3.63245787,6.38733859 C3.63245787,6.54150755 3.84829442,6.52609065 4.12461263,6.52609065 L6.21893865,6.52609065 Z M3.66447758,7.35741712 C3.40239035,7.35741712 3.07982145,7.4190847 2.72523284,8.43422801 C2.61731457,8.74256593 2.40266394,9.28215728 2.40266394,9.65097687 C2.40266394,10.7586216 4.06531687,10.5131371 4.06531687,10.9282074 C4.06531687,11.2519622 3.5873931,11.144044 3.26363828,11.144044 C2.77148353,11.144044 2.30897665,11.0823764 1.81682189,11.0823764 C1.35550093,11.0823764 0.908410947,11.144044 0.462506879,11.144044 C0.246670335,11.144044 0,11.1748777 0,10.9744581 C0,10.6198695 0.785075779,10.7123709 1.17168409,9.85139652 L5.34254741,0.538405444 C5.45046568,0.291735108 5.52755016,4.21321671e-15 5.72678389,4.21321671e-15 C5.86672187,4.21321671e-15 5.89636975,0.0308337919 6.0967894,0.492154756 L10.2522358,9.91187819 C10.7443906,11.004106 11.576903,10.4040329 11.576903,10.9127905 C11.576903,11.1736918 11.4381509,11.144044 11.0218947,11.144044 C10.4680724,11.144044 10.0530021,11.0811905 9.03667286,11.0811905 C8.35951536,11.0811905 7.78909021,11.144044 7.34318614,11.144044 C7.06568201,11.144044 6.86526236,11.1736918 6.86526236,10.9590412 C6.86526236,10.5119512 7.95749015,10.6815371 7.95749015,9.74229233 C7.95749015,9.40312062 7.84957187,9.12680241 7.68117193,8.71054622 C7.17360028,7.51040016 7.0965158,7.3562312 6.69567651,7.3562312 L3.66447758,7.3562312 L3.66447758,7.35741712 Z" id="Fill-5" fill="#1D4522" mask="url(#mask-2)"></path>
            </g>
            <mask id="mask-4" fill="white">
                <use xlink:href="#path-3"></use>
            </mask>
            <g id="Clip-9"></g>
            <polygon id="Fill-8" fill="#1D4522" mask="url(#mask-4)" points="2.38131747 59.7001507 59.0467115 59.7001507 59.0467115 58.6577314 2.38131747 58.6577314"></polygon>
            <polygon id="Fill-10" fill="#1D4522" mask="url(#mask-4)" points="2.38131747 60.6927617 59.0467115 60.6927617 59.0467115 60.1875618 2.38131747 60.1875618"></polygon>
            <polygon id="Fill-11" fill="#1D4522" mask="url(#mask-4)" points="86.446212 58.6577314 86.906347 59.7001507 139.501681 59.7001507 139.501681 58.6577314"></polygon>
            <polygon id="Fill-12" fill="#1D4522" mask="url(#mask-4)" points="87.1208791 60.1870875 87.3438311 60.6922873 139.501562 60.6922873 139.501562 60.1870875"></polygon>
            <path d="M60.3636702,54.6124565 C60.3636702,53.8724455 60.2095013,53.7965469 59.5785944,53.7965469 L58.285947,53.7965469 C56.5462096,53.7965469 57.0075306,55.8126025 56.3149562,55.8126025 C55.9912013,55.8126025 56.0848886,55.4746167 56.1157224,55.2741971 L56.3612068,53.2415387 C56.3766237,53.0885556 56.3766237,52.8727191 56.6078772,52.8727191 C58.0404626,52.8727191 59.0710228,52.9332007 61.3183319,52.9332007 C63.5656409,52.9332007 64.5962011,52.8727191 66.0287865,52.8727191 C66.2588541,52.8727191 66.2588541,53.0885556 66.2754569,53.2415387 L66.4438568,54.6575213 C66.4758765,54.842524 66.6442765,55.442597 66.2446231,55.442597 C65.6291332,55.442597 66.1212879,53.7336934 64.3519026,53.795361 L63.0438383,53.795361 C62.4129315,53.795361 62.2587625,53.8724455 62.2587625,54.6124565 L62.2587625,61.5690343 C62.2587625,63.4617548 64.2285674,63.0158507 64.2285674,63.4475238 C64.2285674,63.8163434 63.9214154,63.7712786 63.4743255,63.7712786 C62.8588355,63.7712786 62.3512639,63.7084251 61.3195178,63.7084251 C60.2889576,63.7084251 59.7802,63.7712786 59.1647101,63.7712786 C58.887206,63.7712786 58.6263046,63.7855096 58.6263046,63.4475238 C58.6263046,62.8474508 60.3648561,63.5862758 60.3648561,61.7540371 L60.3648561,54.6124565 L60.3636702,54.6124565 Z" id="Fill-13" fill="#1D4522" mask="url(#mask-4)"></path>
            <path d="M70.4937568,56.827983 C70.4937568,57.4909095 70.4937568,57.5976419 71.1566833,57.5976419 L72.1255759,57.5976419 C73.4490572,57.5976419 73.4953078,56.1816593 73.8036458,56.1816593 C73.911564,56.1816593 74.079964,56.1508255 74.0953809,56.5670817 L74.2032991,59.3065455 C74.218716,59.5057793 74.3112174,60.0607875 73.9412119,60.0607875 C73.4490572,60.0607875 73.8795443,58.4289684 72.278559,58.4289684 L71.1400805,58.4289684 C70.4320892,58.4289684 70.4937568,58.6139711 70.4937568,59.5057793 L70.4937568,61.4767701 C70.4937568,62.4314317 70.4320892,62.9852541 71.5409198,62.9852541 C75.3583804,62.9852541 75.1425439,60.9691985 75.7272,60.9691985 C75.7888676,60.9691985 75.8967859,61.0142632 75.8967859,61.3083702 C75.8967859,62.5085162 74.9883749,63.7703299 73.7265613,63.7703299 C71.3867508,63.7703299 70.462923,63.7086623 69.6932641,63.7086623 C69.2165263,63.7086623 68.5702025,63.7703299 67.7234592,63.7703299 C67.5230395,63.7703299 67.4305381,63.6932454 67.4305381,63.600744 C67.4305381,62.8927527 68.6010363,63.7228933 68.6010363,61.8455897 L68.6010363,54.6423415 C68.6010363,53.2571927 66.8612989,53.7505334 66.8612989,53.1338576 C66.8612989,52.9951055 66.9846341,52.8729563 67.2004706,52.8729563 C67.8301915,52.8729563 68.9390221,52.9334379 71.2942495,52.9334379 C72.3864772,52.9334379 73.4490572,52.8729563 74.8033722,52.8729563 C75.0037918,52.8729563 75.1117101,53.0259393 75.1117101,53.1646914 L75.1733777,54.6885922 C75.1876086,54.887826 75.2646931,55.3965835 74.9112904,55.3965835 C74.1878822,55.3965835 75.3880283,53.5951785 72.418497,53.5951785 C70.5554244,53.5951785 70.4937568,53.6105954 70.4937568,54.6731753 L70.4937568,56.827983 Z" id="Fill-14" fill="#1D4522" mask="url(#mask-4)"></path>
            <path d="M82.6852009,59.1528509 C82.9627051,59.1528509 83.1785416,59.1682678 83.1785416,59.0140989 C83.1785416,58.7982623 83.0860402,58.6298624 83.0077698,58.4448596 L81.7459562,55.6591451 C81.6534548,55.53581 81.6997055,55.53581 81.6238069,55.53581 C81.5929731,55.53581 81.5313056,55.5512269 81.4530352,55.7208127 L80.268306,58.4448596 C80.1912215,58.6298624 80.0987202,58.7994482 80.0987202,59.0140989 C80.0987202,59.1682678 80.3145567,59.1528509 80.5908749,59.1528509 L82.6852009,59.1528509 Z M80.1307399,59.9841774 C79.8686526,59.9841774 79.5460837,60.045845 79.1914951,61.0609883 C79.0835768,61.3693262 78.8689262,61.9089176 78.8689262,62.2777372 C78.8689262,63.3853818 80.5315792,63.1398974 80.5315792,63.5549677 C80.5315792,63.8787225 80.0536554,63.7708042 79.7299006,63.7708042 C79.2377458,63.7708042 78.7752389,63.7091366 78.2830842,63.7091366 C77.8217632,63.7091366 77.3746732,63.7708042 76.9287692,63.7708042 C76.7129326,63.7708042 76.4662623,63.801638 76.4662623,63.6012184 C76.4662623,63.2466298 77.2513381,63.3391311 77.6379464,62.4781568 L81.8088097,53.1651657 C81.916728,52.9184954 81.9938124,52.6267603 82.1930462,52.6267603 C82.3329842,52.6267603 82.362632,52.6575941 82.5630517,53.118915 L86.7184981,62.5386385 C87.2106529,63.6308663 88.0431652,63.0307932 88.0431652,63.5395508 C88.0431652,63.8004521 87.9044132,63.7708042 87.488157,63.7708042 C86.9343346,63.7708042 86.5192644,63.7079507 85.5029351,63.7079507 C84.8257776,63.7079507 84.2553525,63.7708042 83.8094484,63.7708042 C83.5319443,63.7708042 83.3315246,63.8004521 83.3315246,63.5858015 C83.3315246,63.1387115 84.4237524,63.3082974 84.4237524,62.3690526 C84.4237524,62.0298809 84.3158342,61.7535627 84.1474342,61.3373065 C83.6398626,60.1371604 83.5627781,59.9829915 83.1619388,59.9829915 L80.1307399,59.9829915 L80.1307399,59.9841774 Z" id="Fill-15" fill="#1D4522" mask="url(#mask-4)"></path>
            <path d="M72.7167546,25.8453588 C72.795025,25.6484969 72.7973968,25.5725983 72.9527517,25.4006406 C73.0108615,25.3354153 73.1472418,25.269004 73.3583346,25.1338097 C74.9095116,24.6048916 76.3670012,24.1637312 77.0168827,24.1269678 C78.7044398,24.0415819 80.3967406,24.3985424 81.7142923,24.8432605 C83.0259143,25.2879787 87.275048,25.6959335 89.1831854,25.3781082 C92.3780406,24.8432605 94.1225217,24.3084128 96.93907,22.6149261 C99.033396,21.3625998 102.010043,19.2765752 102.010043,19.2765752 C102.010043,19.2765752 98.9124327,17.6744039 93.4121585,17.2332435 C87.9130704,16.7861535 86.0345809,18.0349221 84.3422801,19.0986879 C82.653537,20.1671974 81.4273008,21.1930139 79.4574959,21.8215489 C77.486505,22.4394107 75.1348354,23.1936527 74.205078,23.4284638 C72.6681321,23.817444 67.1014467,25.8228264 67.1014467,25.8228264 L72.7167546,25.8453588 Z" id="Fill-16" fill="#9ACA67" mask="url(#mask-4)"></path>
            <path d="M114.798239,0.314504678 C114.798239,0.314504678 105.970288,-0.393486622 103.379063,0.314504678 C100.789025,1.02842555 99.2817266,2.58316021 97.6949722,5.26095645 C96.8458571,6.68168271 96.4687361,9.61682252 96.4687361,9.61682252 C96.4687361,9.61682252 99.6624054,6.8619418 102.296323,5.17319874 C106.328434,2.57960247 107.985157,1.91786186 109.76996,1.38775782 C111.270142,0.939481922 114.798239,0.314504678 114.798239,0.314504678" id="Fill-17" fill="#9ACA67" mask="url(#mask-4)"></path>
            <path d="M98.7251767,1.29430771 C98.7251767,1.29430771 91.8172214,2.49919743 89.4643659,6.68191989 C87.1186258,10.8646424 87.0225667,11.7564505 86.9312341,15.9866096 C86.9241358,16.1858433 89.1346815,14.7888353 91.5337877,12.9589684 C93.9317079,11.1302873 95.0606991,10.1519074 95.5315074,8.54855022 C96.0011297,6.95112261 96.3770648,5.5730893 96.8466872,4.3693855 C97.3151236,3.15975212 98.7251767,1.29430771 98.7251767,1.29430771" id="Fill-18" fill="#9ACA67" mask="url(#mask-4)"></path>
            <path d="M88.3379837,5.70448869 C88.3379837,5.70448869 82.8021322,8.9230622 80.4907837,12.2471822 C77.9552972,15.8974287 77.2947426,21.4617423 77.2947426,21.4617423 C77.2947426,21.7273873 80.3034091,20.3446103 82.3704591,19.0982135 C84.4363231,17.8518168 85.7111818,16.0705724 85.8036832,15.0068065 C85.8961846,13.9359252 86.2744915,10.5086307 86.6468688,9.53143663 C87.0228039,8.54831304 88.3379837,5.70448869 88.3379837,5.70448869" id="Fill-19" fill="#9ACA67" mask="url(#mask-4)"></path>
            <path d="M88.2459567,16.5155277 C88.2459567,16.5155277 91.7206879,15.9866096 94.3984841,16.3423841 C97.0845818,16.6969727 99.2856401,17.2318204 100.696879,17.5887808 C102.10456,17.9445554 102.909797,17.5887808 104.507224,16.2534405 C106.105838,14.9181001 108.923572,10.7745128 108.923572,10.7745128 C108.923572,10.7745128 106.626454,10.3297947 104.31985,10.2432229 C102.009687,10.1519074 99.8074428,10.1910426 96.9399001,11.1302873 C94.0664279,12.0730898 90.8751304,14.3832524 90.5916967,14.6500833 C90.3130067,14.9181001 88.2459567,16.5155277 88.2459567,16.5155277" id="Fill-20" fill="#9ACA67" mask="url(#mask-4)"></path>
            <path d="M98.2561473,9.70635911 C98.2561473,9.70635911 101.114203,9.17269732 103.046058,9.26164095 C104.976728,9.34939867 107.971164,9.68738446 108.829766,9.26164095 C110.989317,8.19787513 112.053083,5.84976329 113.390795,4.27961173 C114.798477,2.63000386 118.088205,1.11796214 118.088205,1.11796214 C117.99096,1.11796214 114.798477,1.29466349 114.798477,1.29466349 C114.798477,1.29466349 113.898367,1.23773956 110.333506,2.27660117 C107.891707,2.98577838 104.976728,4.63538625 102.202873,6.59214612 C101.250583,7.26218814 98.2561473,9.70635911 98.2561473,9.70635911" id="Fill-21" fill="#9ACA67" mask="url(#mask-4)"></path>
            <path d="M0.176701346,43.2432073 C0.0592957537,42.6953145 -0.332056221,41.5603938 0.646323715,41.5603938 C1.27248687,41.5603938 1.35075727,41.9126105 1.50729806,42.4213681 C2.75962438,46.1783471 5.18719253,49.7408359 9.53119945,49.7408359 C12.5837449,49.7408359 14.9330426,47.8623465 14.9330426,44.7303448 C14.9330426,41.4026671 12.4663393,40.8950954 6.16438655,38.1153105 C2.79875957,36.628173 0.489782926,35.1019003 0.489782926,30.9915186 C0.489782926,26.4909709 3.62059872,23.2024284 8.20060274,23.2024284 C11.4096889,23.2024284 13.0545531,24.729887 14.2286091,24.729887 C14.7373666,24.729887 15.7157466,24.1037239 16.2245041,24.1037239 C16.8115321,24.1037239 16.6941265,24.6895659 16.7723969,25.5908614 L17.2028841,30.8361638 C17.2811545,31.6971381 17.1637489,32.1655746 16.3027745,32.1655746 C15.402665,32.1655746 14.815637,24.8864278 8.08319714,24.8864278 C5.50027411,24.8864278 3.73800431,26.3723794 3.73800431,28.9956236 C3.73800431,31.6176818 5.89044017,32.1264394 11.1357425,34.4366019 C15.3232087,36.2759562 17.9073176,37.9587697 17.9073176,42.9301257 C17.9073176,48.0568365 14.3068795,51.541055 9.17898267,51.541055 C6.79173563,51.541055 4.79584056,50.6018103 2.52481319,50.0918668 C1.54643326,49.8582415 1.58556845,49.543974 1.38989247,48.6047293 L0.176701346,43.2432073 Z" id="Fill-22" fill="#1D4522" mask="url(#mask-4)"></path>
            <path d="M26.4480408,36.9314115 C26.4480408,38.2952138 26.4480408,38.5169799 27.8118431,38.5169799 L29.8089241,38.5169799 C32.5377147,38.5169799 32.6325879,35.5996288 33.2670525,35.5996288 C33.4888186,35.5996288 33.8386635,35.5355894 33.8694973,36.3918201 L34.0924494,42.0391477 C34.1244691,42.4506602 34.3142155,43.5926964 33.552858,43.5926964 C32.5389006,43.5926964 33.4259651,40.2306272 30.1267494,40.2306272 L27.7798234,40.2306272 C26.319962,40.2306272 26.4480408,40.6124918 26.4480408,42.4506602 L26.4480408,46.5112334 C26.4480408,48.4774806 26.3211479,49.6195168 28.6040344,49.6195168 C36.471395,49.6195168 36.0266768,45.4640704 37.2327525,45.4640704 C37.3596454,45.4640704 37.5814115,45.5589436 37.5814115,46.1625744 C37.5814115,48.6363932 35.7100375,51.237105 33.1093258,51.237105 C28.2873951,51.237105 26.3840014,51.1102121 24.7984329,51.1102121 C23.8153093,51.1102121 22.4835267,51.237105 20.7390456,51.237105 C20.3263472,51.237105 20.1354149,51.0793783 20.1354149,50.888446 C20.1354149,49.4285845 22.5463802,51.1422318 22.5463802,47.271405 L22.5463802,32.4284919 C22.5463802,29.5728084 18.9613589,30.5879517 18.9613589,29.3202085 C18.9613589,29.034403 19.2151448,28.7794312 19.658677,28.7794312 C20.9608117,28.7794312 23.2436983,28.9063242 28.0964628,28.9063242 C30.3485155,28.9063242 32.5365288,28.7794312 35.3281729,28.7794312 C35.7396854,28.7794312 35.9626374,29.0972565 35.9626374,29.383062 L36.0895303,32.5221792 C36.1215501,32.9348777 36.2804627,33.9820407 35.549939,33.9820407 C34.0592437,33.9820407 36.5330626,30.2713124 30.411369,30.2713124 C26.5725619,30.2713124 26.4468549,30.3021462 26.4468549,32.4913454 L26.4468549,36.9314115 L26.4480408,36.9314115 Z" id="Fill-23" fill="#1D4522" mask="url(#mask-4)"></path>
            <path d="M45.2247528,36.9314115 C45.2247528,38.2952138 45.2247528,38.5169799 46.5885551,38.5169799 L48.5856361,38.5169799 C51.3144267,38.5169799 51.4092999,35.5996288 52.0437644,35.5996288 C52.2655305,35.5996288 52.6141896,35.5355894 52.6462093,36.3918201 L52.8691613,42.0391477 C52.901181,42.4506602 53.0909274,43.5926964 52.32957,43.5926964 C51.3156126,43.5926964 52.2026771,40.2306272 48.9046472,40.2306272 L46.5565354,40.2306272 C45.0966739,40.2306272 45.2247528,40.6124918 45.2247528,42.4506602 L45.2247528,46.5112334 C45.2247528,48.4774806 45.0978598,49.6195168 47.3807464,49.6195168 C55.248107,49.6195168 54.8033888,45.4640704 56.0094644,45.4640704 C56.1363574,45.4640704 56.3581235,45.5589436 56.3581235,46.1625744 C56.3581235,48.6363932 54.4867495,51.237105 51.8860377,51.237105 C47.064107,51.237105 45.1607133,51.1102121 43.5751449,51.1102121 C42.5920213,51.1102121 41.2602387,51.237105 39.5157576,51.237105 C39.1018732,51.237105 38.9121268,51.0793783 38.9121268,50.888446 C38.9121268,49.4285845 41.3230922,51.1422318 41.3230922,47.271405 L41.3230922,32.4284919 C41.3230922,29.5728084 37.7380709,30.5879517 37.7380709,29.3202085 C37.7380709,29.034403 37.9918567,28.7794312 38.435389,28.7794312 C39.7375237,28.7794312 42.0204102,28.9063242 46.8731747,28.9063242 C49.1252274,28.9063242 51.3132407,28.7794312 54.1048848,28.7794312 C54.5163974,28.7794312 54.7393494,29.0972565 54.7393494,29.383062 L54.8662423,32.5221792 C54.898262,32.9348777 55.0571746,33.9820407 54.3266509,33.9820407 C52.8359557,33.9820407 55.3097745,30.2713124 49.1880809,30.2713124 C45.3492738,30.2713124 45.2235668,30.3021462 45.2235668,32.4913454 L45.2235668,36.9314115 L45.2247528,36.9314115 Z" id="Fill-24" fill="#1D4522" mask="url(#mask-4)"></path>
            <path d="M64.2543018,46.5108777 C64.2543018,48.4771248 64.1285948,49.6191611 66.4114813,49.6191611 C74.2788419,49.6191611 73.8341238,45.4637146 75.0390135,45.4637146 C75.1659064,45.4637146 75.3876725,45.5585878 75.3876725,46.1622186 C75.3876725,48.6360375 73.5174845,51.2367492 70.9155868,51.2367492 C66.094842,51.2367492 64.1914483,51.1098563 62.6046939,51.1098563 C61.6215703,51.1098563 60.2897877,51.2367492 58.5453066,51.2367492 C58.1326082,51.2367492 57.9428618,51.0790225 57.9428618,50.8869043 C57.9428618,49.4282287 60.3526412,51.141876 60.3526412,47.2710492 L60.3526412,32.2692235 C60.3526412,29.5724527 56.7688059,30.4286833 56.7688059,29.3198527 C56.7688059,29.0340472 57.1174649,28.7802614 57.7827632,28.7802614 C59.0516924,28.7802614 60.8922326,28.9071543 62.0971223,28.9071543 C64.7938932,28.9071543 65.173386,28.7802614 65.6809576,28.7802614 C66.3474419,28.7802614 66.5063545,28.8122811 66.5063545,29.1929598 C66.5063545,30.3978495 64.2543018,29.2237936 64.2543018,31.6359449 L64.2543018,46.5108777 Z" id="Fill-25" fill="#1D4522" mask="url(#mask-4)"></path>
            <path d="M83.0946974,36.9314115 C83.0946974,38.2952138 83.0946974,38.5169799 84.4584997,38.5169799 L86.4567666,38.5169799 C89.1843713,38.5169799 89.2804304,35.5996288 89.9137091,35.5996288 C90.1366611,35.5996288 90.4853201,35.5355894 90.5173399,36.3918201 L90.739106,42.0391477 C90.7711257,42.4506602 90.9608721,43.5926964 90.1995146,43.5926964 C89.1855572,43.5926964 90.0726217,40.2306272 86.773406,40.2306272 L84.42648,40.2306272 C82.9678045,40.2306272 83.0946974,40.6124918 83.0946974,42.4506602 L83.0946974,46.5112334 C83.0946974,48.4774806 82.9678045,49.6195168 85.250691,49.6195168 C93.1180516,49.6195168 92.6745194,45.4640704 93.8794091,45.4640704 C94.006302,45.4640704 94.2280681,45.5589436 94.2280681,46.1625744 C94.2280681,48.6363932 92.3566941,51.237105 89.7559824,51.237105 C84.9340517,51.237105 83.030658,51.1102121 81.4450895,51.1102121 C80.4619659,51.1102121 79.1301833,51.237105 77.3857022,51.237105 C76.9730038,51.237105 76.7832574,51.0793783 76.7832574,50.888446 C76.7832574,49.4285845 79.1930368,51.1422318 79.1930368,47.271405 L79.1930368,32.4284919 C79.1930368,29.5728084 75.6092015,30.5879517 75.6092015,29.3202085 C75.6092015,29.034403 75.8618014,28.7794312 76.3053336,28.7794312 C77.6074684,28.7794312 79.8903549,28.9063242 84.7431194,28.9063242 C86.9951721,28.9063242 89.1843713,28.7794312 91.9748295,28.7794312 C92.386342,28.7794312 92.609294,29.0972565 92.609294,29.383062 L92.736187,32.5221792 C92.7682067,32.9348777 92.9271193,33.9820407 92.1965956,33.9820407 C90.7059003,33.9820407 93.1809051,30.2713124 87.0580256,30.2713124 C83.2192185,30.2713124 83.0935115,30.3021462 83.0935115,32.4913454 L83.0935115,36.9314115 L83.0946974,36.9314115 Z" id="Fill-26" fill="#1D4522" mask="url(#mask-4)"></path>
            <path d="M116.049498,35.5996288 C116.081518,35.9162682 116.208411,36.6456059 115.667634,36.6456059 C115.160062,36.6456059 114.938296,35.9791217 114.71653,35.5676091 C113.130961,32.5221792 110.339317,29.7637408 106.660609,29.7637408 C101.996405,29.7637408 99.4277128,34.2038068 99.4277128,38.4541264 C99.4277128,42.9262122 101.965571,49.2068184 108.023225,49.2068184 C112.940029,49.2068184 115.097209,45.051372 115.922606,45.051372 C116.080332,45.051372 116.366138,45.2102846 116.366138,45.400031 C116.366138,46.6689601 113.004069,51.4588711 106.246724,51.4588711 C96.952708,51.4588711 95.5260522,43.3389106 95.5260522,40.8330721 C95.5260522,35.5035697 98.7932482,28.4936257 106.78513,28.4936257 C110.623937,28.4936257 113.065736,30.4290391 114.018026,30.4290391 C114.620471,30.4290391 114.65249,29.3818761 115.096023,29.3818761 C115.254935,29.3818761 115.477887,29.4138958 115.477887,29.5716225 L116.049498,35.5996288 Z" id="Fill-27" fill="#1D4522" mask="url(#mask-4)"></path>
            <path d="M129.374915,27.9779898 C129.374915,26.0995004 128.983563,25.9038244 127.37902,25.9038244 L124.090477,25.9038244 C119.6682,25.9038244 120.842256,31.0317211 119.081172,31.0317211 C118.258147,31.0317211 118.492958,30.1707468 118.572414,29.6608033 L119.197391,24.4949573 C119.236527,24.1036053 119.236527,23.5557125 119.823555,23.5557125 C123.464314,23.5557125 126.086372,23.7122533 131.801297,23.7122533 C137.516222,23.7122533 140.13828,23.5557125 143.779039,23.5557125 C144.366067,23.5557125 144.366067,24.1036053 144.404016,24.4949573 L144.835689,28.0965813 C144.91396,28.5662037 145.344447,30.0924764 144.325746,30.0924764 C142.760338,30.0924764 144.012664,25.7472836 139.512117,25.9038244 L136.184439,25.9038244 C134.579896,25.9038244 134.188544,26.1006863 134.188544,27.9779898 L134.188544,45.6694709 C134.188544,50.4842861 139.199035,49.3493654 139.199035,50.4463368 C139.199035,51.3843956 138.416331,51.268176 137.28141,51.268176 C135.714817,51.268176 134.423355,51.1104493 131.801297,51.1104493 C129.178053,51.1104493 127.887777,51.268176 126.321183,51.268176 C125.61675,51.268176 124.951451,51.3061253 124.951451,50.4463368 C124.951451,48.9188782 129.374915,50.7985536 129.374915,46.1402792 L129.374915,27.9779898 Z" id="Fill-28" fill="#1D4522" mask="url(#mask-4)"></path>
            <text id="®" mask="url(#mask-4)" font-family="Arial-BoldMT, Arial" font-size="7.3597" font-weight="bold" fill="#1D4522">
                <tspan x="140.62237" y="52.2509579">®</tspan>
            </text>
        </g>
    </g>
</svg>