<?xml version="1.0" encoding="UTF-8"?>
<svg width="250px" height="90px" viewBox="0 0 250 90" version="1.1" xmlns="http://www.w3.org/2000/svg" xmlns:xlink="http://www.w3.org/1999/xlink">
    <title>Artboard</title>
    <defs>
        <polygon id="path-1" points="4.30163024e-14 0 11.4276104 0 11.4276104 18.5939346 4.30163024e-14 18.5939346"></polygon>
        <polygon id="path-3" points="0 -5.3770378e-15 13.0622755 -5.3770378e-15 13.0622755 36.4551452 0 36.4551452"></polygon>
    </defs>
    <g id="Artboard" stroke="none" stroke-width="1" fill="none" fill-rule="evenodd">
        <g id="Natures-Flavors" transform="translate(13.000000, 13.000000)">
            <g id="Group" transform="translate(189.786384, 0.000000)">
                <g id="Group-3" transform="translate(19.893676, 0.000000)">
                    <mask id="mask-2" fill="white">
                        <use xlink:href="#path-1"></use>
                    </mask>
                    <g id="Clip-2"></g>
                    <path d="M3.97825451,18.5939346 C3.97825451,18.5939346 -2.3795873,10.1970278 0.979629481,7.437536 C4.33884626,4.6784226 7.57698291,3.23908259 7.33747128,-0.000189187699 C8.17708629,1.5594742 13.4554231,7.437536 10.5763647,12.5955494 C7.69768466,17.7539412 3.97825451,18.5939346 3.97825451,18.5939346" id="Fill-1" fill="#A71E22" mask="url(#mask-2)"></path>
                </g>
                <path d="M21.8330172,18.5939346 C21.8330172,18.5939346 16.1952238,8.51741938 12.836007,9.29725108 C9.4767902,10.0774611 5.8780618,12.7158728 3.83861841,13.0760862 C1.79955339,13.4366779 0,13.0760862 0,13.0760862 C0,13.0760862 5.63741505,21.4733714 10.9157518,22.1934198 C16.194467,22.9119546 21.8330172,18.5939346 21.8330172,18.5939346" id="Fill-4" fill="#721011"></path>
                <path d="M22.4622555,19.5312083 C22.4622555,19.5312083 26.6308172,23.9926326 26.6308172,26.8709343 C26.6308172,29.7496143 23.8713255,31.189711 22.5519304,32.8693194 C21.2329138,34.5485494 19.993356,36.1085912 19.8934649,37.3072845 C18.9535804,35.6276761 14.9953954,28.5505426 16.914137,25.3116492 C18.833257,22.0723775 22.4622555,19.5312083 22.4622555,19.5312083" id="Fill-6" fill="#A71E22"></path>
                <path d="M24.5311365,19.6433588 C24.5311365,19.6433588 28.7901299,16.4347354 32.268535,17.8740754 C35.7473184,19.3134154 37.5464934,21.8322604 38.9858334,23.5118688 C37.18628,23.2716004 35.387105,23.8717038 33.58793,24.9512088 C31.788755,26.0307138 28.2819718,25.8078507 24.5311365,19.6433588" id="Fill-8" fill="#721011"></path>
                <path d="M20.0778472,13.8627665 C20.1069821,13.9793061 18.82883,6.84692984 16.7878731,7.43908734 C14.4147027,8.6192402 20.0778472,13.8627665 20.0778472,13.8627665" id="Fill-10" fill="#6F0F10"></path>
                <path d="M17.1376812,7.88413248 C17.1376812,7.88413248 16.9541691,4.80869725 18.3008072,3.79540794" id="Stroke-12" stroke="#6F0F10" stroke-width="0.995" stroke-linecap="round"></path>
                <path d="M16.7001657,7.92756998 C16.7001657,7.92756998 13.9652684,6.50866224 12.4918746,7.32633147" id="Stroke-14" stroke="#6F0F10" stroke-width="0.995" stroke-linecap="round"></path>
            </g>
            <path d="M18.0995871,17.3093501 C17.4737542,17.3093501 17.061325,17.4947541 16.8619212,17.8644268 C16.5206266,18.4338818 16.3496009,22.9444949 16.3496009,31.3958878 L16.3496009,35.4085589 C16.3496009,40.644896 16.4634919,46.1805281 16.6912739,52.0139416 L12.5499552,52.0139416 C10.0746233,41.5412673 7.18572717,31.5665351 3.88440183,22.0897449 C3.82726715,24.5942116 3.79888899,27.7532678 3.79888899,31.5665351 C3.79888899,43.0929848 3.96991467,49.1394237 4.31120928,49.7088787 C4.53861289,50.1073079 5.06531145,50.2779553 5.89092656,50.2204422 L5.89092656,52.0139416 L0,52.0139416 L0,50.2204422 L0.426807448,50.2204422 C1.05264036,50.2204422 1.46620467,50.0505516 1.66485175,49.7088787 C1.92101189,49.2533147 2.04928115,42.935959 2.04928115,30.7552982 C2.04928115,22.6164434 1.92820103,18.3268016 1.68679752,17.8852375 C1.44501564,17.4444301 0.882749802,17.2665937 0.000756750795,17.3521065 L0.000756750795,15.5589855 L6.01995257,15.5589855 C8.63793195,25.3763136 11.4549368,34.6260786 14.4721022,43.3063886 C14.5572367,38.7522623 14.5999931,34.5689439 14.5999931,30.7552982 C14.5999931,22.6164434 14.4792913,18.3268016 14.2375095,17.8852375 C13.9957276,17.4444301 13.4334617,17.2665937 12.5514687,17.3521065 L12.5514687,15.5589855 L18.4427736,15.5589855 L18.4427736,17.3521065 C18.2986126,17.3237284 18.1851,17.3093501 18.0995871,17.3093501" id="Fill-16" fill="#721011"></path>
            <path d="M28.6104321,33.6160811 C28.0409771,34.4704528 27.365577,35.1602311 26.5827183,35.6865513 C25.7998596,36.2121147 25.0249468,36.7316241 24.2564664,37.2443228 C23.6022553,37.7850212 23.2749606,38.6386361 23.2749606,39.8051675 C23.2749606,41.3705065 24.2144667,42.1533652 26.0923438,42.1533652 C26.8316893,42.1533652 27.4514682,41.8828268 27.9490319,41.3421284 C28.4469739,40.8014299 28.6959449,40.1612187 28.6959449,39.4218732 C28.6959449,37.4861047 28.66681,35.5514713 28.6104321,33.6160811 M34.5437367,44.1167551 C33.9742817,44.6862101 33.2489361,44.9707484 32.366943,44.9707484 C30.9726297,44.9707484 29.9479891,44.3301589 29.2930213,43.0501149 C27.6993041,44.3017807 26.1343435,44.9283704 24.5973826,44.9283704 C20.8408716,44.9283704 18.9622378,43.3206533 18.9622378,40.1048408 C18.9622378,38.5398802 19.6452054,37.3445923 21.0115189,36.5193555 C22.3486976,35.9502789 23.686633,35.3664457 25.02419,34.7686126 C26.5040162,34.0580236 27.6705476,33.1752738 28.5241625,32.122255 C28.4674062,30.4714032 28.3391369,29.3760064 28.1401114,28.835308 C27.7420605,27.6971548 26.9308237,27.1284565 25.7071576,27.1284565 C24.028306,27.1284565 23.1890694,27.5117508 23.1890694,28.280988 C24.3552223,28.7081738 24.9386772,29.618545 24.9386772,31.0128584 C24.9386772,31.7525823 24.6968953,32.4075501 24.2137099,32.9762483 C23.7293894,33.5457033 23.1319347,33.8298632 22.4205889,33.8298632 C21.680865,33.8298632 21.0686536,33.5604599 20.5854683,33.0197615 C20.1011477,32.479063 19.8593659,31.8380951 19.8593659,31.0983712 C19.8593659,29.3911414 20.4000643,28.0040172 21.4818396,26.9369986 C22.5632365,25.8692232 23.9719281,25.3360923 25.7079144,25.3360923 C27.956221,25.3360923 29.6498293,26.1753289 30.7879825,27.8541806 C31.812623,29.2768721 32.3249433,31.1691274 32.3249433,33.5317034 L32.3249433,34.2786164 L32.3249433,35.0259078 C32.3249433,35.7940099 32.3393216,36.9397306 32.3676998,38.4615565 C32.3956995,39.9841391 32.4100778,41.1302381 32.4100778,41.8979618 C32.4100778,42.4677952 32.6522381,42.7519551 33.1354234,42.7519551 C33.5054746,42.7519551 33.7192567,42.4530385 33.7756346,41.8559621 L33.7756346,40.532405 L35.3981083,40.532405 L35.3981083,41.9842314 C35.3973516,42.8367112 35.1131916,43.5480569 34.5437367,44.1167551" id="Fill-18" fill="#721011"></path>
            <path d="M46.01903,48.1081615 C45.2505496,48.9197768 44.453691,49.3253952 43.6280759,49.3253952 C41.6075513,49.3253952 40.0425906,48.3722676 38.9324372,46.4656339 C38.022066,44.8715384 37.5661237,42.9932829 37.5661237,40.8308675 C37.5661237,39.9193612 37.5873127,38.5606151 37.6300691,36.7534942 C37.6724471,34.9467517 37.6936362,33.5876273 37.6936362,32.6768777 C37.6936362,30.9976477 37.6508798,29.2760396 37.5653669,27.5112968 L35.4309513,27.5112968 L35.4309513,25.7181758 C36.3417009,25.7181758 37.2093157,25.1914772 38.0349308,24.1380801 C38.6891418,23.3136001 39.1878406,22.374094 39.5287568,21.3214536 C39.8704298,20.2684349 40.0410771,19.1726598 40.0410771,18.0345066 L41.5352816,18.0345066 L41.5352816,25.7181758 L44.7794722,25.7181758 L44.7794722,27.5112968 L41.5352816,27.5112968 C41.3366345,30.2719237 41.236365,34.5123768 41.236365,40.2322776 C41.236365,42.2244241 41.3074996,43.6478724 41.4501471,44.5011089 C41.7914417,46.5216335 42.5175441,47.5318958 43.6265624,47.5318958 C44.081748,47.5318958 44.5588794,47.332492 45.0571998,46.9336843 C45.5551418,46.535255 45.8184911,46.1080692 45.8468692,45.653262 L47.2131828,45.653262 C47.1863181,46.4792554 46.7875105,47.2976814 46.01903,48.1081615" id="Fill-20" fill="#721011"></path>
            <path d="M63.4892617,27.5114481 C62.6356468,27.48307 62.208461,27.8818776 62.208461,28.706736 C62.208461,29.7593764 62.1940827,31.3390936 62.1657045,33.4451311 L62.1657045,38.1835262 C62.1657045,40.2320506 61.5470608,41.8117679 60.3090165,42.9222997 C59.0705938,44.031318 57.4273094,44.5871514 55.378785,44.5871514 C53.3011257,44.5871514 51.6650305,44.031318 50.4693642,42.9222997 C49.2740764,41.8117679 48.6766216,40.2320506 48.6766216,38.1835262 L48.6766216,37.0733728 C48.7046214,36.5901874 48.7189997,36.2197579 48.7189997,35.9643545 C48.7189997,35.1663608 48.7046214,33.9582081 48.6766216,32.3349777 C48.6474867,30.7132607 48.6334868,29.5035946 48.6334868,28.706736 C48.6334868,28.137281 48.4628395,27.7819865 48.1211665,27.6385823 C47.9221411,27.5538262 47.5093335,27.5106914 46.8831222,27.5106914 L46.8831222,25.7175704 L54.5247918,25.7175704 L54.5247918,27.5106914 L53.927337,27.5106914 C53.2159913,27.5106914 52.8171836,27.909499 52.7316708,28.7059793 C52.6181581,29.5879723 52.5610234,31.5804971 52.5610234,34.6824187 C52.5610234,36.9874816 52.6181581,38.6954681 52.7316708,39.8044864 C52.958696,41.7966329 53.8554457,42.7932737 55.4207847,42.7932737 C56.9861237,42.7932737 57.8681168,41.7966329 58.0671422,39.8044864 C58.1814116,38.6379551 58.2377895,36.916347 58.2377895,34.6392839 C58.2377895,31.5941187 58.1950331,29.6163505 58.1098987,28.7059793 C58.0243858,28.1081461 57.8389819,27.7377166 57.5548219,27.5962042 C57.4121744,27.5394479 56.9997452,27.5106914 56.3163993,27.5106914 L56.3163993,25.7175704 L63.9584472,25.7175704 L63.9584472,27.5106914 L63.4892617,27.5106914 L63.4892617,27.5114481 Z" id="Fill-22" fill="#721011"></path>
            <path d="M79.0353142,33.0189669 C78.5377505,33.5596653 77.9323499,33.829447 77.2213825,33.829447 C76.4525237,33.829447 75.8414475,33.5452871 75.3858835,32.9754537 C74.9306979,32.4067555 74.7029159,31.7090313 74.7029159,30.8834162 C74.7029159,30.2012053 74.8811307,29.5961831 75.2368036,29.0694845 C75.5920981,28.5424076 76.0972292,28.279815 76.752197,28.279815 C76.752197,27.5113346 76.1974987,27.1272836 75.0869669,27.1272836 C73.7781664,27.1272836 72.8390387,28.2506801 72.2692053,30.4993651 C71.9279107,31.8936785 71.756885,33.5445303 71.756885,35.451164 C71.756885,38.240169 71.8567761,40.3314498 72.0558016,41.7265199 C72.1413144,42.2955965 72.3119617,42.6505126 72.5681219,42.7939169 C72.7387692,42.8794298 73.1515767,42.9221862 73.8057878,42.9221862 L73.8057878,44.7153072 L66.1652534,44.7153072 L66.1652534,42.9221862 L66.7630865,42.9221862 C67.4744323,42.950186 67.87324,42.5513783 67.9587528,41.7272767 C68.1294001,40.1051813 68.2149129,37.9276309 68.2149129,35.1957606 C68.2149129,32.6065377 68.1294001,30.4569871 67.9587528,28.7501357 C67.9016181,28.1239244 67.7313492,27.7398734 67.4464325,27.5976042 C67.2754068,27.5408479 66.8485994,27.511713 66.1652534,27.511713 L66.1652534,25.7189704 L71.5014816,25.7189704 L71.5014816,27.9381421 C71.9850454,26.2029125 73.1803333,25.334541 75.0869669,25.334541 C78.2176449,25.334541 79.782984,27.2551745 79.782984,31.0968199 C79.782984,31.8373005 79.5332562,32.4782685 79.0353142,33.0189669" id="Fill-24" fill="#721011"></path>
            <path d="M88.0463354,27.5114481 C87.2494768,27.5114481 86.6020765,27.8599319 86.1041345,28.5568993 C85.6061924,29.2542452 85.3572214,30.0159149 85.3572214,30.8407732 L85.3572214,34.9813352 L90.1811294,33.0183237 C91.0067445,32.6475158 91.4184169,32.0080613 91.4184169,31.0969334 C91.4184169,28.7074928 90.294642,27.5114481 88.0463354,27.5114481 M88.0463354,44.5871514 C85.9966759,44.5871514 84.3178242,43.662402 83.0090237,41.8117679 C81.8424924,40.1329163 81.2594159,38.2399041 81.2594159,36.1342451 L81.2594159,34.1712335 C81.2594159,32.065196 81.8424924,30.1729407 83.0090237,28.4933323 C84.3178242,26.6426982 85.9966759,25.7183271 88.0463354,25.7183271 C89.8674562,25.7183271 91.2977152,26.2234583 92.336734,27.234099 C93.3757529,28.2443613 93.8948839,29.6606204 93.8948839,31.4809844 C93.8948839,32.3069779 93.5532109,33.0039454 92.8702433,33.5734004 C92.4714357,33.8866952 91.7600899,34.2707462 90.735071,34.7259318 L85.3564647,37.116886 L85.3564647,39.4643269 C85.3564647,40.289942 85.5838683,41.0296659 86.0394323,41.683877 C86.5801307,42.4232225 87.24872,42.7940304 88.0455786,42.7940304 C89.0410843,42.7940304 90.0449142,42.5087354 91.0551765,41.9400372 C92.0654389,41.3705822 92.6984609,40.6448582 92.954621,39.7624867 L94.022018,39.7624867 C93.0265124,42.9782992 91.0339875,44.5871514 88.0463354,44.5871514" id="Fill-26" fill="#721011"></path>
            <path d="M106.15027,43.0928335 C104.783957,44.0887175 103.17624,44.5862812 101.326362,44.5862812 C100.017562,44.5862812 98.8510303,44.0887175 97.8260114,43.0928335 C96.9440183,42.2100837 96.3181854,41.1003086 95.9485127,39.7623732 L97.2720698,39.3783222 C97.5562297,40.3745846 98.0613609,41.1926322 98.7874633,41.8336002 C99.5124305,42.4738113 100.359613,42.7939169 101.327119,42.7939169 C102.209112,42.7939169 102.928025,42.5161894 103.483102,41.9618694 C104.0378,41.4075495 104.315149,40.6742579 104.315149,39.76313 C104.315149,38.5678421 103.64656,37.6143361 102.309381,36.9037471 C101.057337,36.2775358 99.8045363,35.6653244 98.5528705,35.0674913 C97.2153135,34.0999854 96.5467242,32.6920506 96.5467242,30.8414165 C96.5467242,29.2196995 97.1445573,27.9381421 98.3398452,26.9990143 C99.4219988,26.1450211 100.801934,25.7182136 102.480786,25.7182136 C103.362779,25.7182136 104.387419,26.2021557 105.553951,27.1696616 L105.553951,25.3765406 L107.176424,25.3765406 L107.176424,30.8406597 L105.553951,30.8406597 C105.553951,29.8440189 105.283412,29.0411063 104.742714,28.428895 C104.202394,27.8166836 103.447535,27.5105779 102.480786,27.5105779 C101.058094,27.5105779 100.345992,28.3081932 100.345992,29.901532 C100.345992,30.9825505 100.829177,31.8365438 101.797818,32.4623767 C102.338138,32.8331846 103.291266,33.2172356 104.657579,33.6152865 C105.824867,33.985716 106.678104,34.4908472 107.219181,35.1310584 C107.760257,35.7716479 108.14393,36.7035865 108.37209,37.9268742 C108.428847,38.1826559 108.457225,38.4531944 108.457225,38.7377327 C108.454955,40.5308537 107.686853,41.9826801 106.15027,43.0928335" id="Fill-28" fill="#721011"></path>
            <g id="Group-32" transform="translate(108.223578, 15.560121)">
                <mask id="mask-4" fill="white">
                    <use xlink:href="#path-3"></use>
                </mask>
                <g id="Clip-31"></g>
                <path d="M11.3981805,4.09818393 C11.3981805,2.56122307 11.0281293,1.79274263 10.2880271,1.79274263 L7.47026547,1.79274263 C6.87243234,1.79274263 6.47438143,1.8563097 6.27459922,1.98533571 C6.07595213,2.11322659 5.94768287,2.44771045 5.89016981,2.98803051 C5.74790066,4.26883123 5.64876631,8.0680986 5.59163162,14.3854542 L8.36588004,14.3854542 C9.27738637,14.3854542 9.71781533,13.6169738 9.68943718,12.0807697 L11.3974237,12.0807697 L11.3974237,18.5263946 L9.68943718,18.5263946 C9.71857208,16.9610556 9.27738637,16.1781969 8.36588004,16.1781969 L5.5488752,16.1781969 L5.5488752,19.8071953 C5.5488752,27.0920568 5.66238782,31.6321832 5.89016981,33.4245475 C5.97568265,33.9932457 6.20346464,34.3485402 6.57351578,34.4919445 C6.82967592,34.6054571 7.28486153,34.661835 7.93982934,34.661835 L7.93982934,36.4553344 L0,36.4553344 L0,34.661835 L0.597833128,34.661835 C1.36631356,34.6909699 1.76512123,34.1502715 1.79312101,33.0401181 C1.96376831,29.2839855 2.04928115,25.1430452 2.04928115,20.6180538 L2.04928115,15.8369023 C2.04928115,8.66555335 1.96376831,4.38234385 1.79312101,2.98878726 C1.73598632,2.39095414 1.56609577,2.02128137 1.28080072,1.87863385 C1.11015342,1.79349938 0.682967592,1.76512123 0,1.79349938 L0,-5.3770378e-15 L13.0622755,-5.3770378e-15 L13.0622755,4.09818393 L11.3981805,4.09818393 Z" id="Fill-30" fill="#A71E22" mask="url(#mask-4)"></path>
            </g>
            <path d="M123.108949,44.7156856 L123.108949,42.9229429 L123.749161,42.9229429 C124.43175,42.9229429 124.816936,42.5237569 124.90207,41.7280334 C124.93007,41.4998731 124.973205,40.2470721 125.03034,37.9715225 C125.115852,35.1537609 125.158231,32.4646469 125.158231,29.9038023 C125.158231,27.5416046 125.115852,25.0235164 125.03034,22.3480239 C125.03034,21.4940307 124.986826,20.2276082 124.90207,18.5487566 C124.816936,17.9513018 124.666721,17.5960073 124.453696,17.4813596 C124.239913,17.3670902 123.792295,17.3250905 123.108949,17.3534687 L123.108949,15.5603477 L129.000633,15.5603477 C129.000633,17.1536865 128.943876,19.5730188 128.829985,22.8172094 C128.716473,26.060265 128.659338,28.4947323 128.659338,30.1164492 C128.659338,32.620916 128.716473,35.2532736 128.829985,38.0135221 C128.829985,38.8391373 128.886742,40.0771816 129.000633,41.7280334 C129.085389,42.2967316 129.257171,42.6520261 129.512575,42.7954304 C129.683222,42.8805649 130.096408,42.9236997 130.750619,42.9236997 L130.750619,44.7164423 L123.108949,44.7164423 L123.108949,44.7156856 Z" id="Fill-33" fill="#A71E22"></path>
            <path d="M141.870754,33.6168 C141.302056,34.4704149 140.625521,35.16095 139.843419,35.6872702 C139.060182,36.2135904 138.284891,36.732343 137.51641,37.2450417 C136.861821,37.7857402 136.534526,38.6393551 136.534526,39.8058864 C136.534526,41.3712254 137.474032,42.1540841 139.352666,42.1540841 C140.092012,42.1540841 140.71179,41.8835457 141.209354,41.3428473 C141.706918,40.8021488 141.956267,40.1619377 141.956267,39.4225921 C141.956267,37.4868236 141.927889,35.5521902 141.870754,33.6168 M147.804816,44.1174741 C147.235361,44.686929 146.509258,44.9714673 145.627265,44.9714673 C144.232574,44.9714673 143.207933,44.3308778 142.5541,43.0508338 C140.959626,44.3024996 139.395044,44.9290893 137.858462,44.9290893 C134.101951,44.9290893 132.223317,43.3213722 132.223317,40.1055597 C132.223317,38.5405991 132.906284,37.3453112 134.272598,36.5200745 C135.610533,35.9509979 136.946955,35.3671646 138.284891,34.7693315 C139.765095,34.0587425 140.931627,33.1759927 141.785241,32.122974 C141.728864,30.4721221 141.600973,29.3767253 141.401947,28.8360269 C141.003139,27.6978737 140.191903,27.1291755 138.968993,27.1291755 C137.290142,27.1291755 136.450905,27.5124697 136.450905,28.2817069 C137.617436,28.7088927 138.200513,29.619264 138.200513,31.0135773 C138.200513,31.7533012 137.958731,32.408269 137.474789,32.9769672 C136.991225,33.5464222 136.393392,33.8305821 135.681668,33.8305821 C134.941944,33.8305821 134.329733,33.5611788 133.846169,33.0204804 C133.362227,32.479782 133.120445,31.838814 133.120445,31.0990901 C133.120445,29.3918603 133.661143,28.0047361 134.742162,26.9377175 C135.824315,25.8699421 137.23225,25.3368112 138.968993,25.3368112 C141.216543,25.3368112 142.909773,26.1760478 144.049061,27.8548995 C145.073702,29.277591 145.585644,31.1698463 145.585644,33.5324223 L145.585644,34.2793353 L145.585644,35.0266268 C145.585644,35.7947288 145.600401,36.9400711 145.628779,38.4622754 C145.656779,39.9844796 145.671535,41.130957 145.671535,41.8986807 C145.671535,42.4685141 145.914074,42.752674 146.397259,42.752674 C146.767689,42.752674 146.981092,42.4537574 147.03747,41.8566811 L147.03747,40.5331239 L148.659944,40.5331239 L148.659944,41.9845719 C148.658431,42.8370517 148.373514,43.5487758 147.804816,44.1174741" id="Fill-35" fill="#A71E22"></path>
            <path d="M160.865615,27.5118265 C160.438051,27.4838267 160.147081,27.5553397 159.990055,27.7252302 C159.833407,27.8962559 159.670328,28.2235506 159.49968,28.7074928 C158.332392,32.1507089 156.995214,37.4865587 155.485874,44.7154207 L152.668869,44.7154207 C151.700607,39.4507054 150.235159,34.1144772 148.272147,28.7074928 C148.044743,28.1376594 147.837772,27.7891757 147.653503,27.6616632 C147.468099,27.5330155 147.091237,27.4838267 146.522539,27.5118265 L146.522539,25.7190839 L154.16383,25.7190839 L154.16383,27.5118265 L153.694267,27.5118265 C152.75476,27.4838267 152.285953,27.7392301 152.285953,28.2803069 C152.285953,28.3370632 152.314331,28.478954 152.371466,28.7074928 C153.139947,33.1753494 154.078696,36.8743473 155.189228,39.8059999 C156.127977,36.8179694 156.982349,33.1185931 157.750451,28.7074928 C157.778451,28.5084673 157.793207,28.3805764 157.793207,28.3234417 C157.793207,27.7547435 157.180996,27.4838267 155.957708,27.5118265 L155.957708,25.7190839 L161.250802,25.7190839 L161.250802,27.5118265 L160.865615,27.5118265 Z" id="Fill-37" fill="#A71E22"></path>
            <path d="M171.040913,30.8421732 C171.040913,30.0165581 170.798753,29.2560236 170.314811,28.5582993 C169.831626,27.8613319 169.191036,27.5124697 168.394556,27.5124697 C167.597319,27.5124697 166.949919,27.8613319 166.451977,28.5582993 C165.954413,29.2560236 165.705064,30.0169365 165.705064,30.8421732 L165.705064,39.4649702 C165.705064,40.2909637 165.932467,41.0303092 166.387653,41.6845203 C166.928351,42.4238658 167.597319,42.7946737 168.393799,42.7946737 C169.191036,42.7946737 169.845247,42.4238658 170.357567,41.6845203 C170.812753,41.0303092 171.040157,40.2902069 171.040157,39.4649702 L171.040157,30.8421732 L171.040913,30.8421732 Z M173.389111,41.8124111 C172.079175,43.6630452 170.41508,44.5877947 168.394556,44.5877947 C166.346031,44.5877947 164.666801,43.6630452 163.356866,41.8124111 C162.190334,40.1339379 161.607258,38.2409258 161.607258,36.1348883 L161.607258,34.1718767 C161.607258,32.0658393 162.190334,30.1732055 163.356866,28.4939755 C164.666801,26.6433415 166.346031,25.7189704 168.394556,25.7189704 C170.41508,25.7189704 172.079932,26.6433415 173.389111,28.4939755 C174.583642,30.1728272 175.182232,32.0658393 175.182232,34.1718767 L175.182232,36.1348883 C175.182232,38.2409258 174.584399,40.1339379 173.389111,41.8124111 L173.389111,41.8124111 Z" id="Fill-39" fill="#A71E22"></path>
            <path d="M189.043515,33.0196858 C188.545952,33.5603843 187.941308,33.8301659 187.229205,33.8301659 C186.460725,33.8301659 185.849649,33.546006 185.394085,32.9761726 C184.938142,32.4074744 184.711117,31.7097502 184.711117,30.8841351 C184.711117,30.2019242 184.889332,29.596902 185.244248,29.0702034 C185.600299,28.5431265 186.105431,28.280534 186.760398,28.280534 C186.760398,27.5116751 186.204565,27.1280025 185.095168,27.1280025 C183.785611,27.1280025 182.847618,28.2513991 182.277407,30.500084 C181.936112,31.8943974 181.765086,33.5452492 181.765086,35.4518829 C181.765086,38.2408879 181.864977,40.3317904 182.064003,41.7272388 C182.149137,42.2963154 182.319785,42.6512316 182.576323,42.7946358 C182.74697,42.8801487 183.1594,42.9229051 183.814746,42.9229051 L183.814746,44.7156477 L176.172698,44.7156477 L176.172698,42.9229051 L176.770531,42.9229051 C177.48112,42.9509049 177.879928,42.5520972 177.965441,41.7279956 C178.136088,40.1059003 178.221222,37.9283498 178.221222,35.1964795 C178.221222,32.6072566 178.136088,30.457706 177.965441,28.7508546 C177.908684,28.1246433 177.738037,27.7405923 177.452742,27.5983231 C177.282851,27.5415668 176.855287,27.5124319 176.171941,27.5124319 L176.171941,25.7196893 L181.508169,25.7196893 L181.508169,27.938861 C181.991355,26.2036314 183.187021,25.3352599 185.094033,25.3352599 C188.224333,25.3352599 189.789679,27.2558934 189.789679,31.0975388 C189.791185,31.8380194 189.541079,32.4782306 189.043515,33.0196858" id="Fill-41" fill="#A71E22"></path>
            <path d="M201.650836,43.0935524 C200.284901,44.0894364 198.677562,44.5870001 196.826928,44.5870001 C195.518128,44.5870001 194.351596,44.0894364 193.326956,43.0935524 C192.444584,42.2108026 191.818751,41.1010275 191.448322,39.7630921 L192.771879,39.3790411 C193.056796,40.3753035 193.56117,41.1933511 194.286894,41.8343191 C195.012996,42.4745302 195.859422,42.7946358 196.826928,42.7946358 C197.710056,42.7946358 198.428213,42.5169083 198.982533,41.9625883 C199.537231,41.4082684 199.814959,40.6749769 199.814959,39.7638489 C199.814959,38.5693178 199.146369,37.615055 197.809191,36.904466 C196.557146,36.2782547 195.304724,35.6660433 194.05268,35.0682102 C192.714744,34.1007043 192.046533,32.6927695 192.046533,30.8421354 C192.046533,29.2204184 192.644366,27.938861 193.839654,26.9997332 C194.921051,26.14574 196.300986,25.7189325 197.980595,25.7189325 C198.863345,25.7189325 199.887985,26.2028746 201.054516,27.1703805 L201.054516,25.3772595 L202.676233,25.3772595 L202.676233,30.8413786 L201.054516,30.8413786 C201.054516,29.8447379 200.783978,29.0418253 200.24328,28.4296139 C199.70296,27.8174025 198.948479,27.5112968 197.980595,27.5112968 C196.557903,27.5112968 195.846557,28.3089121 195.846557,29.9022509 C195.846557,30.9832694 196.3305,31.8372627 197.298006,32.4630956 C197.838704,32.8339035 198.791453,33.2175761 200.158145,33.6160054 C201.324676,33.986435 202.17867,34.4915661 202.719747,35.1317773 C203.260067,35.7723668 203.643739,36.7043054 203.872278,37.9275931 C203.929034,38.1833749 203.957034,38.4539133 203.957034,38.7384516 C203.956656,40.5315726 203.187797,41.983399 201.650836,43.0935524" id="Fill-43" fill="#A71E22"></path>
            <g id="‘" transform="translate(95.741184, 23.291256) scale(-1, -1) translate(-95.741184, -23.291256) translate(93.927669, 20.025513)" fill="#721011" fill-rule="nonzero">
                <path d="M3.62702944,1.02010203 C2.46524658,1.58682538 1.88435514,2.25272532 1.88435514,3.01780184 C2.38496077,3.07447418 2.7958352,3.2751887 3.11697843,3.6199454 C3.43812166,3.96470211 3.59869328,4.3637698 3.59869328,4.81714848 C3.59869328,5.29886333 3.44048301,5.70501506 3.12406247,6.03560368 C2.80764193,6.3661923 2.41329693,6.53148662 1.94102748,6.53148662 C1.42153107,6.53148662 0.968152391,6.31660401 0.580891434,5.8868388 C0.193630478,5.4570736 0,4.93521584 0,4.32126555 C0,2.47941466 1.02482473,1.03899281 3.07447418,0 L3.62702944,1.02010203 Z" id="Path"></path>
            </g>
        </g>
    </g>
</svg>