<?xml version="1.0" encoding="UTF-8"?>
<svg width="188px" height="90px" viewBox="0 0 188 90" version="1.1" xmlns="http://www.w3.org/2000/svg" xmlns:xlink="http://www.w3.org/1999/xlink">
    <title>Artboard Copy 2</title>
    <g id="Artboard-Copy-2" stroke="none" stroke-width="1" fill="none" fill-rule="evenodd">
        <g id="Group" transform="translate(9.000000, 11.000000)">
            <path d="M46.1719126,19.1946146 C46.1719126,20.2417379 46.0883433,21.2654618 45.9099229,22.2528331 C45.8982232,22.3602196 45.8861056,22.4671883 45.8505887,22.574157 L45.8505887,22.5862746 C45.2434577,25.8350311 43.7680417,28.6788944 41.7331293,30.7259244 C41.6261606,30.8445928 41.5066565,30.963679 41.3879881,31.0706477 C40.6383715,31.7730477 39.8290028,32.3680611 38.9602999,32.8318707 C38.4488558,33.1055602 37.9252942,33.3437327 37.3774974,33.5342707 C36.4377606,33.8672943 35.4620891,34.0578323 34.4383651,34.0812317 L34.4266654,34.0812317 C34.3192789,34.0933493 34.2006105,34.0933493 34.0932239,34.0933493 L34.0811064,34.0933493 C33.9745555,34.0933493 33.8792865,34.0933493 33.7719,34.0812317 C33.5579626,34.0812317 33.3557249,34.069532 33.1530693,34.0457148 C32.1895153,33.9625633 31.2610604,33.7243908 30.3806578,33.3792496 C29.0715447,32.855688 27.8577007,32.0701365 26.7867601,31.0706477 C25.5967333,29.9524905 24.5851269,28.5957429 23.811693,27.0367576 C23.0858936,25.5968586 22.5502144,23.9902388 22.2527077,22.2766503 C22.0864048,21.2888612 21.9911358,20.2655551 21.9911358,19.2063143 C21.9911358,15.8150721 22.8953556,12.840005 24.228286,10.3053482 C27.2505697,4.486 32.4510872,0.999488823 33.7719,0.190538003 C33.9745555,0.0597520492 34.0811064,0 34.0811064,0 C34.0811064,0 40.4361338,3.59389773 43.9347625,10.2815309 L43.9347625,10.2932306 C45.2555753,12.8161878 46.1719126,15.8029545 46.1719126,19.1946146" id="Fill-1" fill="#D97E28"></path>
            <path d="M46.1837377,48.9804679 C46.1837377,52.3717101 45.2795179,55.3467771 43.9582873,57.881434 C40.4834758,64.5928844 34.105049,68.1872 34.105049,68.1872 C34.105049,68.1872 34.0933493,68.1872 34.0812317,68.1750825 C34.0335972,68.1512652 33.9387461,68.0798135 33.7720253,67.9845444 C32.4273953,67.1513585 27.2745123,63.6886646 24.240111,57.9052512 C22.9192982,55.3705944 22.0029609,52.3955273 22.0029609,48.9921676 C22.0029609,47.9450443 22.0865302,46.9217382 22.2645328,45.9339491 C22.6100918,43.8635197 23.312074,41.9593932 24.275628,40.3051389 C24.9780279,39.0912948 25.8346133,38.0086545 26.8107027,37.1157166 C27.8695257,36.1166456 29.0833698,35.3310942 30.3807832,34.8075325 C31.2611857,34.4623913 32.1892228,34.2242188 33.1531947,34.1410674 C33.3554324,34.1172501 33.5576701,34.1051326 33.7720253,34.1051326 C33.878994,34.0934329 33.974263,34.0934329 34.0812317,34.0934329 L34.0933493,34.0934329 C34.2124355,34.0934329 34.3311039,34.0934329 34.4501902,34.1051326 L34.4623077,34.1051326 C35.9377237,34.1527671 37.3304061,34.5338431 38.6274016,35.176491 L38.6391013,35.1881907 C38.7464879,35.2358252 38.8534566,35.2951594 38.9604253,35.3549114 C39.8291282,35.8308386 40.6384968,36.4141523 41.3881135,37.1040169 L41.3998132,37.1157166 C41.5188994,37.2231031 41.6258681,37.3300718 41.7332547,37.4374584 C43.7681671,39.4961881 45.2557006,42.3400513 45.8624137,45.6005076 C45.886231,45.7078941 45.9100482,45.8031631 45.9221658,45.9101318 L45.9221658,45.9222494 C46.1005863,46.9096206 46.1837377,47.9329267 46.1837377,48.9804679" id="Fill-3" fill="#84297A"></path>
            <path d="M48.9891173,46.1726249 C40.763809,46.1763836 34.0937254,40.7661072 34.0907995,34.0880844 C34.0878755,27.4104795 40.7533628,21.9943532 48.9786711,21.9905911 C61.3594629,21.9855785 68.183314,34.0734598 68.183314,34.0734598 C68.183314,34.0734598 61.369909,46.167191 48.9891173,46.1726249" id="Fill-6" fill="#9CC13B"></path>
            <path d="M34.0933493,34.0934329 C34.0933493,34.2004016 34.0933493,34.3077881 34.0812317,34.4147568 C34.069532,35.176491 33.9625633,35.9139901 33.7720253,36.6159722 C33.6174221,37.1992859 33.4147666,37.770482 33.1531947,38.3299785 C32.8080535,39.1034124 32.3559436,39.8292117 31.8206822,40.5194942 C31.5825097,40.8287006 31.3326375,41.1262073 31.0706477,41.4120143 C30.0235244,42.5184718 28.7620458,43.4703261 27.3221468,44.2441778 C27.3104471,44.2324781 27.3104471,44.2441778 27.3104471,44.2441778 C25.7990963,45.0414289 24.0976254,45.6247427 22.2645328,45.9339491 C21.2771615,46.1123695 20.2534376,46.195521 19.2063143,46.195521 C15.8033724,46.195521 12.8278875,45.2913012 10.3053482,43.9583708 C3.59347988,40.4718596 0,34.1051326 0,34.1051326 C0,34.1051326 3.58178018,27.7388233 10.2815309,24.2523121 C12.8161878,22.9310815 15.8033724,22.0147442 19.1946146,22.0147442 C20.2417379,22.0147442 21.265044,22.0978956 22.2528331,22.2767339 C22.7763947,22.3598854 23.2999564,22.4672719 23.8118184,22.6101754 C26.7271334,23.3714917 29.2500905,24.8590253 31.0706477,26.7986687 C31.3564547,27.108293 31.6180266,27.4057997 31.8561991,27.7388233 C31.8678988,27.7388233 31.8678988,27.750523 31.8678988,27.750523 C32.7608368,28.9050329 33.4147666,30.2020284 33.7720253,31.5825933 C33.9387461,32.2252412 34.0457148,32.903406 34.069532,33.5936885 L34.069532,33.6175057 C34.0812317,33.7006572 34.0812317,33.7721089 34.0812317,33.8552604 C34.0933493,33.9388297 34.0933493,34.0098636 34.0933493,34.0934329" id="Fill-8" fill="#CF2F5E"></path>
            <path d="M58.9763611,16.7432345 C58.9763611,18.5165751 58.8095128,20.5155527 58.321886,22.5742824 C58.2023819,23.1216613 58.0598962,23.6690402 57.8810579,24.2285367 C57.4172483,25.7277699 56.7629007,27.2270031 55.858263,28.6790197 C55.3585186,29.5000881 54.7877403,30.2973392 54.1091576,31.0707731 C54.0853403,31.1067079 54.0494055,31.1422248 54.0138886,31.1777418 L54.0138886,31.1898593 C53.7401991,31.4990657 53.4665097,31.7965724 53.169003,32.0940792 C52.5861071,32.6773929 51.9910937,33.2009545 51.3601455,33.6768817 C51.181725,33.8197852 51.0033046,33.9505711 50.8248841,34.0813571 C50.4914426,34.3195296 50.1463014,34.5455846 49.8011602,34.7478223 C47.2188688,36.3306248 44.3988228,37.1399935 41.7329622,37.1157584 C41.6142938,37.1157584 41.5069072,37.1157584 41.3882388,37.1040587 C39.0913366,37.0326069 36.9135207,36.3427423 35.140598,34.9976945 C34.7716395,34.7244229 34.4264983,34.4264983 34.0934746,34.0934746 L34.0813571,34.0813571 C33.7362159,33.7362159 33.4270095,33.379375 33.15332,32.9987168 C32.0109277,31.4752485 31.3444625,29.6668088 31.1422248,27.7388651 C31.0941725,27.4296587 31.0828906,27.1200344 31.0707731,26.7987105 C31.0114389,25.4185635 31.1894415,23.9903642 31.582635,22.5742824 C32.0702619,20.7892422 32.9151475,19.0159016 34.0813571,17.3620652 L34.0813571,17.3503655 C34.2363781,17.1477099 34.3788638,16.9454722 34.533467,16.7432345 C34.9976945,16.1365214 35.5095564,15.5653252 36.068635,15.0058288 C38.4603884,12.6019579 41.2094005,11.1382416 43.9345954,10.2816563 C51.1462081,8.00857133 58.1906822,9.97203202 58.1906822,9.97203202 C58.1906822,9.97203202 58.9879333,12.8163131 58.9763611,16.7432345" id="Fill-10" fill="#EF4C23"></path>
            <path d="M36.6042725,45.6005493 C36.1162278,47.3855896 35.2713421,49.1706298 34.1051326,50.8248841 C34.0934329,50.8365838 34.0813153,50.8487014 34.0813153,50.8604011 C33.9743466,51.0033046 33.8673779,51.1457902 33.7721089,51.276994 C33.2719466,51.9313416 32.7249856,52.5622898 32.1178546,53.169003 C29.7261013,55.5728739 26.9649716,57.0482898 24.2401946,57.905293 C17.0406994,60.178378 9.99580749,58.2144994 9.99580749,58.2144994 C9.99580749,58.2144994 8.0323468,51.1700253 10.3054317,43.9584126 C11.1503174,41.2336356 12.6136158,38.4846235 15.0174867,36.0807526 C15.7554036,35.3428357 16.5405372,34.6763705 17.3620234,34.1051743 C19.3969358,32.6535756 21.6102687,31.713421 23.8119019,31.3089456 C24.8230905,31.1184076 25.8108796,31.0352561 26.7865512,31.0707731 C28.03633,31.10629 29.2497563,31.3327628 30.3804489,31.7493558 C31.3803556,32.1061967 32.3083926,32.6059411 33.1532782,33.2724063 C33.3672156,33.4270095 33.5698712,33.6054299 33.7721089,33.7959679 C33.8790776,33.8912369 33.9743466,33.9743884 34.0813153,34.0813571 L34.0813153,34.0934746 L34.0934329,34.0934746 C36.0330763,36.0331181 37.0208654,38.6037097 37.1157166,41.3765391 L37.1157166,41.3882388 C37.1754686,42.7566861 36.9966303,44.1844676 36.6042725,45.6005493" id="Fill-12" fill="#973B65"></path>
            <path d="M36.0803347,53.1678748 C30.2618223,47.3543765 29.3709735,38.8123405 34.0905497,34.088168 C38.8105438,29.3644133 47.3534154,30.2477408 53.1723457,36.061657 C61.9308262,44.8121984 58.2082317,58.1849577 58.2082317,58.1849577 C58.2082317,58.1849577 44.8388152,61.918834 36.0803347,53.1678748" id="Fill-14" fill="#ABCF37"></path>
            <path d="M37.1158001,26.7750186 L37.1158001,26.7867183 C37.0681656,28.5003068 36.6636902,30.1428614 35.9140736,31.5944601 C35.9019561,31.5944601 35.9019561,31.6065776 35.9019561,31.6065776 C35.4736634,32.4272282 34.938402,33.1889623 34.2840544,33.8792447 L34.2840544,33.8909444 C34.2243024,33.9623962 34.1649682,34.0221482 34.0935164,34.0936 L34.0813989,34.0936 L34.0813989,34.1052997 C33.9744302,34.2122684 33.8791612,34.2958377 33.7721925,34.3911067 C33.5699548,34.5816447 33.3672992,34.7596473 33.1533618,34.9142505 C32.3084762,35.5807157 31.3800213,36.0808779 30.3805325,36.4377189 C29.2498398,36.8543118 28.0481133,37.0803668 26.810452,37.1158837 C25.8347804,37.1635182 24.823174,37.0803668 23.8119855,36.8898288 C21.6103523,36.4853534 19.3970194,35.5451987 17.362107,34.1052997 C16.5406208,33.521986 15.7554872,32.8676384 15.0058706,32.1180218 C12.6019997,29.7258506 11.1382834,26.9772563 10.2812802,24.2520614 C8.00861311,17.0408666 9.97207381,9.99597463 9.97207381,9.99597463 C9.97207381,9.99597463 17.0169658,8.03251393 24.2281606,10.305181 C26.9533555,11.1500667 29.7023676,12.6137829 32.1062385,15.0176538 C32.7129516,15.6247848 33.2720302,16.2674327 33.7721925,16.9217803 C33.8791612,17.0646838 33.9861299,17.1954698 34.0813989,17.350073 C34.0935164,17.350073 34.0935164,17.3621905 34.0935164,17.3621905 C35.2714257,19.016027 36.1046116,20.77725 36.604356,22.5744077 L36.604356,22.5861075 C36.9850142,23.9900717 37.1634346,25.4065713 37.1158001,26.7750186" id="Fill-16" fill="#FFC905"></path>
            <path d="M165.71444,45.6006747 L31.5378311,45.6006747 C31.4797563,45.6006747 31.4220877,45.6006747 31.3644191,45.5885572 C29.8260477,45.5651577 28.4034196,45.0649955 27.2236496,44.244345 C27.2118722,44.2322274 27.2118722,44.244345 27.2118722,44.244345 C25.8590962,43.2920728 24.8064408,41.9119258 24.2626501,40.305306 C23.9734947,39.472538 23.8118602,38.5796 23.8118602,37.6398632 L23.8118602,22.5744077 L158.011211,22.5744077 C162.267724,22.5744077 165.71444,26.1323707 165.71444,30.4997023 L165.71444,45.6006747 Z" id="Fill-18" fill="#D22530"></path>
            <polygon id="Fill-21" fill="#FFFFFF" points="30.3773986 27.7420825 32.9688826 27.7420825 38.9545337 35.607625 38.9545337 27.7420825 41.7281987 27.7420825 41.7281987 40.5164857 39.3372811 40.5164857 33.1510637 32.3960568 33.1510637 40.5164857 30.3773986 40.5164857"></polygon>
            <path d="M55.7807525,35.1694712 L54.08346,31.026941 L52.3857497,35.1694712 L55.7807525,35.1694712 Z M52.8240707,27.6511591 L55.4151368,27.6511591 L60.8901795,40.5166528 L57.9518829,40.5166528 L56.7840019,37.6510615 L51.3825003,37.6510615 L50.2146193,40.5166528 L47.3494459,40.5166528 L52.8240707,27.6511591 Z" id="Fill-23" fill="#FFFFFF"></path>
            <polygon id="Fill-25" fill="#FFFFFF" points="69.4856162 30.3336501 65.5983902 30.3336501 65.5983902 27.7421661 76.1828599 27.7421661 76.1828599 30.3336501 72.2960518 30.3336501 72.2960518 40.5165692 69.4856162 40.5165692"></polygon>
            <path d="M87.3142906,40.7173445 C85.5994485,40.7173445 84.248133,40.2426708 83.2628509,39.2937414 C82.277151,38.3448121 81.7849279,36.9278946 81.7849279,35.0421533 L81.7849279,27.7419572 L84.5949456,27.7419572 L84.5949456,34.9686124 C84.5949456,36.0153178 84.8381322,36.8029585 85.3253412,37.3319521 C85.8112967,37.8613637 86.4869545,38.1258605 87.3506432,38.1258605 C88.2143319,38.1258605 88.8899897,37.8705563 89.376363,37.35953 C89.8635721,36.8485037 90.1067587,36.0817554 90.1067587,35.0605386 L90.1067587,27.7419572 L92.9167764,27.7419572 L92.9167764,34.950645 C92.9167764,35.9238094 92.7864083,36.7699486 92.5240007,37.4878089 C92.2628466,38.2048335 91.8884562,38.8044432 91.401665,39.2845488 C90.9152917,39.765908 90.3252924,40.1244203 89.6320851,40.3613393 C88.9380421,40.5990939 88.1658617,40.7173445 87.3142906,40.7173445" id="Fill-27" fill="#FFFFFF"></path>
            <path d="M105.088687,33.946727 C105.78273,33.946727 106.314648,33.7825133 106.685696,33.4545038 C107.057579,33.1256586 107.242268,32.6877555 107.242268,32.1403765 L107.242268,32.1040239 C107.242268,31.4956394 107.047551,31.039351 106.658536,30.7347409 C106.269103,30.4309665 105.727574,30.2788704 105.034367,30.2788704 L102.242316,30.2788704 L102.242316,33.946727 L105.088687,33.946727 Z M99.4322986,27.7421243 L105.271703,27.7421243 C106.889605,27.7421243 108.130609,28.1741776 108.994716,29.0378663 C109.724694,29.768262 110.089891,30.7410086 110.089891,31.9577776 L110.089891,31.9941303 C110.089891,33.0287182 109.837094,33.8710967 109.332336,34.5216837 C108.826741,35.1726886 108.16738,35.650705 107.352579,35.9544794 L110.472639,40.5165274 L107.187947,40.5165274 L104.451053,36.429153 L104.414282,36.429153 L102.242316,36.429153 L102.242316,40.5165274 L99.4322986,40.5165274 L99.4322986,27.7421243 Z" id="Fill-29" fill="#FFFFFF"></path>
            <polygon id="Fill-31" fill="#FFFFFF" points="116.275858 27.7420825 119.086294 27.7420825 119.086294 37.9801574 125.455946 37.9801574 125.455946 40.5164857 116.275858 40.5164857"></polygon>
            <path d="M138.558024,35.1694712 L136.860732,31.026941 L135.163021,35.1694712 L138.558024,35.1694712 Z M135.601342,27.6511591 L138.192826,27.6511591 L143.667451,40.5166528 L140.729154,40.5166528 L139.561273,37.6510615 L134.16019,37.6510615 L132.992309,40.5166528 L130.126717,40.5166528 L135.601342,27.6511591 Z" id="Fill-33" fill="#FFFFFF"></path>
            <polygon id="Fill-35" fill="#FFFFFF" points="152.774165 34.0199754 148.503773 27.7422497 151.788883 27.7422497 154.471457 31.8847798 157.172417 27.7422497 160.3656 27.7422497 156.095209 33.9836228 160.547781 40.5166528 157.26309 40.5166528 154.397916 36.1367858 151.514775 40.5166528 148.321592 40.5166528"></polygon>
        </g>
    </g>
</svg>