<?xml version="1.0" encoding="UTF-8"?>
<svg width="24px" height="16px" viewBox="0 0 24 16" version="1.1" xmlns="http://www.w3.org/2000/svg" xmlns:xlink="http://www.w3.org/1999/xlink">
    <title>Combined Shape</title>
    <defs>
        <linearGradient x1="37.2700895%" y1="39.0295807%" x2="73.6672293%" y2="65.9938642%" id="linearGradient-1">
            <stop stop-color="#C52A2E" offset="0%"></stop>
            <stop stop-color="#A71E22" offset="100%"></stop>
        </linearGradient>
    </defs>
    <g id="Page-1" stroke="none" stroke-width="1" fill="none" fill-rule="evenodd">
        <g id="0.Elements" transform="translate(-488.000000, -492.000000)" fill="url(#linearGradient-1)">
            <path d="M511.436767,497.976509 C511.747813,497.976509 512,498.228696 512,498.539741 L512,498.539741 L512,504.75093 C512,506.539569 510.550051,507.989518 508.761412,507.989518 L508.761412,507.989518 L491.238588,507.989518 C489.449949,507.989518 488,506.539569 488,504.75093 L488,504.75093 L488,498.539741 C488,498.228696 488.252187,497.976509 488.563233,497.976509 L488.563233,497.976509 Z M493.992185,500.511055 L492.490231,500.511055 C491.945867,500.511055 491.504574,500.952348 491.504574,501.496713 C491.504574,502.041077 491.945867,502.48237 492.490231,502.48237 L492.490231,502.48237 L493.992185,502.48237 C494.536549,502.48237 494.977842,502.041077 494.977842,501.496713 C494.977842,500.952348 494.536549,500.511055 493.992185,500.511055 L493.992185,500.511055 Z M508.761412,492 C510.550051,492 512,493.449949 512,495.238588 L512,495.238588 L512,495.441962 C512,495.753007 511.747813,496.005194 511.436767,496.005194 L511.436767,496.005194 L488.563233,496.005194 C488.252187,496.005194 488,495.753007 488,495.441962 L488,495.441962 L488,495.238588 C488,493.449949 489.449949,492 491.238588,492 L491.238588,492 Z" id="Combined-Shape"></path>
        </g>
    </g>
</svg>