<?xml version="1.0" encoding="UTF-8"?>
<svg width="24px" height="20px" viewBox="0 0 24 20" version="1.1" xmlns="http://www.w3.org/2000/svg" xmlns:xlink="http://www.w3.org/1999/xlink">
    <title>Combined Shape</title>
    <defs>
        <linearGradient x1="40.22129%" y1="9.49362882%" x2="46.6541253%" y2="96.4014776%" id="linearGradient-1">
            <stop stop-color="#D34047" offset="0%"></stop>
            <stop stop-color="#A71E22" offset="100%"></stop>
        </linearGradient>
    </defs>
    <g id="Page-1" stroke="none" stroke-width="1" fill="none" fill-rule="evenodd">
        <g id="0.Elements" transform="translate(-194.000000, -490.000000)" fill="url(#linearGradient-1)">
            <path d="M205,506 C206.103,506 207,506.897 207,508 C207,509.103 206.103,510 205,510 C203.897,510 203,509.103 203,508 C203,506.897 203.897,506 205,506 Z M212,506 C213.103,506 214,506.897 214,508 C214,509.103 213.103,510 212,510 C210.897,510 210,509.103 210,508 C210,506.897 210.897,506 212,506 Z M197.382,490 C198.679,490 199.828,490.851 200.179,492.07 L200.748,494 L216.043,494 C216.667,494 217.259,494.297 217.626,494.795 C217.99,495.289 218.095,495.907 217.914,496.491 L215.851,503.039 C215.447,504.221 214.34,505 213.091,505 L204.097,505 C202.8,505 201.65,504.149 201.299,502.93 L198.259,492.629 C198.151,492.256 197.792,492 197.382,492 L195,492 C194.447,492 194,491.552 194,491 C194,490.448 194.447,490 195,490 L197.382,490 Z" id="Combined-Shape"></path>
        </g>
    </g>
</svg>