<?xml version="1.0" encoding="UTF-8"?>
<svg width="19px" height="24px" viewBox="0 0 19 24" version="1.1" xmlns="http://www.w3.org/2000/svg" xmlns:xlink="http://www.w3.org/1999/xlink">
    <title>Group 2</title>
    <g id="Page-1" stroke="none" stroke-width="1" fill="none" fill-rule="evenodd">
        <g id="0.Elements" transform="translate(-753.000000, -158.000000)" fill-rule="nonzero">
            <g id="Group-2" style="mix-blend-mode: multiply;" transform="translate(753.000000, 158.000000)">
                <g id="Group" transform="translate(1.476923, 12.184615)">
                    <path d="M3.26705933,9.17246177 L6.64580725,1.11084626 L3.9325136,4.68040054e-05 L0.039710305,9.28816127 C-0.124285435,9.67948956 0.246753151,10.0827529 0.656434683,9.95853504 L2.86377093,9.28905054 C2.92926505,9.26920565 2.99229662,9.26316793 3.05717509,9.26939286 L3.26705933,9.17246177 Z" id="Path" fill="#FFE07D"></path>
                    <path d="M6.50132241,1.051686 L3.05717509,9.26939286 C3.22387016,9.28408932 3.37768424,9.3797099 3.46003728,9.53318024 L4.54185036,11.549216 C4.74264214,11.923414 5.29354091,11.8975314 5.45758401,11.5062499 L9.3503873,2.21808862 L6.50132241,1.051686 Z" id="Path" fill="#FFD064"></path>
                    <path d="M9.45139883,1.02065495 L6.52656346,2.21808862 L10.4193668,11.5062499 C10.5833625,11.8975782 11.1342613,11.923414 11.3351004,11.549216 L12.4169135,9.53318024 C12.4502051,9.47111813 12.4952412,9.41841682 12.5480438,9.37671445 L12.812909,9.04585693 L9.45139883,1.02065495 Z" id="Path" fill="#FFE07D"></path>
                    <path d="M15.8371931,9.28816127 L11.9443898,0 L9.10531715,1.16228387 L12.5482332,9.37694847 C12.6758591,9.27617944 12.8488526,9.23920428 13.0131325,9.28900374 L15.2204687,9.95848823 C15.6301976,10.0827997 16.0012362,9.67948956 15.8371931,9.28816127 L15.8371931,9.28816127 Z" id="Path" fill="#FFD064"></path>
                </g>
                <g id="Group">
                    <path d="M10.3808829,0.337689998 C10.7829945,0.657871188 11.3167735,0.757995287 11.8070064,0.605250881 C12.496354,0.390404186 13.2422975,0.680449572 13.6075049,1.30527464 C13.867238,1.74961347 14.3288923,2.03651384 14.8410152,2.07176616 C15.5611397,2.12133534 16.1523098,2.66223078 16.2679806,3.37727551 C16.3502084,3.88578201 16.6774825,4.32063885 17.1423173,4.53919385 C17.7959768,4.84651334 18.152531,5.56517248 18.0029962,6.2738333 C17.8966333,6.77778657 18.0452327,7.3019712 18.4000095,7.67425635 C18.8988955,8.19778381 18.9727041,8.99718062 18.5781697,9.60379278 C18.2975756,10.035176 18.2474812,10.5778083 18.444304,11.0535972 C18.7210627,11.7226403 18.5021161,12.4948116 17.915904,12.917417 C17.4990119,13.2179301 17.2569591,13.7057828 17.2692138,14.220767 C17.2864732,14.9449652 16.8043789,15.5856092 16.1055831,15.7671751 C15.6086616,15.8962615 15.2073451,16.2634301 15.0333945,16.7480908 C14.788816,17.42962 14.108636,17.8522723 13.391692,17.7682019 C12.881861,17.7084466 12.3754913,17.9052682 12.0388158,18.2941703 C11.5654213,18.8410271 10.7790655,18.9885142 10.1407946,18.6502609 C9.68690469,18.4096908 9.14386454,18.4096908 8.68997466,18.6502609 C8.0517037,18.9885612 7.26534789,18.8410271 6.79195347,18.2941703 C6.45527793,17.9052682 5.94895497,17.7084466 5.43907723,17.7682019 C4.72213327,17.8522723 4.04200004,17.42962 3.79737472,16.7480908 C3.62342414,16.2634301 3.22215442,15.8962615 2.72518616,15.7671751 C2.02639031,15.5856561 1.54429602,14.9449652 1.56155543,14.220767 C1.57381009,13.7057828 1.33175731,13.2179301 0.914865249,12.917417 C0.328606405,12.4948116 0.109706502,11.7226403 0.386465204,11.0535972 C0.583288023,10.5778083 0.533193622,10.035176 0.252599494,9.60379278 C-0.14193484,8.99718062 -0.0681262832,8.19778381 0.430759693,7.67425635 C0.785536566,7.3019712 0.934135924,6.77778657 0.827819796,6.2738333 C0.678284968,5.56517248 1.03483923,4.8464664 1.68849867,4.53919385 C2.15333355,4.32063885 2.48056084,3.88578201 2.5628354,3.37727551 C2.67845945,2.66223078 3.26967628,2.12138228 3.98980084,2.07176616 C4.50192371,2.03651384 4.96357799,1.74961347 5.22331115,1.30527464 C5.58851851,0.680449572 6.3345088,0.390451127 7.02380962,0.605250881 C7.51404251,0.758042228 8.0478215,0.657871188 8.44993314,0.337689998 C9.01542456,-0.112563333 9.81543822,-0.112563333 10.3808829,0.337689998 Z" id="Path" fill="#E8AE4D"></path>
                    <g transform="translate(2.562602, 2.538073)" id="Path">
                        <path d="M11.0907881,6.8772535 C11.0907881,3.69914656 9.0478159,1.00006748 6.20801061,0.0300419237 C2.72567798,0.356184558 0,3.29724195 0,6.8772535 C0,10.4572651 2.72567798,13.3983224 6.20801061,13.7244651 C9.04786267,12.7544395 11.0907881,10.0554074 11.0907881,6.8772535 Z" fill="#FFE07D"></path>
                        <path d="M6.85282986,0 C6.32821847,0 5.81745203,0.0593797398 5.32661109,0.171426727 C8.37661641,0.867648308 10.6531754,3.60554719 10.6531754,6.8772535 C10.6531754,10.1489598 8.37661641,12.8868587 5.32661109,13.5830803 C5.81745203,13.6951273 6.32821847,13.754507 6.85282986,13.754507 C10.6375063,13.754507 13.7056129,10.6754445 13.7056129,6.8772535 C13.7056129,3.07906248 10.6375063,0 6.85282986,0 Z" fill="#FFD064"></path>
                        <path d="M7.04160764,9.51685896 L9.40680239,11.1146199 C9.49978807,11.1774263 9.60254941,11.1866736 9.69249482,11.1588848 C9.77607904,11.0448663 9.85643588,10.928313 9.93342504,10.8093658 C9.93160087,10.7866935 9.92743803,10.7635049 9.92074942,10.7399408 L9.13748067,7.98875773 C9.09968769,7.85596304 9.14580635,7.71345167 9.25418051,7.62834853 L11.0604789,6.2092901 C11.0304971,5.88070656 10.9785785,5.55845999 10.9062667,5.24405248 L8.45365234,5.15575739 C8.31613829,5.15082864 8.19532239,5.06272131 8.14817471,4.93302469 L7.17042181,2.24516439 C7.06228152,1.94789017 6.64333143,1.94789017 6.53519113,2.24516439 L5.557485,4.93293081 C5.51029056,5.06262743 5.38952142,5.15073476 5.25200738,5.15566351 L2.40275385,5.25822851 C2.08759412,5.26958812 1.95817189,5.66942735 2.20644554,5.86451209 L4.45147921,7.62825465 C4.5598066,7.71335779 4.60597203,7.85586916 4.56817905,7.98866385 L3.78491029,10.7398469 C3.6982858,11.0441622 4.03720647,11.291257 4.29881056,11.114573 L6.66400531,9.51681202 C6.77817938,9.43978265 6.92748034,9.43978265 7.04160764,9.51685896 Z" fill="#E8AE4D"></path>
                        <g transform="translate(9.269054, 5.227717)" fill="#E5A32E">
                            <path d="M0.137747909,5.88690271 C0.399352003,6.06363371 0.738272666,5.81649195 0.651648174,5.51217665 L0.509643878,5.0133399 C0.357209094,5.28554789 0.186672973,5.54616158 0,5.79386663 L0.137747909,5.88690271 Z"></path>
                            <path d="M2.03385139,0.0305582692 L1.18556749,0 C1.28912398,0.422089028 1.35367139,0.85948066 1.37556138,1.3082319 L2.2301597,0.636841842 C2.47843335,0.44180404 2.34896435,0.0419178716 2.03385139,0.0305582692 Z"></path>
                        </g>
                    </g>
                </g>
            </g>
        </g>
    </g>
</svg>
