<?xml version="1.0" encoding="UTF-8"?>
<svg width="35px" height="24px" viewBox="0 0 35 24" version="1.1" xmlns="http://www.w3.org/2000/svg" xmlns:xlink="http://www.w3.org/1999/xlink">
    <title>Combined Shape</title>
    <g id="Page-1" stroke="none" stroke-width="1" fill="none" fill-rule="evenodd">
        <g id="0.Elements" transform="translate(-548.000000, -674.000000)" fill="#34495E">
            <path d="M578.923339,674 C580.667356,674 582.081253,675.413791 582.081253,677.157914 L582.081253,694.842086 C582.081253,696.586103 580.667356,698 578.923339,698 L551.157914,698 C549.413791,698 548,696.586103 548,694.842086 L548,677.157914 C548,675.413791 549.413791,674 551.157914,674 L578.923339,674 Z M556.519757,678.218317 C555.841158,678.218317 555.291065,678.768482 555.291065,679.447009 L555.291065,679.447009 L555.291065,679.860173 C553.795641,680.365703 552.715612,681.781071 552.715612,683.444957 C552.715612,685.531294 554.413119,687.228657 556.499456,687.228657 C557.230825,687.228657 557.825842,687.823673 557.825842,688.555043 C557.825842,690.308415 555.172997,690.307767 555.172997,688.555043 C555.172997,687.876443 554.622904,687.32635 553.944305,687.32635 C553.265706,687.32635 552.715612,687.876515 552.715612,688.555043 C552.715612,690.218929 553.795641,691.634369 555.291065,692.139827 L555.291065,692.139827 L555.291065,692.552847 C555.291065,693.231446 555.841158,693.781539 556.519757,693.781539 C557.198357,693.781539 557.74845,693.231374 557.74845,692.552847 L557.74845,692.552847 L557.74845,692.126005 C559.222708,691.608668 560.283227,690.203738 560.283227,688.554971 C560.283227,686.468634 558.585792,684.771271 556.499456,684.771271 C555.768014,684.771271 555.172997,684.176327 555.172997,683.444885 C555.172997,681.691513 557.825842,681.692161 557.825842,683.444885 C557.825842,684.123485 558.376007,684.673578 559.054534,684.673578 C559.733134,684.673578 560.283227,684.123413 560.283227,683.444885 C560.283227,681.796046 559.22278,680.391044 557.74845,679.873851 L557.74845,679.873851 L557.74845,679.447009 C557.74845,678.76841 557.198357,678.218317 556.519757,678.218317 Z M577.734879,689.849752 L567.98741,689.849752 C567.308811,689.849752 566.758718,690.399845 566.758718,691.078445 C566.758718,691.757044 567.308883,692.307137 567.98741,692.307137 L567.98741,692.307137 L577.734807,692.307137 C578.413407,692.307137 578.963572,691.757044 578.963572,691.078445 C578.963572,690.399845 578.413407,689.849752 577.734879,689.849752 L577.734879,689.849752 Z M577.734879,684.771271 L567.98741,684.771271 C567.308811,684.771271 566.758718,685.321365 566.758718,685.999964 C566.758718,686.678563 567.308883,687.228657 567.98741,687.228657 L567.98741,687.228657 L577.734807,687.228657 C578.413407,687.228657 578.963572,686.678563 578.963572,685.999964 C578.963572,685.321365 578.413407,684.771271 577.734879,684.771271 L577.734879,684.771271 Z M577.734879,679.692719 L567.98741,679.692719 C567.308811,679.692719 566.758718,680.242812 566.758718,680.921411 C566.758718,681.600011 567.308883,682.150104 567.98741,682.150104 L567.98741,682.150104 L577.734807,682.150104 C578.413407,682.150104 578.963572,681.600011 578.963572,680.921411 C578.963572,680.242812 578.413407,679.692719 577.734879,679.692719 L577.734879,679.692719 Z" id="Combined-Shape"></path>
        </g>
    </g>
</svg>