<?xml version="1.0" encoding="UTF-8"?>
<svg width="20px" height="20px" viewBox="0 0 20 20" version="1.1" xmlns="http://www.w3.org/2000/svg" xmlns:xlink="http://www.w3.org/1999/xlink">
    <title>Combined Shape</title>
    <defs>
        <linearGradient x1="27.8856792%" y1="0%" x2="72.384118%" y2="78.5122418%" id="linearGradient-1">
            <stop stop-color="#FFFFFF" offset="0%"></stop>
            <stop stop-color="#F1F1F1" offset="100%"></stop>
        </linearGradient>
    </defs>
    <g id="Page-1" stroke="none" stroke-width="1" fill="none" fill-rule="evenodd">
        <g id="0.Elements" transform="translate(-274.000000, -425.000000)" fill="url(#linearGradient-1)" fill-rule="nonzero">
            <path d="M284.583705,425 L284.583705,426.426872 C284.665111,426.347654 284.75015,426.273669 284.839681,426.206326 C285.468,425.73371 286.321084,425.530038 287.37491,425.601014 C288.119206,425.651092 288.69897,425.826405 288.723306,425.833826 L288.723306,425.833826 L289.131391,425.95867 L289.137759,426.385388 L289.137759,426.385388 L289.137261,426.478533 C289.133663,426.680337 289.111506,427.184145 288.987173,427.764252 C288.762837,428.811047 288.33026,429.581593 287.701433,430.05456 C287.158622,430.462802 286.45085,430.668739 285.593234,430.668739 C285.456594,430.668739 285.316125,430.663505 285.171946,430.653036 C285.147259,430.651239 285.122766,430.649286 285.09843,430.647216 L285.09843,430.647216 L288.614329,436.951501 C288.808146,436.823585 289.046477,436.693821 289.330805,436.585563 C290.194085,436.256853 291.126505,436.322595 291.956425,436.770524 C292.734119,437.190289 293.344469,437.899623 293.675054,438.767825 C294.146772,440.006807 294.096616,441.309656 293.533805,442.43645 C293.022165,443.460589 292.108221,444.284259 291.026388,444.696172 C290.494201,444.898789 289.926116,445 289.359672,445 C288.774595,445 288.191237,444.891992 287.651004,444.67629 C286.481357,444.20922 285.577336,443.269652 285.105579,442.030709 C284.775072,441.162507 284.759095,440.226845 285.060657,439.396144 C285.382492,438.509661 286.035108,437.840444 286.89831,437.511772 C287.108878,437.431605 287.308512,437.377037 287.491282,437.340563 L283.997808,431.080105 L280.537624,437.347313 C280.71126,437.383673 280.89948,437.436418 281.097384,437.511772 C281.960624,437.840444 282.61324,438.509661 282.935036,439.396105 C283.236598,440.226845 283.220622,441.162468 282.890075,442.03067 C282.418319,443.269613 281.514336,444.209181 280.34469,444.676251 C279.804496,444.891953 279.221059,444.999961 278.635982,444.999961 C278.069499,444.999961 277.501531,444.898789 276.969345,444.696133 C275.887472,444.284181 274.973567,443.46055 274.461928,442.436372 C273.899077,441.309617 273.848921,440.006768 274.320639,438.767825 C274.651224,437.899623 275.261575,437.190289 276.039308,436.770524 C276.869228,436.322595 277.801609,436.256931 278.664888,436.585563 C278.962004,436.698703 279.208876,436.8353 279.407223,436.968731 L283.411832,429.727569 L283.411832,425 L284.583705,425 Z" id="Combined-Shape"></path>
        </g>
    </g>
</svg>