<?xml version="1.0" encoding="UTF-8"?>
<svg width="14px" height="14px" viewBox="0 0 14 14" version="1.1" xmlns="http://www.w3.org/2000/svg" xmlns:xlink="http://www.w3.org/1999/xlink">
    <title>Combined Shape</title>
    <g id="Page-1" stroke="none" stroke-width="1" fill="none" fill-rule="evenodd">
        <g id="0.Elements" transform="translate(-348.000000, -428.000000)" fill="#FFFFFF" fill-rule="nonzero">
            <path d="M349.707107,428.292893 L354.656,433.242 L359.606602,428.292893 C359.967086,427.932409 360.534317,427.90468 360.926608,428.209705 L361.020815,428.292893 C361.41134,428.683418 361.41134,429.316582 361.020815,429.707107 L361.020815,429.707107 L356.071,434.656 L361.020815,439.606602 C361.41134,439.997126 361.41134,440.630291 361.020815,441.020815 C360.630291,441.41134 359.997126,441.41134 359.606602,441.020815 L354.656,436.071 L349.707107,441.020815 C349.346623,441.381299 348.779392,441.409029 348.387101,441.104004 L348.292893,441.020815 C347.902369,440.630291 347.902369,439.997126 348.292893,439.606602 L348.292893,439.606602 L353.242,434.656 L348.292893,429.707107 C347.902369,429.316582 347.902369,428.683418 348.292893,428.292893 C348.683418,427.902369 349.316582,427.902369 349.707107,428.292893 Z" id="Combined-Shape"></path>
        </g>
    </g>
</svg>