<?xml version="1.0" encoding="UTF-8"?>
<svg width="8px" height="8px" viewBox="0 0 8 8" version="1.1" xmlns="http://www.w3.org/2000/svg" xmlns:xlink="http://www.w3.org/1999/xlink">
    <title>Combined Shape</title>
    <g id="Page-1" stroke="none" stroke-width="1" fill="none" fill-rule="evenodd">
        <g id="0.Elements" transform="translate(-406.000000, -431.000000)" fill="#FFFFFF">
            <path d="M407.87868,431.464466 L409.999573,433.584573 L412.12132,431.464466 C412.511845,431.073942 413.14501,431.073942 413.535534,431.464466 C413.926058,431.85499 413.926058,432.488155 413.535534,432.87868 L411.413573,434.999573 L413.535534,437.12132 C413.926058,437.511845 413.926058,438.14501 413.535534,438.535534 C413.14501,438.926058 412.511845,438.926058 412.12132,438.535534 L409.999573,436.413573 L407.87868,438.535534 C407.488155,438.926058 406.85499,438.926058 406.464466,438.535534 C406.073942,438.14501 406.073942,437.511845 406.464466,437.12132 L408.584573,434.999573 L406.464466,432.87868 C406.073942,432.488155 406.073942,431.85499 406.464466,431.464466 C406.85499,431.073942 407.488155,431.073942 407.87868,431.464466 Z" id="Combined-Shape"></path>
        </g>
    </g>
</svg>