<?xml version="1.0" encoding="UTF-8"?>
<svg width="12px" height="12px" viewBox="0 0 12 12" version="1.1" xmlns="http://www.w3.org/2000/svg" xmlns:xlink="http://www.w3.org/1999/xlink">
    <title>Combined Shape</title>
    <defs>
        <linearGradient x1="50%" y1="0%" x2="50%" y2="91.1995972%" id="linearGradient-1">
            <stop stop-color="#258912" offset="0%"></stop>
            <stop stop-color="#176F07" offset="100%"></stop>
        </linearGradient>
    </defs>
    <g id="Page-1" stroke="none" stroke-width="1" fill="none" fill-rule="evenodd">
        <g id="0.Elements" transform="translate(-854.000000, -429.000000)" fill="url(#linearGradient-1)">
            <path d="M861.241145,429.037241 C861.403811,428.958955 861.600698,429.007239 861.709455,429.15256 L861.709455,429.15256 L862.506847,430.216687 L863.835834,430.268722 C864.016783,430.276222 864.16773,430.409824 864.197263,430.588897 L864.197263,430.588897 L864.409151,431.901477 L865.561408,432.565737 C865.718449,432.655742 865.789703,432.84466 865.732512,433.016702 L865.732512,433.016702 L865.310143,434.277247 L866.022217,435.40044 C866.119255,435.553731 866.094409,435.753899 865.96362,435.879532 L865.96362,435.879532 L865.00403,436.799744 L865.11185,438.124512 C865.126382,438.30593 865.012,438.471877 864.838083,438.522037 L864.838083,438.522037 L863.560661,438.890028 L863.040786,440.114009 C862.97,440.280894 862.790458,440.376056 862.613729,440.338553 L862.613729,440.338553 L861.310524,440.07135 L860.282024,440.913745 C860.211708,440.970467 860.12639,441 860.040603,441 C859.954817,441 859.86903,440.970467 859.799182,440.913745 L859.799182,440.913745 L858.770682,440.07135 L857.467478,440.338553 C857.29028,440.376993 857.111675,440.280425 857.040421,440.114009 L857.040421,440.114009 L856.520545,438.890028 L855.243124,438.522037 C855.069207,438.471409 854.954825,438.30593 854.969357,438.124512 L854.969357,438.124512 L855.077176,436.799744 L854.117587,435.879532 C853.986797,435.753899 853.961952,435.553731 854.058989,435.40044 L854.058989,435.40044 L854.770595,434.276778 L854.348226,433.016233 C854.291035,432.844191 854.362758,432.655273 854.519799,432.565268 L854.519799,432.565268 L855.672056,431.901009 L855.883944,430.588429 C855.913008,430.409355 856.064424,430.275753 856.244904,430.268722 L856.244904,430.268722 L857.573891,430.216687 L858.371283,429.15256 C858.480508,429.007707 858.676458,428.959423 858.839593,429.036772 L858.839593,429.036772 L860.040603,429.608213 Z M862.137919,432.694651 C861.982284,432.5873 861.768052,432.627615 861.662577,432.786531 L861.662577,432.786531 L859.560574,435.935785 L858.285965,434.641019 C858.153301,434.506948 857.936256,434.506948 857.802655,434.641019 L857.802655,434.641019 L857.319344,435.133237 C857.185742,435.269182 857.185742,435.489508 857.319344,435.625454 L857.319344,435.625454 L859.277901,437.615419 C859.388064,437.726051 859.561043,437.812775 859.71574,437.812775 C859.870906,437.812775 860.027009,437.712925 860.127796,437.563853 L860.127796,437.563853 L862.795615,433.567048 C862.90109,433.409069 862.860775,433.192025 862.704672,433.084206 L862.704672,433.084206 Z" id="Combined-Shape"></path>
        </g>
    </g>
</svg>