<?xml version="1.0" encoding="UTF-8"?>
<svg width="22px" height="19px" viewBox="0 0 22 19" version="1.1" xmlns="http://www.w3.org/2000/svg" xmlns:xlink="http://www.w3.org/1999/xlink">
    <title>Combined Shape</title>
    <defs>
        <linearGradient x1="40.2536707%" y1="25.284182%" x2="68.1202068%" y2="86.0333934%" id="linearGradient-1">
            <stop stop-color="#C52A2E" offset="0%"></stop>
            <stop stop-color="#A71E22" offset="100%"></stop>
        </linearGradient>
    </defs>
    <g id="Page-1" stroke="none" stroke-width="1" fill="none" fill-rule="evenodd">
        <g id="0.Elements" transform="translate(-413.000000, -492.000000)" fill="url(#linearGradient-1)">
            <path d="M419.999982,505 C421.378498,505 422.499982,506.121484 422.499982,507.5 C422.499982,508.878516 421.378498,510 419.999982,510 C418.621466,510 417.499982,508.878516 417.499982,507.5 C417.499982,506.121484 418.621466,505 419.999982,505 Z M417.812482,490 C418.563263,490 419.269513,490.292461 419.801076,490.823477 C420.332521,491.355391 420.624982,492.061641 420.624982,492.8125 L420.624982,492.8125 L420.624982,497.5 L422.61717,497.5 C422.725021,497.5 422.812482,497.587461 422.812482,497.695312 L422.812482,497.695312 L422.812482,500.625 C422.812482,500.970195 423.092287,501.25 423.437482,501.25 L423.437482,501.25 L426.562482,501.25 C426.907677,501.25 427.187482,500.970195 427.187482,500.625 L427.187482,500.625 L427.187482,497.695312 C427.187482,497.587461 427.274943,497.5 427.382795,497.5 L427.382795,497.5 L429.999982,497.5 C430.345177,497.5 430.624982,497.779805 430.624982,498.125 L430.624982,498.125 L430.624982,506.875 L431.857326,506.875 C432.193849,506.875 432.48342,507.133633 432.499279,507.469766 C432.516193,507.828672 432.230216,508.125 431.874982,508.125 L431.874982,508.125 L423.921584,508.125 C423.805373,508.125 423.715021,508.02418 423.727677,507.908672 C423.742365,507.774453 423.749982,507.638086 423.749982,507.5 C423.749982,505.432227 422.067755,503.75 419.999982,503.75 C419.861857,503.75 419.725529,503.757617 419.59131,503.772305 C419.475763,503.784961 419.374982,503.694609 419.374982,503.578398 L419.374982,503.578398 L419.374982,492.8125 C419.374982,492.395312 419.212365,492.002813 418.91717,491.707344 C418.62213,491.412578 418.22967,491.25 417.812482,491.25 C416.95092,491.25 416.249982,491.950938 416.249982,492.8125 C416.249982,493.163789 415.960177,493.447383 415.606623,493.437227 C415.26631,493.427461 414.998068,493.136484 415.00001,492.796055 C415.008888,491.252773 416.26713,490 417.812482,490 Z M425.74217,497.5 C425.850021,497.5 425.937482,497.587461 425.937482,497.695312 L425.937482,497.695312 L425.937482,499.804688 C425.937482,499.912539 425.850021,500 425.74217,500 L425.74217,500 L424.257795,500 C424.149943,500 424.062482,499.912539 424.062482,499.804688 L424.062482,499.804688 L424.062482,497.695312 C424.062482,497.587461 424.149943,497.5 424.257795,497.5 L424.257795,497.5 Z" id="Combined-Shape" transform="translate(423.749996, 500.000000) rotate(-17.000000) translate(-423.749996, -500.000000) "></path>
        </g>
    </g>
</svg>
