<?xml version="1.0" encoding="UTF-8"?>
<svg width="275px" height="305px" viewBox="0 0 275 305" version="1.1" xmlns="http://www.w3.org/2000/svg" xmlns:xlink="http://www.w3.org/1999/xlink">
    <title>5. Cart Empty</title>
    <defs>
        <linearGradient x1="46.0776508%" y1="-8.33299977%" x2="48.6579325%" y2="116.82251%" id="linearGradient-1">
            <stop stop-color="#D34047" offset="0%"></stop>
            <stop stop-color="#A71E22" offset="100%"></stop>
        </linearGradient>
        <polygon id="path-2" points="0.021874898 0.351829787 20.5018738 0.351829787 20.5018738 32.9734213 0.021874898 32.9734213"></polygon>
        <linearGradient x1="46.395348%" y1="-8.33299977%" x2="48.7666355%" y2="116.82251%" id="linearGradient-4">
            <stop stop-color="#D34047" offset="0%"></stop>
            <stop stop-color="#A71E22" offset="100%"></stop>
        </linearGradient>
        <linearGradient x1="40.22129%" y1="8.91899117%" x2="46.6541253%" y2="97.0597453%" id="linearGradient-5">
            <stop stop-color="#D34047" offset="0%"></stop>
            <stop stop-color="#A71E22" offset="100%"></stop>
        </linearGradient>
    </defs>
    <g id="Page-1" stroke="none" stroke-width="1" fill="none" fill-rule="evenodd">
        <g id="5.-Cart-Empty" transform="translate(-616.000000, -274.000000)">
            <g id="Group-4" transform="translate(689.063830, 331.744681) rotate(-5.000000) translate(-689.063830, -331.744681) translate(653.659574, 298.000000)">
                <g id="Group-3" transform="translate(36.510638, 0.000000)">
                    <mask id="mask-3" fill="white">
                        <use xlink:href="#path-2"></use>
                    </mask>
                    <g id="Clip-2"></g>
                    <path d="M7.15150611,32.9734213 C7.15150611,32.9734213 -4.24270391,18.2417106 1.77751846,13.4004 C7.79774084,8.55975319 13.6009694,6.03454468 13.1717285,0.351497872 C14.676445,3.08780426 24.1360195,13.4004 18.9763132,22.4497277 C13.8172851,31.4997191 7.15150611,32.9734213 7.15150611,32.9734213" id="Fill-1" fill="#A71E22" mask="url(#mask-3)"></path>
                </g>
                <path d="M39.8297872,34.3689153 C39.8297872,34.3689153 29.5448087,16.3873122 23.4166182,17.7789267 C17.2884276,19.1712163 10.7232981,23.879478 7.00275886,24.522281 C3.28290992,25.1657592 -9.09494702e-13,24.522281 -9.09494702e-13,24.522281 C-9.09494702e-13,24.522281 10.2842882,39.5072878 19.9135131,40.7922186 C29.5434282,42.0744485 39.8297872,34.3689153 39.8297872,34.3689153" id="Fill-4" fill="#721011"></path>
                <path d="M41.0203614,36.5106383 C41.0203614,36.5106383 48.6808511,44.2856517 48.6808511,49.3017255 C48.6808511,54.3184587 43.6097835,56.8281442 41.1851554,59.7552313 C38.7612227,62.681659 36.48331,65.400375 36.2997419,67.4893617 C34.5725334,64.5622746 27.2986491,52.2288126 30.8246855,46.5843283 C34.3514173,40.9391846 41.0203614,36.5106383 41.0203614,36.5106383" id="Fill-6" fill="url(#linearGradient-4)"></path>
                <path d="M44.2553191,36.767686 C44.2553191,36.767686 52.0790646,31.4073534 58.4688737,33.8119177 C64.859378,36.216482 68.1644517,40.4244694 70.8085106,43.2304265 C67.5027419,42.8290337 64.1976682,43.8315676 60.8925945,45.6349908 C57.5875208,47.438414 51.1455811,47.0660985 44.2553191,36.767686" id="Fill-8" fill="#721011"></path>
                <path d="M37.6160456,26.5505294 C37.6743278,26.7700812 35.1174777,13.3332226 31.034692,14.4488027 C26.2873373,16.6721216 37.6160456,26.5505294 37.6160456,26.5505294" id="Fill-10" fill="#6F0F10"></path>
                <path d="M31.0025725,14.3829787 C31.0025725,14.3829787 30.4826569,8.55762559 34.2978723,6.63829787" id="Stroke-12" stroke="#6F0F10" stroke-width="0.995" stroke-linecap="round"></path>
                <path d="M29.8723404,14.3829787 C29.8723404,14.3829787 24.8392031,12.5471713 22.1276596,13.6050859" id="Stroke-14" stroke="#6F0F10" stroke-width="0.995" stroke-linecap="round"></path>
            </g>
            <path d="M708.637639,348.966638 C745.922713,400.86466 775.763524,415.952132 798.160072,394.229056 C831.754894,361.644441 777.444435,342.152515 758.405,348.966638 C739.365565,355.780761 727.036857,373.084839 741.728766,438.999433" id="Path-2" stroke="#979797" opacity="0.38999939" stroke-linecap="round" stroke-linejoin="round" stroke-dasharray="4"></path>
            <path d="M724,523 C733.3755,523 741,530.6245 741,540 C741,549.3755 733.3755,557 724,557 C714.6245,557 707,549.3755 707,540 C707,530.6245 714.6245,523 724,523 Z M782,523 C791.3755,523 799,530.6245 799,540 C799,549.3755 791.3755,557 782,557 C772.6245,557 765,549.3755 765,540 C765,530.6245 772.6245,523 782,523 Z M661.041497,390 C671.795436,390 681.322249,397.034933 684.232528,407.112 L688.950332,423.066667 L815.767215,423.066667 C820.941046,423.066667 825.849551,425.521867 828.892493,429.638667 C831.910561,433.7224 832.781158,438.8312 831.280415,443.658933 L814.175268,497.789067 C810.825544,507.560267 801.64697,514 791.291018,514 L716.718213,514 C705.964274,514 696.42917,506.965067 693.518891,496.888 L668.31305,411.733067 C667.41758,408.6496 664.440969,406.533333 661.041497,406.533333 L641.291395,406.533333 C636.706253,406.533333 633,402.829867 633,398.266667 C633,393.703467 636.706253,390 641.291395,390 L661.041497,390 Z" id="Combined-Shape" fill="url(#linearGradient-5)"></path>
        </g>
    </g>
</svg>