<?xml version="1.0" encoding="UTF-8"?>
<svg width="12px" height="21px" viewBox="0 0 12 21" version="1.1" xmlns="http://www.w3.org/2000/svg" xmlns:xlink="http://www.w3.org/1999/xlink">
    <title>Path</title>
    <defs>
        <linearGradient x1="46.279002%" y1="25.284182%" x2="56.9180151%" y2="86.0333934%" id="linearGradient-1">
            <stop stop-color="#C52A2E" offset="0%"></stop>
            <stop stop-color="#A71E22" offset="100%"></stop>
        </linearGradient>
    </defs>
    <g id="Page-1" stroke="none" stroke-width="1" fill="none" fill-rule="evenodd">
        <g id="0.Elements" transform="translate(-844.000000, -489.000000)" fill="url(#linearGradient-1)">
            <path d="M854.926126,489.004369 L852.202896,489 C849.143441,489 847.166287,491.028495 847.166287,494.168128 L847.166287,496.550982 L844.428201,496.550982 C844.191598,496.550982 844,496.742798 844,496.979401 L844,500.431884 C844,500.668487 844.191817,500.860086 844.428201,500.860086 L847.166287,500.860086 L847.166287,509.571799 C847.166287,509.808402 847.357885,510 847.594488,510 L851.166911,510 C851.403514,510 851.595113,509.808183 851.595113,509.571799 L851.595113,500.860086 L854.796573,500.860086 C855.033176,500.860086 855.224775,500.668487 855.224775,500.431884 L855.226085,496.979401 C855.226085,496.865797 855.180862,496.756999 855.100683,496.676602 C855.020505,496.596205 854.91127,496.550982 854.797665,496.550982 L851.595113,496.550982 L851.595113,494.531007 C851.595113,493.560126 851.826472,493.067258 853.091196,493.067258 L854.925689,493.066602 C855.162074,493.066602 855.353672,492.874785 855.353672,492.638401 L855.353672,489.432571 C855.353672,489.196405 855.162292,489.004806 854.926126,489.004369 Z" id="Path"></path>
        </g>
    </g>
</svg>
