<?xml version="1.0" encoding="UTF-8"?>
<svg width="16px" height="16px" viewBox="0 0 16 16" version="1.1" xmlns="http://www.w3.org/2000/svg" xmlns:xlink="http://www.w3.org/1999/xlink">
    <title>Combined Shape</title>
    <defs>
        <linearGradient x1="37.914536%" y1="25.284182%" x2="72.4690855%" y2="86.0333934%" id="linearGradient-1">
            <stop stop-color="#C52A2E" offset="0%"></stop>
            <stop stop-color="#A71E22" offset="100%"></stop>
        </linearGradient>
    </defs>
    <g id="Page-1" stroke="none" stroke-width="1" fill="none" fill-rule="evenodd">
        <g id="0.Elements" transform="translate(-724.000000, -492.000000)" fill="url(#linearGradient-1)">
            <path d="M726.25641,503.487179 C727.289255,503.487179 728.160016,504.181087 728.427881,505.128205 L738.974359,505.128205 C739.314215,505.128205 739.589744,505.403733 739.589744,505.74359 C739.589744,506.083446 739.314215,506.358974 738.974359,506.358974 L728.427881,506.358974 C728.160016,507.306092 727.289255,508 726.25641,508 C725.010232,508 724,506.989785 724,505.74359 C724,504.497395 725.010232,503.487179 726.25641,503.487179 Z M733.230769,497.74359 C734.263631,497.74359 735.134359,498.437497 735.402256,499.384615 L738.974359,499.384615 C739.314215,499.384615 739.589744,499.660144 739.589744,500 C739.589744,500.339856 739.314215,500.615385 738.974359,500.615385 L735.402256,500.615385 C735.134359,501.562503 734.263631,502.25641 733.230769,502.25641 C732.197908,502.25641 731.327179,501.562503 731.059282,500.615385 L725.025641,500.615385 C724.685776,500.615385 724.410256,500.339856 724.410256,500 C724.410256,499.660144 724.685776,499.384615 725.025641,499.384615 L731.059282,499.384615 C731.327179,498.437497 732.197908,497.74359 733.230769,497.74359 Z M726.25641,492 C727.289255,492 728.160016,492.693949 728.427881,493.641026 L738.974359,493.641026 C739.314215,493.641026 739.589744,493.916546 739.589744,494.25641 C739.589744,494.596275 739.314215,494.871795 738.974359,494.871795 L728.427881,494.871795 C728.160016,495.818872 727.289255,496.512821 726.25641,496.512821 C725.010232,496.512821 724,495.502589 724,494.25641 C724,493.010232 725.010232,492 726.25641,492 Z" id="Combined-Shape"></path>
        </g>
    </g>
</svg>