<?xml version="1.0" encoding="UTF-8"?>
<svg width="197px" height="24px" viewBox="0 0 197 24" version="1.1" xmlns="http://www.w3.org/2000/svg" xmlns:xlink="http://www.w3.org/1999/xlink">
    <title>Group 6</title>
    <defs>
        <polygon id="path-1" points="0 24 155.283911 24 155.283911 0 0 0"></polygon>
    </defs>
    <g id="Page-1" stroke="none" stroke-width="1" fill="none" fill-rule="evenodd">
        <g id="0.Elements" transform="translate(-55.000000, -674.000000)">
            <g id="Group-6" transform="translate(55.000000, 674.000000)">
                <g id="Group-4">
                    <path d="M31.9233708,24 L4.1579459,24 C2.41382283,24 1.0000317,22.5861032 1.0000317,20.8420858 L1.0000317,3.1579142 C1.0000317,1.41379113 2.41382283,0 4.1579459,0 L31.9233708,0 C33.6673882,0 35.081285,1.41379113 35.081285,3.1579142 L35.081285,20.8420858 C35.081285,22.5861032 33.6673882,24 31.9233708,24" id="Fill-1" fill="#253B80"></path>
                    <path d="M72.3242355,24 L44.5588107,24 C42.8146876,24 41.4008965,22.5861032 41.4008965,20.8420858 L41.4008965,3.1579142 C41.4008965,1.41379113 42.8146876,0 44.5588107,0 L72.3242355,0 C74.0682529,0 75.4821497,1.41379113 75.4821497,3.1579142 L75.4821497,20.8420858 C75.4821497,22.5861032 74.0682529,24 72.3242355,24" id="Fill-3" fill="#0066B2"></path>
                    <path d="M112.72509,24 L84.9595592,24 C83.2155418,24 81.801645,22.5861032 81.801645,20.8420858 L81.801645,3.1579142 C81.801645,1.41379113 83.2155418,0 84.9595592,0 L112.72509,0 C114.469107,0 115.883004,1.41379113 115.883004,3.1579142 L115.883004,20.8420858 C115.883004,22.5861032 114.469107,24 112.72509,24" id="Fill-5" fill="#36495D"></path>
                    <path d="M153.125902,24 L125.360477,24 C123.616354,24 122.202563,22.5861032 122.202563,20.8420858 L122.202563,3.1579142 C122.202563,1.41379113 123.616354,0 125.360477,0 L153.125902,0 C154.870025,0 156.283816,1.41379113 156.283816,3.1579142 L156.283816,20.8420858 C156.283816,22.5861032 154.870025,24 153.125902,24" id="Fill-7" fill="#006FCF"></path>
                    <path d="M22.2131756,8.81970438 L20.3561944,8.81970438 C20.2293875,8.81970438 20.1213903,8.91206206 20.1015239,9.03749521 L19.3506158,13.7985655 C19.335716,13.8925083 19.4084186,13.9772575 19.503101,13.9772575 L20.4561605,13.9772575 C20.5446083,13.9772575 20.6203754,13.912586 20.6342185,13.8246666 L20.8473597,12.4751243 C20.8669091,12.3493741 20.9752233,12.2570164 21.1019246,12.2570164 L21.6894631,12.2570164 C22.9128326,12.2570164 23.6184073,11.6652509 23.8030169,10.4923929 C23.8863925,9.9792477 23.8062928,9.57610747 23.5660994,9.2937508 C23.3024468,8.98370796 22.834635,8.81970438 22.2131756,8.81970438 M22.4273736,10.5586495 C22.3261394,11.224914 21.8171154,11.224914 21.3245763,11.224914 L21.0446501,11.224914 L21.2415178,9.98062144 C21.2532474,9.90538269 21.3178133,9.85001035 21.3941088,9.85001035 L21.5225007,9.85001035 C21.8575879,9.85001035 22.1740768,9.85001035 22.337552,10.0411717 C22.434982,10.1551923 22.4645702,10.3245851 22.4273736,10.5586495" id="Fill-15" fill="#FFFFFF"></path>
                    <path d="M27.7630376,10.5371874 L26.8744383,10.5371874 C26.7981428,10.5371874 26.7332599,10.5925598 26.7218473,10.6677985 L26.6825372,10.9164457 L26.6200848,10.8263071 C26.4275497,10.5469093 25.9986254,10.4534949 25.5702294,10.4534949 C24.5876874,10.4534949 23.7487542,11.1977457 23.585279,12.2415777 C23.5006354,12.7623313 23.6208906,13.2602597 23.9162449,13.6074992 C24.187823,13.9267356 24.574901,14.0597771 25.0361611,14.0597771 C25.8278588,14.0597771 26.2668219,13.5507531 26.2668219,13.5507531 L26.2271948,13.7977096 C26.212295,13.8922864 26.2851033,13.9770356 26.3803141,13.9770356 L27.1809939,13.9770356 C27.3076952,13.9770356 27.415798,13.8846779 27.4356644,13.7589278 L27.9164739,10.7157738 C27.9310567,10.6221481 27.8583541,10.5371874 27.7630376,10.5371874 M26.5236059,12.2676788 C26.4384339,12.775646 26.0347653,13.1166509 25.5205634,13.1166509 C25.2628284,13.1166509 25.0560275,13.0338037 24.9235143,12.8769859 C24.7920578,12.7210134 24.7427088,12.499207 24.7840267,12.2521449 C24.8645491,11.7485102 25.2740297,11.3964098 25.7803062,11.3964098 C26.0327576,11.3964098 26.2380791,11.4803137 26.3733397,11.6386109 C26.5093401,11.7984933 26.5630217,12.0216734 26.5236059,12.2676788" id="Fill-17" fill="#FFFFFF"></path>
                    <path d="M28.8112973,8.95029434 L28.0491879,13.7985444 C28.0342881,13.8924871 28.1069907,13.9772364 28.2017788,13.9772364 L28.9679038,13.9772364 C29.095239,13.9772364 29.2032362,13.8849844 29.2228913,13.7592342 L29.9743278,8.99837529 C29.9892276,8.90443252 29.916525,8.8194719 29.8218425,8.8194719 L28.9638882,8.8194719 C28.8881211,8.81968325 28.8229212,8.87516126 28.8112973,8.95029434" id="Fill-19" fill="#FFFFFF"></path>
                    <polygon id="Fill-21" fill="#FFFFFF" points="56.9946142 15.7597186 55.2196348 15.7597186 56.3290894 8.94152353 58.1041745 8.94152353"></polygon>
                    <path d="M53.7261984,8.9414707 L52.0337491,13.6310008 L51.8336056,12.6210896 L51.8338169,12.6215123 L51.2364508,9.55553305 C51.2364508,9.55553305 51.1642766,8.9414707 50.3943474,8.9414707 L47.5967761,8.9414707 L47.5640177,9.05686496 C47.5640177,9.05686496 48.4198585,9.2348173 49.4207875,9.83641031 L50.9630763,15.7596657 L52.8125548,15.7596657 L55.6367555,8.9414707 L53.7261984,8.9414707 Z" id="Fill-23" fill="#FFFFFF"></path>
                    <path d="M65.7352334,13.3478304 L66.6680037,10.7962645 L67.1926672,13.3478304 L65.7352334,13.3478304 Z M67.6884821,15.7596974 L69.3183733,15.7596974 L67.8972908,8.9415024 L66.470185,8.9415024 C65.8111062,8.9415024 65.6506955,9.44957533 65.6506955,9.44957533 L63.0033903,15.7596974 L64.8536085,15.7596974 L65.2237789,14.7470388 L67.4803075,14.7470388 L67.6884821,15.7596974 Z" id="Fill-25" fill="#FFFFFF"></path>
                    <path d="M63.142191,10.5810943 L63.3954878,9.11668611 C63.3954878,9.11668611 62.6137233,8.81942963 61.7988834,8.81942963 C60.9179982,8.81942963 58.8261072,9.20471123 58.8261072,11.0765922 C58.8261072,12.8382569 61.2812999,12.8602368 61.2812999,13.7850817 C61.2812999,14.7100323 59.0791927,14.544655 58.3524835,13.9612376 L58.0884082,15.4919024 C58.0884082,15.4919024 58.8809512,15.877184 60.092274,15.877184 C61.3033855,15.877184 63.1312011,15.2495956 63.1312011,13.5428805 C63.1312011,11.7701202 60.6538172,11.6050599 60.6538172,10.8343911 C60.6538172,10.0635109 62.3826178,10.1626316 63.142191,10.5810943" id="Fill-27" fill="#FFFFFF"></path>
                    <path d="M51.8337958,12.6215334 L51.2364297,9.55555419 C51.2364297,9.55555419 51.1643611,8.94149183 50.3943263,8.94149183 L47.596755,8.94149183 L47.5639965,9.0568861 C47.5639965,9.0568861 48.9086779,9.33564991 50.1987266,10.3796933 C51.4316066,11.3776635 51.8337958,12.6215334 51.8337958,12.6215334" id="Fill-29" fill="#F9A533"></path>
                    <g id="Clip-33">
                        <mask id="mask-2" fill="white">
                            <use xlink:href="#path-1"></use>
                        </mask>
                        <g id="Clip-32"></g>
                    </g>
                    <polygon id="Fill-31" fill="#F16522" points="95.9789932 17.1446083 101.704853 17.1446083 101.704853 6.85539171 95.9789932 6.85539171"></polygon>
                    <path d="M96.3427705,11.9999894 C96.3427705,9.91264238 97.3202402,8.0536534 98.8420286,6.85532831 C97.7287698,5.97898704 96.3245948,5.45622565 94.7980512,5.45622565 C91.1842663,5.45622565 88.2547101,8.38609879 88.2547101,11.9999894 C88.2547101,15.6138801 91.1842663,18.5437532 94.7980512,18.5437532 C96.3245948,18.5437532 97.7287698,18.0209918 98.8420286,17.1446506 C97.3202402,15.9463255 96.3427705,14.0873365 96.3427705,11.9999894" id="Fill-33" fill="#E41B24"></path>
                    <path d="M109.225209,16.0545446 L109.225209,15.8008251 L109.158847,15.8008251 L109.082657,15.9755016 L109.006573,15.8008251 L108.940211,15.8008251 L108.940211,16.0545446 L108.986601,16.0545446 L108.986601,15.8630662 L109.058141,16.0283378 L109.10675,16.0283378 L109.17829,15.8626435 L109.17829,16.0545446 L109.225209,16.0545446 Z M108.805161,16.0545446 L108.805161,15.8439395 L108.890228,15.8439395 L108.890228,15.8012478 L108.673599,15.8012478 L108.673599,15.8439395 L108.758665,15.8439395 L108.758665,16.0545446 L108.805161,16.0545446 Z M109.429579,11.9995773 C109.429579,15.6138906 106.500023,18.5433411 102.886133,18.5433411 C101.359589,18.5433411 99.9553085,18.020474 98.8424724,17.1442384 C100.364366,15.946336 101.341519,14.0869244 101.341519,11.9995773 C101.341519,9.91223026 100.364366,8.05324128 98.8424724,6.85491619 C99.9553085,5.97899761 101.359589,5.45623621 102.886133,5.45623621 C106.500023,5.45623621 109.429579,8.38568667 109.429579,11.9995773 L109.429579,11.9995773 Z" id="Fill-34" fill="#F89E1C"></path>
                    <path d="M156.260473,19.2689935 L156.260473,13.6863203 L155.962371,13.6863203 L135.133072,13.6863203 L134.594248,14.4487467 L134.061553,13.6863203 L127.985813,13.6863203 L127.985813,19.6354654 L134.038305,19.6354654 L134.565822,18.8617321 L135.110352,19.6354654 L138.898919,19.6354654 L138.898919,18.3518627 L138.858975,18.3518627 C139.330062,18.3518627 139.758141,18.2667964 140.1374,18.1259351 L140.1374,19.6354654 L142.779527,19.6354654 L142.779527,18.7703254 L143.444418,19.6354654 L154.90776,19.6354654 C155.23767,19.6354654 155.546973,19.579459 155.824257,19.4788589 C155.980335,19.4222185 156.126375,19.3516293 156.260473,19.2689935 L156.260473,19.2689935 Z M152.087998,11.6391287 L154.644319,11.6391287 L154.644319,5.68934954 L151.915857,5.68934954 L151.915857,6.64082389 L151.308558,5.68934954 L148.929872,5.68934954 L148.929872,6.89242989 L148.396861,5.68934954 L144.464579,5.68934954 C144.275742,5.68934954 144.091238,5.7032983 143.912652,5.73109014 C143.760695,5.75497211 143.612754,5.78899862 143.470096,5.83348671 C143.357978,5.86846427 143.249029,5.90999353 143.144097,5.9579688 C143.020883,6.01460921 142.903058,6.07991476 142.791256,6.15451948 L142.791256,5.9499377 L142.791256,5.68934954 L129.957871,5.68934954 L129.608307,6.72684123 L129.252719,5.68934954 L126.266628,5.68934954 L126.266628,6.90521625 L125.727805,5.68934954 L123.291844,5.68934954 L122.202573,8.23425811 L122.202573,11.1094986 L122.202573,11.6391287 L123.927887,11.6391287 L124.248814,10.7850843 L124.85643,10.7850843 L125.183275,11.6391287 L138.458159,11.6391287 L138.458159,10.7736717 L139.122945,11.6391287 L142.791256,11.6391287 L142.791256,11.4487071 L142.791256,11.2064002 C142.886045,11.2676902 142.98432,11.3212661 143.084392,11.3679733 C143.184675,11.4143635 143.287071,11.4539907 143.390842,11.4873832 C143.518917,11.5292294 143.649211,11.5608255 143.778976,11.5842848 C143.990744,11.6227495 144.201455,11.6391287 144.401704,11.6391287 L146.596943,11.6391287 L146.91787,10.7850843 L147.525486,10.7850843 L147.852119,11.6391287 L151.532055,11.6391287 L151.532055,10.7563414 L152.087998,11.6391287 Z" id="Fill-35" fill="#F7F7F7"></path>
                    <path d="M132.13001,15.4688024 L132.13001,14.6547022 L128.92021,14.6547022 L128.92021,18.6671892 L132.13001,18.6671892 L132.13001,17.8586896 L129.883414,17.8586896 L129.883414,17.050824 L132.078653,17.050824 L132.078653,16.2482421 L129.883414,16.2482421 L129.883414,15.4688024 L132.13001,15.4688024 Z M135.471688,18.6671892 L136.675508,18.6671892 L135.064638,16.6437739 L136.66399,14.6547022 L135.494936,14.6547022 L134.508801,15.9272093 L133.52869,14.6547022 L132.325081,14.6547022 L133.929928,16.6607872 L132.330576,18.6671892 L133.500052,18.6671892 L134.48587,17.3773518 L135.471688,18.6671892 Z M136.887487,14.6547022 L136.887487,18.6671892 L137.85048,18.6671892 L137.85048,17.3426912 L139.059795,17.3426912 C139.936981,17.3426912 140.481089,16.7698411 140.481089,15.9958964 C140.481089,15.1994435 139.948394,14.6547022 139.094033,14.6547022 L136.887487,14.6547022 Z M139.512601,16.001497 C139.512601,16.2713844 139.340778,16.4945645 139.00252,16.4945645 L137.85048,16.4945645 L137.85048,15.5090636 L139.00252,15.5090636 C139.340778,15.5090636 139.512601,15.7265374 139.512601,16.001497 L139.512601,16.001497 Z M141.965892,17.2226474 L142.418804,17.2226474 L143.6166,18.6671892 L144.814503,18.6671892 L143.479226,17.1881982 C144.161342,17.0619196 144.56818,16.5691692 144.56818,15.9272093 C144.56818,15.1761955 144.035169,14.6547022 143.181124,14.6547022 L141.003005,14.6547022 L141.003005,18.6671892 L141.965892,18.6671892 L141.965892,17.2226474 Z M143.095107,15.4744031 C143.439071,15.4744031 143.622518,15.6979002 143.622518,15.9732825 C143.622518,16.2482421 143.439071,16.4658216 143.095107,16.4658216 L141.965892,16.4658216 L141.965892,15.4744031 L143.095107,15.4744031 Z M148.471719,15.4688024 L148.471719,14.6547022 L145.261814,14.6547022 L145.261814,18.6671892 L148.471719,18.6671892 L148.471719,17.8586896 L146.224807,17.8586896 L146.224807,17.050824 L148.41994,17.050824 L148.41994,16.2482421 L146.224807,16.2482421 L146.224807,15.4688024 L148.471719,15.4688024 Z M151.11374,17.8646072 L149.056404,17.8646072 L149.056404,18.6671892 L151.084998,18.6671892 C151.950666,18.6671892 152.466664,18.1396725 152.466664,17.3887644 C152.466664,16.6723055 152.002445,16.2541598 151.222794,16.2541598 L150.294145,16.2541598 C150.064836,16.2541598 149.904425,16.1049503 149.904425,15.8699349 C149.904425,15.6292131 150.064836,15.4688024 150.294145,15.4688024 L152.036472,15.4688024 L152.392165,14.6547022 L150.322571,14.6547022 C149.45722,14.6547022 148.941221,15.1821132 148.941221,15.9042784 C148.941221,16.6437739 149.428688,17.0678373 150.191115,17.0678373 L151.11374,17.0678373 C151.342733,17.0678373 151.509061,17.2167297 151.509061,17.4577685 C151.509061,17.7038795 151.342733,17.8646072 151.11374,17.8646072 L151.11374,17.8646072 Z M154.931156,17.8646072 L152.873503,17.8646072 L152.873503,18.6671892 L154.902096,18.6671892 C155.768187,18.6671892 156.283869,18.1396725 156.283869,17.3887644 C156.283869,16.6723055 155.819544,16.2541598 155.04021,16.2541598 L154.111561,16.2541598 C153.881935,16.2541598 153.721841,16.1049503 153.721841,15.8699349 C153.721841,15.6292131 153.881935,15.4688024 154.111561,15.4688024 L155.853571,15.4688024 L156.209581,14.6547022 L154.139987,14.6547022 C153.274319,14.6547022 152.758637,15.1821132 152.758637,15.9042784 C152.758637,16.6437739 153.246104,17.0678373 154.00853,17.0678373 L154.931156,17.0678373 C155.160254,17.0678373 155.326477,17.2167297 155.326477,17.4577685 C155.326477,17.7038795 155.160254,17.8646072 154.931156,17.8646072 L154.931156,17.8646072 Z" id="Fill-36" fill="#006FCF"></path>
                    <path d="M125.836626,10.6703664 L126.91998,10.6703664 L125.206079,6.65798509 L123.939489,6.65798509 L122.219671,10.6703664 L123.24575,10.6703664 L123.584219,9.81051 L125.492662,9.81051 L125.836626,10.6703664 Z M124.243192,8.1542007 L124.535587,7.40329258 L124.827877,8.1542007 L125.183148,9.04258862 L123.893628,9.04258862 L124.243192,8.1542007 Z M128.077938,7.93070356 L128.05469,6.84735004 L129.166892,10.6703664 L130.038161,10.6703664 L131.14994,6.87028096 L131.127009,7.92489158 L131.127009,10.6703664 L132.061259,10.6703664 L132.061259,6.65798509 L130.364794,6.65798509 L129.602368,9.50099552 L128.834341,6.65798509 L127.143371,6.65798509 L127.143371,10.6703664 L128.077938,10.6703664 L128.077938,7.93070356 Z M136.062228,7.47197964 L136.062228,6.65798509 L132.852428,6.65798509 L132.852428,10.6703664 L136.062228,10.6703664 L136.062228,9.85077119 L133.815315,9.85077119 L133.815315,9.05400124 L136.010448,9.05400124 L136.010448,8.25173633 L133.815315,8.25173633 L133.815315,7.47197964 L136.062228,7.47197964 Z M137.72995,9.22614159 L138.182862,9.22614159 L139.380975,10.6703664 L140.578878,10.6703664 L139.243284,9.19148104 C139.9254,9.06541386 140.332555,8.57234641 140.332555,7.93070356 C140.332555,7.17979544 139.799227,6.65798509 138.945182,6.65798509 L136.767063,6.65798509 L136.767063,10.6703664 L137.72995,10.6703664 L137.72995,9.22614159 Z M138.859059,7.4778973 C139.203023,7.4778973 139.386576,7.70139444 139.386576,7.97656538 C139.386576,8.25173633 139.203023,8.46931582 138.859059,8.46931582 L137.72995,8.46931582 L137.72995,7.4778973 L138.859059,7.4778973 Z M140.88258,10.6703664 L141.845467,10.6703664 L141.845467,8.90458046 L141.845467,6.65798509 L140.88258,6.65798509 L140.88258,8.88164955 L140.88258,10.6703664 Z M144.304464,10.6703664 L144.356032,10.6703664 L144.751353,9.81642766 L144.459169,9.81642766 C143.799773,9.81642766 143.410159,9.40377691 143.410159,8.69312997 L143.410159,8.63585553 C143.410159,7.99949629 143.759512,7.52375912 144.44765,7.52375912 L145.490743,7.52375912 L145.490743,6.65798509 L144.367445,6.65798509 C143.129493,6.65798509 142.453084,7.48930992 142.453084,8.62993787 L142.453084,8.69873061 C142.453084,9.89103238 143.146823,10.6647657 144.304464,10.6703664 L144.304464,10.6703664 Z M148.505576,10.6703664 L149.588719,10.6703664 L147.875452,6.65798509 L146.608123,6.65798509 L144.889044,10.6703664 L145.914912,10.6703664 L146.253169,9.81051 L148.161824,9.81051 L148.505576,10.6703664 Z M146.912459,8.1542007 L147.204643,7.40329258 L147.496616,8.1542007 L147.852521,9.04258862 L146.562684,9.04258862 L146.912459,8.1542007 Z M150.752489,8.26874959 L150.741076,7.9363042 L150.941642,8.26874959 L152.477485,10.6703664 L153.601417,10.6703664 L153.601417,6.65798509 L152.661355,6.65798509 L152.661355,8.97950219 L152.672768,9.27749838 L152.495132,8.97950219 L150.992999,6.65798509 L149.81285,6.65798509 L149.81285,10.6703664 L150.752489,10.6703664 L150.752489,8.26874959 Z" id="Fill-37" fill="#006FCF"></path>
                    <g id="discover" transform="translate(162.000000, 0.000000)" fill-rule="nonzero">
                        <path d="M34.800537,21.9427581 C34.800537,23.0789413 33.8795462,24 32.743431,24 L2.05710596,24 C0.920990773,24 0,23.0788053 0,21.9427581 L0,2.05717393 C0,0.920990773 0.920990773,0 2.05710596,0 L32.743363,0 C33.8795462,0 34.800537,0.921058743 34.800537,2.05717393 L34.800537,21.9427581 L34.800537,21.9427581 Z" id="Path" fill="#34495E"></path>
                        <path d="M1.46250616,21.9427581 L1.46250616,2.05717393 C1.46250616,0.920990773 2.38363287,0 3.51974806,0 L2.05703799,0 C0.920990773,0 0,0.921126713 0,2.05717393 L0,21.9427581 C0,23.0789413 0.920990773,24 2.05710596,24 L3.51981603,24 C2.38370084,24 1.46250616,23.0788053 1.46250616,21.9427581 Z" id="Path" fill="#202121" opacity="0.15"></path>
                        <path d="M21.0291081,11.986474 C21.0318948,11.331517 20.7863199,10.6756085 20.2921115,10.1813321 C19.7968156,9.68603617 19.1392758,9.4406652 18.4829594,9.44460745 C18.4798328,9.44460745 18.4767742,9.44440354 18.4735116,9.44440354 C17.0483209,9.44440354 15.9178472,10.5746054 15.9178472,12.0002039 C15.9178472,13.4117327 17.0622547,14.5558004 18.4735116,14.5558004 C19.8991102,14.5558004 21.0294479,13.4253946 21.0294479,12.0002039 C21.0294479,11.995514 21.0291081,11.991096 21.0291081,11.986474 Z" id="Path" fill="#F26E21"></path>
                        <g id="Group" transform="translate(2.303089, 9.395193)" fill="#E7E8E3">
                            <path d="M13.1395137,3.68613813 C12.7575234,4.06853621 12.4049641,4.21793383 12.0252168,4.22602224 C11.1000799,4.21772992 10.4199061,3.53259435 10.4199061,2.55580037 C10.4199061,2.06410685 10.6060754,1.66111391 10.9009963,1.31684688 L10.9009963,1.31684688 C11.1775654,1.05427955 11.5338631,0.884626931 11.9435851,0.884626931 C12.3858645,0.884626931 12.7300636,1.03205342 13.122997,1.42525871 L13.122997,0.294852987 C12.7301316,0.0983522988 12.3857966,-1.93181787e-15 11.9435851,-1.93181787e-15 C11.3188067,0.0446561578 10.7297124,0.29709599 10.2778492,0.693495857 L10.2778492,0.693495857 C10.1476191,0.81067579 10.0228265,0.940022317 9.91699755,1.08806054 C9.5869362,1.51586245 9.38744485,2.03970569 9.38744485,2.60514645 C9.38744485,4.03026922 10.5182584,5.11153278 11.9435171,5.11153278 C11.95045,5.11153278 11.957315,5.11092105 11.964044,5.11085308 C11.9736277,5.11098902 11.9830755,5.11153278 11.9925913,5.11153278 C12.3857286,5.11153278 12.7300636,5.01345236 13.1723431,4.81681573 L13.1395137,3.68613813 C13.122929,3.70272276 13.1559624,3.7181519 13.1395137,3.73385292 L13.1395137,3.68613813 Z" id="Path"></path>
                            <polygon id="Path" points="21.9528176 0.703895236 21.9528176 0.703895236 20.8397442 3.44049527 19.5617761 0.196364749 18.5297906 0.196364749 20.5448233 5.160539 21.085455 5.160539 23.198908 0.196364749 22.1669225 0.196364749"></polygon>
                            <polygon id="Path" points="23.5922492 2.35902781 23.5922492 5.01331642 26.2464698 5.01331642 26.2954081 5.01331642 26.2954081 4.22663397 25.4599233 4.22663397 24.5752284 4.22663397 24.5752284 3.34214297 24.5752284 2.89993146 26.2464698 2.89993146 26.2464698 2.06410685 24.5752284 2.06410685 24.5752284 1.03205342 26.2954081 1.03205342 26.2954081 0.196364749 23.5922492 0.196364749"></polygon>
                            <path d="M1.37645639,0.196364749 L9.65908935e-16,0.196364749 L9.65908935e-16,5.01331642 L1.37638842,5.01331642 C2.11352089,5.01331642 2.6540847,4.81654385 3.09643215,4.47248073 C3.63699596,4.03013328 3.98119502,3.34221094 3.98119502,2.60507848 C3.98126299,1.17934398 2.94893769,0.196364749 1.37645639,0.196364749 Z M2.50679415,3.83370056 C2.21187319,4.07934341 1.81866791,4.22663397 1.22882599,4.22663397 L0.933905035,4.22663397 L0.933905035,1.03198545 L1.17961586,1.03198545 C1.76945777,1.03198545 2.16266306,1.13026978 2.45765198,1.4250548 C2.80164713,1.71977185 2.99835173,2.16239118 2.99835173,2.60487457 C3.0474939,3.04722202 2.85092524,3.53850772 2.50679415,3.83370056 Z" id="Shape"></path>
                            <rect id="Rectangle" x="4.42388232" y="0.19595693" width="1" height="4.81681573"></rect>
                            <path d="M7.71667922,2.06410685 C7.12697325,1.86753819 6.97934285,1.71997576 6.97934285,1.4743329 C6.97934285,1.17941195 7.2742638,0.933701125 7.66746909,0.933701125 C7.96239004,0.933701125 8.20810087,1.03205342 8.45387966,1.32697438 L8.94550521,0.688058273 C8.55216399,0.343859212 8.06087828,0.147494463 7.52017853,0.147494463 C6.68442189,0.147494463 5.99629565,0.737336377 5.99629565,1.52347507 C5.99629565,2.21173725 6.29148848,2.50659024 7.17604744,2.85065336 C7.56925273,2.99787594 7.71674719,3.04722202 7.81523543,3.14550635 C8.01146424,3.24365474 8.10995248,3.4404273 8.10995248,3.63679205 C8.10995248,4.03006531 7.81523543,4.32505423 7.3726161,4.32505423 C6.92986083,4.32505423 6.5369954,4.07934341 6.34035877,3.68607016 L5.75051685,4.27591207 C6.19306821,4.91482818 6.73369999,5.20968117 7.42182624,5.20968117 C8.40473749,5.20968117 9.09252394,4.57076506 9.09252394,3.63679205 C9.09265983,2.80144323 8.79801075,2.4573801 7.71667922,2.06410685 Z" id="Path"></path>
                            <path d="M28.9496967,2.99787594 C29.6866932,2.85065336 30.0800344,2.35895984 30.0800344,1.62189534 C30.0800344,0.737336377 29.4409824,0.196364749 28.3598548,0.196364749 L26.9343922,0.196364749 L26.9343922,5.01331642 L27.8682292,5.01331642 L27.8682292,3.09622824 L28.0158596,3.09622824 L29.3425621,5.01331642 L30.4731718,5.01331642 L28.9496967,2.99787594 Z M28.1630142,2.40803403 L27.8682972,2.40803403 L27.8682972,0.933701125 L28.1630142,0.933701125 C28.7528561,0.933701125 29.0970552,1.17934398 29.0970552,1.67117344 C29.0970552,2.16245915 28.7529241,2.40803403 28.1630142,2.40803403 Z" id="Shape"></path>
                        </g>
                    </g>
                </g>
                <path d="M8.96954873,8.81970438 L7.11277888,8.81970438 C6.98576064,8.81970438 6.87765777,8.91206206 6.85789703,9.03749521 L6.10688324,13.7985655 C6.09198343,13.8925083 6.16479172,13.9772575 6.26000255,13.9772575 L7.14648837,13.9772575 C7.27350661,13.9772575 7.38160948,13.8850055 7.40137022,13.7592554 L7.60394422,12.4751243 C7.62349362,12.3493741 7.73180783,12.2570164 7.85861472,12.2570164 L8.44636465,12.2570164 C9.66941708,12.2570164 10.3753088,11.6652509 10.5597071,10.4923929 C10.6427656,9.9792477 10.5631943,9.57610747 10.3228952,9.2937508 C10.0590312,8.98370796 9.59100816,8.81970438 8.96954873,8.81970438 M9.1837467,10.5586495 C9.08219552,11.224914 8.57317154,11.224914 8.08094947,11.224914 L7.80070624,11.224914 L7.99736259,9.98062144 C8.00898656,9.90538269 8.07418643,9.85001035 8.15016489,9.85001035 L8.27855687,9.85001035 C8.61385541,9.85001035 8.93013293,9.85001035 9.09360814,10.0411717 C9.1910381,10.1551923 9.22094339,10.3245851 9.1837467,10.5586495" id="Fill-9" fill="#FFFFFF"></path>
                <path d="M14.5196749,10.5371874 L13.6305473,10.5371874 C13.5547801,10.5371874 13.4893689,10.5925598 13.4776393,10.6677985 L13.4383291,10.9164457 L13.3760881,10.8263071 C13.1836586,10.5469093 12.7544173,10.4534949 12.3260214,10.4534949 C11.3434794,10.4534949 10.5042291,11.1977457 10.3408596,12.2415777 C10.2558989,12.7623313 10.3766825,13.2602597 10.6720369,13.6074992 C10.9429809,13.9267356 11.330693,14.0597771 11.791953,14.0597771 C12.5836507,14.0597771 13.0226139,13.5507531 13.0226139,13.5507531 L12.9829867,13.7977096 C12.9680869,13.8922864 13.0407895,13.9770356 13.1355777,13.9770356 L13.9364689,13.9770356 C14.0638041,13.9770356 14.1713786,13.8846779 14.1914564,13.7589278 L14.6719488,10.7157738 C14.6871656,10.6221481 14.6146744,10.5371874 14.5196749,10.5371874 M13.2802432,12.2676788 C13.1944372,12.775646 12.7914027,13.1166509 12.2770951,13.1166509 C12.0189374,13.1166509 11.8125592,13.0338037 11.6801516,12.8769859 C11.5486952,12.7210134 11.4988178,12.499207 11.5405584,12.2521449 C11.6206581,11.7485102 12.0305613,11.3964098 12.5369435,11.3964098 C12.7893949,11.3964098 12.9947164,11.4803137 13.1298714,11.6386109 C13.2653434,11.7984933 13.3191307,12.0216734 13.2802432,12.2676788" id="Fill-11" fill="#FFFFFF"></path>
                <path d="M19.2550139,10.5371874 L18.3615537,10.5371874 C18.2762761,10.5371874 18.1961764,10.5794564 18.1478841,10.6503626 L16.9155325,12.4656032 L16.3931938,10.7212688 C16.3603297,10.6121092 16.2596239,10.5371874 16.1456034,10.5371874 L15.267677,10.5371874 C15.1609479,10.5371874 15.0867659,10.6413804 15.1206867,10.7418749 L16.1049195,13.6301131 L15.1796519,14.9362241 C15.1069493,15.039149 15.1801803,15.180433 15.3058248,15.180433 L16.1983339,15.180433 C16.2829775,15.180433 16.3622318,15.1392208 16.4103127,15.069794 L19.3821378,10.7801283 C19.4531497,10.6775204 19.3802357,10.5371874 19.2550139,10.5371874" id="Fill-13" fill="#FFFFFF"></path>
            </g>
        </g>
    </g>
</svg>