<svg width="200" height="36" xmlns="http://www.w3.org/2000/svg">
    <g fill="#FFF" fill-rule="evenodd">
        <path d="M17.622 1.704c-.61 0-1.011.18-1.205.54-.332.555-.499 4.947-.499 13.175v3.907c0 5.098.11 10.487.333 16.167h-4.032C9.809 25.296 6.996 15.585 3.782 6.358a418.283 418.283 0 0 0-.083 9.227c0 11.222.166 17.109.498 17.663.222.388.735.554 1.538.499v1.746H0v-1.746h.416c.609 0 1.012-.166 1.205-.499.25-.443.374-6.594.374-18.453 0-7.924-.118-12.1-.353-12.53-.235-.43-.783-.602-1.641-.52V0h5.86c2.549 9.558 5.292 18.564 8.23 27.015.082-4.434.124-8.507.124-12.22 0-7.924-.118-12.1-.353-12.53-.236-.43-.783-.602-1.642-.52V0h5.736v1.746a1.827 1.827 0 0 0-.334-.042M28.426 17.58c-.555.832-1.212 1.504-1.974 2.016s-1.517 1.018-2.265 1.517c-.637.526-.956 1.357-.956 2.493 0 1.524.915 2.286 2.743 2.286.72 0 1.324-.263 1.808-.79.485-.526.727-1.15.727-1.869 0-1.885-.028-3.768-.083-5.653m5.777 10.224c-.555.554-1.261.831-2.12.831-1.357 0-2.355-.623-2.993-1.87-1.551 1.22-3.075 1.83-4.571 1.83-3.658 0-5.487-1.566-5.487-4.697 0-1.524.665-2.687 1.996-3.49a237.365 237.365 0 0 0 3.906-1.705c1.441-.692 2.577-1.552 3.408-2.577-.055-1.607-.18-2.674-.374-3.2-.388-1.108-1.177-1.662-2.369-1.662-1.634 0-2.451.373-2.451 1.122 1.135.416 1.703 1.302 1.703 2.66 0 .72-.235 1.358-.706 1.912-.471.554-1.053.83-1.746.83-.72 0-1.316-.262-1.786-.788a2.711 2.711 0 0 1-.707-1.87c0-1.663.526-3.013 1.58-4.052 1.052-1.04 2.424-1.559 4.114-1.559 2.189 0 3.838.817 4.946 2.452.998 1.385 1.496 3.227 1.496 5.527v1.455c0 .748.014 1.863.042 3.345.027 1.482.041 2.598.041 3.346 0 .555.236.831.706.831.36 0 .569-.29.624-.872v-1.289h1.58v1.414c-.001.83-.278 1.522-.832 2.076M45.007 31.69c-.749.79-1.524 1.185-2.328 1.185-1.967 0-3.491-.928-4.572-2.784-.886-1.552-1.33-3.38-1.33-5.486 0-.888.02-2.21.062-3.97.041-1.759.062-3.082.062-3.969 0-1.635-.042-3.311-.125-5.03h-2.078V9.892c.887 0 1.731-.513 2.535-1.538a8.667 8.667 0 0 0 1.455-2.743c.332-1.025.498-2.092.498-3.2h1.455v7.481H43.8v1.746H40.64c-.193 2.688-.29 6.816-.29 12.385 0 1.94.068 3.325.207 4.156.333 1.967 1.04 2.95 2.12 2.95.442 0 .907-.193 1.392-.581.485-.388.741-.804.769-1.247h1.33c-.026.804-.414 1.6-1.162 2.39M62.67 11.637c-.832-.028-1.248.36-1.248 1.164a375.4 375.4 0 0 1-.041 4.613v4.613c0 1.995-.603 3.533-1.808 4.614-1.206 1.08-2.806 1.62-4.8 1.62-2.023 0-3.616-.54-4.78-1.62-1.164-1.081-1.745-2.62-1.745-4.614v-1.08c.027-.471.041-.832.041-1.08 0-.777-.014-1.953-.041-3.534a214.652 214.652 0 0 1-.042-3.532c0-.555-.166-.9-.499-1.04-.194-.083-.596-.125-1.205-.125V9.89h7.44v1.746h-.582c-.693 0-1.081.388-1.164 1.164-.11.859-.166 2.799-.166 5.819 0 2.244.055 3.907.166 4.986.22 1.94 1.094 2.91 2.618 2.91 1.524 0 2.383-.97 2.576-2.91.112-1.135.167-2.811.167-5.028 0-2.965-.042-4.89-.125-5.777-.083-.582-.264-.943-.54-1.08-.14-.056-.54-.084-1.206-.084V9.89h7.44v1.746h-.457v.001zM77.234 17c-.484.526-1.073.788-1.766.788-.748 0-1.343-.276-1.787-.831-.443-.554-.665-1.233-.665-2.037 0-.664.174-1.253.52-1.766.346-.513.838-.769 1.476-.769 0-.748-.54-1.122-1.622-1.122-1.274 0-2.188 1.094-2.743 3.283-.332 1.358-.499 2.965-.499 4.821 0 2.715.097 4.752.291 6.11.083.554.25.9.499 1.039.166.083.568.125 1.205.125v1.746h-7.439V26.64h.582c.693.027 1.081-.361 1.164-1.163.166-1.58.25-3.7.25-6.36 0-2.52-.084-4.613-.25-6.275-.055-.61-.221-.984-.499-1.122-.166-.055-.582-.084-1.247-.084V9.892H69.9v2.16c.471-1.689 1.635-2.534 3.491-2.534 3.048 0 4.572 1.87 4.572 5.61 0 .72-.243 1.345-.728 1.871M85.151 11.637c-.775 0-1.406.34-1.89 1.018a3.747 3.747 0 0 0-.728 2.223v4.032l4.697-1.912c.804-.36 1.205-.983 1.205-1.87 0-2.327-1.095-3.491-3.284-3.491m0 16.625c-1.995 0-3.63-.9-4.904-2.702-1.136-1.635-1.703-3.478-1.703-5.528v-1.911c0-2.05.567-3.893 1.703-5.528 1.274-1.802 2.909-2.702 4.904-2.702 1.774 0 3.166.492 4.178 1.476 1.011.984 1.517 2.362 1.517 4.135 0 .804-.333 1.482-.998 2.037-.388.305-1.08.679-2.079 1.122l-5.236 2.328v2.285c0 .804.221 1.524.665 2.161.526.72 1.177 1.081 1.953 1.081.969 0 1.946-.278 2.93-.831.983-.555 1.6-1.261 1.85-2.12h1.038c-.969 3.13-2.909 4.697-5.818 4.697M103.063 26.807c-1.33.97-2.896 1.454-4.697 1.454-1.274 0-2.41-.484-3.408-1.454-.858-.86-1.468-1.94-1.828-3.243l1.289-.373c.277.97.768 1.766 1.475 2.39a3.62 3.62 0 0 0 2.473.935c.859 0 1.559-.27 2.1-.81.54-.54.81-1.254.81-2.14 0-1.165-.652-2.093-1.954-2.785a224.011 224.011 0 0 0-3.657-1.787c-1.302-.942-1.953-2.313-1.953-4.115 0-1.579.582-2.827 1.746-3.741 1.053-.831 2.397-1.247 4.031-1.247.859 0 1.857.471 2.992 1.413V9.558h1.58v5.32h-1.58c0-.97-.263-1.752-.79-2.348-.526-.596-1.26-.894-2.202-.894-1.385 0-2.078.777-2.078 2.328 0 1.052.47 1.884 1.413 2.493.526.361 1.454.735 2.785 1.123 1.136.36 1.967.852 2.494 1.475.526.624.9 1.531 1.122 2.722.055.25.083.513.083.79-.002 1.746-.75 3.16-2.246 4.24"/>
        <path d="M116.179 3.991c0-1.496-.36-2.244-1.081-2.244h-2.743c-.583 0-.97.061-1.165.187-.193.125-.318.45-.374.976-.138 1.247-.235 4.946-.29 11.097h2.7c.888 0 1.317-.748 1.29-2.244h1.662v6.275h-1.663c.028-1.524-.401-2.286-1.288-2.286h-2.743v3.533c0 7.093.11 11.513.332 13.258.083.554.305.9.665 1.04.25.11.693.165 1.33.165v1.746h-7.73v-1.746h.583c.748.028 1.136-.498 1.163-1.579.166-3.657.25-7.689.25-12.094V15.42c0-6.982-.084-11.152-.25-12.509-.055-.582-.22-.942-.499-1.08-.166-.084-.582-.111-1.247-.084V.001H117.8v3.99h-1.62zM119.003 28.387v-1.745h.624c.664 0 1.04-.389 1.122-1.164.027-.222.07-1.442.125-3.657.083-2.743.124-5.362.124-7.855 0-2.3-.04-4.751-.124-7.356 0-.832-.042-2.065-.125-3.7-.083-.58-.23-.927-.437-1.038-.208-.112-.643-.153-1.309-.125V.001h5.736c0 1.552-.055 3.907-.166 7.066-.11 3.157-.166 5.527-.166 7.106 0 2.439.056 5.001.166 7.689 0 .804.055 2.009.166 3.616.083.554.25.9.499 1.04.166.082.568.124 1.205.124v1.746h-7.44zM138.411 17.581a7.21 7.21 0 0 1-1.974 2.016c-.762.512-1.517 1.017-2.265 1.517-.638.526-.956 1.357-.956 2.493 0 1.524.915 2.286 2.744 2.286.72 0 1.323-.263 1.807-.79a2.67 2.67 0 0 0 .727-1.87c0-1.884-.027-3.768-.083-5.652m5.778 10.224c-.555.554-1.262.831-2.12.831-1.358 0-2.356-.624-2.993-1.87-1.552 1.219-3.075 1.829-4.571 1.829-3.658 0-5.487-1.565-5.487-4.696 0-1.524.665-2.688 1.996-3.491a235.967 235.967 0 0 0 3.906-1.705c1.441-.692 2.577-1.551 3.408-2.576-.055-1.608-.18-2.674-.373-3.2-.389-1.109-1.178-1.662-2.369-1.662-1.635 0-2.452.373-2.452 1.122 1.136.416 1.704 1.302 1.704 2.66 0 .72-.236 1.358-.707 1.911-.47.555-1.053.831-1.746.831-.72 0-1.316-.262-1.787-.788a2.713 2.713 0 0 1-.706-1.871c0-1.662.526-3.013 1.579-4.052 1.053-1.04 2.424-1.558 4.115-1.558 2.188 0 3.837.817 4.946 2.451.998 1.385 1.496 3.228 1.496 5.528v1.455c0 .748.014 1.863.042 3.345.027 1.482.042 2.598.042 3.345 0 .555.236.832.706.832.36 0 .569-.291.624-.872v-1.29h1.58v1.414c-.002.83-.28 1.523-.833 2.077M156.905 11.637c-.417-.027-.7.043-.853.208-.152.167-.311.485-.477.956-1.137 3.353-2.439 8.548-3.908 15.586h-2.743c-.942-5.126-2.37-10.321-4.28-15.586-.222-.554-.423-.894-.603-1.018-.18-.125-.547-.173-1.1-.146V9.892h7.439v1.745h-.457c-.915-.027-1.372.222-1.372.749 0 .055.028.193.084.415.748 4.35 1.662 7.952 2.743 10.806.914-2.91 1.746-6.51 2.494-10.806.027-.193.041-.318.041-.373 0-.554-.596-.818-1.787-.79V9.891h5.154v1.745h-.375zM167.667 14.88a3.82 3.82 0 0 0-.707-2.224c-.47-.678-1.094-1.018-1.87-1.018-.775 0-1.406.34-1.89 1.018a3.75 3.75 0 0 0-.728 2.224v8.395c0 .804.222 1.524.665 2.16.526.72 1.178 1.082 1.953 1.082.776 0 1.413-.361 1.912-1.081a3.694 3.694 0 0 0 .665-2.161V14.88zm2.287 10.68c-1.276 1.802-2.896 2.703-4.863 2.703-1.995 0-3.63-.9-4.905-2.703-1.136-1.634-1.703-3.477-1.703-5.527v-1.911c0-2.05.567-3.894 1.703-5.528 1.276-1.802 2.91-2.702 4.905-2.702 1.967 0 3.588.9 4.863 2.702 1.163 1.634 1.745 3.477 1.745 5.528v1.91c0 2.051-.582 3.894-1.745 5.528zM185.766 17c-.485.526-1.074.789-1.767.789-.748 0-1.343-.277-1.787-.832-.443-.553-.665-1.233-.665-2.036 0-.665.174-1.254.52-1.766.346-.514.838-.77 1.476-.77 0-.748-.542-1.121-1.622-1.121-1.275 0-2.188 1.093-2.743 3.283-.332 1.357-.499 2.964-.499 4.82 0 2.716.097 4.752.291 6.11.083.555.25.9.499 1.04.166.083.568.125 1.206.125v1.745h-7.44v-1.745h.581c.692.027 1.08-.361 1.164-1.164.166-1.579.249-3.7.249-6.359 0-2.52-.083-4.614-.25-6.275-.054-.61-.22-.984-.498-1.122-.166-.056-.582-.084-1.247-.084V9.892h5.195v2.161c.47-1.69 1.635-2.535 3.491-2.535 3.048 0 4.572 1.87 4.572 5.61a2.666 2.666 0 0 1-.726 1.872M197.755 26.808c-1.33.97-2.895 1.454-4.697 1.454-1.274 0-2.41-.485-3.407-1.454-.86-.86-1.469-1.94-1.83-3.243l1.29-.374c.276.97.768 1.767 1.474 2.39a3.623 3.623 0 0 0 2.473.936c.86 0 1.56-.27 2.099-.81.54-.54.81-1.254.81-2.141 0-1.163-.65-2.092-1.953-2.784a222.551 222.551 0 0 0-3.657-1.788c-1.303-.942-1.953-2.312-1.953-4.114 0-1.58.582-2.827 1.746-3.741 1.053-.832 2.396-1.247 4.031-1.247.86 0 1.857.47 2.993 1.413V9.559h1.579v5.32h-1.579c0-.97-.263-1.752-.79-2.348-.526-.596-1.26-.894-2.203-.894-1.385 0-2.077.776-2.077 2.328 0 1.052.47 1.884 1.413 2.493.526.36 1.454.734 2.784 1.122 1.136.361 1.968.853 2.494 1.476.526.624.9 1.531 1.122 2.722.056.25.083.513.083.79 0 1.745-.749 3.159-2.245 4.24"/>
    </g>
</svg>
