<?xml version="1.0" encoding="UTF-8"?>
<svg width="168px" height="30px" viewBox="0 0 168 30" version="1.1" xmlns="http://www.w3.org/2000/svg" xmlns:xlink="http://www.w3.org/1999/xlink">
    <title>footer_logo.svg</title>
    <defs>
        <polygon id="path-1" points="0 -4.43589009e-15 10.7759738 -4.43589009e-15 10.7759738 30.0743687 0 30.0743687"></polygon>
    </defs>
    <g id="footer_logo.svg" stroke="none" stroke-width="1" fill="none" fill-rule="evenodd">
        <g id="Natures-Flavors" transform="translate(-0.000000, 0.000000)">
            <path d="M14.9316003,1.44399672 C14.4153075,1.44399672 14.0750661,1.59694924 13.9105641,1.90191786 C13.6290066,2.37170062 13.4879157,6.09281711 13.4879157,13.0649552 L13.4879157,16.3752849 C13.4879157,20.6951012 13.5818723,25.2618267 13.7697854,30.0742127 L10.3533254,30.0742127 C8.31125305,21.4345799 5.92800295,13.2057339 3.20451152,5.38767474 C3.15737717,7.45378245 3.13396607,10.0599062 3.13396607,13.2057339 C3.13396607,22.7146989 3.27505697,27.7028242 3.55661448,28.172607 C3.74421544,28.5012988 4.17872548,28.6420776 4.85983245,28.5946311 L4.85983245,30.0742127 L0,30.0742127 L0,28.5946311 L0.352102961,28.5946311 C0.868395778,28.5946311 1.20957356,28.4544766 1.37345127,28.172607 C1.58477547,27.7967807 1.69059365,22.5851575 1.69059365,12.5364886 C1.69059365,5.82218478 1.59070628,2.28336273 1.39155585,1.919086 C1.19209327,1.55543356 0.728241319,1.40872399 0.00062429603,1.47926944 L0.00062429603,0 L4.96627492,0 C7.12602704,8.0989924 9.44996901,15.7297628 11.9390373,22.8907504 C12.0092706,19.1337369 12.0445433,15.6826284 12.0445433,12.5364886 C12.0445433,5.82218478 11.9449681,2.28336273 11.7455055,1.919086 C11.5460429,1.55543356 11.082191,1.40872399 10.354574,1.47926944 L10.354574,0 L15.2147185,0 L15.2147185,1.47926944 C15.0957902,1.45585834 15.0021458,1.44399672 14.9316003,1.44399672" id="Fill-16" fill="#FFFFFF"></path>
            <path d="M23.6027227,14.8965461 C23.1329399,15.6013763 22.5757557,16.1704221 21.9299215,16.60462 C21.2840872,17.0381936 20.6448081,17.4667728 20.0108355,17.8897334 C19.4711316,18.3357929 19.2011235,19.0399988 19.2011235,20.0023512 C19.2011235,21.2937075 19.976187,21.9395417 21.5253776,21.9395417 C22.1353149,21.9395417 22.6466133,21.7163559 23.057088,21.2702964 C23.4678747,20.8242369 23.6732681,20.2960824 23.6732681,19.6861452 C23.6732681,18.089196 23.6492327,16.4931832 23.6027227,14.8965461 M28.4975157,23.5592778 C28.0277329,24.0290606 27.4293452,24.2637959 26.7017282,24.2637959 C25.5514627,24.2637959 24.7061659,23.7353293 24.1658377,22.6793325 C22.8510703,23.7119182 21.5600261,24.2288353 20.2920808,24.2288353 C17.1930753,24.2288353 15.6432604,22.9025184 15.6432604,20.2495724 C15.6432604,18.9585282 16.2066876,17.9724526 17.3338541,17.2916578 C18.4369852,16.8221872 19.5407406,16.3405428 20.6441838,15.8473489 C21.8649947,15.261135 22.827347,14.5328936 23.5315529,13.6641857 C23.4847307,12.3022839 23.3789126,11.3986154 23.2147227,10.9525559 C22.886343,10.0136147 22.2170976,9.54445621 21.207611,9.54445621 C19.8226102,9.54445621 19.1302659,9.86066215 19.1302659,10.4952591 C20.0923061,10.8476742 20.5736383,11.5987023 20.5736383,12.7489677 C20.5736383,13.3592171 20.3741758,13.8995453 19.9755627,14.3687038 C19.5760133,14.8384865 19.0831316,15.0729097 18.4962933,15.0729097 C17.8860439,15.0729097 17.3809884,14.8506603 16.9823754,14.4046008 C16.582826,13.9585413 16.3833634,13.4297626 16.3833634,12.8195132 C16.3833634,11.4111013 16.8294229,10.2667667 17.7218541,9.38650932 C18.6139731,8.50562762 19.7761002,8.06581106 21.2082353,8.06581106 C23.0630188,8.06581106 24.4601933,8.75815536 25.3991345,10.1431561 C26.2444313,11.3168326 26.6670797,12.8778849 26.6670797,14.8269371 L26.6670797,15.4431173 L26.6670797,16.0596096 C26.6670797,16.6932701 26.6789414,17.6384542 26.7023525,18.8939136 C26.7254514,20.1499972 26.737313,21.0954935 26.737313,21.7288418 C26.737313,22.1989367 26.9370878,22.4333599 27.3357008,22.4333599 C27.6409816,22.4333599 27.8173452,22.186763 27.8638552,21.6941934 L27.8638552,20.6022996 L29.2023459,20.6022996 L29.2023459,21.8000116 C29.2017216,22.5032811 28.9672985,23.0901193 28.4975157,23.5592778" id="Fill-18" fill="#FFFFFF"></path>
            <path d="M37.9642783,26.8520648 C37.3303057,27.5216223 36.6729219,27.8562449 35.991815,27.8562449 C34.3249446,27.8562449 33.0339004,27.0699441 32.1180581,25.4970302 C31.36703,24.1819507 30.9908916,22.6324479 30.9908916,20.848522 C30.9908916,20.0965574 31.0083719,18.9756339 31.0436446,17.484815 C31.0786052,15.9943082 31.0960855,14.8730725 31.0960855,14.1217323 C31.0960855,12.7364194 31.0608128,11.3161459 30.9902673,9.86028757 L29.2294404,9.86028757 L29.2294404,8.38101813 C29.9807806,8.38101813 30.696536,7.94650809 31.377643,7.07748802 C31.9173469,6.39731749 32.328758,5.62225397 32.6100034,4.7538582 C32.891873,3.88515027 33.0326518,2.98116962 33.0326518,2.04222839 L34.2653243,2.04222839 L34.2653243,8.38101813 L36.9416814,8.38101813 L36.9416814,9.86028757 L34.2653243,9.86028757 C34.1014466,12.1377195 34.0187274,15.6359623 34.0187274,20.3547038 C34.0187274,21.9981631 34.0774112,23.172464 34.195091,23.8763577 C34.4766485,25.5432281 35.0756605,26.3766633 35.9905664,26.3766633 C36.3660804,26.3766633 36.7596991,26.2121613 37.170798,25.8831573 C37.5815848,25.5544655 37.7988398,25.2020504 37.8222509,24.8268485 L38.9494174,24.8268485 C38.9272549,25.5082676 38.5982509,26.1834437 37.9642783,26.8520648" id="Fill-20" fill="#FFFFFF"></path>
            <path d="M52.3766797,9.86041243 C51.6724738,9.83700133 51.3200587,10.1660053 51.3200587,10.846488 C51.3200587,11.7148838 51.3081971,13.0181018 51.284786,14.7555176 L51.284786,18.6645472 C51.284786,20.3545166 50.774424,21.6577345 49.7530757,22.5738889 C48.7314152,23.4887948 47.3757564,23.9473402 45.685787,23.9473402 C43.9717823,23.9473402 42.6220543,23.4887948 41.6356665,22.5738889 C40.6495909,21.6577345 40.1567092,20.3545166 40.1567092,18.6645472 L40.1567092,17.7487049 C40.1798082,17.3500919 40.1916698,17.044499 40.1916698,16.8337991 C40.1916698,16.1754789 40.1798082,15.1787903 40.1567092,13.8396753 C40.1326738,12.5018089 40.1211244,11.5038717 40.1211244,10.846488 C40.1211244,10.3767052 39.9803456,10.0835983 39.6984759,9.96529417 C39.5342861,9.89537301 39.1937326,9.85978814 38.6771276,9.85978814 L38.6771276,8.38051869 L44.981269,8.38051869 L44.981269,9.85978814 L44.4883872,9.85978814 C43.901549,9.85978814 43.572545,10.1887921 43.5019995,10.8458637 C43.4083551,11.5734807 43.3612208,13.2172522 43.3612208,15.7762416 C43.3612208,17.6778473 43.4083551,19.0868835 43.5019995,20.0017893 C43.6892883,21.6452486 44.4290791,22.4674465 45.7204355,22.4674465 C47.0117918,22.4674465 47.7394088,21.6452486 47.9035987,20.0017893 C47.9978674,19.039437 48.0443774,17.6191635 48.0443774,15.7406567 C48.0443774,13.2284895 48.0091047,11.5968918 47.9388714,10.8458637 C47.8683259,10.3526699 47.7153734,10.0470769 47.4809503,9.93033359 C47.3632705,9.88351139 47.0230291,9.85978814 46.4592898,9.85978814 L46.4592898,8.38051869 L52.7637433,8.38051869 L52.7637433,9.85978814 L52.3766797,9.85978814 L52.3766797,9.86041243 Z" id="Fill-22" fill="#FFFFFF"></path>
            <path d="M65.2016928,14.4039453 C64.7912182,14.8500048 64.2917814,15.0725663 63.7052552,15.0725663 C63.0709705,15.0725663 62.5668514,14.8381432 62.1910252,14.3680483 C61.8155112,13.8988898 61.6275981,13.3232889 61.6275981,12.6421819 C61.6275981,12.079379 61.7746198,11.5802544 62.0680389,11.1457443 C62.3611459,10.7109221 62.7778635,10.4942914 63.3181917,10.4942914 C63.3181917,9.86031879 62.8605827,9.54348855 61.9444283,9.54348855 C60.8647083,9.54348855 60.0899569,10.470256 59.619862,12.3253517 C59.3383045,13.4756171 59.1972136,14.8375189 59.1972136,16.4104327 C59.1972136,18.7112758 59.2796207,20.4365178 59.4438105,21.5874076 C59.514356,22.0568782 59.6551348,22.349673 59.866459,22.4679771 C60.0072377,22.5385226 60.3477912,22.5737953 60.8874951,22.5737953 L60.8874951,24.0530647 L54.5842902,24.0530647 L54.5842902,22.5737953 L55.0774841,22.5737953 C55.6643224,22.5968942 55.9933264,22.2678902 56.0638718,21.5880319 C56.2046506,20.2498533 56.275196,18.4534415 56.275196,16.1997328 C56.275196,14.063704 56.2046506,12.2903911 56.0638718,10.8822914 C56.0167375,10.3656864 55.8762709,10.0488562 55.6412234,9.93148854 C55.5001325,9.88466633 55.1480296,9.86063094 54.5842902,9.86063094 L54.5842902,8.38167364 L58.9865137,8.38167364 L58.9865137,10.2124217 C59.3854389,8.78091095 60.3715144,8.06453126 61.9444283,8.06453126 C64.527141,8.06453126 65.8184973,9.64899458 65.8184973,12.8182334 C65.8184973,13.429107 65.6124796,13.9578858 65.2016928,14.4039453" id="Fill-24" fill="#FFFFFF"></path>
            <path d="M72.635507,9.86041243 C71.9781233,9.86041243 71.444038,10.1479008 71.0332512,10.7228774 C70.6224644,11.2981662 70.417071,11.9265201 70.417071,12.6070028 L70.417071,16.0228385 L74.3966461,14.4034146 C75.077753,14.0975096 75.4173701,13.5699794 75.4173701,12.818327 C75.4173701,10.8471123 74.4902905,9.86041243 72.635507,9.86041243 M72.635507,23.9473402 C70.9446012,23.9473402 69.5596004,23.1844505 68.4798805,21.6577345 C67.5175281,20.2727338 67.036508,18.7110573 67.036508,16.9739535 L67.036508,15.3545296 C67.036508,13.6171138 67.5175281,12.0560616 68.4798805,10.6704365 C69.5596004,9.14372059 70.9446012,8.38114299 72.635507,8.38114299 C74.1378754,8.38114299 75.3177949,8.79786059 76.1749533,9.63160794 C77.0321118,10.4650431 77.4603788,11.6334132 77.4603788,13.1351573 C77.4603788,13.8165764 77.1785092,14.391553 76.615082,14.8613358 C76.286078,15.1197943 75.6992397,15.4366246 74.8536308,15.8121386 L70.4164467,17.7846019 L70.4164467,19.7211682 C70.4164467,20.4022752 70.6040477,21.0125246 70.9798739,21.5522285 C71.4259334,22.1621657 71.977499,22.4680708 72.6348827,22.4680708 C73.4561441,22.4680708 74.2842728,22.2327112 75.117708,21.7635527 C75.9511432,21.2937699 76.4733668,20.69507 76.684691,19.9671409 L77.5652606,19.9671409 C76.7439992,22.6200868 75.1002277,23.9473402 72.635507,23.9473402" id="Fill-26" fill="#FFFFFF"></path>
            <path d="M87.5706939,22.714574 C86.4435274,23.5361476 85.1172105,23.9466223 83.5911189,23.9466223 C82.5113989,23.9466223 81.5490466,23.5361476 80.7034376,22.714574 C79.9758206,21.9863327 79.4595278,21.0708026 79.1545591,19.9670472 L80.2464529,19.650217 C80.4808761,20.4721027 80.8975937,21.1469667 81.4966057,21.6757455 C82.0946813,22.2038999 82.7935807,22.4679771 83.5917432,22.4679771 C84.3193602,22.4679771 84.9124414,22.2388605 85.3703626,21.7815636 C85.8279716,21.3242668 86.0567761,20.7193239 86.0567761,19.9676715 C86.0567761,18.9815959 85.5052105,18.1949829 84.4020794,17.608769 C83.3691816,17.092164 82.3356596,16.5871085 81.3030739,16.0939146 C80.1996307,15.2957522 79.6480652,14.1342494 79.6480652,12.6075335 C79.6480652,11.2696671 80.141259,10.2124217 81.1273346,9.43767038 C82.0200779,8.73315231 83.1584817,8.38104934 84.5434825,8.38104934 C85.2710995,8.38104934 86.1163963,8.78028666 87.0787487,9.57844913 L87.0787487,8.09917969 L88.4172393,8.09917969 L88.4172393,12.6069092 L87.0787487,12.6069092 C87.0787487,11.7847113 86.8555628,11.1223332 86.4095033,10.6172777 C85.9637559,10.1122222 85.3410207,9.85969449 84.5434825,9.85969449 C83.3698059,9.85969449 82.7823434,10.5177025 82.7823434,11.8321578 C82.7823434,12.7239647 83.1809564,13.4284827 83.9800553,13.9447756 C84.4258027,14.2506806 85.2121035,14.5675109 86.33927,14.8958906 C87.3022466,15.2014835 88.0061404,15.6182011 88.4525121,16.1463555 C88.8988837,16.6748221 89.2154018,17.4436427 89.4036271,18.4528172 C89.4504493,18.6638293 89.4738604,18.8870151 89.4738604,19.1217504 C89.4719875,20.6010198 88.838327,21.7987318 87.5706939,22.714574" id="Fill-28" fill="#FFFFFF"></path>
            <g id="Group-32" transform="translate(89.281109, 0.000936)">
                <mask id="mask-2" fill="white">
                    <use xlink:href="#path-1"></use>
                </mask>
                <g id="Clip-31"></g>
                <path d="M9.40314681,3.38087515 C9.40314681,2.11292991 9.09786605,1.4789573 8.48730453,1.4789573 L6.16273826,1.4789573 C5.6695444,1.4789573 5.34116469,1.53139816 5.17635053,1.63784063 C5.01247283,1.74334666 4.90665465,2.01928551 4.85920815,2.46503287 C4.7418405,3.52165391 4.66005772,6.65593212 4.61292337,11.8675554 L6.90159261,11.8675554 C7.65355718,11.8675554 8.01689747,11.2335828 7.99348637,9.96626182 L9.40252251,9.96626182 L9.40252251,15.2837033 L7.99348637,15.2837033 C8.01752177,13.9923469 7.65355718,13.3465127 6.90159261,13.3465127 L4.57765064,13.3465127 L4.57765064,16.3403243 C4.57765064,22.35011 4.67129505,26.0955741 4.85920815,27.5742192 C4.9297536,28.0433777 5.11766671,28.3364847 5.42294747,28.4547888 C5.63427167,28.5484332 6.00978573,28.5949432 6.55011395,28.5949432 L6.55011395,30.0745248 L0,30.0745248 L0,28.5949432 L0.493193864,28.5949432 C1.12716648,28.6189786 1.45617049,28.1729191 1.47926944,27.2570768 C1.6200482,24.1583835 1.69059365,20.7422356 1.69059365,17.0092575 L1.69059365,13.0649552 C1.69059365,7.14881384 1.6200482,3.61529831 1.47926944,2.46565717 C1.43213509,1.97246331 1.29198063,1.6674947 1.05662103,1.54981489 C0.915842276,1.47958159 0.563427167,1.45617049 0,1.47958159 L0,-4.43589009e-15 L10.7759738,-4.43589009e-15 L10.7759738,3.38087515 L9.40314681,3.38087515 Z" id="Fill-30" fill="#FFFFFF" mask="url(#mask-2)"></path>
            </g>
            <path d="M101.56108,24.0533769 L101.56108,22.5744196 L102.089235,22.5744196 C102.65235,22.5744196 102.970117,22.2451034 103.04035,21.5886562 C103.063449,21.4004309 103.099034,20.3669088 103.146168,18.4896507 C103.216714,16.1650844 103.251674,13.9466485 103.251674,11.8340307 C103.251674,9.88529063 103.216714,7.80794559 103.146168,5.60074697 C103.146168,4.8962289 103.110271,3.8514695 103.04035,2.46646876 C102.970117,1.97358704 102.846194,1.68048005 102.670454,1.58589921 C102.494091,1.4916305 102.12482,1.45698208 101.56108,1.48039318 L101.56108,0.00112373285 L106.421537,0.00112373285 C106.421537,1.31557902 106.374715,3.31145343 106.280758,5.98781051 C106.187114,8.66323115 106.13998,10.6715915 106.13998,12.0094579 C106.13998,14.0755656 106.187114,16.2471793 106.280758,18.5242991 C106.280758,19.2054061 106.327581,20.2267544 106.421537,21.5886562 C106.491458,22.0578146 106.633174,22.3509216 106.843873,22.4692257 C106.984652,22.539459 107.325518,22.5750439 107.865222,22.5750439 L107.865222,24.0540012 L101.56108,24.0540012 L101.56108,24.0533769 Z" id="Fill-33" fill="#FFFFFF"></path>
            <path d="M117.03899,14.8971392 C116.569831,15.6013451 116.011711,16.1710152 115.366501,16.6052131 C114.720355,17.039411 114.080763,17.4673659 113.446791,17.8903265 C112.906775,18.336386 112.636767,19.0405919 112.636767,20.0029442 C112.636767,21.2943006 113.41183,21.9401348 114.961645,21.9401348 C115.571582,21.9401348 116.082881,21.716949 116.493355,21.2708895 C116.90383,20.82483 117.109535,20.2966755 117.109535,19.6867383 C117.109535,18.0897891 117.086124,16.4937763 117.03899,14.8971392 M121.934407,23.5598709 C121.464625,24.0296536 120.865612,24.2643889 120.137995,24.2643889 C118.987418,24.2643889 118.142121,23.7359224 117.602729,22.6799256 C116.287338,23.7125113 114.996605,24.2294284 113.728972,24.2294284 C110.629967,24.2294284 109.080152,22.9031114 109.080152,20.2501655 C109.080152,18.9591213 109.643579,17.9730457 110.770746,17.2922509 C111.874501,16.8227803 112.977008,16.3411359 114.080763,15.847942 C115.301886,15.261728 116.264239,14.5334867 116.968445,13.6647788 C116.921934,12.302877 116.816428,11.3992085 116.652239,10.953149 C116.323235,10.0142078 115.653989,9.54504929 114.645127,9.54504929 C113.260126,9.54504929 112.567782,9.86125523 112.567782,10.4958521 C113.530134,10.8482673 114.011154,11.5992954 114.011154,12.7495608 C114.011154,13.3598102 113.811692,13.9001384 113.412454,14.3692969 C113.013529,14.8390796 112.520335,15.0735028 111.933185,15.0735028 C111.322936,15.0735028 110.81788,14.8512534 110.418955,14.4051939 C110.019718,13.9591344 109.820255,13.4303556 109.820255,12.8201063 C109.820255,11.4116944 110.266314,10.2673598 111.158121,9.3871024 C112.050865,8.5062207 113.212367,8.06640415 114.645127,8.06640415 C116.499286,8.06640415 117.896148,8.75874844 118.836026,10.1437492 C119.681323,11.3174257 120.103659,12.8784779 120.103659,14.8275302 L120.103659,15.4437103 L120.103659,16.0602027 C120.103659,16.6938631 120.115833,17.6387352 120.139244,18.8945066 C120.162343,20.1502781 120.174517,21.0960866 120.174517,21.7294349 C120.174517,22.1995298 120.374604,22.433953 120.773217,22.433953 C121.07881,22.433953 121.254861,22.1873561 121.301371,21.6947865 L121.301371,20.6028927 L122.639862,20.6028927 L122.639862,21.8002925 C122.638613,22.503562 122.403566,23.0907124 121.934407,23.5598709" id="Fill-35" fill="#FFFFFF"></path>
            <path d="M132.709164,9.86072458 C132.356436,9.83762563 132.116395,9.8966216 131.986853,10.0367761 C131.857624,10.177867 131.723088,10.447875 131.582309,10.8471123 C130.619333,13.6876592 129.516202,18.0895706 128.271043,24.0531584 L125.947101,24.0531584 C125.148314,19.7099309 123.939365,15.3077074 122.319941,10.8471123 C122.13234,10.3770174 121.961595,10.0895291 121.809579,9.98433519 C121.656627,9.87820487 121.345727,9.83762563 120.876569,9.86072458 L120.876569,8.38176729 L127.180398,8.38176729 L127.180398,9.86072458 L126.793022,9.86072458 C126.017959,9.83762563 125.631207,10.0483255 125.631207,10.4946972 C125.631207,10.5415194 125.654619,10.6585749 125.701753,10.8471123 C126.335726,14.5329561 127.110165,17.5845151 128.026319,20.0030379 C128.800758,17.538005 129.505589,14.4861339 130.139249,10.8471123 C130.162348,10.6829225 130.174522,10.5774164 130.174522,10.5302821 C130.174522,10.0611236 129.669466,9.83762563 128.660292,9.86072458 L128.660292,8.38176729 L133.02693,8.38176729 L133.02693,9.86072458 L132.709164,9.86072458 Z" id="Fill-37" fill="#FFFFFF"></path>
            <path d="M141.10347,12.6081578 C141.10347,11.9270508 140.903695,11.2996333 140.504458,10.7240323 C140.105845,10.1490557 139.577378,9.86125523 138.920307,9.86125523 C138.262611,9.86125523 137.728526,10.1490557 137.317739,10.7240323 C136.907264,11.2996333 136.701559,11.9273629 136.701559,12.6081578 L136.701559,19.7216989 C136.701559,20.403118 136.88916,21.0130552 137.264674,21.5527591 C137.710733,22.1626964 138.262611,22.4686014 138.919683,22.4686014 C139.577378,22.4686014 140.117082,22.1626964 140.539731,21.5527591 C140.915245,21.0130552 141.102846,20.4024937 141.102846,19.7216989 L141.102846,12.6081578 L141.10347,12.6081578 Z M143.040661,21.6582652 C141.960004,23.1849811 140.587177,23.9478709 138.920307,23.9478709 C137.230338,23.9478709 135.845025,23.1849811 134.764368,21.6582652 C133.802016,20.2735766 133.320996,18.7119001 133.320996,16.9744842 L133.320996,15.3550603 C133.320996,13.6176444 133.802016,12.0562801 134.764368,10.6709672 C135.845025,9.14425124 137.230338,8.38167364 138.920307,8.38167364 C140.587177,8.38167364 141.960629,9.14425124 143.040661,10.6709672 C144.026112,12.0559679 144.51993,13.6176444 144.51993,15.3550603 L144.51993,16.9744842 C144.51993,18.7119001 144.026736,20.2735766 143.040661,21.6582652 L143.040661,21.6582652 Z" id="Fill-39" fill="#FFFFFF"></path>
            <path d="M155.955061,14.4045384 C155.544586,14.8505979 155.045774,15.0731594 154.458311,15.0731594 C153.824338,15.0731594 153.320219,14.8387363 152.944393,14.3686414 C152.568255,13.8994829 152.380966,13.3238819 152.380966,12.642775 C152.380966,12.0799721 152.527988,11.5808474 152.820783,11.1463374 C153.114514,10.7115152 153.531231,10.4948845 154.07156,10.4948845 C154.07156,9.86059972 153.613014,9.54408163 152.697796,9.54408163 C151.617452,9.54408163 150.843637,10.4708491 150.37323,12.3259447 C150.091672,13.4762102 149.950582,14.838112 149.950582,16.4110258 C149.950582,18.7118688 150.032989,20.4367988 150.197179,21.5880006 C150.267412,22.0574713 150.408191,22.3502661 150.619827,22.4685702 C150.760606,22.5391156 151.100847,22.5743884 151.641487,22.5743884 L151.641487,24.0533457 L145.337034,24.0533457 L145.337034,22.5743884 L145.830228,22.5743884 C146.416442,22.5974873 146.745446,22.2684833 146.815991,21.5886249 C146.95677,20.2504464 147.027003,18.4540346 147.027003,16.2003259 C147.027003,14.064297 146.95677,12.2909842 146.815991,10.8828845 C146.769169,10.3662795 146.62839,10.0494493 146.393031,9.93208162 C146.252876,9.88525941 145.900149,9.86122402 145.33641,9.86122402 L145.33641,8.38226672 L149.738633,8.38226672 L149.738633,10.2130148 C150.137246,8.78150403 151.123634,8.06512434 152.69686,8.06512434 C155.27926,8.06512434 156.570622,9.64958766 156.570622,12.8188265 C156.571865,13.4297001 156.365535,13.9578546 155.955061,14.4045384" id="Fill-41" fill="#FFFFFF"></path>
            <path d="M166.355711,22.7151671 C165.228857,23.5367407 163.902852,23.9472153 162.376136,23.9472153 C161.296416,23.9472153 160.334063,23.5367407 159.488767,22.7151671 C158.760837,21.9869258 158.244545,21.0713957 157.938952,19.9676403 L159.030846,19.6508101 C159.265893,20.4726958 159.681986,21.1475598 160.280686,21.6763385 C160.879698,22.204493 161.577973,22.4685702 162.376136,22.4685702 C163.104689,22.4685702 163.697146,22.2394536 164.154443,21.7821567 C164.612052,21.3248599 164.841169,20.719917 164.841169,19.9682646 C164.841169,18.9828133 164.289603,18.195576 163.186472,17.609362 C162.153574,17.0927571 161.120364,16.5877016 160.087467,16.0945077 C158.983711,15.2963453 158.432458,14.1348425 158.432458,12.6081265 C158.432458,11.2702602 158.925652,10.2130148 159.911727,9.43826346 C160.803846,8.73374539 161.94225,8.38164243 163.327875,8.38164243 C164.056116,8.38164243 164.901413,8.78087974 165.863766,9.57904221 L165.863766,8.09977277 L167.201632,8.09977277 L167.201632,12.6075023 L165.863766,12.6075023 C165.863766,11.7853044 165.64058,11.1229263 165.19452,10.6178708 C164.748773,10.1128153 164.12635,9.86028757 163.327875,9.86028757 C162.154199,9.86028757 161.56736,10.5182956 161.56736,11.8327509 C161.56736,12.7245578 161.966598,13.4290758 162.76476,13.9453686 C163.21082,14.2512737 163.996808,14.5677918 165.124287,14.8964836 C166.086639,15.2020766 166.791157,15.6187942 167.237529,16.1469486 C167.683276,16.6754152 167.999794,17.4442357 168.188332,18.4534103 C168.235154,18.6644223 168.258253,18.8876082 168.258253,19.1223435 C168.257941,20.6016129 167.623656,21.7993249 166.355711,22.7151671" id="Fill-43" fill="#FFFFFF"></path>
            <g id="‘" transform="translate(78.983519, 6.378885) scale(-1, -1) translate(-78.983519, -6.378885) translate(77.487426, 3.684747)" fill="#FFFFFF" fill-rule="nonzero">
                <path d="M2.99218725,0.841552665 C2.03375227,1.30908192 1.55453478,1.8584288 1.55453478,2.4895933 C1.96751896,2.53634623 2.30647767,2.70192951 2.57141092,2.98634314 C2.83634417,3.27075677 2.96881079,3.59997529 2.96881079,3.9739987 C2.96881079,4.37139857 2.83829221,4.7064612 2.57725504,4.9791866 C2.31621787,5.251912 1.99089543,5.3882747 1.60128771,5.3882747 C1.17271922,5.3882747 0.798695816,5.21100319 0.47921749,4.85646017 C0.159739163,4.50191715 0,4.07140063 0,3.5649106 C0,2.04544051 0.845448742,0.857136974 2.53634623,0 L2.99218725,0.841552665 Z" id="Path"></path>
            </g>
        </g>
    </g>
</svg>