<?xml version="1.0" encoding="UTF-8"?>
<svg width="18px" height="11px" viewBox="0 0 18 11" version="1.1" xmlns="http://www.w3.org/2000/svg" xmlns:xlink="http://www.w3.org/1999/xlink">
    <title>GF</title>
    <g id="Page-1" stroke="none" stroke-width="1" fill="none" fill-rule="evenodd">
        <g id="0.Elements" transform="translate(-790.000000, -151.000000)" fill="#757575" fill-rule="nonzero">
            <path d="M795.7,161.27 C795.97,161.27 796.2425,161.255 796.5175,161.225 C796.7925,161.195 797.055,161.1525 797.305,161.0975 C797.555,161.0425 797.785,160.9775 797.995,160.9025 C798.205,160.8275 798.38,160.75 798.52,160.67 C798.76,160.53 798.935,160.385 799.045,160.235 C799.155,160.085 799.21,159.855 799.21,159.545 L799.21,159.545 L799.21,156.455 C799.21,156.155 799.1275,155.9225 798.9625,155.7575 C798.7975,155.5925 798.565,155.51 798.265,155.51 L798.265,155.51 L795.73,155.51 C795.47,155.51 795.2575,155.59 795.0925,155.75 C794.9275,155.91 794.845,156.17 794.845,156.53 C794.845,156.73 794.8725,156.92 794.9275,157.1 C794.9825,157.28 795.04,157.425 795.1,157.535 L795.1,157.535 L796.705,157.535 L796.705,158.975 C796.615,159.025 796.4875,159.07 796.3225,159.11 C796.1575,159.15 795.965,159.17 795.745,159.17 C795.375,159.17 795.0375,159.1125 794.7325,158.9975 C794.4275,158.8825 794.1625,158.7125 793.9375,158.4875 C793.7125,158.2625 793.5375,157.98 793.4125,157.64 C793.2875,157.3 793.225,156.905 793.225,156.455 C793.225,156.045 793.29,155.6725 793.42,155.3375 C793.55,155.0025 793.735,154.7175 793.975,154.4825 C794.215,154.2475 794.5,154.065 794.83,153.935 C795.16,153.805 795.525,153.74 795.925,153.74 C796.415,153.74 796.85,153.81 797.23,153.95 C797.61,154.09 797.925,154.235 798.175,154.385 C798.345,154.275 798.495,154.125 798.625,153.935 C798.755,153.745 798.82,153.52 798.82,153.26 C798.82,152.77 798.5425,152.375 797.9875,152.075 C797.4325,151.775 796.68,151.625 795.73,151.625 C795,151.625 794.32,151.73 793.69,151.94 C793.06,152.15 792.51,152.46 792.04,152.87 C791.57,153.28 791.2,153.785 790.93,154.385 C790.66,154.985 790.525,155.68 790.525,156.47 C790.525,157.31 790.66,158.0325 790.93,158.6375 C791.2,159.2425 791.5675,159.74 792.0325,160.13 C792.4975,160.52 793.045,160.8075 793.675,160.9925 C794.305,161.1775 794.98,161.27 795.7,161.27 Z M802.345,161.12 C802.585,161.12 802.82,161.105 803.05,161.075 C803.28,161.045 803.45,161.015 803.56,160.985 L803.56,160.985 L803.56,157.775 L806.185,157.775 C806.465,157.775 806.6875,157.6925 806.8525,157.5275 C807.0175,157.3625 807.1,157.09 807.1,156.71 C807.1,156.5 807.07,156.3075 807.01,156.1325 C806.95,155.9575 806.885,155.815 806.815,155.705 L806.815,155.705 L803.53,155.705 L803.53,154.01 L806.68,154.01 C806.96,154.01 807.1825,153.925 807.3475,153.755 C807.5125,153.585 807.595,153.31 807.595,152.93 C807.595,152.72 807.5675,152.525 807.5125,152.345 C807.4575,152.165 807.395,152.02 807.325,151.91 L807.325,151.91 L802.33,151.91 C801.9,151.91 801.56,152.035 801.31,152.285 C801.06,152.535 800.935,152.875 800.935,153.305 L800.935,153.305 L800.935,159.875 C800.935,160.345 801.0375,160.67 801.2425,160.85 C801.4475,161.03 801.815,161.12 802.345,161.12 Z" id="GF"></path>
        </g>
    </g>
</svg>