<?xml version="1.0" encoding="UTF-8"?>
<svg width="16px" height="15px" viewBox="0 0 16 15" version="1.1" xmlns="http://www.w3.org/2000/svg" xmlns:xlink="http://www.w3.org/1999/xlink">
    <title>Shape</title>
    <defs>
        <linearGradient x1="27.8761605%" y1="7.90662825%" x2="72.3937529%" y2="74.0035279%" id="linearGradient-1">
            <stop stop-color="#E54A51" offset="0%"></stop>
            <stop stop-color="#A71E22" offset="100%"></stop>
        </linearGradient>
    </defs>
    <g id="Page-1" stroke="none" stroke-width="1" fill="none" fill-rule="evenodd">
        <g id="0.Elements" transform="translate(-274.000000, -493.000000)" fill="url(#linearGradient-1)" fill-rule="nonzero">
            <path d="M288.66558,494.271714 C287.850865,493.451636 286.781108,493 285.653342,493 C284.156605,493 282.78742,493.814311 281.999978,495.103761 C281.212537,493.814311 279.843321,493 278.346615,493 C277.181943,493 276.088901,493.47969 275.268948,494.35067 C274.458721,495.211332 274.008145,496.355992 274.000082,497.573842 C273.988071,499.422655 275.297719,501.678873 277.892703,504.279842 C279.783628,506.1751 281.646842,507.534342 281.725237,507.591291 C281.807186,507.650796 281.903598,507.680533 282.00001,507.680533 C282.09692,507.680533 282.193893,507.650453 282.27606,507.590325 C282.353862,507.533375 284.203642,506.174289 286.087522,504.279219 C288.671441,501.679995 289.987697,499.426053 289.999897,497.579952 C290.008021,496.320925 289.534191,495.146028 288.66558,494.271714 Z M287.662062,498.032212 C287.661002,498.032212 287.660005,498.032212 287.658914,498.032212 C287.400693,498.030497 287.192752,497.819781 287.194435,497.561561 C287.197739,497.055313 287.013425,496.58912 286.675438,496.248889 C286.391252,495.962864 286.028266,495.805357 285.653373,495.805357 C285.395153,495.805357 285.185808,495.596013 285.185808,495.337792 C285.185808,495.079572 285.395153,494.870228 285.653373,494.870228 C286.279224,494.870228 286.877769,495.125798 287.338788,495.58981 C287.853701,496.108058 288.13452,496.810465 288.129564,497.567671 C288.12785,497.824893 287.918848,498.032212 287.662062,498.032212 L287.662062,498.032212 Z" id="Shape"></path>
        </g>
    </g>
</svg>
