<?xml version="1.0" encoding="UTF-8"?>
<svg width="18px" height="17px" viewBox="0 0 18 17" version="1.1" xmlns="http://www.w3.org/2000/svg" xmlns:xlink="http://www.w3.org/1999/xlink">
    <title>Path</title>
    <defs>
        <linearGradient x1="10.1265187%" y1="-18.6586319%" x2="50%" y2="44.08872%" id="linearGradient-1">
            <stop stop-color="#E54A51" offset="0%"></stop>
            <stop stop-color="#A71E22" offset="100%"></stop>
        </linearGradient>
    </defs>
    <g id="Page-1" stroke="none" stroke-width="1" fill="none" fill-rule="evenodd">
        <g id="0.Elements" transform="translate(-295.000000, -492.000000)" fill="url(#linearGradient-1)" fill-rule="nonzero">
            <path d="M307.414842,492.00556 C306.147527,492.064703 304.959283,492.593047 304.046633,493.464344 L304,493.51 L303.953323,493.464348 C302.983628,492.538597 301.702807,492 300.346615,492 C298.904138,492 297.548345,492.595004 296.540835,493.665213 C295.556096,494.71125 295.009825,496.098921 295,497.567222 C294.985954,499.745189 296.419002,502.213975 299.184782,504.986134 C300.040024,505.843335 300.9479,506.654687 301.854575,507.398188 L302.372912,507.816114 L302.8047,508.151981 L303.137506,508.400347 C303.390084,508.583752 303.692015,508.680533 304,508.680533 C304.309757,508.680533 304.613411,508.582614 304.866613,508.397323 L305.246242,508.111147 L305.747275,507.716091 L306.140868,507.395463 C307.041892,506.652171 307.944922,505.841086 308.79672,504.984228 C311.54786,502.216793 312.985546,499.754983 313,497.58656 C313.009708,496.062617 312.432426,494.631297 311.374998,493.566925 C310.373851,492.55919 309.049331,492 307.653342,492 L307.414842,492.00556 Z M307.653342,494 C308.512877,494 309.327873,494.344078 309.956158,494.976498 C310.635903,495.660706 311.006334,496.579156 311,497.5735 C310.989849,499.097184 309.794937,501.143283 307.378331,503.574203 C306.576727,504.380568 305.721557,505.148666 304.868156,505.852672 L304.498077,506.154195 L303.998,506.547 L303.609447,506.244172 L303.293739,505.991091 C303.238153,505.946026 303.181135,505.899543 303.122763,505.851676 C302.264351,505.147752 301.404971,504.379741 300.600619,503.573545 C298.176463,501.143798 296.990187,499.10014 297.000061,497.580339 C297.006465,496.612983 297.3614,495.711357 297.997067,495.036121 C298.629453,494.364381 299.459741,494 300.346615,494 C301.472804,494 302.528923,494.613595 303.146533,495.624943 L303.999978,497.022476 L304.853424,495.624943 C305.47104,494.613584 306.527134,494 307.653342,494 Z" id="Path"></path>
        </g>
    </g>
</svg>