<?xml version="1.0" encoding="UTF-8"?>
<svg width="24px" height="24px" viewBox="0 0 24 24" version="1.1" xmlns="http://www.w3.org/2000/svg" xmlns:xlink="http://www.w3.org/1999/xlink">
    <title>Combined Shape</title>
    <defs>
        <linearGradient x1="37.274524%" y1="25.284182%" x2="73.6589847%" y2="86.0333934%" id="linearGradient-1">
            <stop stop-color="#C52A2E" offset="0%"></stop>
            <stop stop-color="#A71E22" offset="100%"></stop>
        </linearGradient>
    </defs>
    <g id="Page-1" stroke="none" stroke-width="1" fill="none" fill-rule="evenodd">
        <g id="0.Elements" transform="translate(-908.000000, -488.000000)" fill="url(#linearGradient-1)">
            <path d="M921.162371,488.000633 C922.615625,488.003095 923.31311,488.011488 923.93309,488.031778 L924.257802,488.043664 C924.474419,488.052373 924.696292,488.062695 924.95324,488.074892 C926.228456,488.131116 927.100577,488.337334 927.864645,488.632742 C928.661678,488.932728 929.388385,489.406333 929.98854,490.015829 C930.602798,490.615984 931.071641,491.337929 931.376389,492.144303 C931.671797,492.903975 931.878014,493.780674 931.934239,495.055891 C931.979219,496.079873 931.991262,496.545698 931.99428,498.3594 L931.99486,498.842009 C931.99493,498.927492 931.994988,499.01559 931.995036,499.106442 L931.995029,500.616971 C931.993692,502.546921 931.985258,503.320239 931.961423,504.039954 L931.94963,504.363931 C931.94247,504.546044 931.934269,504.735148 931.924899,504.948478 C931.868674,506.223695 931.662273,507.095816 931.367049,507.860066 C930.743451,509.472813 929.468235,510.748029 927.855305,511.371627 C927.095816,511.667035 926.219116,511.873253 924.9439,511.929477 C923.791919,511.980244 923.346357,511.996595 920.893348,511.999358 L919.101859,511.999358 C916.648822,511.996595 916.203128,511.980244 915.051312,511.929477 C913.775913,511.873253 912.903975,511.667035 912.139724,511.371627 C911.342691,511.071641 910.615984,510.598036 910.015829,509.98854 C909.406333,509.388385 908.932911,508.66644 908.628163,507.860066 C908.332755,507.100394 908.126355,506.223695 908.07013,504.948478 C908.060759,504.735148 908.052559,504.546044 908.045398,504.363931 L908.033605,504.039954 C908.012154,503.39221 908.003177,502.701048 908.000622,501.16236 L908.000633,498.841998 C908.003239,497.303259 908.012496,496.611817 908.035483,495.962537 L908.043664,495.746567 C908.052373,495.52995 908.062695,495.308077 908.074892,495.051129 C908.131116,493.775913 908.337334,492.903975 908.632742,492.139724 C908.932911,491.342691 909.406333,490.615984 910.015829,490.015829 C910.615984,489.401571 911.337929,488.932728 912.144486,488.62798 C912.903975,488.332755 913.780674,488.126355 915.055891,488.07013 C916.165205,488.021402 916.619459,488.004313 918.842009,488.000622 Z M920.322937,490.179972 L919.70059,490.179972 C919.599989,490.180004 919.502387,490.180053 919.407645,490.18012 L918.872432,490.180742 C917.279355,490.183439 916.619977,490.193291 915.952263,490.217417 L915.740031,490.225518 C915.561108,490.232679 915.374741,490.240879 915.163761,490.25025 C913.996416,490.301896 913.358716,490.498773 912.936757,490.662869 C912.416268,490.854984 911.947425,491.159732 911.558432,491.558249 C911.155154,491.942847 910.850406,492.416268 910.658107,492.936757 C910.494012,493.358716 910.297134,493.991654 910.245671,495.163761 C910.23627,495.373947 910.228049,495.55978 910.220876,495.738365 L910.212763,495.950281 C910.18734,496.652371 910.177837,497.347951 910.175791,499.131695 L910.175791,500.891232 C910.178554,503.298587 910.194905,503.720183 910.245671,504.859471 C910.297134,506.026817 910.494012,506.664517 910.658107,507.086475 C910.850406,507.606781 911.155154,508.075624 911.55367,508.464801 C911.938085,508.863317 912.41169,509.168065 912.931995,509.360364 C913.353954,509.524459 913.986892,509.721337 915.159,509.772799 C916.252124,509.821686 916.686612,509.838659 918.867578,509.842316 L919.402976,509.842932 C919.592505,509.843064 919.793464,509.843126 920.006946,509.843126 L920.317898,509.843078 C920.418504,509.843046 920.516112,509.842998 920.610858,509.842932 L921.146093,509.842316 C923.326176,509.838659 923.757617,509.821686 924.85471,509.772799 C926.022238,509.721337 926.659755,509.524459 927.081714,509.360364 C928.12727,508.957086 928.957086,508.12727 929.360364,507.081714 C929.524459,506.659755 929.721337,506.026817 929.772982,504.85471 C929.782353,504.64373 929.790554,504.457495 929.797714,504.278792 L929.805816,504.066862 C929.828671,503.435307 929.838717,502.812133 929.842004,501.394258 L929.842858,500.891098 C929.842961,500.801965 929.843046,500.710105 929.843113,500.615378 L929.843113,499.407613 C929.843046,499.312868 929.842961,499.220983 929.842858,499.131823 L929.842004,498.628452 C929.838717,497.209815 929.828671,496.584778 929.805816,495.95224 L929.797714,495.740018 C929.790554,495.561103 929.782353,495.374741 929.772982,495.163761 C929.721337,493.996232 929.524459,493.358716 929.360364,492.936757 C929.168065,492.416268 928.863317,491.947425 928.464801,491.558249 C928.080386,491.159732 927.606781,490.854984 927.086475,490.662869 C926.664517,490.498773 926.031579,490.301896 924.859471,490.25025 C924.607212,490.239005 924.390218,490.229445 924.178818,490.221346 L923.968184,490.213725 C923.335282,490.192274 922.663708,490.183297 921.152323,490.180742 L920.616325,490.18012 C920.426558,490.179986 920.225324,490.179924 920.011525,490.179924 Z M920.002185,493.836899 C923.406058,493.836899 926.16747,496.598311 926.16747,500.002185 C926.16747,503.406058 923.406058,506.16747 920.002185,506.16747 C916.598494,506.16747 913.836899,503.406058 913.836899,500.002185 C913.836899,496.598311 916.598494,493.836899 920.002185,493.836899 Z M920.002185,496.002917 C917.794044,496.002917 916.002917,497.793861 916.002917,500.002185 C916.002917,502.210508 917.794044,504.001452 920.002185,504.001452 C922.210508,504.001452 924.001452,502.210508 924.001452,500.002185 C924.001452,497.793861 922.210508,496.002917 920.002185,496.002917 Z M926.411232,492.153826 C927.20625,492.153826 927.850726,492.798119 927.850726,493.593137 C927.850726,494.387973 927.20625,495.032449 926.411232,495.032449 C925.616396,495.032449 924.97192,494.387973 924.97192,493.593137 C924.97192,492.798119 925.616396,492.153826 926.411232,492.153826 Z" id="Combined-Shape"></path>
        </g>
    </g>
</svg>