<svg width="222" height="42" xmlns="http://www.w3.org/2000/svg"><g fill="#FFF" fill-rule="evenodd"><path d="M67.062 15.669h-.484c-.88-.029-1.32.384-1.32 1.239 0 1.09-.018 2.725-.046 4.906-.003 2.181-.003 3.817 0 4.907 0 2.123-.64 3.757-1.924 4.906-1.284 1.148-2.985 1.723-5.109 1.723-2.153 0-3.848-.575-5.087-1.723-1.24-1.149-1.858-2.783-1.858-4.906a45.44 45.44 0 0 1 0-1.15v-1.148c0-.826-.007-2.078-.024-3.757-.016-1.68-.023-2.933-.023-3.758 0-.59-.175-.958-.526-1.105-.206-.089-.634-.134-1.28-.134v-1.851h7.917v1.85h-.62c-.74 0-1.152.415-1.24 1.24-.118.913-.177 2.978-.177 6.19 0 2.39.06 4.157.175 5.307.238 2.062 1.165 3.096 2.786 3.096 1.62 0 2.535-1.034 2.741-3.096.119-1.21.176-2.992.176-5.351 0-3.153-.044-5.203-.134-6.145-.088-.62-.277-1.004-.573-1.15-.149-.06-.577-.09-1.281-.09v-1.851h7.911v1.85ZM83.45 19.391c0 .765-.258 1.43-.773 1.99-.516.56-1.14.84-1.88.84-.79 0-1.424-.295-1.895-.886-.47-.591-.706-1.312-.706-2.166 0-.71.184-1.333.554-1.88.366-.545.888-.818 1.567-.818 0-.796-.574-1.194-1.718-1.194-1.35 0-2.318 1.164-2.905 3.493-.353 1.444-.53 3.156-.53 5.13 0 2.89.104 5.057.31 6.5.088.589.266.959.533 1.105.177.09.606.134 1.287.134v1.85h-7.937v-1.85l.621-.008c.738.033 1.15-.38 1.24-1.235.178-1.681.268-3.934.268-6.762 0-2.684-.09-4.908-.268-6.677-.06-.648-.237-1.046-.53-1.194-.178-.057-.624-.088-1.331-.088v-1.857h5.532v2.304c.5-1.797 1.735-2.696 3.707-2.696 3.236 0 4.855 1.99 4.855 5.965M95.514 19.385c0-2.475-1.163-3.716-3.49-3.716-.825 0-1.496.363-2.01 1.084-.514.724-.774 1.513-.774 2.368v4.293l4.991-2.036c.856-.383 1.283-1.047 1.283-1.993Zm2.707 8.977c-1.033 3.326-3.093 4.988-6.187 4.988-2.123 0-3.86-.956-5.215-2.872-1.209-1.738-1.812-3.696-1.812-5.877v-2.032c0-2.179.603-4.14 1.812-5.88 1.354-1.913 3.091-2.871 5.212-2.871 1.885 0 3.362.523 4.438 1.57 1.074 1.046 1.613 2.512 1.613 4.397 0 .855-.355 1.577-1.062 2.166-.412.327-1.147.724-2.21 1.194l-5.57 2.474v2.433c0 .854.237 1.621.709 2.298.562.767 1.253 1.151 2.078 1.151 1.033 0 2.07-.297 3.12-.885 1.045-.588 1.7-1.34 1.966-2.254h1.108ZM101.96 6.281c0 .943-.258 1.944-.771 3.003-.517 1.06-1.142 1.913-1.876 2.562-.53.441-.988.662-1.371.662l-.22-.837c1.415-.47 2.15-1.337 2.21-2.602-.323.15-.65.222-.972.222-.737 0-1.312-.337-1.724-1.017-.354-.589-.529-1.267-.529-2.034 0-.794.235-1.473.706-2.032.47-.562 1.101-.841 1.898-.841.824 0 1.471.28 1.942.84.472.558.708 1.25.708 2.074M112.433 27.297c0 1.854-.799 3.359-2.39 4.506-1.416 1.032-3.083 1.547-4.999 1.547-1.356 0-2.565-.513-3.626-1.544-.916-.912-1.563-2.06-1.946-3.444l1.372-.398c.293 1.032.819 1.88 1.571 2.542a3.867 3.867 0 0 0 2.636.995c.914 0 1.66-.288 2.236-.863.575-.573.862-1.333.862-2.277 0-1.237-.694-2.224-2.078-2.962a260.15 260.15 0 0 0-3.893-1.9c-1.39-1.002-2.08-2.46-2.08-4.376 0-1.679.614-3.007 1.849-3.98 1.116-.882 2.544-1.325 4.278-1.325.91 0 1.97.504 3.174 1.508v-1.854h1.69v5.646h-1.676c0-1.032-.28-1.862-.839-2.498-.557-.633-1.338-.951-2.337-.951-1.471 0-2.207.826-2.207 2.476 0 1.12.502 2.006 1.502 2.653.562.382 1.549.78 2.964 1.193 1.21.383 2.091.906 2.651 1.569.56.662.96 1.628 1.193 2.895.061.266.093.546.093.842M136.716 7.548h-1.758c0-1.59-.386-2.385-1.152-2.385h-2.92c-.621 0-1.03.067-1.237.199-.208.131-.344.477-.398 1.038-.151 1.325-.255 5.256-.312 11.792h2.882c.944 0 1.405-.793 1.376-2.382h1.76v6.664h-1.76c.03-1.62-.425-2.43-1.36-2.43h-2.898v3.76c0 7.555.116 12.258.346 14.119.088.59.322.959.698 1.106.26.117.725.178 1.39.178v1.852H123.2v-1.852l.604-.016c.774.03 1.173-.532 1.204-1.68.198-3.888.298-8.174.298-12.86v-4.945c0-7.425-.086-11.857-.264-13.3-.057-.62-.231-1.003-.525-1.15-.176-.089-.616-.118-1.317-.089V3.312h13.517v4.236ZM146.484 33.49h-7.916v-1.852h.662c.71 0 1.106-.412 1.194-1.237.03-.235.074-1.532.134-3.888.077-2.918.116-5.701.116-8.352 0-2.447-.044-5.053-.132-7.823 0-.883-.044-2.194-.133-3.933-.086-.619-.238-.987-.458-1.104-.22-.118-.684-.163-1.383-.133V3.312h6.097c0 1.65-.058 4.154-.179 7.513-.12 3.359-.18 5.877-.18 7.556 0 2.593.063 5.317.187 8.176 0 .854.059 2.135.174 3.844.09.59.268.958.532 1.104.179.09.604.133 1.285.133v1.852ZM158.302 28.035c0-2.012-.03-4.022-.088-6.036-.59.887-1.292 1.605-2.104 2.155-.813.545-1.617 1.086-2.415 1.618-.676.562-1.017 1.45-1.017 2.662 0 1.626.973 2.44 2.922 2.44.768 0 1.412-.28 1.925-.842a2.85 2.85 0 0 0 .777-1.997Zm6.925 2.609c0 .886-.297 1.623-.883 2.214-.59.59-1.343.886-2.254.886-1.446 0-2.507-.658-3.183-1.977-1.65 1.32-3.27 1.977-4.862 1.977-3.89 0-5.833-1.668-5.833-5.004 0-1.624.708-2.864 2.121-3.72 1.384-.59 2.769-1.195 4.156-1.817 1.53-.737 2.738-1.653 3.622-2.745-.057-1.711-.19-2.848-.39-3.41-.407-1.182-1.232-1.771-2.479-1.771-1.709 0-2.564.398-2.564 1.194 1.143.442 1.712 1.384 1.712 2.83 0 .767-.25 1.443-.751 2.034-.5.59-1.117.886-1.854.886-.764 0-1.395-.28-1.898-.84-.502-.56-.75-1.225-.75-1.99 0-1.766.561-3.204 1.681-4.31 1.119-1.103 2.58-1.655 4.377-1.655 2.33 0 4.084.868 5.264 2.606 1.061 1.472 1.593 3.433 1.593 5.877V23.456c0 .795.017 1.98.046 3.556.03 1.577.044 2.763.044 3.559 0 .588.25.884.748.884.379 0 .6-.313.657-.938.002-.059.002-.517 0-1.379h1.68v1.506ZM178.553 15.669h-.398c-.441-.029-.744.045-.907.223-.16.176-.33.516-.506 1.017-1.208 3.567-2.596 9.094-4.157 16.58h-2.917c-1.003-5.453-2.52-10.98-4.552-16.58-.237-.59-.452-.952-.643-1.084-.192-.134-.58-.185-1.17-.156v-1.851h7.913v1.85h-.487c-.973-.028-1.46.237-1.46.797 0 .06.029.207.09.443.791 4.625 1.764 8.456 2.911 11.49.973-3.094 1.856-6.924 2.652-11.49.029-.206.046-.338.046-.397 0-.59-.635-.87-1.9-.842v-1.851h5.485v1.85ZM188.1 28.05v-8.93c0-.857-.25-1.645-.752-2.367-.5-.721-1.165-1.084-1.99-1.084s-1.498.363-2.014 1.084a3.991 3.991 0 0 0-.773 2.367v8.93c0 .856.236 1.62.708 2.3.56.767 1.254 1.151 2.079 1.151.825 0 1.505-.384 2.038-1.151.472-.68.704-1.444.704-2.3Zm4.282-3.45c0 2.182-.618 4.14-1.854 5.878-1.355 1.916-3.077 2.872-5.17 2.872-2.118 0-3.857-.956-5.21-2.872-1.21-1.738-1.81-3.696-1.81-5.877v-2.032c0-2.179.6-4.14 1.81-5.88 1.353-1.913 3.092-2.871 5.21-2.871 2.093 0 3.815.958 5.17 2.872 1.236 1.739 1.854 3.7 1.854 5.879v2.032ZM207.554 19.391c0 .765-.258 1.43-.774 1.99-.515.56-1.139.84-1.876.84-.794 0-1.428-.295-1.898-.886-.471-.591-.706-1.312-.706-2.166 0-.71.185-1.333.552-1.88.368-.545.891-.818 1.57-.818 0-.796-.575-1.194-1.718-1.194-1.352 0-2.318 1.164-2.907 3.493-.352 1.444-.528 3.156-.528 5.13 0 2.89.102 5.057.309 6.5.09.589.266.959.533 1.105.176.09.607.134 1.287.134v1.85h-7.938v-1.85l.621-.008c.739.033 1.153-.38 1.243-1.235.177-1.681.265-3.934.265-6.762 0-2.684-.088-4.908-.265-6.677-.059-.648-.238-1.046-.533-1.194-.18-.057-.622-.088-1.331-.088v-1.857h5.533v2.304c.497-1.797 1.734-2.696 3.705-2.696 3.239 0 4.856 1.99 4.856 5.965M221.494 27.297c0 1.854-.795 3.359-2.389 4.506-1.413 1.032-3.08 1.547-4.999 1.547-1.355 0-2.564-.513-3.626-1.544-.915-.912-1.565-2.06-1.947-3.444l1.373-.398c.297 1.032.82 1.88 1.572 2.542.753.663 1.63.995 2.634.995.915 0 1.66-.288 2.238-.863.575-.573.862-1.333.862-2.277 0-1.237-.692-2.224-2.08-2.962a231.701 231.701 0 0 0-3.894-1.9c-1.386-1.002-2.079-2.46-2.079-4.376 0-1.679.617-3.007 1.85-3.98 1.12-.882 2.543-1.325 4.279-1.325.91 0 1.97.504 3.176 1.508v-1.854h1.687v5.646h-1.676c0-1.032-.28-1.862-.837-2.498-.561-.633-1.34-.951-2.34-.951-1.47 0-2.205.826-2.205 2.476 0 1.12.5 2.006 1.501 2.653.563.382 1.55.78 2.967 1.193 1.207.383 2.09.906 2.652 1.569.56.662.957 1.628 1.194 2.895.057.266.087.546.087.842M19.095 5.117h-.354c-.653 0-1.083.19-1.289.573-.354.591-.534 5.261-.534 14.016v4.155c0 5.424.124 11.155.371 17.198h-4.303c-2.562-10.848-5.548-21.176-8.962-30.99-.059 2.593-.088 5.865-.088 9.814 0 11.94.178 18.202.531 18.793.238.41.787.588 1.643.531v1.852H0v-1.852a7.58 7.58 0 0 1 .446-.016c.65 0 1.077-.177 1.286-.532.265-.47.397-7.01.397-19.617 0-8.426-.124-12.865-.375-13.322C1.502 5.263.92 5.08 0 5.167V3.312h6.238c2.715 10.163 5.633 19.735 8.76 28.719.077-4.713.116-9.042.116-12.99 0-8.425-.126-12.864-.376-13.323-.25-.455-.832-.638-1.745-.55V3.311h6.102v1.805ZM29.996 28.035c0-2.012-.03-4.022-.086-6.036-.592.887-1.292 1.605-2.104 2.155-.813.545-1.616 1.086-2.415 1.618-.68.562-1.017 1.45-1.017 2.662 0 1.626.973 2.44 2.922 2.44.766 0 1.408-.28 1.925-.842a2.857 2.857 0 0 0 .775-1.997Zm6.923 2.609c0 .886-.293 1.623-.883 2.214-.588.59-1.34.886-2.253.886-1.444 0-2.504-.658-3.182-1.977-1.649 1.32-3.27 1.977-4.861 1.977-3.89 0-5.834-1.668-5.834-5.004 0-1.624.706-2.864 2.121-3.72 1.384-.59 2.769-1.195 4.155-1.817 1.532-.737 2.741-1.653 3.623-2.745-.058-1.711-.187-2.848-.39-3.41-.407-1.182-1.23-1.771-2.478-1.771-1.71 0-2.563.398-2.563 1.194 1.139.442 1.71 1.384 1.71 2.83a3.05 3.05 0 0 1-.75 2.034c-.5.59-1.118.886-1.851.886-.768 0-1.4-.28-1.9-.84a2.878 2.878 0 0 1-.75-1.99c0-1.766.56-3.204 1.678-4.31 1.122-1.103 2.582-1.655 4.38-1.655 2.328 0 4.083.868 5.262 2.606 1.063 1.472 1.591 3.433 1.591 5.877a78.613 78.613 0 0 1 0 1.547c0 .795.018 1.98.048 3.556.03 1.577.046 2.763.046 3.559 0 .588.249.884.746.884.379 0 .598-.313.656-.938v-1.379h1.68v1.506ZM49.44 34.461c-.032.854-.446 1.7-1.24 2.539-.796.838-1.624 1.258-2.478 1.258-2.095 0-3.716-.99-4.866-2.964-.946-1.648-1.417-3.592-1.417-5.834 0-.943.024-2.35.071-4.22.044-1.871.068-3.279.068-4.222 0-1.738-.043-3.522-.132-5.349H37.24v-1.851c.94 0 1.84-.543 2.694-1.632a9.22 9.22 0 0 0 1.546-2.908c.355-1.089.532-2.223.532-3.398h1.546v7.938h3.354v1.851h-3.354c-.215 2.86-.325 7.251-.325 13.177 0 2.063.075 3.535.22 4.42.356 2.093 1.111 3.14 2.261 3.14.473 0 .968-.205 1.485-.62.516-.412.791-.851.821-1.325h1.418Z"/><path d="M173.749 9.394c.692 0 1.226-.148 1.6-.444.373-.295.56-.72.56-1.275 0-.459-.121-.819-.363-1.08-.243-.262-.651-.467-1.227-.616-.39-.101-.66-.212-.807-.332a.592.592 0 0 1-.22-.484c0-.187.08-.336.238-.445.159-.11.376-.164.652-.164.342 0 .784.096 1.328.289l.247-.938c-.586-.208-1.114-.31-1.582-.308-.672 0-1.194.147-1.565.443-.371.296-.557.713-.557 1.252 0 .422.118.762.352 1.02.234.257.605.447 1.113.57.305.075.538.152.7.228a.862.862 0 0 1 .343.26.61.61 0 0 1 .102.36c0 .223-.08.399-.24.525-.16.126-.388.19-.682.19a2.95 2.95 0 0 1-.645-.077 7.779 7.779 0 0 1-.875-.267l-.289.91c.646.255 1.252.383 1.817.383Zm5.077-.055V3.667h-1.223v5.672h1.223Zm3.202 0v-3.93c.399.68.692 1.153.88 1.418l1.757 2.512h.977V3.667h-1.117v3.902a25.693 25.693 0 0 0-.915-1.437l-1.726-2.465h-.969v5.672h1.113Zm8.093.062c.589 0 1.176-.13 1.762-.39l-.297-.895c-.453.19-.888.285-1.304.285-.54 0-.949-.162-1.229-.486-.28-.324-.42-.801-.42-1.432 0-.62.14-1.092.42-1.418.28-.325.69-.488 1.229-.488.192 0 .383.024.572.072.189.049.395.126.619.233l.363-.848a3.146 3.146 0 0 0-.802-.322 3.58 3.58 0 0 0-.897-.115c-.575 0-1.07.116-1.482.347a2.302 2.302 0 0 0-.948 1.004c-.218.438-.328.957-.328 1.559 0 .932.236 1.648.707 2.146.472.499 1.15.748 2.035.748Zm7.105-.062v-.902h-2.555V6.858h2.235v-.886h-2.235V4.569h2.473v-.902h-3.695v5.672h3.777Zm6.4 0V3.737l-.75-.11-1.937.767.192.656 1.312-.344V9.34h1.184Zm2.305.031c.747-.042 1.396-.209 1.945-.502a3.11 3.11 0 0 0 1.264-1.201c.293-.508.44-1.098.44-1.77 0-.724-.19-1.29-.57-1.699-.378-.409-.9-.613-1.567-.613-.417 0-.785.076-1.104.228a1.728 1.728 0 0 0-.74.647 1.787 1.787 0 0 0-.262.969c0 .33.074.626.22.886.148.26.351.465.61.612.26.147.552.22.877.22.24 0 .47-.043.693-.128.223-.086.428-.209.616-.368-.123.56-.393.993-.81 1.297-.419.305-.996.48-1.733.528l.12.894Zm1.48-3.008c-.294 0-.521-.08-.681-.242-.16-.161-.24-.39-.24-.683a.96.96 0 0 1 .269-.702.916.916 0 0 1 .684-.275c.32 0 .564.122.732.367.168.245.252.604.252 1.078v.059a1.792 1.792 0 0 1-.496.295c-.177.069-.35.103-.52.103Zm4.085 3.008c.748-.042 1.396-.209 1.946-.502a3.11 3.11 0 0 0 1.263-1.201c.293-.508.44-1.098.44-1.77 0-.724-.19-1.29-.568-1.699-.38-.409-.902-.613-1.569-.613-.417 0-.784.076-1.103.228a1.728 1.728 0 0 0-.74.647 1.787 1.787 0 0 0-.262.969c0 .33.073.626.22.886.148.26.35.465.61.612.259.147.551.22.877.22.24 0 .47-.043.693-.128.223-.086.428-.209.615-.368-.122.56-.392.993-.81 1.297-.418.305-.996.48-1.733.528l.121.894Zm1.48-3.008c-.293 0-.52-.08-.68-.242-.16-.161-.241-.39-.241-.683a.96.96 0 0 1 .27-.702.916.916 0 0 1 .683-.275c.32 0 .565.122.733.367.168.245.252.604.252 1.078v.059a1.792 1.792 0 0 1-.497.295c-.177.069-.35.103-.52.103Zm5.285 3.016c.662 0 1.183-.17 1.565-.512.381-.34.572-.81.572-1.406 0-.32-.07-.605-.209-.854a1.44 1.44 0 0 0-.588-.576 1.824 1.824 0 0 0-.875-.203c-.31 0-.63.054-.96.16l.144-1.449h2.258v-.871h-3.16l-.266 2.84.566.398a2.66 2.66 0 0 1 .49-.177c.176-.046.343-.069.502-.069.295 0 .52.071.674.213.155.142.233.346.233.611 0 .326-.095.573-.286.74-.19.169-.468.253-.836.253-.192 0-.41-.026-.652-.077a4.54 4.54 0 0 1-.715-.212l-.207.855c.271.107.558.19.862.248.303.059.6.088.888.088Z" fill-rule="nonzero" opacity=".395"/></g></svg>