<?xml version="1.0" encoding="UTF-8"?>
<!DOCTYPE svg PUBLIC "-//W3C//DTD SVG 1.1//EN" "http://www.w3.org/Graphics/SVG/1.1/DTD/svg11.dtd">
<svg xmlns="http://www.w3.org/2000/svg" version="1.1" width="560px" height="128px" style="shape-rendering:geometricPrecision; text-rendering:geometricPrecision; image-rendering:optimizeQuality; fill-rule:evenodd; clip-rule:evenodd" xmlns:xlink="http://www.w3.org/1999/xlink">
<g><path style="opacity:0.972" fill="#a71e22" d="M 530.5,-0.5 C 530.833,-0.5 531.167,-0.5 531.5,-0.5C 546.8,18.2861 543.966,33.6194 523,45.5C 519.078,41.3164 515.912,36.6498 513.5,31.5C 513.5,30.8333 513.5,30.1667 513.5,29.5C 513.5,28.8333 513.167,28.5 512.5,28.5C 512.5,27.8333 512.5,27.1667 512.5,26.5C 512.337,24.1432 512.503,21.8098 513,19.5C 518,15.1667 523,10.8333 528,6.5C 529.411,4.34965 530.245,2.01632 530.5,-0.5 Z"/></g>
<g><path style="opacity:1" fill="#721112" d="M 512.5,26.5 C 512.5,27.1667 512.5,27.8333 512.5,28.5C 513.167,28.5 513.5,28.8333 513.5,29.5C 513.5,30.1667 513.5,30.8333 513.5,31.5C 513.5,32.8333 512.833,33.5 511.5,33.5C 511.5,32.8333 511.167,32.5 510.5,32.5C 510.5,31.8333 510.167,31.5 509.5,31.5C 509.573,29.9731 508.906,28.9731 507.5,28.5C 507.5,27.8333 507.167,27.5 506.5,27.5C 506.5,26.8333 506.167,26.5 505.5,26.5C 504.545,24.2543 503.878,21.921 503.5,19.5C 500.121,19.112 496.788,18.4453 493.5,17.5C 494.527,15.976 496.027,15.3094 498,15.5C 500.187,15.7885 502.354,16.1218 504.5,16.5C 504.214,12.4795 505.714,9.47954 509,7.5C 509.5,7.83333 510,8.16667 510.5,8.5C 509.077,10.8432 508.077,13.3432 507.5,16C 509.055,19.6084 510.722,23.1084 512.5,26.5 Z"/></g>
<g><path style="opacity:0.966" fill="#721011" d="M 505.5,26.5 C 506.167,26.5 506.5,26.8333 506.5,27.5C 507.167,27.5 507.5,27.8333 507.5,28.5C 507.427,30.0269 508.094,31.0269 509.5,31.5C 510.167,31.5 510.5,31.8333 510.5,32.5C 511.167,32.5 511.5,32.8333 511.5,33.5C 512.809,36.7777 514.642,39.7777 517,42.5C 517.781,43.9437 517.614,45.277 516.5,46.5C 499.686,58.6133 484.519,56.9466 471,41.5C 468.5,38.3333 466,35.1667 463.5,32C 466.833,31.6667 470.167,31.3333 473.5,31C 480.943,27.278 488.61,24.1113 496.5,21.5C 499.974,22.4017 502.974,24.0683 505.5,26.5 Z"/></g>
<g><path style="opacity:0.914" fill="#731112" d="M -0.5,37.5 C 4.76162,37.1953 9.92828,37.5286 15,38.5C 20.8679,59.6379 27.2013,80.6379 34,101.5C 34.6667,82.5 34.6667,63.5 34,44.5C 32.951,42.8934 31.451,42.2267 29.5,42.5C 29.5,40.8333 29.5,39.1667 29.5,37.5C 34.8333,37.5 40.1667,37.5 45.5,37.5C 45.5,39.1667 45.5,40.8333 45.5,42.5C 43.549,42.2267 42.049,42.8934 41,44.5C 40.5,72.1647 40.3334,99.8313 40.5,127.5C 36.8333,127.5 33.1667,127.5 29.5,127.5C 24.404,104.118 17.904,81.1176 10,58.5C 9.21242,79.5241 9.37909,100.524 10.5,121.5C 11.8333,121.5 13.1667,121.5 14.5,121.5C 14.5,123.5 14.5,125.5 14.5,127.5C 9.5,127.5 4.5,127.5 -0.5,127.5C -0.5,125.5 -0.5,123.5 -0.5,121.5C 0.822066,121.67 1.98873,121.337 3,120.5C 4.71062,94.8278 4.71062,69.1612 3,43.5C 1.98873,42.6634 0.822066,42.33 -0.5,42.5C -0.5,40.8333 -0.5,39.1667 -0.5,37.5 Z"/></g>
<g><path style="opacity:0.946" fill="#a71e22" d="M 284.5,127.5 C 277.833,127.5 271.167,127.5 264.5,127.5C 264.5,125.5 264.5,123.5 264.5,121.5C 265.822,121.67 266.989,121.337 268,120.5C 268.667,94.8333 268.667,69.1667 268,43.5C 266.989,42.6634 265.822,42.33 264.5,42.5C 264.5,40.8333 264.5,39.1667 264.5,37.5C 275.167,37.5 285.833,37.5 296.5,37.5C 296.5,41.1667 296.5,44.8333 296.5,48.5C 294.833,48.5 293.167,48.5 291.5,48.5C 291.739,46.5328 291.406,44.6995 290.5,43C 286.909,42.2114 283.409,42.3781 280,43.5C 278.714,53.1213 278.214,62.788 278.5,72.5C 280.857,72.6633 283.19,72.4966 285.5,72C 287.155,70.5557 287.822,68.7224 287.5,66.5C 289.167,66.5 290.833,66.5 292.5,66.5C 292.5,72.1667 292.5,77.8333 292.5,83.5C 290.833,83.5 289.167,83.5 287.5,83.5C 287.822,81.2776 287.155,79.4443 285.5,78C 283.19,77.5034 280.857,77.3367 278.5,77.5C 278.089,91.8839 278.589,106.217 280,120.5C 281.356,121.38 282.856,121.714 284.5,121.5C 284.5,123.5 284.5,125.5 284.5,127.5 Z"/></g>
<g><path style="opacity:0.95" fill="#a71e22" d="M 300.5,37.5 C 305.5,37.5 310.5,37.5 315.5,37.5C 314.387,59.1841 314.553,80.8508 316,102.5C 317.11,104.037 318.61,104.703 320.5,104.5C 320.5,106.167 320.5,107.833 320.5,109.5C 313.833,109.5 307.167,109.5 300.5,109.5C 301.481,105.852 302.815,102.352 304.5,99C 305.962,80.4784 305.795,61.9784 304,43.5C 302.989,42.6634 301.822,42.33 300.5,42.5C 300.5,40.8333 300.5,39.1667 300.5,37.5 Z"/></g>
<g><path style="opacity:0.944" fill="#721011" d="M 559.5,55.5 C 559.5,56.1667 559.5,56.8333 559.5,57.5C 552.708,58.7469 546.042,60.2469 539.5,62C 532.118,59.4529 526.785,54.6195 523.5,47.5C 531.88,40.7153 540.547,40.2153 549.5,46C 552.944,49.059 556.277,52.2256 559.5,55.5 Z"/></g>
<g><path style="opacity:0.928" fill="#731111" d="M 96.5,43.5 C 98.1667,43.5 99.8333,43.5 101.5,43.5C 101.5,49.5 101.5,55.5 101.5,61.5C 104.167,61.5 106.833,61.5 109.5,61.5C 109.5,63.5 109.5,65.5 109.5,67.5C 106.833,67.5 104.167,67.5 101.5,67.5C 101.552,76.513 101.219,85.513 100.5,94.5C 100.671,99.8642 101.171,105.198 102,110.5C 104.833,117 108,117.167 111.5,111C 112.793,110.51 114.127,110.343 115.5,110.5C 114.433,118.872 109.766,122.039 101.5,120C 93.8975,114.796 90.2308,107.462 90.5,98C 91.6039,88.1905 91.7706,78.3572 91,68.5C 89.3005,67.5939 87.4672,67.2606 85.5,67.5C 85.5,65.5 85.5,63.5 85.5,61.5C 89.5257,61.3234 92.359,59.3234 94,55.5C 95.9889,51.747 96.8222,47.747 96.5,43.5 Z"/></g>
<g><path style="opacity:0.966" fill="#a71e22" d="M 518.5,46.5 C 524.485,51.4678 528.152,57.8011 529.5,65.5C 529.485,67.6341 528.985,69.6341 528,71.5C 524.021,75.1482 520.355,79.1482 517,83.5C 515.139,85.8877 513.806,88.5544 513,91.5C 507.869,84.1095 504.702,75.9428 503.5,67C 504.036,63.0932 505.536,59.5932 508,56.5C 511.396,52.9349 514.896,49.6015 518.5,46.5 Z"/></g>
<g><path style="opacity:0.883" fill="#741213" d="M 230.5,48.5 C 235.827,47.1746 238.494,49.1746 238.5,54.5C 238.292,60.374 235.292,63.7073 229.5,64.5C 229.441,61.9512 230.441,59.9512 232.5,58.5C 229.467,55.637 228.801,52.3036 230.5,48.5 Z"/></g>
<g><path style="opacity:0.927" fill="#731111" d="M 56.5,61.5 C 70.6811,59.1832 78.1811,65.1832 79,79.5C 79.1684,87.5207 79.6684,95.5207 80.5,103.5C 81.4519,101.955 81.7852,100.288 81.5,98.5C 83.1667,98.5 84.8333,98.5 86.5,98.5C 86.8924,109.38 82.2258,112.547 72.5,108C 71.8742,107.25 71.3742,106.416 71,105.5C 67.6891,108.819 63.6891,110.152 59,109.5C 47.0844,108.903 43.0844,102.903 47,91.5C 47.8333,90.6667 48.6667,89.8333 49.5,89C 56.3658,86.6527 62.5325,83.1527 68,78.5C 68.8166,75.0357 68.4833,71.7024 67,68.5C 63.6825,65.955 60.5158,65.955 57.5,68.5C 61.0287,71.6105 61.862,75.2772 60,79.5C 53.2478,84.56 49.0811,82.8933 47.5,74.5C 48.3009,68.5409 51.3009,64.2075 56.5,61.5 Z M 68.5,83.5 C 69.6484,87.9811 69.8151,92.6478 69,97.5C 66.0681,103.045 62.4014,103.712 58,99.5C 57.3333,97.1667 57.3333,94.8333 58,92.5C 61.6919,89.6352 65.1919,86.6352 68.5,83.5 Z"/></g>
<g><path style="opacity:0.937" fill="#731111" d="M 174.5,62.5 C 174.345,65.8531 175.012,66.1864 176.5,63.5C 187.65,58.5797 193.984,62.2464 195.5,74.5C 195.139,81.032 191.806,83.532 185.5,82C 181.763,78.7915 180.93,74.9581 183,70.5C 187.592,67.7269 187.092,66.5603 181.5,67C 178.135,70.4045 176.302,74.5712 176,79.5C 175.333,85.5 175.333,91.5 176,97.5C 177.187,101.75 178.687,105.75 180.5,109.5C 173.833,109.5 167.167,109.5 160.5,109.5C 160.5,107.833 160.5,106.167 160.5,104.5C 162.39,104.703 163.89,104.037 165,102.5C 165.667,91.1667 165.667,79.8333 165,68.5C 163.644,67.6198 162.144,67.2865 160.5,67.5C 160.261,65.5328 160.594,63.6995 161.5,62C 166.02,61.1864 170.354,61.353 174.5,62.5 Z"/></g>
<g><path style="opacity:0.912" fill="#731112" d="M 249.5,61.5 C 252.136,62.1194 254.636,63.1194 257,64.5C 257.483,63.552 257.649,62.552 257.5,61.5C 259.167,61.5 260.833,61.5 262.5,61.5C 262.5,66.1667 262.5,70.8333 262.5,75.5C 260.833,75.5 259.167,75.5 257.5,75.5C 256.838,69.33 253.505,66.83 247.5,68C 244.634,72.221 245.301,75.8876 249.5,79C 254.397,80.4065 258.897,82.5732 263,85.5C 268.223,99.7022 263.223,107.702 248,109.5C 240.698,108.198 235.865,104.031 233.5,97C 234.609,96.3623 235.775,95.8623 237,95.5C 238.811,98.6445 241.311,101.145 244.5,103C 251.795,104.618 254.962,101.785 254,94.5C 250.09,90.7916 245.59,87.9583 240.5,86C 234.923,80.1463 234.09,73.6463 238,66.5C 241.396,63.5455 245.229,61.8788 249.5,61.5 Z"/></g>
<g><path style="opacity:0.939" fill="#a71e22" d="M 333.5,61.5 C 346.05,59.1781 353.55,64.1781 356,76.5C 356.168,85.5184 356.668,94.5184 357.5,103.5C 358.452,101.955 358.785,100.288 358.5,98.5C 360.167,98.5 361.833,98.5 363.5,98.5C 364.48,108.031 360.48,111.531 351.5,109C 350.333,107.833 349.167,106.667 348,105.5C 344.825,108.668 340.992,110.002 336.5,109.5C 323.529,108.776 319.696,102.443 325,90.5C 330.39,87.5542 335.89,84.7209 341.5,82C 346.893,77.687 347.226,72.687 342.5,67C 339.621,66.1264 336.955,66.4597 334.5,68C 338.85,71.5826 339.517,75.7493 336.5,80.5C 329.955,84.3466 325.955,82.5133 324.5,75C 325.385,68.9722 328.385,64.4722 333.5,61.5 Z M 345.5,83.5 C 346.65,88.3158 346.816,93.3158 346,98.5C 343.469,102.202 340.302,103.035 336.5,101C 334.009,98.0316 333.843,94.8649 336,91.5C 339.887,89.6468 343.053,86.9801 345.5,83.5 Z"/></g>
<g><path style="opacity:0.945" fill="#a71e22" d="M 430.5,61.5 C 435.167,61.5 439.833,61.5 444.5,61.5C 444.443,65.1331 445.443,65.2998 447.5,62C 460.249,60.082 465.749,65.582 464,78.5C 461.947,82.2916 458.781,83.4582 454.5,82C 450.269,76.7987 450.603,71.9654 455.5,67.5C 451.352,65.7795 448.519,67.1129 447,71.5C 444.259,81.7597 443.925,92.0931 446,102.5C 448.659,104.06 449.826,106.393 449.5,109.5C 443.167,109.5 436.833,109.5 430.5,109.5C 430.077,106.712 431.077,104.712 433.5,103.5C 435.967,91.8805 436.134,80.2138 434,68.5C 432.989,67.6634 431.822,67.33 430.5,67.5C 430.5,65.5 430.5,63.5 430.5,61.5 Z"/></g>
<g><path style="opacity:0.946" fill="#a71e22" d="M 483.5,61.5 C 486.025,62.0482 488.359,63.0482 490.5,64.5C 491.386,63.675 491.719,62.675 491.5,61.5C 493.167,61.5 494.833,61.5 496.5,61.5C 496.5,66.1667 496.5,70.8333 496.5,75.5C 494.712,75.7852 493.045,75.4519 491.5,74.5C 490.355,68.8412 487.021,66.6746 481.5,68C 478.487,72.2492 479.153,75.9159 483.5,79C 487.85,80.4487 492.016,82.282 496,84.5C 502.125,98.9212 497.292,107.255 481.5,109.5C 474.149,108.314 469.482,104.148 467.5,97C 469.025,95.9914 470.692,95.4914 472.5,95.5C 474.055,101.886 478.055,104.386 484.5,103C 489.557,99.0735 489.557,95.0735 484.5,91C 478.44,89.0662 473.606,85.5662 470,80.5C 467.69,69.0743 472.19,62.7409 483.5,61.5 Z"/></g>
<g><path style="opacity:0.933" fill="#721011" d="M 114.5,61.5 C 120.833,61.5 127.167,61.5 133.5,61.5C 133.5,63.5 133.5,65.5 133.5,67.5C 132.167,67.5 130.833,67.5 129.5,67.5C 128.054,78.5176 128.221,89.5176 130,100.5C 135.155,105.068 138.822,104.068 141,97.5C 141.667,88.1667 141.667,78.8333 141,69.5C 139.951,67.8934 138.451,67.2267 136.5,67.5C 136.261,65.5328 136.594,63.6995 137.5,62C 143.825,61.5005 150.158,61.3338 156.5,61.5C 156.5,63.5 156.5,65.5 156.5,67.5C 155.167,67.5 153.833,67.5 152.5,67.5C 152.903,78.231 152.403,88.8977 151,99.5C 147.811,106.102 142.477,109.436 135,109.5C 126.99,109.511 121.657,105.844 119,98.5C 118.667,88.8333 118.333,79.1667 118,69.5C 116.951,67.8934 115.451,67.2267 113.5,67.5C 113.325,65.3792 113.659,63.3792 114.5,61.5 Z"/></g>
<g><path style="opacity:0.024" fill="#9e2c2e" d="M 174.5,62.5 C 175.167,62.8333 175.833,63.1667 176.5,63.5C 175.012,66.1864 174.345,65.8531 174.5,62.5 Z"/></g>
<g><path style="opacity:0.919" fill="#731112" d="M 214.5,61.5 C 225.76,62.3614 230.593,68.3614 229,79.5C 228.07,81.5524 226.57,83.0524 224.5,84C 219.5,86.1667 214.5,88.3333 209.5,90.5C 207.739,102.573 212.406,106.073 223.5,101C 224.743,99.8455 225.743,98.5122 226.5,97C 227.833,96.3333 229.167,96.3333 230.5,97C 226.914,107.292 219.914,110.959 209.5,108C 200.958,103.091 196.958,95.5912 197.5,85.5C 197.181,72.8748 202.848,64.8748 214.5,61.5 Z M 212.5,67.5 C 220.775,66.7064 223.942,70.373 222,78.5C 217.751,80.6935 213.418,82.6935 209,84.5C 207.685,78.2465 208.852,72.5798 212.5,67.5 Z"/></g>
<g><path style="opacity:0.936" fill="#a71f23" d="M 357.5,61.5 C 364.167,61.5 370.833,61.5 377.5,61.5C 377.5,63.5 377.5,65.5 377.5,67.5C 375.571,67.2308 373.905,67.7308 372.5,69C 374.281,77.5652 376.448,86.0652 379,94.5C 382.273,85.7951 384.107,76.9617 384.5,68C 383.207,67.51 381.873,67.3433 380.5,67.5C 380.261,65.5328 380.594,63.6995 381.5,62C 385.821,61.501 390.154,61.3343 394.5,61.5C 394.5,63.5 394.5,65.5 394.5,67.5C 393.178,67.33 392.011,67.6634 391,68.5C 386.873,81.6761 383.373,95.0095 380.5,108.5C 377.914,109.48 375.247,109.813 372.5,109.5C 370.38,95.3521 366.546,81.6854 361,68.5C 359.989,67.6634 358.822,67.33 357.5,67.5C 357.5,65.5 357.5,63.5 357.5,61.5 Z"/></g>
<g><path style="opacity:0.947" fill="#a71e22" d="M 411.5,61.5 C 424,64.4591 429.667,72.4591 428.5,85.5C 429.679,98.5078 424.012,106.508 411.5,109.5C 399.5,106.215 393.833,98.2146 394.5,85.5C 393.867,72.6924 399.533,64.6924 411.5,61.5 Z M 409.5,67.5 C 413.182,66.7253 415.682,68.0586 417,71.5C 417.667,80.8333 417.667,90.1667 417,99.5C 415.253,103.421 412.419,104.421 408.5,102.5C 407.416,101.335 406.583,100.002 406,98.5C 405.333,89.8333 405.333,81.1667 406,72.5C 406.997,70.6769 408.164,69.0103 409.5,67.5 Z"/></g>
</svg>
