<?xml version="1.0" encoding="UTF-8"?>
<svg width="19px" height="17px" viewBox="0 0 19 17" version="1.1" xmlns="http://www.w3.org/2000/svg" xmlns:xlink="http://www.w3.org/1999/xlink">
    <title>Group 11</title>
    <g id="Page-1" stroke="none" stroke-width="1" fill="none" fill-rule="evenodd">
        <g id="0.Elements" transform="translate(-827.000000, -194.000000)">
            <g id="Group-11" transform="translate(827.000000, 194.000000)">
                <path d="M8.0625,8.45572338 C7.92528976,8.58872114 7.72687783,8.69046283 7.46759325,8.76158634 C7.20830868,8.83270984 6.89736461,8.86875 6.53509009,8.86875 C6.17314461,8.86875 5.83028354,8.81644393 5.50716494,8.71215072 C5.18404634,8.60785751 4.91982614,8.35621426 4.71417531,7.95753992 L3.26014162,5.08198161 C3.11338918,4.78791941 2.9814436,4.51012313 2.8636468,4.24923063 C2.74650808,3.9880192 2.61916908,3.68694034 2.48195884,3.3456751 L2.39377576,3.3593895 C2.43293168,3.87192523 2.45497745,4.3943481 2.46024211,4.92538232 C2.46451965,5.45705443 2.46715198,5.97852047 2.46715198,6.49105621 L2.46715198,8.69779844 C2.35955546,8.72618405 2.19536383,8.75456967 1.97523518,8.78295528 C1.75477748,8.81134089 1.53695211,8.82537423 1.32175907,8.82537423 C1.10623699,8.82537423 0.915393013,8.81134089 0.748898094,8.78295528 C0.582403175,8.75456967 0.445521977,8.69779844 0.337596417,8.61200372 C0.229670857,8.52716582 0.146752438,8.41075291 0.0881830796,8.26340288 C0.0292846794,8.11669072 0,7.92437021 0,7.68707924 L0,0.569306964 C0.136881198,0.379856916 0.347467657,0.23729097 0.631430335,0.142884885 C0.915393013,0.0478409214 1.21876913,0 1.54221677,0 C1.90416225,0 2.24932661,0.0548575898 2.57738083,0.16393489 C2.90510601,0.273012191 3.16702292,0.522103922 3.36313156,0.911210082 L4.83197211,3.78644946 C4.97872454,4.08083059 5.11067012,4.35862687 5.22846692,4.61920043 C5.34560564,4.8807308 5.47294464,5.18149072 5.61015488,5.52339384 L5.6835311,5.5093605 C5.64404614,4.99650583 5.61969708,4.48428903 5.61015488,3.97143435 C5.60028364,3.45889861 5.59534802,2.94668182 5.59534802,2.43414608 L5.59534802,0.128532609 C5.70294454,0.0995091164 5.86713617,0.0711235031 6.08726482,0.0427378897 C6.30772252,0.0143522764 6.52521885,0 6.74074093,0 C7.17145605,0 7.49918122,0.0736750189 7.72490358,0.220706117 C7.94963882,0.368375094 8.0625,0.673919112 8.0625,1.13925181 L8.0625,8.45572338 Z" id="Fill-5" fill="#8EBC26"></path>
                <path d="M12.1967751,4.4274219 C12.1967751,5.2639565 12.3694349,5.889117 12.7150685,6.30321244 C13.0607021,6.71668982 13.5231164,6.92404657 14.1023116,6.92404657 C14.6906107,6.92404657 15.157734,6.71668982 15.5033676,6.30321244 C15.8486872,5.889117 16.021347,5.2639565 16.021347,4.4274219 C16.021347,3.59954005 15.8511986,2.97901495 15.5105879,2.56553756 C15.1693493,2.15144212 14.7047374,1.94470343 14.1164384,1.94470343 C13.5369292,1.94470343 13.0723174,2.14958796 12.7222888,2.55842995 C12.3719463,2.96758097 12.1967751,3.59088731 12.1967751,4.4274219 M9.675,4.4274219 C9.675,3.71017152 9.78895548,3.07574023 10.0181221,2.52381899 C10.246661,1.97220678 10.5596461,1.51021225 10.9567637,1.13783538 C11.3538813,0.765458509 11.8210046,0.48269931 12.3581336,0.289557781 C12.8949486,0.0964162514 13.4763413,0 14.1023116,0 C14.727968,0 15.3093607,0.0964162514 15.8464897,0.289557781 C16.3839326,0.48269931 16.8532534,0.765458509 17.2544521,1.13783538 C17.6565925,1.51021225 17.9717751,1.97220678 18.2009418,2.52381899 C18.4294806,3.07574023 18.54375,3.71017152 18.54375,4.4274219 C18.54375,5.14467229 18.4316781,5.78126677 18.2072203,6.3378234 C17.9830765,6.89376198 17.6729167,7.3579197 17.276113,7.7306056 C16.8786815,8.10329149 16.4093607,8.38605069 15.8675228,8.57919222 C15.3259989,8.77202472 14.7376998,8.86875 14.1023116,8.86875 C13.4669235,8.86875 12.8783105,8.76955251 12.3367865,8.57208461 C11.7952626,8.37399866 11.3281393,8.08691309 10.9357306,7.70990082 C10.5433219,7.33288856 10.2353596,6.86842181 10.0112158,6.3168096 C9.78675799,5.76488837 9.675,5.13540149 9.675,4.4274219" id="Fill-7" fill="#8EBC26"></path>
                <path d="M4.8375,15.1095635 C4.8375,15.2920777 4.80668984,15.4271897 4.74567963,15.5161896 C4.68436436,15.604222 4.58674801,15.6896748 4.45283059,15.7719029 C4.37473751,15.8193049 4.27773127,15.8644498 4.16089671,15.9089497 C4.04345204,15.9531271 3.91594069,15.9911778 3.7762273,16.0237466 C3.63681896,16.0563153 3.49100454,16.081145 3.3378689,16.0988805 C3.18412316,16.1162935 3.03251277,16.125 2.88242764,16.125 C2.48098042,16.125 2.10546254,16.067924 1.75434875,15.9531271 C1.40354001,15.8383303 1.09848893,15.6645226 0.839500568,15.4317042 C0.580512202,15.1992083 0.375517877,14.9096364 0.225432747,14.5620211 C0.0750425653,14.2147283 0,13.8113269 0,13.3518169 C0,12.8694121 0.081753689,12.4482752 0.24617622,12.0887288 C0.4102937,11.7298273 0.627490068,11.430904 0.898070375,11.1926037 C1.16804058,10.953981 1.47736237,10.7759813 1.82542565,10.6579598 C2.17379398,10.5402608 2.53131385,10.48125 2.89920545,10.48125 C3.42816402,10.48125 3.84760925,10.5715397 4.15662599,10.7505067 C4.46564274,10.9304412 4.62030363,11.1645494 4.62030363,11.4531539 C4.62030363,11.6063239 4.58400255,11.7385338 4.51170545,11.8504285 C4.43910329,11.9623232 4.35582435,12.0506781 4.26095346,12.1154932 C4.12154512,12.0271383 3.947666,11.9400733 3.73870602,11.8546205 C3.52974603,11.7698127 3.29455165,11.7269251 3.03251277,11.7269251 C2.56517452,11.7269251 2.1930122,11.8678415 1.91755108,12.1506417 C1.64147985,12.4331194 1.50359677,12.8252346 1.50359677,13.3256974 C1.50359677,13.596244 1.54111805,13.8303522 1.61616061,14.0276997 C1.69181328,14.2250471 1.79339529,14.3869236 1.92151674,14.5130067 C2.04933314,14.6400572 2.19758797,14.7342164 2.36445091,14.7961294 C2.53131385,14.8577198 2.70976873,14.8886763 2.89920545,14.8886763 C3.02153093,14.8886763 3.13012911,14.8770676 3.225,14.8532053 C3.31926078,14.829988 3.39216799,14.803546 3.44219637,14.7738794 L3.44219637,13.9438593 L2.54809166,13.9438593 C2.51484109,13.8790442 2.48250568,13.7935914 2.45200057,13.6875011 C2.42149546,13.5817332 2.40593785,13.4698384 2.40593785,13.3518169 C2.40593785,13.1402811 2.45200057,12.9871111 2.54382094,12.8926294 C2.63564132,12.7984702 2.75430619,12.751713 2.89920545,12.751713 L4.31098184,12.751713 C4.47814983,12.751713 4.60779654,12.8000825 4.69961691,12.8971439 C4.79174234,12.9942053 4.8375,13.1309297 4.8375,13.3076395 L4.8375,15.1095635 Z" id="Fill-9" fill="#017337"></path>
                <path d="M9.63018962,14.6908094 C9.55000261,14.7578183 9.44690504,14.8114921 9.32089689,14.8504973 C9.19455182,14.890836 9.04832846,14.9101719 8.88222681,14.9101719 C8.66120717,14.9101719 8.47792259,14.8825016 8.33304691,14.8278276 C8.18884507,14.7734871 8.09450742,14.6788078 8.05171855,14.5451234 C7.87955234,14.0090521 7.73838278,13.5753278 7.62753604,13.2436171 C7.5166893,12.9122397 7.43077466,12.621201 7.36878134,12.3718346 L7.32262328,12.3718346 C7.30476651,12.7308823 7.29061586,13.0582591 7.28118209,13.3532983 C7.27208525,13.6486709 7.26602069,13.9363758 7.2629884,14.216413 C7.25995612,14.4964502 7.25389156,14.7794879 7.24445779,15.0655259 C7.23536095,15.3515639 7.22154722,15.6682726 7.20301661,16.0153188 C7.12282961,16.0456561 7.01838435,16.0713262 6.889007,16.0926624 C6.75962965,16.1139985 6.63092614,16.125 6.50188571,16.125 C6.23066496,16.125 6.02008985,16.0823277 5.86948652,15.9966496 C5.71854628,15.9116383 5.64375,15.7562843 5.64375,15.5312544 L5.91092771,10.8739689 C5.95978113,10.7949584 6.06793251,10.7099471 6.23403416,10.6186016 C6.40013581,10.5269227 6.6336215,10.48125 6.93550198,10.48125 C7.26164072,10.48125 7.5166893,10.5312566 7.70132156,10.6319367 C7.8856169,10.7326167 8.02139574,10.8956384 8.10731038,11.1210017 C8.16290221,11.2666877 8.22253709,11.4340433 8.28722576,11.6230684 C8.35191444,11.8117601 8.41660311,12.0064527 8.48095487,12.2074794 C8.54564354,12.4081727 8.60864762,12.6075326 8.67030401,12.8055589 C8.73162349,13.0032518 8.78721532,13.1812755 8.83640566,13.3392965 L8.88222681,13.3392965 C9.03047169,12.8278952 9.17804273,12.3338295 9.32561377,11.855766 C9.47318481,11.3777025 9.60862672,10.9776493 9.73160259,10.6552731 C9.82391872,10.6066 9.94251463,10.5649278 10.0867165,10.5312566 C10.2312552,10.4985856 10.3929769,10.48125 10.5712077,10.48125 C10.8727513,10.48125 11.118703,10.5255892 11.3093998,10.6139343 C11.5000966,10.7022794 11.6109434,10.8282961 11.6416031,10.9926513 C11.6661983,11.1143341 11.6924781,11.3020257 11.7197686,11.5543926 C11.747733,11.8074262 11.777045,12.0917974 11.8080417,12.4081727 C11.8383645,12.7248815 11.8693612,13.0592593 11.9000209,13.4126396 C11.9303437,13.7656865 11.9599927,14.1050649 11.9876201,14.4307749 C12.0152476,14.7564848 12.0381582,15.0548578 12.0570257,15.3258938 C12.0752194,15.5965964 12.0873485,15.8052908 12.09375,15.9509769 C11.9889678,16.0123184 11.8798057,16.0563242 11.7659267,16.0833278 C11.6523846,16.1109981 11.5064981,16.125 11.3279304,16.125 C11.0941078,16.125 10.8973464,16.0853281 10.7373093,16.0059842 C10.5772723,15.9269737 10.4913576,15.7716197 10.4792285,15.5402556 C10.4421673,14.8768341 10.4192567,14.2800882 10.409486,13.7506845 C10.4003892,13.2212808 10.3869123,12.776555 10.3680448,12.4175073 L10.3222237,12.4175073 C10.2602304,12.6548722 10.1709465,12.9532452 10.0543721,13.3122929 C9.93779774,13.6713406 9.79595435,14.130735 9.63018962,14.6908094" id="Fill-11" fill="#017337"></path>
                <path d="M14.5051062,13.2986387 C14.5051062,13.8312252 14.6151297,14.2289025 14.8348512,14.4926322 C15.0545727,14.7557209 15.3491622,14.887105 15.7176433,14.887105 C16.0919836,14.887105 16.3888518,14.7557209 16.6092243,14.4926322 C16.8292713,14.2289025 16.9392948,13.8312252 16.9392948,13.2986387 C16.9392948,12.7718203 16.8305734,12.3773475 16.6137815,12.1139383 C16.3963386,11.8505291 16.1007725,11.7185041 15.7264322,11.7185041 C15.3579511,11.7185041 15.0620595,11.8492473 14.8390829,12.109452 C14.6164318,12.3702976 14.5051062,12.7663727 14.5051062,13.2986387 M12.9,13.2986387 C12.9,12.8423192 12.972915,12.4382328 13.1184194,12.0876615 C13.2639239,11.7364492 13.4634636,11.4422769 13.7157364,11.205465 C13.9686602,10.9686531 14.2655284,10.7885607 14.6073174,10.6655082 C14.9491064,10.5427762 15.319215,10.48125 15.7176433,10.48125 C16.1154206,10.48125 16.4858548,10.5427762 16.8276438,10.6655082 C17.1691072,10.7885607 17.4679285,10.9686531 17.7237819,11.205465 C17.9789844,11.4422769 18.1798261,11.7364492 18.3256561,12.0876615 C18.4711605,12.4382328 18.54375,12.8423192 18.54375,13.2986387 C18.54375,13.7552787 18.4724626,14.160006 18.3295622,14.5144227 C18.1873129,14.8681985 17.9897263,15.1639731 17.737128,15.4011054 C17.4842041,15.6379173 17.1853829,15.8176893 16.8409898,15.9407418 C16.4959457,16.0634738 16.1219309,16.125 15.7176433,16.125 C15.3133558,16.125 14.9386899,16.0618715 14.5939713,15.9362555 C14.2492527,15.8106394 13.9520591,15.6279834 13.7023903,15.3876466 C13.4530471,15.1479506 13.2564371,14.8521761 13.1141878,14.5009638 C12.9712874,14.150072 12.9,13.7495106 12.9,13.2986387" id="Fill-13" fill="#017337"></path>
            </g>
        </g>
    </g>
</svg>