<?xml version="1.0" encoding="UTF-8"?>
<svg width="15px" height="20px" viewBox="0 0 15 20" version="1.1" xmlns="http://www.w3.org/2000/svg" xmlns:xlink="http://www.w3.org/1999/xlink">
    <title>Shape</title>
    <defs>
        <linearGradient x1="44.4994756%" y1="-8.33299977%" x2="48.1179455%" y2="116.82251%" id="linearGradient-1">
            <stop stop-color="#D34047" offset="0%"></stop>
            <stop stop-color="#A71E22" offset="100%"></stop>
        </linearGradient>
    </defs>
    <g id="Page-1" stroke="none" stroke-width="1" fill="none" fill-rule="evenodd">
        <g id="0.Elements" transform="translate(-648.000000, -490.000000)" fill="url(#linearGradient-1)">
            <path d="M662.58332,497.5 L661.33332,497.5 L661.33332,495.83332 C661.33332,492.616797 658.716563,490 655.5,490 C652.283437,490 649.66668,492.616797 649.66668,495.83332 L649.66668,497.5 L648.41668,497.5 C648.186367,497.5 648,497.686367 648,497.91668 L648,508.333359 C648,509.252539 648.747461,510 649.66668,510 L661.333359,510 C662.252539,510 663,509.252539 663,508.33332 L663,497.91668 C663,497.686367 662.813633,497.5 662.58332,497.5 Z M656.747578,506.204023 C656.760586,506.321602 656.722773,506.439609 656.643828,506.52793 C656.564883,506.616211 656.451758,506.66668 656.333359,506.66668 L654.66668,506.66668 C654.548281,506.66668 654.435156,506.616211 654.356211,506.52793 C654.277266,506.439648 654.239414,506.321641 654.252461,506.204023 L654.515313,503.840352 C654.088477,503.529883 653.833359,503.03875 653.833359,502.5 C653.833359,501.58082 654.58082,500.83332 655.500039,500.83332 C656.419258,500.83332 657.166719,501.580781 657.166719,502.5 C657.166719,503.03875 656.911602,503.529883 656.484766,503.840352 L656.747578,506.204023 Z M658.83332,497.5 L652.16668,497.5 L652.16668,495.83332 C652.16668,493.995352 653.662031,492.5 655.5,492.5 C657.337969,492.5 658.83332,493.995352 658.83332,495.83332 L658.83332,497.5 L658.83332,497.5 Z" id="Shape"></path>
        </g>
    </g>
</svg>