<?xml version="1.0" encoding="UTF-8"?>
<svg width="158px" height="24px" viewBox="0 0 158 24" version="1.1" xmlns="http://www.w3.org/2000/svg" xmlns:xlink="http://www.w3.org/1999/xlink">
    <title>Group 9</title>
    <g id="Page-1" stroke="none" stroke-width="1" fill="none" fill-rule="evenodd">
        <g id="0.Elements" transform="translate(-344.000000, -674.000000)">
            <g id="Group-9" transform="translate(344.000000, 674.000000)">
                <g id="Group-2">
                    <path d="M30.9233391,24 L3.1579142,24 C1.41379113,24 0,22.5861032 0,20.8420858 L0,3.1579142 C0,1.41379113 1.41379113,0 3.1579142,0 L30.9233391,0 C32.6673565,0 34.0812533,1.41379113 34.0812533,3.1579142 L34.0812533,20.8420858 C34.0812533,22.5861032 32.6673565,24 30.9233391,24" id="Fill-3" fill="#0066B2"></path>
                    <polygon id="Fill-21" fill="#FFFFFF" points="15.5937178 15.7597186 13.8187384 15.7597186 14.928193 8.94152353 16.703278 8.94152353"></polygon>
                    <path d="M12.3253019,8.9414707 L10.6328527,13.6310008 L10.4327091,12.6210896 L10.4329205,12.6215123 L9.83555436,9.55553305 C9.83555436,9.55553305 9.76338011,8.9414707 8.99345095,8.9414707 L6.19587966,8.9414707 L6.16312121,9.05686496 C6.16312121,9.05686496 7.01896203,9.2348173 8.01989107,9.83641031 L9.56217985,15.7596657 L11.4116583,15.7596657 L14.2358591,8.9414707 L12.3253019,8.9414707 Z" id="Fill-23" fill="#FFFFFF"></path>
                    <path d="M24.3343369,13.3478304 L25.2671073,10.7962645 L25.7917708,13.3478304 L24.3343369,13.3478304 Z M26.2875857,15.7596974 L27.9174769,15.7596974 L26.4963944,8.9415024 L25.0692885,8.9415024 C24.4102097,8.9415024 24.249799,9.44957533 24.249799,9.44957533 L21.6024939,15.7596974 L23.452712,15.7596974 L23.8228825,14.7470388 L26.0794111,14.7470388 L26.2875857,15.7596974 Z" id="Fill-25" fill="#FFFFFF"></path>
                    <path d="M21.7412946,10.5810943 L21.9945913,9.11668611 C21.9945913,9.11668611 21.2128269,8.81942963 20.3979869,8.81942963 C19.5171018,8.81942963 17.4252108,9.20471123 17.4252108,11.0765922 C17.4252108,12.8382569 19.8804035,12.8602368 19.8804035,13.7850817 C19.8804035,14.7100323 17.6782962,14.544655 16.9515871,13.9612376 L16.6875117,15.4919024 C16.6875117,15.4919024 17.4800548,15.877184 18.6913776,15.877184 C19.902489,15.877184 21.7303046,15.2495956 21.7303046,13.5428805 C21.7303046,11.7701202 19.2529207,11.6050599 19.2529207,10.8343911 C19.2529207,10.0635109 20.9817213,10.1626316 21.7412946,10.5810943" id="Fill-27" fill="#FFFFFF"></path>
                    <path d="M10.4328993,12.6215334 L9.83553323,9.55555419 C9.83553323,9.55555419 9.76346465,8.94149183 8.99342982,8.94149183 L6.19585852,8.94149183 L6.16310008,9.0568861 C6.16310008,9.0568861 7.50778145,9.33564991 8.79783019,10.3796933 C10.0307102,11.3776635 10.4328993,12.6215334 10.4328993,12.6215334" id="Fill-29" fill="#F9A533"></path>
                </g>
                <g id="Group-7" transform="translate(41.400749, 0.000000)">
                    <path d="M30.9234447,24 L3.1579142,24 C1.4138968,24 0,22.5861032 0,20.8420858 L0,3.1579142 C0,1.41379113 1.4138968,0 3.1579142,0 L30.9234447,0 C32.6674621,0 34.0813589,1.41379113 34.0813589,3.1579142 L34.0813589,20.8420858 C34.0813589,22.5861032 32.6674621,24 30.9234447,24" id="Fill-5" fill="#36495D"></path>
                    <polygon id="Fill-31" fill="#F16522" points="14.1773482 17.1446083 19.9032076 17.1446083 19.9032076 6.85539171 14.1773482 6.85539171"></polygon>
                    <path d="M14.5411255,11.9999894 C14.5411255,9.91264238 15.5185953,8.0536534 17.0403836,6.85532831 C15.9271248,5.97898704 14.5229498,5.45622565 12.9964063,5.45622565 C9.38262129,5.45622565 6.45306516,8.38609879 6.45306516,11.9999894 C6.45306516,15.6138801 9.38262129,18.5437532 12.9964063,18.5437532 C14.5229498,18.5437532 15.9271248,18.0209918 17.0403836,17.1446506 C15.5185953,15.9463255 14.5411255,14.0873365 14.5411255,11.9999894" id="Fill-33" fill="#E41B24"></path>
                    <path d="M27.4235641,16.0545446 L27.4235641,15.8008251 L27.3572018,15.8008251 L27.281012,15.9755016 L27.2049279,15.8008251 L27.1385656,15.8008251 L27.1385656,16.0545446 L27.1849558,16.0545446 L27.1849558,15.8630662 L27.256496,16.0283378 L27.3051053,16.0283378 L27.3766455,15.8626435 L27.3766455,16.0545446 L27.4235641,16.0545446 Z M27.0035162,16.0545446 L27.0035162,15.8439395 L27.0885825,15.8439395 L27.0885825,15.8012478 L26.8719541,15.8012478 L26.8719541,15.8439395 L26.9570204,15.8439395 L26.9570204,16.0545446 L27.0035162,16.0545446 Z M27.6279345,11.9995773 C27.6279345,15.6138906 24.6983784,18.5433411 21.0844877,18.5433411 C19.5579441,18.5433411 18.1536635,18.020474 17.0408274,17.1442384 C18.5627214,15.946336 19.5398742,14.0869244 19.5398742,11.9995773 C19.5398742,9.91223026 18.5627214,8.05324128 17.0408274,6.85491619 C18.1536635,5.97899761 19.5579441,5.45623621 21.0844877,5.45623621 C24.6983784,5.45623621 27.6279345,8.38568667 27.6279345,11.9995773 L27.6279345,11.9995773 Z" id="Fill-34" fill="#F89E1C"></path>
                </g>
                <g id="Group-8" transform="translate(123.801666, 0.000000)">
                    <path d="M30.9233391,24 L3.1579142,24 C1.41379113,24 0,22.5861032 0,20.8420858 L0,3.1579142 C0,1.41379113 1.41379113,0 3.1579142,0 L30.9233391,0 C32.6674621,0 34.0812533,1.41379113 34.0812533,3.1579142 L34.0812533,20.8420858 C34.0812533,22.5861032 32.6674621,24 30.9233391,24" id="Fill-7" fill="#006FCF"></path>
                    <path d="M34.0579102,19.2689935 L34.0579102,13.6863203 L33.7598084,13.6863203 L12.9305089,13.6863203 L12.3916853,14.4487467 L11.8589907,13.6863203 L5.78325004,13.6863203 L5.78325004,19.6354654 L11.8357428,19.6354654 L12.3632595,18.8617321 L12.9077894,19.6354654 L16.6963565,19.6354654 L16.6963565,18.3518627 L16.6564123,18.3518627 C17.1274999,18.3518627 17.5555788,18.2667964 17.9348371,18.1259351 L17.9348371,19.6354654 L20.5769643,19.6354654 L20.5769643,18.7703254 L21.2418551,19.6354654 L32.7051978,19.6354654 C33.035107,19.6354654 33.3444101,19.579459 33.6216945,19.4788589 C33.7777727,19.4222185 33.923812,19.3516293 34.0579102,19.2689935 L34.0579102,19.2689935 Z M29.8854353,11.6391287 L32.4417565,11.6391287 L32.4417565,5.68934954 L29.7132949,5.68934954 L29.7132949,6.64082389 L29.1059956,5.68934954 L26.7273097,5.68934954 L26.7273097,6.89242989 L26.1942981,5.68934954 L22.2620165,5.68934954 C22.0731799,5.68934954 21.8886759,5.7032983 21.7100895,5.73109014 C21.5581326,5.75497211 21.4101912,5.78899862 21.2675335,5.83348671 C21.1554151,5.86846427 21.0464668,5.90999353 20.9415341,5.9579688 C20.8183201,6.01460921 20.7004953,6.07991476 20.5886939,6.15451948 L20.5886939,5.9499377 L20.5886939,5.68934954 L7.7553085,5.68934954 L7.40574418,6.72684123 L7.05015653,5.68934954 L4.06406566,5.68934954 L4.06406566,6.90521625 L3.52524206,5.68934954 L1.08928174,5.68934954 L1.05672407e-05,8.23425811 L1.05672407e-05,11.1094986 L1.05672407e-05,11.6391287 L1.72532395,11.6391287 L2.04625105,10.7850843 L2.65386739,10.7850843 L2.98071214,11.6391287 L16.2555969,11.6391287 L16.2555969,10.7736717 L16.920382,11.6391287 L20.5886939,11.6391287 L20.5886939,11.4487071 L20.5886939,11.2064002 C20.6834821,11.2676902 20.7817574,11.3212661 20.8818292,11.3679733 C20.9821123,11.4143635 21.0845089,11.4539907 21.1882792,11.4873832 C21.3163541,11.5292294 21.4466482,11.5608255 21.5764139,11.5842848 C21.7881814,11.6227495 21.9988922,11.6391287 22.1991414,11.6391287 L24.39438,11.6391287 L24.7153071,10.7850843 L25.3229234,10.7850843 L25.6495568,11.6391287 L29.3294927,11.6391287 L29.3294927,10.7563414 L29.8854353,11.6391287 Z" id="Fill-35" fill="#F7F7F7"></path>
                    <path d="M9.92744709,15.4688024 L9.92744709,14.6547022 L6.71764773,14.6547022 L6.71764773,18.6671892 L9.92744709,18.6671892 L9.92744709,17.8586896 L7.68085172,17.8586896 L7.68085172,17.050824 L9.8760903,17.050824 L9.8760903,16.2482421 L7.68085172,16.2482421 L7.68085172,15.4688024 L9.92744709,15.4688024 Z M13.2691256,18.6671892 L14.4729457,18.6671892 L12.8620755,16.6437739 L14.4614274,14.6547022 L13.2923735,14.6547022 L12.3062386,15.9272093 L11.3261271,14.6547022 L10.1225183,14.6547022 L11.7273652,16.6607872 L10.1280133,18.6671892 L11.2974898,18.6671892 L12.2833077,17.3773518 L13.2691256,18.6671892 Z M14.6849245,14.6547022 L14.6849245,18.6671892 L15.6479172,18.6671892 L15.6479172,17.3426912 L16.8572322,17.3426912 C17.7344188,17.3426912 18.278526,16.7698411 18.278526,15.9958964 C18.278526,15.1994435 17.7458314,14.6547022 16.89147,14.6547022 L14.6849245,14.6547022 Z M17.3100384,16.001497 C17.3100384,16.2713844 17.1382151,16.4945645 16.7999577,16.4945645 L15.6479172,16.4945645 L15.6479172,15.5090636 L16.7999577,15.5090636 C17.1382151,15.5090636 17.3100384,15.7265374 17.3100384,16.001497 L17.3100384,16.001497 Z M19.763329,17.2226474 L20.216241,17.2226474 L21.4140377,18.6671892 L22.6119401,18.6671892 L21.2766636,17.1881982 C21.958779,17.0619196 22.3656177,16.5691692 22.3656177,15.9272093 C22.3656177,15.1761955 21.8326061,14.6547022 20.9785617,14.6547022 L18.8004421,14.6547022 L18.8004421,18.6671892 L19.763329,18.6671892 L19.763329,17.2226474 Z M20.8925444,15.4744031 C21.2365081,15.4744031 21.4199554,15.6979002 21.4199554,15.9732825 C21.4199554,16.2482421 21.2365081,16.4658216 20.8925444,16.4658216 L19.763329,16.4658216 L19.763329,15.4744031 L20.8925444,15.4744031 Z M26.2691564,15.4688024 L26.2691564,14.6547022 L23.0592514,14.6547022 L23.0592514,18.6671892 L26.2691564,18.6671892 L26.2691564,17.8586896 L24.022244,17.8586896 L24.022244,17.050824 L26.2173769,17.050824 L26.2173769,16.2482421 L24.022244,16.2482421 L24.022244,15.4688024 L26.2691564,15.4688024 Z M28.9111779,17.8646072 L26.8538419,17.8646072 L26.8538419,18.6671892 L28.882435,18.6671892 C29.7481034,18.6671892 30.2641018,18.1396725 30.2641018,17.3887644 C30.2641018,16.6723055 29.7998829,16.2541598 29.0202319,16.2541598 L28.0915828,16.2541598 C27.8622736,16.2541598 27.7018629,16.1049503 27.7018629,15.8699349 C27.7018629,15.6292131 27.8622736,15.4688024 28.0915828,15.4688024 L29.8339094,15.4688024 L30.1896027,14.6547022 L28.1200086,14.6547022 C27.2546573,14.6547022 26.7386589,15.1821132 26.7386589,15.9042784 C26.7386589,16.6437739 27.2261257,17.0678373 27.9885522,17.0678373 L28.9111779,17.0678373 C29.14017,17.0678373 29.3064984,17.2167297 29.3064984,17.4577685 C29.3064984,17.7038795 29.14017,17.8646072 28.9111779,17.8646072 L28.9111779,17.8646072 Z M32.7285936,17.8646072 L30.6709405,17.8646072 L30.6709405,18.6671892 L32.6995337,18.6671892 C33.5656248,18.6671892 34.0813061,18.1396725 34.0813061,17.3887644 C34.0813061,16.6723055 33.6169816,16.2541598 32.8376476,16.2541598 L31.9089984,16.2541598 C31.6793723,16.2541598 31.5192786,16.1049503 31.5192786,15.8699349 C31.5192786,15.6292131 31.6793723,15.4688024 31.9089984,15.4688024 L33.6510081,15.4688024 L34.0070184,14.6547022 L31.9374243,14.6547022 C31.071756,14.6547022 30.5560746,15.1821132 30.5560746,15.9042784 C30.5560746,16.6437739 31.0435414,17.0678373 31.8059678,17.0678373 L32.7285936,17.0678373 C32.9576914,17.0678373 33.1239141,17.2167297 33.1239141,17.4577685 C33.1239141,17.7038795 32.9576914,17.8646072 32.7285936,17.8646072 L32.7285936,17.8646072 Z" id="Fill-36" fill="#006FCF"></path>
                    <path d="M3.6340635,10.6703664 L4.71741701,10.6703664 L3.00351625,6.65798509 L1.73692678,6.65798509 L0.0171083627,10.6703664 L1.04318743,10.6703664 L1.38165615,9.81051 L3.29009982,9.81051 L3.6340635,10.6703664 Z M2.04062928,8.1542007 L2.33302483,7.40329258 L2.62531471,8.1542007 L2.98058534,9.04258862 L1.69106496,9.04258862 L2.04062928,8.1542007 Z M5.87537525,7.93070356 L5.85212732,6.84735004 L6.9643294,10.6703664 L7.83559839,10.6703664 L8.94737778,6.87028096 L8.92444687,7.92489158 L8.92444687,10.6703664 L9.85869662,10.6703664 L9.85869662,6.65798509 L8.1622318,6.65798509 L7.39980539,9.50099552 L6.63177833,6.65798509 L4.94080848,6.65798509 L4.94080848,10.6703664 L5.87537525,10.6703664 L5.87537525,7.93070356 Z M13.8596653,7.47197964 L13.8596653,6.65798509 L10.6498659,6.65798509 L10.6498659,10.6703664 L13.8596653,10.6703664 L13.8596653,9.85077119 L11.6127529,9.85077119 L11.6127529,9.05400124 L13.8078858,9.05400124 L13.8078858,8.25173633 L11.6127529,8.25173633 L11.6127529,7.47197964 L13.8596653,7.47197964 Z M15.5273872,9.22614159 L15.9802991,9.22614159 L17.1784129,10.6703664 L18.3763153,10.6703664 L17.0407217,9.19148104 C17.7228371,9.06541386 18.1299929,8.57234641 18.1299929,7.93070356 C18.1299929,7.17979544 17.5966643,6.65798509 16.7426199,6.65798509 L14.5645002,6.65798509 L14.5645002,10.6703664 L15.5273872,10.6703664 L15.5273872,9.22614159 Z M16.6564969,7.4778973 C17.0004606,7.4778973 17.1840135,7.70139444 17.1840135,7.97656538 C17.1840135,8.25173633 17.0004606,8.46931582 16.6564969,8.46931582 L15.5273872,8.46931582 L15.5273872,7.4778973 L16.6564969,7.4778973 Z M18.6800178,10.6703664 L19.6429048,10.6703664 L19.6429048,8.90458046 L19.6429048,6.65798509 L18.6800178,6.65798509 L18.6800178,8.88164955 L18.6800178,10.6703664 Z M22.1019017,10.6703664 L22.1534698,10.6703664 L22.5487903,9.81642766 L22.2566061,9.81642766 C21.5972102,9.81642766 21.2075961,9.40377691 21.2075961,8.69312997 L21.2075961,8.63585553 C21.2075961,7.99949629 21.5569491,7.52375912 22.2450878,7.52375912 L23.2881801,7.52375912 L23.2881801,6.65798509 L22.1648824,6.65798509 C20.9269302,6.65798509 20.2505211,7.48930992 20.2505211,8.62993787 L20.2505211,8.69873061 C20.2505211,9.89103238 20.9442604,10.6647657 22.1019017,10.6703664 L22.1019017,10.6703664 Z M26.3030139,10.6703664 L27.386156,10.6703664 L25.6728893,6.65798509 L24.4055601,6.65798509 L22.6864814,10.6703664 L23.7123491,10.6703664 L24.0506065,9.81051 L25.9592615,9.81051 L26.3030139,10.6703664 Z M24.7098967,8.1542007 L25.0020809,7.40329258 L25.2940537,8.1542007 L25.6499584,9.04258862 L24.360121,9.04258862 L24.7098967,8.1542007 Z M28.5499262,8.26874959 L28.5385136,7.9363042 L28.7390799,8.26874959 L30.2749226,10.6703664 L31.3988543,10.6703664 L31.3988543,6.65798509 L30.4587926,6.65798509 L30.4587926,8.97950219 L30.4702052,9.27749838 L30.2925699,8.97950219 L28.7904366,6.65798509 L27.6102872,6.65798509 L27.6102872,10.6703664 L28.5499262,10.6703664 L28.5499262,8.26874959 Z" id="Fill-37" fill="#006FCF"></path>
                </g>
                <g id="discover" transform="translate(82.000000, 0.000000)" fill-rule="nonzero">
                    <path d="M34.800537,21.9427581 C34.800537,23.0789413 33.8795462,24 32.743431,24 L2.05710596,24 C0.920990773,24 0,23.0788053 0,21.9427581 L0,2.05717393 C0,0.920990773 0.920990773,0 2.05710596,0 L32.743363,0 C33.8795462,0 34.800537,0.921058743 34.800537,2.05717393 L34.800537,21.9427581 L34.800537,21.9427581 Z" id="Path" fill="#34495E"></path>
                    <path d="M1.46250616,21.9427581 L1.46250616,2.05717393 C1.46250616,0.920990773 2.38363287,0 3.51974806,0 L2.05703799,0 C0.920990773,0 0,0.921126713 0,2.05717393 L0,21.9427581 C0,23.0789413 0.920990773,24 2.05710596,24 L3.51981603,24 C2.38370084,24 1.46250616,23.0788053 1.46250616,21.9427581 Z" id="Path" fill="#202121" opacity="0.15"></path>
                    <path d="M21.0291081,11.986474 C21.0318948,11.331517 20.7863199,10.6756085 20.2921115,10.1813321 C19.7968156,9.68603617 19.1392758,9.4406652 18.4829594,9.44460745 C18.4798328,9.44460745 18.4767742,9.44440354 18.4735116,9.44440354 C17.0483209,9.44440354 15.9178472,10.5746054 15.9178472,12.0002039 C15.9178472,13.4117327 17.0622547,14.5558004 18.4735116,14.5558004 C19.8991102,14.5558004 21.0294479,13.4253946 21.0294479,12.0002039 C21.0294479,11.995514 21.0291081,11.991096 21.0291081,11.986474 Z" id="Path" fill="#F26E21"></path>
                    <g id="Group" transform="translate(2.303089, 9.395193)" fill="#E7E8E3">
                        <path d="M13.1395137,3.68613813 C12.7575234,4.06853621 12.4049641,4.21793383 12.0252168,4.22602224 C11.1000799,4.21772992 10.4199061,3.53259435 10.4199061,2.55580037 C10.4199061,2.06410685 10.6060754,1.66111391 10.9009963,1.31684688 L10.9009963,1.31684688 C11.1775654,1.05427955 11.5338631,0.884626931 11.9435851,0.884626931 C12.3858645,0.884626931 12.7300636,1.03205342 13.122997,1.42525871 L13.122997,0.294852987 C12.7301316,0.0983522988 12.3857966,-1.93181787e-15 11.9435851,-1.93181787e-15 C11.3188067,0.0446561578 10.7297124,0.29709599 10.2778492,0.693495857 L10.2778492,0.693495857 C10.1476191,0.81067579 10.0228265,0.940022317 9.91699755,1.08806054 C9.5869362,1.51586245 9.38744485,2.03970569 9.38744485,2.60514645 C9.38744485,4.03026922 10.5182584,5.11153278 11.9435171,5.11153278 C11.95045,5.11153278 11.957315,5.11092105 11.964044,5.11085308 C11.9736277,5.11098902 11.9830755,5.11153278 11.9925913,5.11153278 C12.3857286,5.11153278 12.7300636,5.01345236 13.1723431,4.81681573 L13.1395137,3.68613813 C13.122929,3.70272276 13.1559624,3.7181519 13.1395137,3.73385292 L13.1395137,3.68613813 Z" id="Path"></path>
                        <polygon id="Path" points="21.9528176 0.703895236 21.9528176 0.703895236 20.8397442 3.44049527 19.5617761 0.196364749 18.5297906 0.196364749 20.5448233 5.160539 21.085455 5.160539 23.198908 0.196364749 22.1669225 0.196364749"></polygon>
                        <polygon id="Path" points="23.5922492 2.35902781 23.5922492 5.01331642 26.2464698 5.01331642 26.2954081 5.01331642 26.2954081 4.22663397 25.4599233 4.22663397 24.5752284 4.22663397 24.5752284 3.34214297 24.5752284 2.89993146 26.2464698 2.89993146 26.2464698 2.06410685 24.5752284 2.06410685 24.5752284 1.03205342 26.2954081 1.03205342 26.2954081 0.196364749 23.5922492 0.196364749"></polygon>
                        <path d="M1.37645639,0.196364749 L9.65908935e-16,0.196364749 L9.65908935e-16,5.01331642 L1.37638842,5.01331642 C2.11352089,5.01331642 2.6540847,4.81654385 3.09643215,4.47248073 C3.63699596,4.03013328 3.98119502,3.34221094 3.98119502,2.60507848 C3.98126299,1.17934398 2.94893769,0.196364749 1.37645639,0.196364749 Z M2.50679415,3.83370056 C2.21187319,4.07934341 1.81866791,4.22663397 1.22882599,4.22663397 L0.933905035,4.22663397 L0.933905035,1.03198545 L1.17961586,1.03198545 C1.76945777,1.03198545 2.16266306,1.13026978 2.45765198,1.4250548 C2.80164713,1.71977185 2.99835173,2.16239118 2.99835173,2.60487457 C3.0474939,3.04722202 2.85092524,3.53850772 2.50679415,3.83370056 Z" id="Shape"></path>
                        <rect id="Rectangle" x="4.42388232" y="0.19595693" width="1" height="4.81681573"></rect>
                        <path d="M7.71667922,2.06410685 C7.12697325,1.86753819 6.97934285,1.71997576 6.97934285,1.4743329 C6.97934285,1.17941195 7.2742638,0.933701125 7.66746909,0.933701125 C7.96239004,0.933701125 8.20810087,1.03205342 8.45387966,1.32697438 L8.94550521,0.688058273 C8.55216399,0.343859212 8.06087828,0.147494463 7.52017853,0.147494463 C6.68442189,0.147494463 5.99629565,0.737336377 5.99629565,1.52347507 C5.99629565,2.21173725 6.29148848,2.50659024 7.17604744,2.85065336 C7.56925273,2.99787594 7.71674719,3.04722202 7.81523543,3.14550635 C8.01146424,3.24365474 8.10995248,3.4404273 8.10995248,3.63679205 C8.10995248,4.03006531 7.81523543,4.32505423 7.3726161,4.32505423 C6.92986083,4.32505423 6.5369954,4.07934341 6.34035877,3.68607016 L5.75051685,4.27591207 C6.19306821,4.91482818 6.73369999,5.20968117 7.42182624,5.20968117 C8.40473749,5.20968117 9.09252394,4.57076506 9.09252394,3.63679205 C9.09265983,2.80144323 8.79801075,2.4573801 7.71667922,2.06410685 Z" id="Path"></path>
                        <path d="M28.9496967,2.99787594 C29.6866932,2.85065336 30.0800344,2.35895984 30.0800344,1.62189534 C30.0800344,0.737336377 29.4409824,0.196364749 28.3598548,0.196364749 L26.9343922,0.196364749 L26.9343922,5.01331642 L27.8682292,5.01331642 L27.8682292,3.09622824 L28.0158596,3.09622824 L29.3425621,5.01331642 L30.4731718,5.01331642 L28.9496967,2.99787594 Z M28.1630142,2.40803403 L27.8682972,2.40803403 L27.8682972,0.933701125 L28.1630142,0.933701125 C28.7528561,0.933701125 29.0970552,1.17934398 29.0970552,1.67117344 C29.0970552,2.16245915 28.7529241,2.40803403 28.1630142,2.40803403 Z" id="Shape"></path>
                    </g>
                </g>
            </g>
        </g>
    </g>
</svg>
