<?xml version="1.0" encoding="UTF-8"?>
<svg width="35px" height="24px" viewBox="0 0 35 24" version="1.1" xmlns="http://www.w3.org/2000/svg" xmlns:xlink="http://www.w3.org/1999/xlink">
    <title>Group 5</title>
    <g id="Page-1" stroke="none" stroke-width="1" fill="none" fill-rule="evenodd">
        <g id="0.Elements" transform="translate(-638.000000, -674.000000)">
            <g id="Group-5" transform="translate(638.000000, 674.000000)">
                <path d="M30.9233391,24 L3.1579142,24 C1.41379113,24 0,22.5861032 0,20.8420858 L0,3.1579142 C0,1.41379113 1.41379113,0 3.1579142,0 L30.9233391,0 C32.6673565,0 34.0812533,1.41379113 34.0812533,3.1579142 L34.0812533,20.8420858 C34.0812533,22.5861032 32.6673565,24 30.9233391,24" id="Fill-1" fill="#253B80"></path>
                <path d="M7.96951703,8.81970438 L6.11274717,8.81970438 C5.98572894,8.81970438 5.87762607,8.91206206 5.85786533,9.03749521 L5.10685153,13.7985655 C5.09195173,13.8925083 5.16476001,13.9772575 5.25997085,13.9772575 L6.14645667,13.9772575 C6.27347491,13.9772575 6.38157778,13.8850055 6.40133852,13.7592554 L6.60391252,12.4751243 C6.62346192,12.3493741 6.73177613,12.2570164 6.85858302,12.2570164 L7.44633295,12.2570164 C8.66938538,12.2570164 9.37527706,11.6652509 9.55967541,10.4923929 C9.64273392,9.9792477 9.5631626,9.57610747 9.32286355,9.2937508 C9.05899955,8.98370796 8.59097646,8.81970438 7.96951703,8.81970438 M8.183715,10.5586495 C8.08216382,11.224914 7.57313984,11.224914 7.08091776,11.224914 L6.80067454,11.224914 L6.99733089,9.98062144 C7.00895486,9.90538269 7.07415473,9.85001035 7.15013319,9.85001035 L7.27852517,9.85001035 C7.61382371,9.85001035 7.93010123,9.85001035 8.09357644,10.0411717 C8.1910064,10.1551923 8.22091169,10.3245851 8.183715,10.5586495" id="Fill-9" fill="#FFFFFF"></path>
                <path d="M13.5196432,10.5371874 L12.6305155,10.5371874 C12.5547484,10.5371874 12.4893372,10.5925598 12.4776076,10.6677985 L12.4382974,10.9164457 L12.3760564,10.8263071 C12.1836269,10.5469093 11.7543856,10.4534949 11.3259897,10.4534949 C10.3434477,10.4534949 9.5041974,11.1977457 9.34082786,12.2415777 C9.25586724,12.7623313 9.3766508,13.2602597 9.67200518,13.6074992 C9.94294923,13.9267356 10.3306613,14.0597771 10.7919213,14.0597771 C11.583619,14.0597771 12.0225822,13.5507531 12.0225822,13.5507531 L11.982955,13.7977096 C11.9680552,13.8922864 12.0407578,13.9770356 12.135546,13.9770356 L12.9364372,13.9770356 C13.0637724,13.9770356 13.1713469,13.8846779 13.1914247,13.7589278 L13.6719171,10.7157738 C13.6871339,10.6221481 13.6146427,10.5371874 13.5196432,10.5371874 M12.2802115,12.2676788 C12.1944055,12.775646 11.791371,13.1166509 11.2770634,13.1166509 C11.0189057,13.1166509 10.8125275,13.0338037 10.6801199,12.8769859 C10.5486635,12.7210134 10.4987861,12.499207 10.5405267,12.2521449 C10.6206264,11.7485102 11.0305296,11.3964098 11.5369118,11.3964098 C11.7893632,11.3964098 11.9946847,11.4803137 12.1298397,11.6386109 C12.2653117,11.7984933 12.319099,12.0216734 12.2802115,12.2676788" id="Fill-11" fill="#FFFFFF"></path>
                <path d="M18.2549822,10.5371874 L17.361522,10.5371874 C17.2762444,10.5371874 17.1961447,10.5794564 17.1478524,10.6503626 L15.9155008,12.4656032 L15.3931621,10.7212688 C15.360298,10.6121092 15.2595922,10.5371874 15.1455717,10.5371874 L14.2676453,10.5371874 C14.1609162,10.5371874 14.0867342,10.6413804 14.120655,10.7418749 L15.1048878,13.6301131 L14.1796202,14.9362241 C14.1069176,15.039149 14.1801486,15.180433 14.305793,15.180433 L15.1983022,15.180433 C15.2829458,15.180433 15.3622001,15.1392208 15.410281,15.069794 L18.3821061,10.7801283 C18.453118,10.6775204 18.380204,10.5371874 18.2549822,10.5371874" id="Fill-13" fill="#FFFFFF"></path>
                <path d="M21.2131439,8.81970438 L19.3561627,8.81970438 C19.2293558,8.81970438 19.1213586,8.91206206 19.1014922,9.03749521 L18.3505841,13.7985655 C18.3356843,13.8925083 18.4083869,13.9772575 18.5030693,13.9772575 L19.4561288,13.9772575 C19.5445766,13.9772575 19.6203437,13.912586 19.6341868,13.8246666 L19.847328,12.4751243 C19.8668774,12.3493741 19.9751916,12.2570164 20.1018929,12.2570164 L20.6894314,12.2570164 C21.9128009,12.2570164 22.6183756,11.6652509 22.8029852,10.4923929 C22.8863608,9.9792477 22.8062611,9.57610747 22.5660677,9.2937508 C22.3024151,8.98370796 21.8346033,8.81970438 21.2131439,8.81970438 M21.4273419,10.5586495 C21.3261077,11.224914 20.8170837,11.224914 20.3245446,11.224914 L20.0446184,11.224914 L20.2414861,9.98062144 C20.2532157,9.90538269 20.3177816,9.85001035 20.3940771,9.85001035 L20.522469,9.85001035 C20.8575562,9.85001035 21.1740451,9.85001035 21.3375203,10.0411717 C21.4349503,10.1551923 21.4645385,10.3245851 21.4273419,10.5586495" id="Fill-15" fill="#FFFFFF"></path>
                <path d="M26.7630059,10.5371874 L25.8744066,10.5371874 C25.7981111,10.5371874 25.7332282,10.5925598 25.7218156,10.6677985 L25.6825055,10.9164457 L25.6200531,10.8263071 C25.427518,10.5469093 24.9985937,10.4534949 24.5701977,10.4534949 C23.5876557,10.4534949 22.7487225,11.1977457 22.5852473,12.2415777 C22.5006037,12.7623313 22.6208589,13.2602597 22.9162132,13.6074992 C23.1877913,13.9267356 23.5748693,14.0597771 24.0361294,14.0597771 C24.8278271,14.0597771 25.2667902,13.5507531 25.2667902,13.5507531 L25.2271631,13.7977096 C25.2122633,13.8922864 25.2850716,13.9770356 25.3802824,13.9770356 L26.1809622,13.9770356 C26.3076635,13.9770356 26.4157663,13.8846779 26.4356327,13.7589278 L26.9164422,10.7157738 C26.931025,10.6221481 26.8583224,10.5371874 26.7630059,10.5371874 M25.5235742,12.2676788 C25.4384022,12.775646 25.0347336,13.1166509 24.5205317,13.1166509 C24.2627967,13.1166509 24.0559958,13.0338037 23.9234826,12.8769859 C23.7920261,12.7210134 23.7426771,12.499207 23.783995,12.2521449 C23.8645174,11.7485102 24.273998,11.3964098 24.7802745,11.3964098 C25.0327259,11.3964098 25.2380474,11.4803137 25.373308,11.6386109 C25.5093084,11.7984933 25.56299,12.0216734 25.5235742,12.2676788" id="Fill-17" fill="#FFFFFF"></path>
                <path d="M27.8112656,8.95029434 L27.0491562,13.7985444 C27.0342564,13.8924871 27.106959,13.9772364 27.2017471,13.9772364 L27.9678721,13.9772364 C28.0952073,13.9772364 28.2032045,13.8849844 28.2228596,13.7592342 L28.9742961,8.99837529 C28.9891959,8.90443252 28.9164933,8.8194719 28.8218108,8.8194719 L27.9638565,8.8194719 C27.8880894,8.81968325 27.8228895,8.87516126 27.8112656,8.95029434" id="Fill-19" fill="#FFFFFF"></path>
            </g>
        </g>
    </g>
</svg>