<?xml version="1.0" encoding="UTF-8"?>
<svg width="20px" height="24px" viewBox="0 0 20 24" version="1.1" xmlns="http://www.w3.org/2000/svg" xmlns:xlink="http://www.w3.org/1999/xlink">
    <title>Path</title>
    <defs>
        <linearGradient x1="41.5968941%" y1="25.284182%" x2="65.622909%" y2="86.0333934%" id="linearGradient-1">
            <stop stop-color="#C52A2E" offset="0%"></stop>
            <stop stop-color="#A71E22" offset="100%"></stop>
        </linearGradient>
    </defs>
    <g id="Page-1" stroke="none" stroke-width="1" fill="none" fill-rule="evenodd">
        <g id="0.Elements" transform="translate(-981.000000, -488.000000)" fill="url(#linearGradient-1)">
            <path d="M991.076143,488 C984.497049,488.001 981,492.21606 981,496.812125 C981,498.943155 982.191017,501.602192 984.098044,502.445204 C984.642052,502.690208 984.570051,502.391204 985.038057,500.601178 C985.075058,500.452176 985.056057,500.323174 984.936056,500.184172 C982.210017,497.031128 984.404048,490.549036 990.687137,490.549036 C999.780266,490.549036 998.081242,503.131214 992.269159,503.131214 C990.771138,503.131214 989.655122,501.955197 990.008127,500.500177 C990.436134,498.767152 991.274145,496.904126 991.274145,495.655108 C991.274145,492.507064 986.584079,492.97407 986.584079,497.145129 C986.584079,498.434148 987.040085,499.30416 987.040085,499.30416 C987.040085,499.30416 985.531064,505.400246 985.25106,506.539262 C984.777053,508.46729 985.315061,511.588334 985.362062,511.857338 C985.391062,512.00534 985.557064,512.05234 985.650066,511.930339 C985.799068,511.735336 987.623094,509.133299 988.134101,507.252272 C988.320104,506.567263 989.083114,503.787223 989.083114,503.787223 C989.586121,504.695236 991.036142,505.455247 992.581164,505.455247 C997.177229,505.455247 1000.49928,501.41519 1000.49928,496.402119 C1000.48328,491.596051 996.370217,488 991.076143,488 Z" id="Path"></path>
        </g>
    </g>
</svg>
