<?xml version="1.0" encoding="UTF-8"?>
<svg width="26px" height="24px" viewBox="0 0 26 24" version="1.1" xmlns="http://www.w3.org/2000/svg" xmlns:xlink="http://www.w3.org/1999/xlink">
    <title>Combined Shape</title>
    <defs>
        <linearGradient x1="37.2700895%" y1="28.1684536%" x2="73.6672293%" y2="81.8283902%" id="linearGradient-1">
            <stop stop-color="#C52A2E" offset="0%"></stop>
            <stop stop-color="#A71E22" offset="100%"></stop>
        </linearGradient>
    </defs>
    <g id="Page-1" stroke="none" stroke-width="1" fill="none" fill-rule="evenodd">
        <g id="0.Elements" transform="translate(-777.000000, -487.000000)" fill="url(#linearGradient-1)">
            <path d="M799.979549,496.41174 C801.389278,496.41174 802.536213,497.558675 802.536213,498.968454 L802.536213,498.968454 L802.536213,508.714808 L796.549268,508.714808 L791.217137,511 L791.217137,508.714808 L788.650398,508.714808 L788.650398,503.358089 L789.815338,503.857342 L789.815338,500.799281 L792.382077,500.799281 L792.382077,496.41174 Z M796.239292,499.011147 L794.967918,499.012444 L792.383473,505.798293 L793.781731,506.330813 L794.396196,504.717493 L796.793557,504.717493 L797.401938,506.329516 L798.801741,505.801236 L796.239292,499.011147 Z M795.600388,501.555791 L796.228918,503.221231 L794.966122,503.221231 L795.600388,501.555791 Z M790.885814,487 L790.885814,499.303018 L788.319076,499.303018 L788.319076,501.58821 L782.986945,499.303018 L777,499.303018 L777,489.556664 C777,488.146885 778.146935,487 779.556664,487 L779.556664,487 L790.885814,487 Z M783.566747,489.559955 C781.586743,489.559955 779.975916,491.170832 779.975916,493.150836 C779.975916,495.13084 781.586743,496.741716 783.566797,496.741716 C784.29827,496.741716 784.979019,496.521366 785.5471,496.144258 L785.5471,496.144258 L786.431441,497.028649 L787.489498,495.970592 L786.595332,495.076426 C786.950694,494.519467 787.157627,493.859067 787.157627,493.150836 C787.157627,491.170782 785.546751,489.559955 783.566747,489.559955 Z M783.566697,491.056268 C784.721712,491.056268 785.661315,491.995921 785.661315,493.150886 C785.661315,493.442856 785.601065,493.721061 785.492636,493.97383 L785.492636,493.97383 L784.612584,493.093728 L783.554577,494.151736 L784.451587,495.048745 C784.182559,495.17468 783.882857,495.245454 783.566697,495.245503 C782.411732,495.245503 781.472129,494.305851 781.472129,493.150886 C781.472129,491.995871 782.411732,491.056268 783.566697,491.056268 Z" id="Combined-Shape"></path>
        </g>
    </g>
</svg>