<?xml version="1.0" encoding="UTF-8"?>
<svg width="19px" height="20px" viewBox="0 0 19 20" version="1.1" xmlns="http://www.w3.org/2000/svg" xmlns:xlink="http://www.w3.org/1999/xlink">
    <title>Combined Shape</title>
    <defs>
        <linearGradient x1="38.8889777%" y1="25.284182%" x2="70.6574204%" y2="86.0333934%" id="linearGradient-1">
            <stop stop-color="#C52A2E" offset="0%"></stop>
            <stop stop-color="#A71E22" offset="100%"></stop>
        </linearGradient>
    </defs>
    <g id="Page-1" stroke="none" stroke-width="1" fill="none" fill-rule="evenodd">
        <g id="0.Elements" transform="translate(-342.000000, -490.000000)" fill="url(#linearGradient-1)">
            <path d="M358.328743,501.951439 L360.622336,506.869912 C360.867492,507.394678 360.351516,507.956865 359.809055,507.757803 L359.809055,507.757803 L357.105736,506.773702 L356.902924,506.868272 L355.918823,509.571552 C355.721128,510.115614 354.961441,510.15077 354.715972,509.623934 L354.715972,509.623934 L352.795973,505.50671 C355.084917,505.108546 357.062299,503.795461 358.328743,501.951439 L358.328743,501.951439 Z M344.356446,501.951439 C345.62293,503.7955 347.600273,505.108546 349.889217,505.506671 L349.889217,505.506671 L347.969218,509.623895 C347.723241,510.151825 346.963672,510.114403 346.766367,509.571473 L346.766367,509.571473 L345.782266,506.868155 L345.579454,506.773584 L342.876174,507.757685 C342.33719,507.95624 341.816565,507.397139 342.062854,506.869912 L342.062854,506.869912 Z M351.342575,490 C355.29519,490 358.511165,493.215819 358.511165,497.16859 C358.511165,501.121361 355.295151,504.337179 351.342575,504.337179 C347.390039,504.337179 344.173986,501.121361 344.173986,497.16859 C344.173986,493.215819 347.389999,490 351.342575,490 Z M351.926911,493.683162 C351.688864,493.199295 350.996208,493.199725 350.758435,493.683162 L350.758435,493.683162 L349.972654,495.275075 L348.215741,495.53027 C347.682695,495.607731 347.468281,496.265192 347.854609,496.641832 L347.854609,496.641832 L349.125741,497.880972 L348.82535,499.631127 C348.734022,500.162494 349.293787,500.568666 349.771092,500.318041 L349.771092,500.318041 L351.342614,499.491987 L352.914137,500.31808 C353.388707,500.566947 353.951715,500.165502 353.859879,499.631166 L353.859879,499.631166 L353.559488,497.881011 L354.83062,496.641871 C355.216948,496.265192 355.002573,495.607692 354.469605,495.53027 L354.469605,495.53027 L352.712692,495.275075 Z" id="Combined-Shape"></path>
        </g>
    </g>
</svg>