<?xml version="1.0" encoding="UTF-8"?>
<svg width="20px" height="20px" viewBox="0 0 20 20" version="1.1" xmlns="http://www.w3.org/2000/svg" xmlns:xlink="http://www.w3.org/1999/xlink">
    <title>Combined Shape</title>
    <defs>
        <linearGradient x1="27.8761605%" y1="0%" x2="72.3937529%" y2="78.5122418%" id="linearGradient-1">
            <stop stop-color="#FFFFFF" offset="0%"></stop>
            <stop stop-color="#F1F1F1" offset="100%"></stop>
        </linearGradient>
    </defs>
    <g id="Page-1" stroke="none" stroke-width="1" fill="none" fill-rule="evenodd">
        <g id="0.Elements" transform="translate(-53.000000, -425.000000)" fill="url(#linearGradient-1)" fill-rule="nonzero">
            <path d="M59.1501282,427.373119 C62.3142227,424.20896 67.4626574,424.20896 70.6268163,427.373119 C73.7908463,430.537278 73.7909108,435.685777 70.6268163,438.849936 C67.9424581,441.534294 63.9501324,441.940775 60.8326199,440.070667 L60.8326199,440.070667 L60.8020996,440.055801 C60.7342205,440.026986 60.5650617,439.978584 60.4171835,440.126462 C60.1354777,440.408151 59.7001142,440.843506 59.2158596,441.327758 L58.8869298,441.656687 C58.8312842,441.712333 58.7753224,441.768295 58.7191882,441.824429 L56.6544954,443.889144 C56.6217001,443.921939 56.5907444,443.952896 56.5617719,443.981869 L56.4128855,444.130758 C56.3310267,444.212618 56.2854985,444.258147 56.2854985,444.258147 C55.4614551,445.082255 54.309083,445.278376 53.578268,444.547432 L53.578268,444.547432 L53.4524388,444.421732 C52.7216238,443.690788 52.9178092,442.53848 53.741917,441.714437 C53.741917,441.714437 53.7875418,441.668811 53.869574,441.586777 L54.453362,441.00298 C54.8796522,440.576683 55.4470778,440.00925 56.0116194,439.444707 L56.3488462,439.107479 C56.7391853,438.71714 57.1139974,438.342331 57.4238839,438.032452 L57.7826454,437.673703 L57.7826454,437.673703 L57.8822999,437.574054 C58.0234131,437.433041 57.9735079,437.265369 57.9443592,437.197812 L57.9293973,437.16738 C56.0592248,434.049803 56.46577,430.057477 59.1501282,427.373119 Z M69.128462,428.871538 C66.790537,426.533549 62.9864076,426.533613 60.6484182,428.871538 C58.3104287,431.209527 58.3103643,435.013657 60.6483537,437.351646 C62.9864076,439.689507 66.7904725,439.689507 69.128462,437.351646 C71.4664514,435.013657 71.4664514,431.209463 69.128462,428.871538 Z M67.3059667,428.664657 C67.731905,428.844929 67.931183,429.336391 67.7509115,429.762394 C67.5705755,430.188397 67.0792421,430.387546 66.6531105,430.207339 C64.8262986,429.434323 62.7109748,430.291676 61.9380234,432.118488 C61.8027875,432.43799 61.4926277,432.629923 61.1662962,432.629923 C61.0574761,432.629923 60.946852,432.608533 60.8402225,432.563497 C60.4142842,432.383225 60.2150061,431.891763 60.3952777,431.46576 C61.5283212,428.788167 64.628438,427.531614 67.3059667,428.664657 Z" id="Combined-Shape"></path>
        </g>
    </g>
</svg>