<?xml version="1.0" encoding="UTF-8"?>
<svg width="13px" height="12px" viewBox="0 0 13 12" version="1.1" xmlns="http://www.w3.org/2000/svg" xmlns:xlink="http://www.w3.org/1999/xlink">
    <title>Path</title>
    <g id="Page-1" stroke="none" stroke-width="1" fill="none" fill-rule="evenodd">
        <g id="0.Elements" transform="translate(-801.000000, -429.000000)" fill="#FFE083">
            <path d="M813.489243,433.534656 C813.407272,433.281101 813.182378,433.101014 812.916308,433.077035 L809.30215,432.748866 L807.873014,429.403834 C807.767637,429.158687 807.527648,429 807.261005,429 C806.994362,429 806.754373,429.158687 806.648996,429.404407 L805.219861,432.748866 L801.605129,433.077035 C801.339536,433.101587 801.115216,433.281101 801.032768,433.534656 C800.950319,433.788211 801.026462,434.066318 801.227376,434.241629 L803.959252,436.637501 L803.153685,440.186026 C803.094739,440.446937 803.196008,440.716638 803.412495,440.873127 C803.528859,440.957199 803.664999,441 803.802285,441 C803.920655,441 804.03807,440.968091 804.143447,440.905036 L807.261005,439.041781 L810.377417,440.905036 C810.605463,441.042227 810.892933,441.029712 811.108942,440.873127 C811.325524,440.71616 811.426698,440.446364 811.367752,440.186026 L810.562185,436.637501 L813.294061,434.242106 C813.494975,434.066318 813.571691,433.788688 813.489243,433.534656 Z" id="Path"></path>
        </g>
    </g>
</svg>
