<?xml version="1.0" encoding="UTF-8"?>
<svg width="13px" height="12px" viewBox="0 0 13 12" version="1.1" xmlns="http://www.w3.org/2000/svg" xmlns:xlink="http://www.w3.org/1999/xlink">
    <title>Path</title>
    <g id="Page-1" stroke="none" stroke-width="1" fill="none" fill-rule="evenodd">
        <g id="0.Elements" transform="translate(-756.000000, -429.000000)" fill="#FFC107" fill-rule="nonzero">
            <path d="M768.489243,433.534656 C768.407272,433.281101 768.182378,433.101014 767.916308,433.077035 L764.30215,432.748866 L762.873014,429.403834 C762.767637,429.158687 762.527648,429 762.261005,429 C761.994362,429 761.754373,429.158687 761.648996,429.404407 L760.219861,432.748866 L756.605129,433.077035 C756.339536,433.101587 756.115216,433.281101 756.032768,433.534656 C755.950319,433.788211 756.026462,434.066318 756.227376,434.241629 L758.959252,436.637501 L758.153685,440.186026 C758.094739,440.446937 758.196008,440.716638 758.412495,440.873127 C758.528859,440.957199 758.664999,441 758.802285,441 C758.920655,441 759.03807,440.968091 759.143447,440.905036 L762.261005,439.041781 L765.377417,440.905036 C765.605463,441.042227 765.892933,441.029712 766.108942,440.873127 C766.325524,440.71616 766.426698,440.446364 766.367752,440.186026 L765.562185,436.637501 L768.294061,434.242106 C768.494975,434.066318 768.571691,433.788688 768.489243,433.534656 Z" id="Path"></path>
        </g>
    </g>
</svg>