<?xml version="1.0" encoding="UTF-8"?>
<svg width="150px" height="150px" viewBox="0 0 150 150" version="1.1" xmlns="http://www.w3.org/2000/svg" xmlns:xlink="http://www.w3.org/1999/xlink">
    <title>Combined Shape</title>
    <g id="Page-1" stroke="none" stroke-width="1" fill="none" fill-rule="evenodd">
        <g id="0.Elements" transform="translate(-62.000000, -111.000000)" fill="#258912" fill-rule="nonzero">
            <path d="M137,111 C157.13125,111 176.034375,118.86875 190.221875,133.15625 C192.653125,135.60625 192.640625,139.5625 190.190625,141.99375 C187.740625,144.428125 183.78125,144.415625 181.353125,141.9625 C169.528125,130.05625 153.778125,123.5 137,123.5 C102.5375,123.5 74.5,151.5375 74.5,186 C74.5,220.4625 102.5375,248.5 137,248.5 C171.4625,248.5 199.5,220.4625 199.5,186 C199.5,182.55 202.3,179.75 205.75,179.75 C209.2,179.75 212,182.55 212,186 C212,227.35625 178.35625,261 137,261 C95.64375,261 62,227.35625 62,186 C62,144.64375 95.64375,111 137,111 Z M160.70625,165.95625 C163.14375,163.515625 167.10625,163.515625 169.54375,165.95625 C171.984375,168.396875 171.984375,172.353125 169.54375,174.79375 L169.54375,174.79375 L138.29375,206.04375 C137.075,207.265625 135.475,207.875 133.875,207.875 C132.275,207.875 130.675,207.265625 129.45625,206.04375 L129.45625,206.04375 L113.83125,190.41875 C111.390625,187.978125 111.390625,184.021875 113.83125,181.58125 C116.26875,179.140625 120.23125,179.140625 122.66875,181.58125 L122.66875,181.58125 L133.875,192.784375 Z" id="Combined-Shape"></path>
        </g>
    </g>
</svg>