<?xml version="1.0" encoding="UTF-8"?>
<svg width="222px" height="64px" viewBox="0 0 222 64" version="1.1" xmlns="http://www.w3.org/2000/svg" xmlns:xlink="http://www.w3.org/1999/xlink">
    <title>Artboard</title>
    <defs>
        <polygon id="path-1" points="4.17429147e-14 0 11.0893252 0 11.0893252 18.0435087 4.17429147e-14 18.0435087"></polygon>
        <polygon id="path-3" points="0 -5.21786433e-15 12.6756002 -5.21786433e-15 12.6756002 35.3759838 0 35.3759838"></polygon>
    </defs>
    <g id="Artboard" stroke="none" stroke-width="1" fill="none" fill-rule="evenodd">
        <g id="Natures-Flavors" transform="translate(0.000000, -0.000000)">
            <g id="Group" transform="translate(184.168243, 0.000000)">
                <g id="Group-3" transform="translate(19.304775, 0.000000)">
                    <mask id="mask-2" fill="white">
                        <use xlink:href="#path-1"></use>
                    </mask>
                    <g id="Clip-2"></g>
                    <path d="M3.86048845,18.0435087 C3.86048845,18.0435087 -2.3091457,9.89517082 0.950630053,7.21736675 C4.2104058,4.53992985 7.35268569,3.14319783 7.12026419,-0.00018358728 C7.93502454,1.51330995 13.0571097,7.21736675 10.2632784,12.2226904 C7.46981438,17.2283811 3.86048845,18.0435087 3.86048845,18.0435087" id="Fill-1" fill="#FFFFFF" mask="url(#mask-2)"></path>
                </g>
                <path d="M21.1867065,18.0435087 C21.1867065,18.0435087 15.7158055,8.26528294 12.4560298,9.02202971 C9.19625404,9.77914366 5.7040568,12.3394519 3.72498592,12.689002 C1.74628221,13.0389194 0,12.689002 0,12.689002 C0,12.689002 5.47053378,20.8377071 10.5926189,21.5364403 C15.7150712,22.2337048 21.1867065,18.0435087 21.1867065,18.0435087" id="Fill-4" fill="#FFFFFF"></path>
                <path d="M21.7973178,18.9530368 C21.7973178,18.9530368 25.8424799,23.282392 25.8424799,26.0754889 C25.8424799,28.868953 23.1646758,30.2664193 21.8843382,31.8963072 C20.6043676,33.5258279 19.4015038,35.0396886 19.3045697,36.2028976 C18.3925081,34.5730097 14.551495,27.7053768 16.4134372,24.5623625 C18.2757466,21.4189811 21.7973178,18.9530368 21.7973178,18.9530368" id="Fill-6" fill="#FFFFFF"></path>
                <path d="M23.8049548,19.0618673 C23.8049548,19.0618673 27.9378717,15.948227 31.3133074,17.3449591 C34.6891103,18.7416911 36.4350254,21.1859721 37.8317574,22.81586 C36.0854752,22.5827042 34.3395602,23.165043 32.5936451,24.212592 C30.8477301,25.2601411 27.4447563,25.0438752 23.8049548,19.0618673" id="Fill-8" fill="#FFFFFF"></path>
                <path d="M19.4834939,13.4523947 C19.5117663,13.5654844 18.2714506,6.64424398 16.2909111,7.21887216 C13.9879922,8.36408962 19.4834939,13.4523947 19.4834939,13.4523947" id="Fill-10" fill="#FFFFFF"></path>
                <path d="M16.6303639,7.65074288 C16.6303639,7.65074288 16.4522843,4.66634805 17.7590585,3.68305458" id="Stroke-12" stroke="#FFFFFF" stroke-width="0.995" stroke-linecap="round"></path>
                <path d="M16.2058,7.69289452 C16.2058,7.69289452 13.5518623,6.31598992 12.1220845,7.10945415" id="Stroke-14" stroke="#FFFFFF" stroke-width="0.995" stroke-linecap="round"></path>
            </g>
            <path d="M17.5637951,16.796951 C16.9564884,16.796951 16.5562681,16.9768666 16.3627671,17.3355961 C16.0315757,17.8881938 15.8656128,22.2652818 15.8656128,30.4664927 L15.8656128,34.360379 C15.8656128,39.4417077 15.9761323,44.8134715 16.1971714,50.4742017 L12.1784458,50.4742017 C9.77638985,40.3115442 6.97301208,30.6320885 3.76941404,21.4358344 C3.71397068,23.8661628 3.68643259,26.9317033 3.68643259,30.6320885 C3.68643259,41.8173271 3.85239549,47.6847766 4.18358694,48.2373743 C4.40425885,48.6240091 4.91536584,48.7896048 5.71654073,48.7337943 L5.71654073,50.4742017 L0,50.4742017 L0,48.7337943 L0.414172904,48.7337943 C1.02147963,48.7337943 1.42280142,48.5689329 1.61556807,48.2373743 C1.86414524,47.7952961 1.98861742,41.6649497 1.98861742,29.8448662 C1.98861742,21.9469414 1.87112156,17.7842834 1.63686419,17.3557907 C1.40223965,16.9280324 0.85661825,16.7554603 0.000734349121,16.8384418 L0.000734349121,15.0984015 L5.84174726,15.0984015 C8.38222804,24.6251127 11.1158426,33.601062 14.0436926,42.0244136 C14.1263069,37.6051006 14.1677976,33.5456186 14.1677976,29.8448662 C14.1677976,21.9469414 14.0506689,17.7842834 13.8160444,17.3557907 C13.5814198,16.9280324 13.0357984,16.7554603 12.1799145,16.8384418 L12.1799145,15.0984015 L17.8968224,15.0984015 L17.8968224,16.8384418 C17.7569289,16.8109037 17.6467766,16.796951 17.5637951,16.796951" id="Fill-16" fill="#FFFFFF"></path>
            <path d="M27.7634933,32.6209629 C27.2108956,33.4500431 26.555489,34.1194023 25.7958048,34.6301421 C25.0361207,35.1401476 24.2841472,35.6442782 23.5384156,36.1417998 C22.9035708,36.6664922 22.5859648,37.494838 22.5859648,38.6268372 C22.5859648,40.1458384 23.4976593,40.9055225 25.3199466,40.9055225 C26.0374057,40.9055225 26.6388376,40.6429927 27.1216722,40.1183003 C27.6048739,39.5936078 27.8464748,38.9723485 27.8464748,38.2548894 C27.8464748,36.3764243 27.8182023,34.4990608 27.7634933,32.6209629 M33.5211576,42.8107913 C32.9685599,43.363389 32.2646862,43.6395043 31.4088023,43.6395043 C30.0557641,43.6395043 29.0614554,43.0178778 28.4258762,41.7757262 C26.879337,42.9903397 25.360703,43.5983808 23.8692399,43.5983808 C20.2239309,43.5983808 18.4009092,42.038256 18.4009092,38.9176395 C18.4009092,37.3990055 19.0636593,36.239101 20.3895266,35.4382933 C21.6871215,34.8860628 22.9854508,34.3195124 24.2834128,33.7393766 C25.7194325,33.0498228 26.8514317,32.1932046 27.6797775,31.1713578 C27.6247013,29.5693751 27.5002292,28.5064048 27.3070953,27.9817123 C26.9208277,26.8772513 26.1336054,26.3253879 24.9461629,26.3253879 C23.3170094,26.3253879 22.5026162,26.6973357 22.5026162,27.4438016 C23.6342482,27.8583417 24.2004314,28.7417637 24.2004314,30.0948019 C24.2004314,30.8126282 23.9658068,31.4482074 23.4969249,32.0000707 C23.0269415,32.5526684 22.4471728,32.8284165 21.7568847,32.8284165 C21.0390584,32.8284165 20.44497,32.5669883 19.9760881,32.0422958 C19.5061046,31.5176034 19.2714801,30.8956097 19.2714801,30.1777834 C19.2714801,28.5210918 19.7961725,27.1750298 20.8459246,26.1395976 C21.8953095,25.103431 23.2623004,24.586082 24.9468973,24.586082 C27.1286485,24.586082 28.7721218,25.4004752 29.8765829,27.0296287 C30.8708916,28.4102051 31.368046,30.246445 31.368046,32.539083 L31.368046,33.2638856 L31.368046,33.9890553 C31.368046,34.7344197 31.3819986,35.8462243 31.4095367,37.3230003 C31.4367076,38.8005108 31.4506602,39.9126825 31.4506602,40.6576797 C31.4506602,41.2106446 31.685652,41.4863927 32.1545339,41.4863927 C32.5136306,41.4863927 32.7210842,41.1963248 32.7757932,40.6169233 L32.7757932,39.3325467 L34.3502378,39.3325467 L34.3502378,40.7413955 C34.3495034,41.5686398 34.0737553,42.258928 33.5211576,42.8107913" id="Fill-18" fill="#FFFFFF"></path>
            <path d="M44.6567542,46.6840423 C43.9110227,47.4716318 43.1377531,47.8652429 42.3365782,47.8652429 C40.375866,47.8652429 38.857232,46.9403302 37.7799419,45.0901376 C36.8965199,43.5432311 36.4540745,41.7205766 36.4540745,39.622174 C36.4540745,38.7376505 36.4746363,37.4191266 36.516127,35.6655009 C36.5572506,33.9122424 36.5778124,32.5933514 36.5778124,31.7095622 C36.5778124,30.0800415 36.5363217,28.4093973 36.4533402,26.6968951 L34.3821085,26.6968951 L34.3821085,24.9568549 C35.2658977,24.9568549 36.1078289,24.4457479 36.9090038,23.4235339 C37.5438486,22.6234605 38.0277847,21.7117661 38.358609,20.6902865 C38.6901676,19.6684397 38.8557633,18.6051022 38.8557633,17.5006411 L40.3057357,17.5006411 L40.3057357,24.9568549 L43.4538904,24.9568549 L43.4538904,26.6968951 L40.3057357,26.6968951 C40.112969,29.3758007 40.0156678,33.490726 40.0156678,39.0413038 C40.0156678,40.9744779 40.0846966,42.3557886 40.2231214,43.1837672 C40.5543129,45.1444794 41.2589208,46.1248355 42.3351095,46.1248355 C42.7768205,46.1248355 43.2398276,45.9313345 43.7233965,45.5443325 C44.2065982,45.1576977 44.4621517,44.7431576 44.4896898,44.3018138 L45.8155571,44.3018138 C45.7894878,45.1033558 45.4024858,45.8975544 44.6567542,46.6840423" id="Fill-20" fill="#FFFFFF"></path>
            <path d="M61.6098243,26.697042 C60.7814785,26.6695039 60.3669384,27.0565059 60.3669384,27.8569464 C60.3669384,28.8784261 60.3529858,30.4113798 60.3254477,32.4550734 L60.3254477,37.0532005 C60.3254477,39.0410835 59.7251173,40.5740373 58.5237221,41.6516947 C57.3219598,42.7278833 55.7273207,43.2672627 53.7394376,43.2672627 C51.7232821,43.2672627 50.1356193,42.7278833 48.9753477,41.6516947 C47.8154432,40.5740373 47.2356746,39.0410835 47.2356746,37.0532005 L47.2356746,35.9759103 C47.2628455,35.5070284 47.2767981,35.1475645 47.2767981,34.8997217 C47.2767981,34.1253505 47.2628455,32.9529622 47.2356746,31.3777833 C47.2074022,29.8040731 47.1938167,28.6302161 47.1938167,27.8569464 C47.1938167,27.3043487 47.028221,26.9595718 46.6966623,26.8204126 C46.5035285,26.7381655 46.1029411,26.6963076 45.4952672,26.6963076 L45.4952672,24.9562674 L52.9107246,24.9562674 L52.9107246,26.6963076 L52.330956,26.6963076 C51.6406678,26.6963076 51.2536658,27.0833096 51.1706844,27.8562121 C51.060532,28.712096 51.0050886,30.6456372 51.0050886,33.6557343 C51.0050886,35.8925617 51.060532,37.5499877 51.1706844,38.6261763 C51.3909891,40.5593503 52.2611928,41.5264881 53.780194,41.5264881 C55.2991951,41.5264881 56.155079,40.5593503 56.3482128,38.6261763 C56.4590996,37.4941771 56.5138086,35.8235329 56.5138086,33.6138764 C56.5138086,30.6588555 56.4723178,28.7396341 56.3897036,27.8562121 C56.3067221,27.2760763 56.1268066,26.9166124 55.8510585,26.7792891 C55.7126337,26.7242129 55.3124134,26.6963076 54.6492961,26.6963076 L54.6492961,24.9562674 L62.0651207,24.9562674 L62.0651207,26.6963076 L61.6098243,26.6963076 L61.6098243,26.697042 Z" id="Fill-22" fill="#FFFFFF"></path>
            <path d="M76.6956756,32.0415247 C76.2128411,32.5662172 75.6253618,32.8280127 74.9354408,32.8280127 C74.1893421,32.8280127 73.5963552,32.5522646 73.154277,31.9992997 C72.712566,31.4474363 72.4915269,30.7703664 72.4915269,29.9691915 C72.4915269,29.3071758 72.6644661,28.7200637 73.0096102,28.2089567 C73.3543871,27.6974825 73.8445652,27.4426634 74.4801443,27.4426634 C74.4801443,26.6969318 73.9418664,26.3242497 72.8642091,26.3242497 C71.5941523,26.3242497 70.682825,27.4143909 70.1298601,29.5965093 C69.7986687,30.9495476 69.6327058,32.5515302 69.6327058,34.4017228 C69.6327058,37.1081665 69.7296399,39.1375403 69.9227737,40.4913129 C70.0057551,41.0435434 70.1713509,41.3879532 70.419928,41.5271123 C70.5855238,41.6100938 70.9861112,41.6515845 71.620956,41.6515845 L71.620956,43.3916248 L64.2066001,43.3916248 L64.2066001,41.6515845 L64.7867359,41.6515845 C65.4770241,41.6787554 65.8640261,41.2917534 65.9470075,40.4920473 C66.1126033,38.9179699 66.1955847,36.8048803 66.1955847,34.15388 C66.1955847,31.6413045 66.1126033,29.5553858 65.9470075,27.8990613 C65.8915642,27.2913875 65.7263356,26.9187053 65.4498532,26.7806476 C65.2838903,26.7255715 64.8697174,26.697299 64.2066001,26.697299 L64.2066001,24.9576259 L69.384863,24.9576259 L69.384863,27.1111047 C69.854112,25.4272422 71.0140165,24.5845766 72.8642091,24.5845766 C75.9022114,24.5845766 77.4212126,26.4483547 77.4212126,30.176278 C77.4212126,30.8948386 77.1788774,31.5168323 76.6956756,32.0415247" id="Fill-24" fill="#FFFFFF"></path>
            <path d="M85.4399486,26.697042 C84.666679,26.697042 84.0384433,27.0352098 83.5552416,27.7115453 C83.0720398,28.388248 82.830439,29.1273704 82.830439,29.9278109 L82.830439,33.9458022 L87.5115474,32.0409005 C88.3127223,31.6810695 88.7122083,31.0605445 88.7122083,30.1763881 C88.7122083,27.8576808 87.6216998,26.697042 85.4399486,26.697042 M85.4399486,43.2672627 C83.450964,43.2672627 81.8218105,42.3698881 80.5517537,40.5740373 C79.4197545,38.9448838 78.8539385,37.1079095 78.8539385,35.0645831 L78.8539385,33.1596814 C78.8539385,31.1159878 79.4197545,29.2797478 80.5517537,27.64986 C81.8218105,25.8540092 83.450964,24.9570017 85.4399486,24.9570017 C87.2071597,24.9570017 88.5950796,25.4471798 89.6033409,26.427903 C90.6116023,27.4082591 91.1153658,28.7825935 91.1153658,30.5490703 C91.1153658,31.3506124 90.7838071,32.0269479 90.121057,32.5795456 C89.7340551,32.8835662 89.0437669,33.2562483 88.049091,33.6979593 L82.8297046,36.0181354 L82.8297046,38.2960864 C82.8297046,39.0972612 83.0503765,39.8150875 83.4924547,40.4499323 C84.0171472,41.1673914 84.6659446,41.5272225 85.4392142,41.5272225 C86.4052505,41.5272225 87.3793646,41.2503729 88.3597207,40.6985095 C89.3400768,40.1459118 89.9543598,39.441671 90.202937,38.5854199 L91.2387364,38.5854199 C90.2727001,41.7060365 88.3391589,43.2672627 85.4399486,43.2672627" id="Fill-26" fill="#FFFFFF"></path>
            <path d="M103.007963,41.8171802 C101.682095,42.7835837 100.121971,43.2664182 98.3268541,43.2664182 C97.0567973,43.2664182 95.9247981,42.7835837 94.9301223,41.8171802 C94.0742384,40.960562 93.4669316,39.883639 93.1082021,38.5853098 L94.3925787,38.2126276 C94.6683268,39.1793982 95.1585048,39.9732296 95.8631128,40.5952233 C96.5666193,41.2164827 97.3887231,41.5271123 98.3275885,41.5271123 C99.1834724,41.5271123 99.881104,41.2576062 100.419749,40.7196955 C100.958027,40.1817847 101.227166,39.4702005 101.227166,38.5860441 C101.227166,37.4261397 100.578369,36.5008598 99.2807736,35.811306 C98.065793,35.2036321 96.850078,34.6095436 95.6354646,34.0294078 C94.3375025,33.0905425 93.6887051,31.7242859 93.6887051,29.9284351 C93.6887051,28.354725 94.2688409,27.1111047 95.4287453,26.1997775 C96.4788646,25.3710645 97.8179502,24.9568916 99.4471037,24.9568916 C100.302988,24.9568916 101.297296,25.4265079 102.429295,26.3653732 L102.429295,24.625333 L104.00374,24.625333 L104.00374,29.9277008 L102.429295,29.9277008 C102.429295,28.960563 102.166766,28.1814186 101.642073,27.5873301 C101.117748,26.9932417 100.385235,26.6961975 99.4471037,26.6961975 C98.0665274,26.6961975 97.3755048,27.4702015 97.3755048,29.0163735 C97.3755048,30.0653913 97.8443867,30.8941042 98.7843536,31.501411 C99.3086789,31.861242 100.233592,32.2339242 101.559459,32.6201918 C102.692192,32.9796557 103.520171,33.4698338 104.045231,34.0910931 C104.57029,34.7127197 104.942605,35.6170706 105.164012,36.804146 C105.219088,37.052356 105.246626,37.3148858 105.246626,37.591001 C105.244423,39.3310413 104.499058,40.7398901 103.007963,41.8171802" id="Fill-28" fill="#FFFFFF"></path>
            <g id="Group-32" transform="translate(105.019896, 15.099503)">
                <mask id="mask-4" fill="white">
                    <use xlink:href="#path-3"></use>
                </mask>
                <g id="Clip-31"></g>
                <path d="M11.0607665,3.97686767 C11.0607665,2.4854046 10.7016697,1.73967307 9.9834763,1.73967307 L7.24912735,1.73967307 C6.66899154,1.73967307 6.28272391,1.80135839 6.08885574,1.92656492 C5.89608909,2.05066992 5.77161692,2.37525223 5.71580638,2.8995775 C5.57774875,4.14246339 5.48154901,7.82926315 5.42610566,13.9596096 L8.11822953,13.9596096 C9.00275305,13.9596096 9.43014424,13.2138781 9.40260615,11.7231494 L11.0600321,11.7231494 L11.0600321,17.977968 L9.40260615,17.977968 C9.43087859,16.4589669 9.00275305,15.6992827 8.11822953,15.6992827 L5.38461493,15.6992827 L5.38461493,19.2208539 C5.38461493,26.2900657 5.4947673,30.6957933 5.71580638,32.4350992 C5.79878783,32.9869625 6.01982692,33.3317394 6.37892364,33.4708986 C6.62750082,33.581051 7.06921181,33.63576 7.70479098,33.63576 L7.70479098,35.3761674 L0,35.3761674 L0,33.63576 L0.580135806,33.63576 C1.32586734,33.6640324 1.71286932,33.13934 1.74004024,32.0620498 C1.90563597,28.4171079 1.98861742,24.3987495 1.98861742,20.007709 L1.98861742,15.3680912 C1.98861742,8.40903179 1.90563597,4.25261576 1.74004024,2.90031185 C1.68459688,2.32017605 1.51973551,1.9614465 1.24288589,1.82302169 C1.07729016,1.74040742 0.662750082,1.71286932 0,1.74040742 L0,-5.21786433e-15 L12.6756002,-5.21786433e-15 L12.6756002,3.97686767 L11.0607665,3.97686767 Z" id="Fill-30" fill="#FFFFFF" mask="url(#mask-4)"></path>
            </g>
            <path d="M119.464623,43.3919919 L119.464623,41.6523189 L120.085883,41.6523189 C120.748266,41.6523189 121.122049,41.2649497 121.204664,40.4927816 C121.231835,40.2713753 121.273692,39.0556604 121.329136,36.8474726 C121.412117,34.1131236 121.453241,31.503614 121.453241,29.0185766 C121.453241,26.7263058 121.412117,24.2827591 121.329136,21.6864678 C121.329136,20.8577548 121.286911,19.6288215 121.204664,17.999668 C121.122049,17.4198994 120.976281,17.0751225 120.769562,16.9638686 C120.562108,16.8529819 120.127741,16.8122255 119.464623,16.8397636 L119.464623,15.0997233 L125.181899,15.0997233 C125.181899,16.6458954 125.126822,18.9936096 125.016303,22.1417642 C124.90615,25.2888174 124.850707,27.6512185 124.850707,29.2249287 C124.850707,31.6552571 124.90615,34.2096905 125.016303,36.8882289 C125.016303,37.6894038 125.071379,38.890799 125.181899,40.4927816 C125.264146,41.044645 125.430843,41.3894219 125.678686,41.528581 C125.844281,41.6111953 126.245236,41.6530532 126.880081,41.6530532 L126.880081,43.3927263 L119.464623,43.3927263 L119.464623,43.3919919 Z" id="Fill-33" fill="#FFFFFF"></path>
            <path d="M137.671033,32.6216605 C137.11917,33.4500064 136.462662,34.1200999 135.703712,34.6308397 C134.94366,35.1415796 134.19132,35.6449759 133.445588,36.1424974 C132.810376,36.6671899 132.49277,37.4955357 132.49277,38.6275348 C132.49277,40.146536 133.404465,40.9062202 135.227486,40.9062202 C135.944945,40.9062202 136.546377,40.6436903 137.029212,40.1189979 C137.512046,39.5943055 137.754015,38.9730461 137.754015,38.255587 C137.754015,36.377122 137.726476,34.4997584 137.671033,32.6216605 M143.429432,42.811489 C142.876834,43.3640867 142.172226,43.6402019 141.316342,43.6402019 C139.962937,43.6402019 138.968628,43.0185754 138.33415,41.7764239 C136.786877,42.9910373 135.26861,43.5990784 133.777514,43.5990784 C130.132205,43.5990784 128.309183,42.0389537 128.309183,38.9183371 C128.309183,37.3997031 128.971933,36.2397987 130.297801,35.438991 C131.59613,34.8867604 132.892991,34.3202101 134.19132,33.7400743 C135.627707,33.0505204 136.759706,32.1939022 137.588052,31.1720554 C137.533343,29.5700728 137.409238,28.5071024 137.216104,27.98241 C136.829102,26.8779489 136.04188,26.3260855 134.855171,26.3260855 C133.226018,26.3260855 132.411625,26.6980334 132.411625,27.4444992 C133.543624,27.8590393 134.10944,28.7424613 134.10944,30.0954996 C134.10944,30.8133258 133.874815,31.448905 133.405199,32.0007684 C132.93595,32.5533661 132.355814,32.8291142 131.665159,32.8291142 C130.947333,32.8291142 130.353244,32.5676859 129.883995,32.0429934 C129.414379,31.518301 129.179754,30.8963073 129.179754,30.178481 C129.179754,28.5217894 129.704447,27.1757275 130.753464,26.1402952 C131.803584,25.1041286 133.16984,24.5867796 134.855171,24.5867796 C137.036188,24.5867796 138.679294,25.4011728 139.784857,27.0303263 C140.779166,28.4109027 141.275953,30.2471427 141.275953,32.5397806 L141.275953,33.2645832 L141.275953,33.989753 C141.275953,34.7351173 141.290273,35.8465547 141.317811,37.323698 C141.344982,38.8008412 141.359302,39.9133801 141.359302,40.6583773 C141.359302,41.2113422 141.59466,41.4870903 142.063542,41.4870903 C142.423006,41.4870903 142.630093,41.1970224 142.684802,40.617621 L142.684802,39.3332443 L144.259246,39.3332443 L144.259246,40.741726 C144.257778,41.5689702 143.981295,42.2596256 143.429432,42.811489" id="Fill-35" fill="#FFFFFF"></path>
            <path d="M156.1036,26.6974092 C155.688693,26.6702382 155.406335,26.7396342 155.253958,26.9044956 C155.101948,27.0704585 154.943695,27.3880645 154.7781,27.8576808 C153.645366,31.1989693 152.347771,36.3768649 150.883112,43.3917349 L148.149497,43.3917349 C147.209898,38.2828681 145.787831,33.1046052 143.882929,27.8576808 C143.662257,27.3047159 143.461413,26.9665481 143.282599,26.8428103 C143.102683,26.7179709 142.736977,26.6702382 142.185114,26.6974092 L142.185114,24.9577361 L149.600204,24.9577361 L149.600204,26.6974092 L149.14454,26.6974092 C148.232846,26.6702382 147.777917,26.9180811 147.777917,27.4431407 C147.777917,27.4982169 147.805455,27.6359073 147.860898,27.8576808 C148.60663,32.193278 149.51759,35.7827765 150.595247,38.627645 C151.506207,35.7280675 152.335287,32.1382018 153.080652,27.8576808 C153.107823,27.664547 153.122142,27.540442 153.122142,27.4849986 C153.122142,26.9331352 152.528054,26.6702382 151.340979,26.6974092 L151.340979,24.9577361 L156.477384,24.9577361 L156.477384,26.6974092 L156.1036,26.6974092 Z" id="Fill-37" fill="#FFFFFF"></path>
            <path d="M165.977684,29.9291695 C165.977684,29.1279946 165.742692,28.3899737 165.273076,27.7129038 C164.804194,27.0365683 164.182568,26.6980334 163.409665,26.6980334 C162.636028,26.6980334 162.007793,27.0365683 161.524591,27.7129038 C161.041756,28.3899737 160.799788,29.1283618 160.799788,29.9291695 L160.799788,38.2967106 C160.799788,39.0982526 161.02046,39.8157117 161.462171,40.4505565 C161.986864,41.1680156 162.636028,41.5278467 163.408931,41.5278467 C164.182568,41.5278467 164.817412,41.1680156 165.314567,40.4505565 C165.756278,39.8157117 165.97695,39.0975183 165.97695,38.2967106 L165.97695,29.9291695 L165.977684,29.9291695 Z M168.256369,40.5746615 C166.985211,42.3705123 165.370377,43.2678869 163.409665,43.2678869 C161.421782,43.2678869 159.792261,42.3705123 158.521103,40.5746615 C157.389104,38.9458752 156.823288,37.1089009 156.823288,35.0652072 L156.823288,33.1603056 C156.823288,31.116612 157.389104,29.2800049 158.521103,27.6504842 C159.792261,25.8546334 161.421782,24.9576259 163.409665,24.9576259 C165.370377,24.9576259 166.985945,25.8546334 168.256369,27.6504842 C169.41554,29.2796377 169.99641,31.116612 169.99641,33.1603056 L169.99641,35.0652072 C169.99641,37.1089009 169.416274,38.9458752 168.256369,40.5746615 L168.256369,40.5746615 Z" id="Fill-39" fill="#FFFFFF"></path>
            <path d="M183.447365,32.0422224 C182.964531,32.5669148 182.377786,32.8287103 181.686763,32.8287103 C180.941032,32.8287103 180.348045,32.5529622 179.905967,31.9999973 C179.463521,31.4481339 179.243216,30.771064 179.243216,29.9698892 C179.243216,29.3078734 179.416156,28.7207613 179.760565,28.2096543 C180.106077,27.6981801 180.596255,27.443361 181.231834,27.443361 C181.231834,26.6972623 180.692454,26.3249473 179.615899,26.3249473 C178.345107,26.3249473 177.434882,27.4150886 176.88155,29.597207 C176.550358,30.9502452 176.384395,32.5522278 176.384395,34.4024204 C176.384395,37.1088641 176.481329,39.1378708 176.674463,40.4920105 C176.757078,41.0442411 176.922673,41.3886508 177.171618,41.52781 C177.337213,41.6107914 177.737434,41.6522821 178.37338,41.6522821 L178.37338,43.3919552 L170.957555,43.3919552 L170.957555,41.6522821 L171.537691,41.6522821 C172.227245,41.6794531 172.614247,41.2924511 172.697228,40.4927449 C172.862824,38.9186675 172.945438,36.8055779 172.945438,34.1545776 C172.945438,31.6420021 172.862824,29.5560834 172.697228,27.899759 C172.642152,27.2920851 172.476556,26.9194029 172.199707,26.7813453 C172.034845,26.7262691 171.619938,26.6979966 170.956821,26.6979966 L170.956821,24.9583236 L176.135084,24.9583236 L176.135084,27.1118024 C176.603966,25.4279398 177.764237,24.5852742 179.614797,24.5852742 C182.652432,24.5852742 184.17144,26.4490523 184.17144,30.1769756 C184.172902,30.8955362 183.9302,31.5167956 183.447365,32.0422224" id="Fill-41" fill="#FFFFFF"></path>
            <path d="M195.681478,41.8178779 C194.355978,42.7842813 192.796221,43.2671159 191.00037,43.2671159 C189.730313,43.2671159 188.598314,42.7842813 187.604005,41.8178779 C186.747754,40.9612596 186.140447,39.8843366 185.780983,38.5860074 L187.06536,38.2133252 C187.341842,39.1800958 187.831286,39.9739272 188.535527,40.5959209 C189.240135,41.2171803 190.061504,41.52781 191.00037,41.52781 C191.857355,41.52781 192.554253,41.2583038 193.092163,40.7203931 C193.630441,40.1824824 193.899947,39.4708981 193.899947,38.5867417 C193.899947,37.4275717 193.25115,36.5015574 191.953555,35.8120036 C190.738574,35.2043297 189.523227,34.6102412 188.308246,34.0301054 C187.009917,33.0912401 186.361486,31.7249836 186.361486,29.9291328 C186.361486,28.3554226 186.941622,27.1118024 188.101527,26.2004751 C189.150912,25.3717621 190.489997,24.9575892 192.119885,24.9575892 C192.976503,24.9575892 193.970812,25.4272055 195.102811,26.3660708 L195.102811,24.6260306 L196.676521,24.6260306 L196.676521,29.9283984 L195.102811,29.9283984 C195.102811,28.9612606 194.840281,28.1821162 194.315589,27.5880278 C193.791264,26.9939393 193.059118,26.6968951 192.119885,26.6968951 C190.739309,26.6968951 190.049021,27.4708991 190.049021,29.0170712 C190.049021,30.0660889 190.518637,30.8948019 191.457502,31.5021086 C191.982195,31.8619397 192.90674,32.2342547 194.232975,32.6208895 C195.364974,32.9803534 196.193687,33.4705314 196.718746,34.0917908 C197.243072,34.7134173 197.615387,35.6177682 197.83716,36.8048436 C197.892236,37.0530536 197.919407,37.3155834 197.919407,37.5916987 C197.91904,39.3317389 197.172941,40.7405877 195.681478,41.8178779" id="Fill-43" fill="#FFFFFF"></path>
            <g id="‘" transform="translate(92.907011, 22.601778) scale(-1, -1) translate(-92.907011, -22.601778) translate(91.147180, 19.432709)" fill="#FFFFFF" fill-rule="nonzero">
                <path d="M3.5196605,0.989904517 C2.39226925,1.53985147 1.82857362,2.18603914 1.82857362,2.92846753 C2.3143601,2.98346222 2.71307164,3.1782351 3.02470825,3.51278617 C3.33634485,3.84733723 3.49216316,4.23459154 3.49216316,4.67454911 C3.49216316,5.14200402 3.3386363,5.53613267 3.03158258,5.85693506 C2.72452887,6.17773745 2.34185744,6.33813864 1.88356832,6.33813864 C1.37945028,6.33813864 0.939492713,6.12961709 0.563695628,5.71257398 C0.187898543,5.29553088 0,4.78912139 0,4.19334552 C0,2.40601792 0.994487408,1.00823608 2.98346222,0 L3.5196605,0.989904517 Z" id="Path"></path>
            </g>
        </g>
    </g>
</svg>