<?xml version="1.0" encoding="UTF-8"?>
<svg width="10px" height="11px" viewBox="0 0 10 11" version="1.1" xmlns="http://www.w3.org/2000/svg" xmlns:xlink="http://www.w3.org/1999/xlink">
    <title>U</title>
    <g id="Page-1" stroke="none" stroke-width="1" fill="none" fill-rule="evenodd">
        <g id="0.Elements" transform="translate(-872.000000, -197.000000)" fill="#017337" fill-rule="nonzero">
            <path d="M877,207.24 C877.63,207.24 878.195,207.155 878.695,206.985 C879.195,206.815 879.62,206.5725 879.97,206.2575 C880.32,205.9425 880.5875,205.5625 880.7725,205.1175 C880.9575,204.6725 881.05,204.18 881.05,203.64 L881.05,199.02 C881.05,198.76 881.02,198.55 880.96,198.39 C880.9,198.23 880.81,198.105 880.69,198.015 C880.57,197.925 880.4225,197.8625 880.2475,197.8275 C880.0725,197.7925 879.694597,197.753146 879.066951,197.8275 C878.64852,197.87707 878.434536,198.237903 878.425,198.91 L878.425,198.91 L878.425,203.595 L878.425,203.595 C878.425,204.075 878.295,204.45 878.035,204.72 C877.775,204.99 877.43,205.125 877,205.125 C876.58,205.125 876.2375,204.99 875.9725,204.72 C875.7075,204.45 875.575,204.075 875.575,203.595 L875.575,199.02 C875.575,198.76 875.545,198.55 875.485,198.39 C875.425,198.23 875.335,198.105 875.215,198.015 C875.095,197.925 874.9475,197.8625 874.7725,197.8275 C874.5975,197.7925 874.12091,197.687093 873.528992,197.8275 C873.13438,197.921105 872.941383,198.281938 872.95,198.91 L872.95,203.64 C872.95,204.18 873.0425,204.6725 873.2275,205.1175 C873.4125,205.5625 873.68,205.9425 874.03,206.2575 C874.38,206.5725 874.805,206.815 875.305,206.985 C875.805,207.155 876.37,207.24 877,207.24 Z" id="U"></path>
        </g>
    </g>
</svg>