<?xml version="1.0" encoding="UTF-8"?>
<svg width="10px" height="11px" viewBox="0 0 10 11" version="1.1" xmlns="http://www.w3.org/2000/svg" xmlns:xlink="http://www.w3.org/1999/xlink">
    <title>U</title>
    <g id="Page-1" stroke="none" stroke-width="1" fill="none" fill-rule="evenodd">
        <g id="0.Elements" transform="translate(-873.000000, -154.000000)" fill="#757575" fill-rule="nonzero">
            <path d="M878,164.24 C878.63,164.24 879.195,164.155 879.695,163.985 C880.195,163.815 880.62,163.5725 880.97,163.2575 C881.32,162.9425 881.5875,162.5625 881.7725,162.1175 C881.9575,161.6725 882.05,161.18 882.05,160.64 L882.05,156.02 C882.05,155.76 882.02,155.55 881.96,155.39 C881.9,155.23 881.81,155.105 881.69,155.015 C881.57,154.925 881.4225,154.8625 881.2475,154.8275 C881.0725,154.7925 880.694597,154.753146 880.066951,154.8275 C879.64852,154.87707 879.434536,155.237903 879.425,155.91 L879.425,155.91 L879.425,160.595 L879.425,160.595 C879.425,161.075 879.295,161.45 879.035,161.72 C878.775,161.99 878.43,162.125 878,162.125 C877.58,162.125 877.2375,161.99 876.9725,161.72 C876.7075,161.45 876.575,161.075 876.575,160.595 L876.575,156.02 C876.575,155.76 876.545,155.55 876.485,155.39 C876.425,155.23 876.335,155.105 876.215,155.015 C876.095,154.925 875.9475,154.8625 875.7725,154.8275 C875.5975,154.7925 875.12091,154.687093 874.528992,154.8275 C874.13438,154.921105 873.941383,155.281938 873.95,155.91 L873.95,160.64 C873.95,161.18 874.0425,161.6725 874.2275,162.1175 C874.4125,162.5625 874.68,162.9425 875.03,163.2575 C875.38,163.5725 875.805,163.815 876.305,163.985 C876.805,164.155 877.37,164.24 878,164.24 Z" id="U"></path>
        </g>
    </g>
</svg>
