<?xml version="1.0" encoding="UTF-8"?>
<svg width="16px" height="21px" viewBox="0 0 16 21" version="1.1" xmlns="http://www.w3.org/2000/svg" xmlns:xlink="http://www.w3.org/1999/xlink">
    <title>Combined Shape</title>
    <defs>
        <linearGradient x1="37.0939448%" y1="0%" x2="63.0635106%" y2="78.5122418%" id="linearGradient-1">
            <stop stop-color="#FFFFFF" offset="0%"></stop>
            <stop stop-color="#F1F1F1" offset="100%"></stop>
        </linearGradient>
    </defs>
    <g id="Page-1" stroke="none" stroke-width="1" fill="none" fill-rule="evenodd">
        <g id="0.Elements" transform="translate(-125.000000, -425.000000)" fill="url(#linearGradient-1)" fill-rule="nonzero">
            <path d="M135.563044,436.376799 C138.281612,436.376799 140.472446,438.511201 140.472446,441.178097 C140.472446,441.771303 140.208257,442.334785 139.747538,442.719926 C137.859554,444.302229 135.41033,445.257809 132.736223,445.257809 C130.062761,445.257809 127.614181,444.302229 125.725553,442.720558 C125.265478,442.335417 125,441.77067 125,441.178097 C125,438.511201 127.199211,436.376799 129.917135,436.376799 L135.563044,436.376799 Z M132.735558,425 C135.501042,425 137.742015,427.241637 137.742015,430.005791 C137.742015,432.77061 135.501042,435.011583 132.735558,435.011583 C129.971404,435.011583 127.730432,432.77061 127.730432,430.005791 C127.730432,427.241637 129.971404,425 132.735558,425 Z" id="Combined-Shape"></path>
        </g>
    </g>
</svg>
