<?xml version="1.0" encoding="UTF-8"?>
<svg width="16px" height="21px" viewBox="0 0 16 21" version="1.1" xmlns="http://www.w3.org/2000/svg" xmlns:xlink="http://www.w3.org/1999/xlink">
    <title>Combined Shape</title>
    <defs>
        <linearGradient x1="44.2955394%" y1="-8.33299977%" x2="48.0481668%" y2="116.82251%" id="linearGradient-1">
            <stop stop-color="#D34047" offset="0%"></stop>
            <stop stop-color="#A71E22" offset="100%"></stop>
        </linearGradient>
    </defs>
    <g id="Page-1" stroke="none" stroke-width="1" fill="none" fill-rule="evenodd">
        <g id="0.Elements" transform="translate(-125.000000, -490.000000)" fill="url(#linearGradient-1)">
            <path d="M135.563044,501.376799 C138.281612,501.376799 140.472446,503.511201 140.472446,506.178097 C140.472446,506.771303 140.208257,507.334785 139.747538,507.719926 C137.859554,509.302229 135.41033,510.257809 132.736223,510.257809 C130.062761,510.257809 127.614181,509.302229 125.725553,507.720558 C125.265478,507.335417 125,506.77067 125,506.178097 C125,503.511201 127.199211,501.376799 129.917135,501.376799 L135.563044,501.376799 Z M132.735558,490 C135.501042,490 137.742015,492.241637 137.742015,495.005791 C137.742015,497.77061 135.501042,500.011583 132.735558,500.011583 C129.971404,500.011583 127.730432,497.77061 127.730432,495.005791 C127.730432,492.241637 129.971404,490 132.735558,490 Z" id="Combined-Shape"></path>
        </g>
    </g>
</svg>
