<?xml version="1.0" encoding="UTF-8"?>
<svg width="20px" height="22px" viewBox="0 0 20 22" version="1.1" xmlns="http://www.w3.org/2000/svg" xmlns:xlink="http://www.w3.org/1999/xlink">
    <title>Group 21</title>
    <g id="Page-1" stroke="none" stroke-width="1" fill="none" fill-rule="evenodd">
        <g id="0.Elements" transform="translate(-908.000000, -191.000000)">
            <g id="Group-20" transform="translate(908.000000, 190.999969)">
                <path d="M2.39103775,0.0213893904 C2.24885575,-0.0386675283 2.0872853,0.0322658402 2.03479461,0.177600431 C1.64560686,1.25673341 0.624323984,4.76336389 2.4714289,8.46356365 C4.26336342,12.0535802 7.54016978,13.3916988 8.9394487,13.8187177 C9.16517444,13.8876019 9.36284209,13.6514726 9.25659967,13.440564 C9.06980847,13.0695037 8.89357845,12.6926111 8.72633333,12.3124082 C8.59849564,12.020478 8.47869706,11.7255528 8.35921374,11.4320463 L8.01495046,10.5537336 C7.79032813,9.97113417 7.55293779,9.40650456 7.28890803,8.84786488 C7.02456301,8.29048623 6.73972613,7.74130433 6.43329397,7.20142258 C6.27913212,6.92888081 6.11961086,6.65886112 5.95583359,6.39089062 C5.78117987,6.10510796 6.18313563,5.81790663 6.39246788,6.07925669 C6.59502205,6.33209474 6.78985237,6.59155324 6.97743172,6.85684404 C7.34723102,7.38064756 7.681406,7.93140576 7.9843703,8.49950322 C8.13490667,8.78386721 8.27567,9.07390588 8.40933999,9.36725476 C8.54127606,9.66123417 8.66202041,9.9585238 8.77992743,10.2539219 L9.44764688,12.0160644 C9.52110232,12.2078997 9.59597643,12.3991046 9.67179632,12.5898365 C9.77851163,12.8573341 10.1747927,12.7964891 10.1932354,12.5091301 C10.3040491,10.7848187 10.2011169,7.9947729 8.83352153,5.51431182 C6.9741215,2.14182422 3.38032179,0.439108116 2.39103775,0.0213893904" id="Fill-1" fill="#8EBC26"></path>
                <path d="M12.532744,7.11080126 C11.132204,9.42984952 11.0948458,12.14045 11.1851676,13.4855043 C11.1884778,13.5346847 11.2248903,13.5750379 11.2732826,13.5835499 C11.3216749,13.5917467 11.369752,13.5658954 11.3892981,13.5208133 C11.3963914,13.5044198 11.4036424,13.4878687 11.4107357,13.4713176 L12.0292747,12.0145038 C12.1378816,11.7706507 12.2493258,11.5252212 12.3697549,11.2827867 C12.491445,11.041298 12.6192827,10.802489 12.7550019,10.5687242 C13.0281742,10.1021402 13.3265672,9.651004 13.654437,9.22366986 C13.6623185,9.21358156 13.6702,9.203178 13.6780814,9.1930897 C13.8861527,8.9235429 14.2956746,9.21500023 14.1161344,9.50440837 C14.1106174,9.51323564 14.1051003,9.52222053 14.0995833,9.53104779 C13.8245194,9.97382964 13.5674254,10.4251235 13.3270401,10.8841412 C13.08697,11.3441047 12.8691258,11.8100581 12.6613698,12.2914592 L12.3432731,13.017344 C12.2334052,13.2596209 12.1229067,13.5031588 12.0061031,13.7437017 C11.9859265,13.7850007 11.9655923,13.8262997 11.9452581,13.8672834 C11.9252391,13.9076366 11.9326477,13.9560289 11.9638584,13.9885007 C11.9949114,14.0209724 12.0431461,14.0302725 12.0839722,14.0119875 C13.3210502,13.4620174 15.6886484,12.1683504 17.083356,9.85907521 C18.695435,7.19024663 18.5015505,4.0006095 18.3856927,2.97302143 C18.365989,2.79805246 18.1853453,2.6889727 18.0214104,2.75297036 C17.05782,3.12860195 14.144823,4.44181505 12.532744,7.11080126" id="Fill-4" fill="#017337"></path>
                <path d="M4.14235109,13.988012 C4.14235109,14.1859949 4.1174456,14.4074647 4.06794987,14.6522636 C4.01845414,14.8970625 3.95650566,15.1461175 3.8824197,15.3989555 C3.80801848,15.6521088 3.72825785,15.8981688 3.64298018,16.1374507 C3.5577025,16.3767326 3.48219787,16.5926853 3.41615103,16.7851512 C3.37201471,16.9063684 3.32409528,17.0562743 3.27191984,17.2348687 C3.21942915,17.4136208 3.15905697,17.602146 3.09017279,17.8002865 C3.02144624,17.9981118 2.94578398,18.1962523 2.86334364,18.3942352 C2.78074567,18.5922182 2.68995096,18.7697092 2.59095951,18.9263931 C2.49196805,19.0832347 2.38336118,19.2110724 2.2651389,19.3102215 C2.14660136,19.4092129 2.01876367,19.4587087 1.88131056,19.4587087 C1.76592562,19.4587087 1.65448141,19.4065332 1.54713558,19.3020247 C1.43978975,19.1975162 1.33796096,19.0640039 1.24196447,18.9018029 C1.14549509,18.7396019 1.054858,18.5578549 0.969580332,18.3571923 C0.884145031,18.1562144 0.807221733,17.9598078 0.738495181,17.7671843 C0.669768628,17.5745608 0.612076155,17.3958087 0.565260132,17.2306127 C0.518444109,17.0657321 0.484080833,16.939313 0.462012673,16.851198 C0.351987137,16.4219723 0.247636271,15.9889635 0.148487185,15.5515411 C0.0494957282,15.1144339 -4.54747351e-13,14.6755928 -4.54747351e-13,14.2354907 C-4.54747351e-13,14.1256228 0.00535941006,14.0113412 0.0165511193,13.8929613 C0.0275851989,13.774739 0.0548551383,13.6661322 0.0989914565,13.5671407 C0.143127775,13.4681492 0.20491862,13.3869699 0.284679252,13.3237604 C0.364282255,13.2605509 0.475726458,13.2288673 0.618854233,13.2288673 C0.739756218,13.2288673 0.851200422,13.2961752 0.953186843,13.4311063 C1.054858,13.565722 1.14691375,13.7405334 1.22951172,13.9550674 C1.31195206,14.1694438 1.38745669,14.4088833 1.4564985,14.6727555 C1.52506742,14.9369429 1.58985323,15.1967166 1.65022541,15.4525496 C1.71075522,15.7083826 1.76844769,15.9476645 1.82361809,16.1705529 C1.87863086,16.3932837 1.933486,16.5707748 1.98865639,16.7027108 C2.021601,16.5926853 2.06983569,16.431903 2.13304521,16.2200487 C2.19609709,16.0081944 2.27049831,15.7758482 2.35577598,15.5226949 C2.44105365,15.2698568 2.53452807,15.0097678 2.63635686,14.7429007 C2.73818565,14.4763489 2.84521622,14.2342296 2.9580791,14.0170159 C3.07078434,13.7996445 3.18774558,13.6221535 3.3088052,13.4847004 C3.42970718,13.3472473 3.55360413,13.2783631 3.68018079,13.2783631 C3.7736552,13.2783631 3.8505785,13.3004312 3.91126594,13.3442523 C3.97179575,13.3883886 4.01845414,13.4460811 4.05139875,13.517645 C4.08450099,13.5892089 4.10783018,13.6661322 4.12154397,13.7485725 C4.13525775,13.8311705 4.14235109,13.9109311 4.14235109,13.988012" id="Fill-6" fill="#017337"></path>
                <path d="M6.38657253,15.96007 C6.38657253,15.8886637 6.3673417,15.8142625 6.32888006,15.7373392 C6.29041841,15.6602583 6.2298886,15.6217966 6.147133,15.6217966 C6.02638865,15.6217966 5.92440223,15.6534802 5.84211952,15.7165321 C5.75936392,15.7798992 5.69063737,15.8598175 5.6356246,15.9559716 C5.58061183,16.0522834 5.53789418,16.1553732 5.50778691,16.2653987 C5.477522,16.3755819 5.45955222,16.4770954 5.45419281,16.5707275 C5.5311161,16.5541764 5.62317185,16.5322658 5.73067531,16.5046806 C5.83802115,16.4770954 5.93953468,16.4400525 6.03584643,16.3932364 C6.13215818,16.346578 6.21459852,16.2873093 6.2834827,16.215903 C6.35220925,16.1444968 6.38657253,16.0590615 6.38657253,15.96007 M7.72327245,17.981671 C7.72327245,18.1687775 7.66400368,18.3517856 7.5457814,18.53038 C7.42755912,18.7091321 7.27907193,18.8686534 7.10031985,19.0091014 C6.92156776,19.1490766 6.73036292,19.2619395 6.5270206,19.3472172 C6.32336302,19.4324948 6.13625655,19.4752125 5.96570121,19.4752125 C5.67408625,19.4752125 5.41415486,19.4023876 5.18606467,19.2564224 C4.95781686,19.1107726 4.76645439,18.9252424 4.6126078,18.6995167 C4.45860357,18.4741062 4.3414847,18.2250513 4.2618817,17.9528248 C4.18212107,17.6805983 4.14224075,17.4151498 4.14224075,17.1566371 C4.14224075,16.8815733 4.1807024,16.5872786 4.25778333,16.2735955 C4.33470662,15.96007 4.45166787,15.6712924 4.60850942,15.4072626 C4.76519335,15.1430752 4.9633339,14.9231818 5.20245816,14.7471094 C5.44189769,14.571037 5.72657694,14.4830796 6.05649592,14.4830796 C6.24360238,14.4830796 6.42235447,14.5147632 6.59306745,14.5778151 C6.76346516,14.6413399 6.91179471,14.7305583 7.038529,14.8461009 C7.16494803,14.9616434 7.26661919,15.0992542 7.34370011,15.2586178 C7.42078104,15.4181391 7.45940032,15.5968912 7.45940032,15.7950317 C7.45940032,16.053702 7.40422992,16.2956636 7.29436202,16.5212318 C7.18433648,16.7466422 7.038529,16.9419455 6.85678195,17.1069838 C6.67535015,17.2720221 6.46633316,17.4053768 6.2298886,17.5072056 C5.99328641,17.6090344 5.75132481,17.6653082 5.50353091,17.6764999 C5.52559906,17.8360212 5.59038487,17.9515637 5.69757308,18.02297 C5.80491891,18.0943762 5.9327566,18.1303158 6.08124378,18.1303158 C6.19142695,18.1303158 6.29845752,18.1027306 6.40296602,18.0475602 C6.50763214,17.9928627 6.60946094,17.9309142 6.70845239,17.8618724 C6.80744385,17.7933035 6.90501664,17.731355 7.00132839,17.6764999 C7.09748251,17.6214871 7.19521293,17.5937443 7.29436202,17.5937443 C7.40422992,17.5937443 7.50322138,17.6296839 7.59133638,17.7010901 C7.67913613,17.772654 7.72327245,17.8661284 7.72327245,17.981671" id="Fill-8" fill="#017337"></path>
                <path d="M10.5371361,17.172936 C10.5371361,17.0906533 10.524841,16.9833075 10.5000931,16.8512138 C10.4753453,16.7191201 10.4395633,16.5927011 10.3927473,16.4716415 C10.3459313,16.3505818 10.2868202,16.2460733 10.2154139,16.1582736 C10.14385,16.0701586 10.05873,16.0261799 9.95958088,16.0261799 C9.83300422,16.0261799 9.72156002,16.0701586 9.6254059,16.1582736 C9.52893652,16.2460733 9.44791485,16.3520005 9.38202563,16.4757398 C9.31597878,16.5994791 9.26506438,16.7315728 9.22928244,16.8718633 C9.1935005,17.0119961 9.17568834,17.1317947 9.17568834,17.2306285 C9.17568834,17.30235 9.18104775,17.3986618 9.19223946,17.5195638 C9.20311591,17.6406234 9.22644511,17.7588456 9.26238468,17.8743882 C9.29816662,17.9899308 9.34608605,18.0890799 9.40677349,18.1713626 C9.46714567,18.2539606 9.54706393,18.2952595 9.64605539,18.2952595 C9.79454257,18.2952595 9.9236413,18.2596352 10.0338245,18.1879137 C10.14385,18.1165075 10.2360634,18.0257127 10.310307,17.9156872 C10.3843929,17.8056617 10.4408244,17.6846021 10.4794437,17.552666 C10.5179053,17.4205723 10.5371361,17.2941533 10.5371361,17.172936 L10.5371361,17.172936 Z M11.7913957,16.6368374 C11.7913957,16.9172606 11.7872973,17.1976839 11.778943,17.4782648 C11.7707462,17.7588456 11.7554561,18.0394265 11.7337032,18.3198498 C11.7169945,18.5621266 11.6952416,18.8206394 11.6676564,19.0955456 C11.6400712,19.3706094 11.5960925,19.6444122 11.5355627,19.9166387 C11.4750329,20.1888652 11.3952723,20.4500576 11.2962808,20.7005313 C11.1971317,20.9508472 11.0666143,21.1721593 10.9042557,21.3647828 C10.7420547,21.5572487 10.5454905,21.7112529 10.3144053,21.8267955 C10.0833202,21.9423381 9.80825636,22.0000306 9.48937146,22.0000306 C9.34072664,22.0000306 9.17426967,21.9767014 8.99000054,21.930043 C8.80573142,21.883227 8.63249637,21.8157614 8.4702954,21.7278041 C8.30777917,21.6398467 8.17032606,21.5310822 8.05762082,21.4018258 C7.94475795,21.2725695 7.88832652,21.1228212 7.88832652,20.9522659 C7.88832652,20.8256892 7.93372387,20.7088856 8.02467621,20.6015398 C8.1153133,20.494194 8.23211691,20.4404422 8.37524468,20.4404422 C8.46320206,20.4404422 8.5472187,20.4557323 8.62697933,20.4859972 C8.70673996,20.5161045 8.78650059,20.5506254 8.86610359,20.5890871 C8.94586423,20.6275487 9.02310278,20.6620696 9.09718875,20.6923345 C9.17158997,20.7224418 9.2470946,20.7375742 9.32417552,20.7375742 C9.52767548,20.7375742 9.69823082,20.6866598 9.83584156,20.5849887 C9.97329466,20.4831599 10.0833202,20.3540612 10.1659182,20.1972196 C10.2483585,20.040378 10.310307,19.8698227 10.3514483,19.6855536 C10.3927473,19.5012844 10.4217512,19.3266307 10.4381447,19.1615924 C10.3281191,19.2883267 10.2001238,19.3748654 10.054474,19.4216814 C9.90866648,19.4683398 9.75592329,19.491669 9.59655966,19.491669 C9.3049447,19.491669 9.05730843,19.4409123 8.85380848,19.3389258 C8.65030852,19.2374123 8.48527022,19.0969642 8.35885119,18.9180545 C8.23211691,18.7394601 8.13864249,18.5318617 8.07827031,18.2952595 C8.01774051,18.058815 7.9874756,17.802982 7.9874756,17.5277605 C7.9874756,17.3573628 8.00528776,17.1647393 8.0410697,16.9502052 C8.07685165,16.7358288 8.13044575,16.5184575 8.20216727,16.2982488 C8.27357352,16.078513 8.36294957,15.8638213 8.4702954,15.6546467 C8.57732597,15.4457873 8.70248396,15.2615182 8.84576936,15.1018393 C8.98858188,14.9424757 9.14952181,14.8130617 9.3282739,14.7140702 C9.50702599,14.6149211 9.70374786,14.565583 9.91828189,14.565583 C10.1272989,14.565583 10.3129867,14.6262705 10.4753453,14.7470148 C10.6375462,14.8682321 10.7322817,15.0387874 10.7600245,15.2585232 C10.8205543,15.1431383 10.900315,15.0290144 10.9993064,14.9163091 C11.0982979,14.8036039 11.2191999,14.7470148 11.36217,14.7470148 C11.4394086,14.7470148 11.5038791,14.7854765 11.5562122,14.862715 C11.6083876,14.9396383 11.6498442,15.0400484 11.6799515,15.1637878 C11.7102164,15.2875271 11.7337032,15.4224581 11.7500967,15.568108 C11.7666478,15.7139154 11.7775243,15.8568856 11.7830413,15.997176 C11.7884007,16.1374665 11.7913957,16.2653042 11.7913957,16.3810044 L11.7913957,16.6368374 Z" id="Fill-10" fill="#017337"></path>
                <path d="M14.5639289,18.0229542 L14.539181,17.4617925 C14.5278317,17.4617925 14.5169552,17.4605314 14.5060788,17.4576941 C14.4950447,17.4548568 14.4840106,17.4535957 14.4731342,17.4535957 C14.4015703,17.4535957 14.3121942,17.4714079 14.205006,17.5073474 C14.0976602,17.5431294 13.9944127,17.5926251 13.8955789,17.655677 C13.7965875,17.7190441 13.7125708,17.7891894 13.6436866,17.8661127 C13.5751177,17.9431936 13.5405968,18.0229542 13.5405968,18.1053946 C13.5405968,18.1826331 13.568182,18.2348086 13.6231948,18.2622361 C13.6780499,18.2898213 13.7414171,18.3033775 13.8128233,18.3033775 C13.9338829,18.3033775 14.0631393,18.2718515 14.20075,18.208642 C14.3382031,18.1452749 14.4592628,18.083484 14.5639289,18.0229542 M15.8840777,18.286984 C15.8840777,18.3859754 15.8799793,18.5152318 15.8717826,18.6747531 C15.8634282,18.8342743 15.840099,18.9898549 15.8016373,19.1410217 C15.7630181,19.2925039 15.7026459,19.4230213 15.6198903,19.5328892 C15.5376076,19.6429147 15.4219074,19.6979275 15.2734202,19.6979275 C15.0699202,19.6979275 14.9130787,19.6318807 14.8032108,19.499787 C14.6930276,19.3678509 14.6406945,19.2028126 14.6462116,19.0048297 C14.4701392,19.1588339 14.2710529,19.2800511 14.0481645,19.3678509 C13.8252761,19.4558083 13.5984469,19.499787 13.3673618,19.499787 C13.2076829,19.499787 13.056516,19.4613253 12.9135458,19.384402 C12.7704181,19.3073211 12.643999,19.2084873 12.5339735,19.08727 C12.423948,18.966368 12.3359906,18.8303336 12.2699437,18.6788514 C12.2038969,18.5276845 12.1709523,18.3777787 12.1709523,18.2292915 C12.1709523,17.9652618 12.251974,17.7341766 12.4143326,17.5360361 C12.5765335,17.3380531 12.7759351,17.1689165 13.0125373,17.028626 C13.2489819,16.8883356 13.5007165,16.7768914 13.767426,16.694451 C14.0344507,16.6120107 14.2721563,16.5569979 14.4813309,16.5292551 C14.4813309,16.5019852 14.4825919,16.4770797 14.4854293,16.4551692 C14.4882666,16.4332586 14.4895277,16.4085108 14.4895277,16.3809256 C14.4895277,16.2105278 14.4427116,16.0729171 14.3493948,15.968251 C14.2557628,15.8639001 14.1236691,15.8115671 13.9532714,15.8115671 C13.8156607,15.8115671 13.6974384,15.8348963 13.5984469,15.8817123 C13.4994555,15.9285283 13.4058234,15.9807037 13.317866,16.0383962 C13.229751,16.0960887 13.1417937,16.1485794 13.0538363,16.1950801 C12.9657213,16.2418962 12.8667298,16.265383 12.7567043,16.265383 C12.6358023,16.265383 12.5325548,16.2269213 12.4472772,16.1498404 C12.3619995,16.0729171 12.3194395,15.9739257 12.3194395,15.8527084 C12.3194395,15.6712766 12.3730336,15.5062383 12.4802218,15.3577511 C12.5875676,15.2091063 12.7221834,15.084106 12.8846996,14.9822772 C13.0469006,14.8804484 13.222973,14.8006877 13.4126015,14.7428376 C13.6025453,14.6851452 13.7770414,14.6564566 13.9367203,14.6564566 C14.0853651,14.6564566 14.2336946,14.6742687 14.3823395,14.709893 C14.5308266,14.7458326 14.6712747,14.8006877 14.8032108,14.8749313 C14.9349892,14.9493326 15.0547878,15.0399696 15.161976,15.1473155 C15.2693218,15.2545037 15.3558605,15.3796617 15.4219074,15.5227894 C15.5208988,15.7262894 15.6006595,15.9422421 15.6613469,16.1704899 C15.7218767,16.3987377 15.7686927,16.6326602 15.8016373,16.8717845 C15.834582,17.1110664 15.8564925,17.3503483 15.8676842,17.5896302 C15.8785606,17.8290697 15.8840777,18.0614159 15.8840777,18.286984" id="Fill-12" fill="#017337"></path>
                <path d="M18.7226419,19.6814552 C18.6290099,19.6814552 18.5547663,19.6387375 18.4999112,19.5534599 C18.4447408,19.4681822 18.4035994,19.3706094 18.3761718,19.2605839 C18.348429,19.150716 18.3307745,19.0392718 18.3224201,18.9264089 C18.3142234,18.8137037 18.310125,18.7270073 18.310125,18.6666351 C18.310125,18.5015968 18.3195828,18.3364009 18.3388136,18.1713626 C18.3580444,18.0064819 18.3802702,17.8414436 18.4048604,17.6764053 C18.4297659,17.5112094 18.4516765,17.3463287 18.4709073,17.1812904 C18.4901381,17.0162521 18.4999112,16.8512138 18.4999112,16.6861755 C18.4999112,16.6201286 18.4969162,16.5487224 18.4915568,16.4716415 C18.4860397,16.3945605 18.473587,16.3218932 18.4543562,16.253009 C18.4351253,16.1841249 18.4035994,16.1278511 18.3594631,16.0838724 C18.3154844,16.0398937 18.2577919,16.0178255 18.1863857,16.0178255 C18.1367323,16.0178255 18.0817195,16.0577058 18.0213474,16.1374665 C17.9606599,16.2172271 17.9043861,16.3080218 17.8522107,16.409693 C17.7998776,16.5116794 17.7557413,16.6133506 17.720117,16.7150217 C17.6841774,16.8168505 17.6665229,16.8925128 17.6665229,16.9418509 C17.6665229,17.0630681 17.6677839,17.1853888 17.6706213,17.3091281 C17.673301,17.4328674 17.6747196,17.5580254 17.6747196,17.6846021 L17.6747196,18.1631658 C17.669045,18.2621573 17.6608482,18.3641437 17.6498141,18.4684946 C17.6389377,18.5730031 17.6223866,18.6746743 17.600476,18.7738233 C17.5837673,18.8728148 17.5591771,18.9677079 17.5260748,19.0585026 C17.4931302,19.1491397 17.4505702,19.2290579 17.3983948,19.2977845 C17.3460617,19.3666687 17.2841132,19.4229425 17.212707,19.4669212 C17.1409854,19.5108998 17.0558654,19.532968 16.9568739,19.532968 C16.8466908,19.532968 16.7558961,19.4971861 16.6844898,19.4257798 C16.6129259,19.3543736 16.5552334,19.2620025 16.5112548,19.1491397 C16.4671184,19.0365921 16.4354349,18.9098578 16.416204,18.769725 C16.3969732,18.6292769 16.3832594,18.4918238 16.3749051,18.357208 C16.3668659,18.222277 16.3640286,18.0985377 16.3668659,17.9856748 C16.369388,17.8729696 16.3709643,17.7835935 16.3709643,17.7175467 L16.3709643,17.3297776 C16.3709643,17.1207606 16.3668659,16.9145809 16.3585116,16.7109234 C16.3503148,16.5074234 16.3462165,16.3037658 16.3462165,16.1002659 C16.3462165,15.990398 16.3476351,15.8499499 16.3503148,15.6793945 C16.3531522,15.5089968 16.373644,15.3426975 16.4122633,15.1803389 C16.4505673,15.0181379 16.5139345,14.8791085 16.6018918,14.7637236 C16.6898492,14.6480234 16.8192632,14.5903309 16.9898186,14.5903309 C17.0667419,14.5903309 17.1354684,14.6149211 17.1959982,14.6645745 C17.256528,14.7140702 17.3101221,14.7746 17.3569381,14.8460063 C17.4037542,14.9175702 17.4422158,14.9946511 17.4724807,15.0770914 C17.5027456,15.1595318 17.5260748,15.2314109 17.5426259,15.2916255 C17.5974811,15.2147022 17.6622669,15.1403009 17.7365105,15.0688947 C17.8107541,14.9974884 17.8946131,14.9342789 17.9882451,14.8791085 C18.0817195,14.8242534 18.1863857,14.7801171 18.3017706,14.7470148 C18.4173132,14.7140702 18.5492493,14.6976767 18.6978941,14.6976767 C18.9783173,14.6976767 19.1971074,14.7651422 19.3539489,14.899758 C19.5106328,15.034689 19.6260178,15.2022494 19.700419,15.4030697 C19.7746626,15.6038899 19.82006,15.8198426 19.8366111,16.0509278 C19.8530046,16.2820129 19.8613589,16.4910299 19.8613589,16.6779787 C19.8613589,16.7714532 19.8530046,16.9104826 19.8366111,17.0947517 C19.82006,17.2790208 19.7938934,17.4825208 19.7581115,17.7052515 C19.7223295,17.9279823 19.6742525,18.1562301 19.6137227,18.3901526 C19.5533505,18.6239175 19.4817866,18.8371905 19.3991886,19.0294987 C19.3167483,19.2222799 19.2188603,19.3789638 19.1063126,19.4998658 C18.9934498,19.6207678 18.8654544,19.6814552 18.7226419,19.6814552" id="Fill-14" fill="#017337"></path>
                <path d="M11.7681611,0.799150131 C11.6854055,1.10637043 11.3692003,1.28811748 11.0621376,1.20536189 C10.7549173,1.12244866 10.5731703,0.806243468 10.6559259,0.499180798 C10.7388391,0.192118127 11.0550443,0.0103710738 11.362107,0.0931266704 C11.6691696,0.175882267 11.8509167,0.492087461 11.7681611,0.799150131" id="Fill-17" fill="#017337"></path>
                <path d="M14.0531613,2.18933381 C13.9704057,2.49639648 13.6542005,2.67830117 13.3471379,2.59538794 C13.0399176,2.51263234 12.8581705,2.19642715 12.9409261,1.88936448 C13.0238393,1.58230181 13.3400445,1.40055476 13.6471072,1.48331035 C13.9541699,1.56606595 14.1359169,1.88227114 14.0531613,2.18933381" id="Fill-19" fill="#017337"></path>
                <path d="M9.09398886,0.851782691 C9.01123327,1.15884536 8.69502807,1.34075004 8.3879654,1.25783682 C8.0807451,1.17508122 7.89899805,0.858876028 7.98175364,0.551813357 C8.06466687,0.244593057 8.38087206,0.0628460035 8.68793474,0.14575923 C8.99499741,0.228514826 9.17674446,0.54472002 9.09398886,0.851782691" id="Fill-21" fill="#017337"></path>
            </g>
        </g>
    </g>
</svg>