<?xml version="1.0" encoding="UTF-8"?>
<svg width="15px" height="16px" viewBox="0 0 15 16" version="1.1" xmlns="http://www.w3.org/2000/svg" xmlns:xlink="http://www.w3.org/1999/xlink">
    <title>Combined Shape</title>
    <g id="Page-1" stroke="none" stroke-width="1" fill="none" fill-rule="evenodd">
        <g id="0.Elements" transform="translate(-907.000000, -426.000000)" fill="#078A1B" fill-rule="nonzero">
            <path d="M914.352492,426 L914.727079,426.316507 C914.733442,426.321868 915.427055,426.902748 916.571313,427.521911 C917.616048,428.087219 919.263681,428.802404 921.180227,428.99923 L921.180227,428.99923 L921.679173,429.050467 L921.700477,429.551583 C921.700979,429.563547 921.702839,429.611911 921.703736,429.692891 L921.704068,429.838348 C921.700179,430.51424 921.61978,432.296152 920.961198,434.366539 C920.475417,435.893706 919.773876,437.262101 918.876051,438.43374 C917.748685,439.904995 916.310696,441.064647 914.60207,441.8806 L914.60207,441.8806 L914.352105,442 L914.10214,441.8806 C912.393514,441.064647 910.955542,439.904942 909.828159,438.43374 C908.930351,437.262066 908.22881,435.893724 907.743029,434.366522 C907.111875,432.382387 907.011745,430.663199 907.001078,429.928509 L907.001307,429.638308 C907.002233,429.589983 907.003374,429.560537 907.003751,429.551566 L907.003751,429.551566 L907.025054,429.050449 L907.524018,428.999212 C909.440564,428.802387 911.088179,428.087201 912.132915,427.521894 C913.277154,426.902748 913.970768,426.32185 913.977658,426.31605 L913.977658,426.31605 L914.352492,426 Z M914.352087,427.49254 C914.011758,427.742817 913.451133,428.125554 912.714386,428.526271 C911.988289,428.921206 911.237779,429.25369 910.483717,429.514461 C909.71236,429.781207 908.935202,429.97327 908.166464,430.087414 C908.191265,430.832568 908.313814,432.350085 908.860253,434.051667 C909.307346,435.443808 909.94749,436.686898 910.762949,437.746344 C911.720255,438.990066 912.926683,439.986288 914.352105,440.710613 C915.784452,439.982755 916.995608,438.980416 917.9552,437.728187 C918.771238,436.663274 919.410644,435.413945 919.855645,434.014932 C920.394351,432.321488 920.514491,430.825344 920.538378,430.087502 C919.769429,429.973358 918.992043,429.781295 918.220475,429.514461 C917.466413,429.25369 916.715903,428.921224 915.989807,428.526271 C915.253059,428.125554 914.692417,427.7428 914.352087,427.49254 Z M917.502663,431.352113 L918.323944,432.172225 L913.67255,436.816901 L911.112676,434.260742 L911.523325,433.850686 L911.933956,433.44063 L912.14207,433.648444 L913.67255,435.176713 L916.692382,432.161224 L917.502663,431.352113 Z" id="Combined-Shape"></path>
        </g>
    </g>
</svg>