<?xml version="1.0" encoding="UTF-8"?>
<svg width="30px" height="30px" viewBox="0 0 30 30" version="1.1" xmlns="http://www.w3.org/2000/svg" xmlns:xlink="http://www.w3.org/1999/xlink">
    <title>Shape</title>
    <defs>
        <linearGradient x1="27.8761605%" y1="0%" x2="72.3937529%" y2="78.5122418%" id="linearGradient-1">
            <stop stop-color="#FFFFFF" offset="0%"></stop>
            <stop stop-color="#F1F1F1" offset="100%"></stop>
        </linearGradient>
    </defs>
    <g id="Page-1" stroke="none" stroke-width="1" fill="none" fill-rule="evenodd">
        <g id="0.Elements" transform="translate(-592.000000, -420.000000)" fill="url(#linearGradient-1)" fill-rule="nonzero">
            <path d="M607,420 C598.715732,420 592,426.715732 592,435 C592,443.284268 598.715732,450 607,450 C615.284268,450 622,443.284268 622,435 C621.991211,426.719436 615.280627,420.008852 607,420 Z M613.317085,435.477937 C613.213248,435.686238 613.044435,435.855114 612.836071,435.958951 L612.836071,435.964287 L604.264652,440.250028 C603.735298,440.514517 603.091812,440.299875 602.827261,439.770521 C602.752052,439.62004 602.713317,439.453926 602.714242,439.285741 L602.714242,430.714322 C602.714008,430.122566 603.193452,429.642682 603.785208,429.642368 C603.951635,429.642368 604.115802,429.680978 604.264652,429.755371 L612.836071,434.041112 C613.365676,434.305035 613.581071,434.948333 613.317085,435.477937 Z" id="Shape"></path>
        </g>
    </g>
</svg>