<?xml version="1.0" encoding="UTF-8"?>
<svg width="24px" height="18px" viewBox="0 0 24 18" version="1.1" xmlns="http://www.w3.org/2000/svg" xmlns:xlink="http://www.w3.org/1999/xlink">
    <title>Shape</title>
    <defs>
        <linearGradient x1="37.2700895%" y1="36.0973524%" x2="73.6672293%" y2="70.2687838%" id="linearGradient-1">
            <stop stop-color="#FFFFFF" offset="0%"></stop>
            <stop stop-color="#F1F1F1" offset="100%"></stop>
        </linearGradient>
    </defs>
    <g id="Page-1" stroke="none" stroke-width="1" fill="none" fill-rule="evenodd">
        <g id="0.Elements" transform="translate(-1048.000000, -491.000000)" fill="url(#linearGradient-1)">
            <path d="M1071.46901,493.571907 L1071.49901,493.779436 C1071.20901,492.689909 1070.42602,491.849204 1069.43103,491.543205 L1069.41003,491.537911 C1067.53905,491.000015 1060.01015,491.000015 1060.01015,491.000015 C1060.01015,491.000015 1052.50024,490.989441 1050.61026,491.537911 C1049.59627,491.849204 1048.81228,492.689909 1048.52729,493.757201 L1048.52229,493.779436 C1047.8233,497.645195 1047.8183,502.290246 1048.55329,506.429181 L1048.52229,506.219534 C1048.81228,507.309062 1049.59527,508.149766 1050.59026,508.455766 L1050.61126,508.46106 C1052.48024,509 1060.01115,509 1060.01115,509 C1060.01115,509 1067.52005,509 1069.41103,508.46106 C1070.42602,508.149766 1071.21001,507.309062 1071.49501,506.241769 L1071.5,506.219534 C1071.818,504.421654 1072,502.352717 1072,500.239308 C1072,500.162014 1072,500.083662 1071.999,500.005309 C1072,499.933309 1072,499.847544 1072,499.76178 C1072,497.647313 1071.818,495.578375 1071.46901,493.571907 L1071.46901,493.571907 Z M1057.60818,503.865773 L1057.60818,496.143786 L1063.8741,500.010603 L1057.60818,503.865773 Z" id="Shape"></path>
        </g>
    </g>
</svg>
