<?xml version="1.0" encoding="UTF-8"?>
<svg width="23px" height="27px" viewBox="0 0 23 27" version="1.1" xmlns="http://www.w3.org/2000/svg" xmlns:xlink="http://www.w3.org/1999/xlink">
    <title>Combined Shape</title>
    <g id="Page-1" stroke="none" stroke-width="1" fill="none" fill-rule="evenodd">
        <g id="0.Elements" transform="translate(-269.000000, -579.000000)" fill="#000000" fill-rule="nonzero">
            <path d="M280.164684,590.4507 C283.89098,590.4507 286.678322,590.551581 288.526611,590.752131 C289.108968,590.823004 289.623699,591.058894 290.070804,591.460286 C290.517618,591.862889 290.8063,592.359537 290.937139,592.952268 C291.198238,594.077569 291.328738,595.835109 291.328738,598.225762 C291.328738,600.576033 291.198238,602.333864 290.937139,603.499256 C290.796216,604.091405 290.504868,604.588635 290.063096,604.990656 C289.621081,605.392678 289.108725,605.623478 288.52632,605.684026 C286.678322,605.894659 283.89098,606 280.164393,606 L279.662,605.999347 C276.186017,605.990206 273.566172,605.885085 271.802127,605.684026 C271.21948,605.623478 270.704749,605.392678 270.257935,604.990656 C269.810829,604.588635 269.522148,604.091405 269.391647,603.499256 C269.130549,602.373906 269,600.616366 269,598.225762 C269,595.874861 269.130258,594.117611 269.391647,592.952268 C269.53228,592.359537 269.823579,591.862889 270.265642,591.460286 C270.707706,591.058894 271.224812,590.822762 271.817591,590.752131 C273.655798,590.55129 276.438097,590.4507 280.164684,590.4507 Z M276.90978,595.603437 L275.568756,595.603437 L275.568756,601.494627 C275.568756,601.987446 275.608798,602.353497 275.689222,602.59472 C275.80993,602.966152 276.100987,603.152159 276.563217,603.152159 C277.045371,603.152159 277.557678,602.845395 278.100041,602.232741 L278.100041,602.232741 L278.100041,603.046867 L279.441356,603.046867 L279.441356,595.603437 L278.10038,595.603437 L278.10038,601.298537 C277.798949,601.720725 277.512643,601.931358 277.241461,601.931358 C277.060496,601.931358 276.955155,601.826017 276.924905,601.615384 C276.914822,601.585425 276.90978,601.409501 276.90978,601.088194 L276.90978,601.088194 L276.90978,595.603437 Z M281.957225,593.057609 L280.616201,593.057609 L280.616201,603.046867 L281.957225,603.046867 L281.957225,602.323539 C282.409323,602.875694 282.876353,603.152159 283.35841,603.152159 C283.901015,603.152159 284.257371,602.875694 284.428253,602.323539 C284.518711,602.052357 284.563844,601.550376 284.563844,600.817013 L284.563844,600.817013 L284.563844,597.848949 C284.563844,597.115537 284.518711,596.618355 284.428253,596.356966 C284.257371,595.794776 283.900773,595.513512 283.35841,595.513512 C282.856138,595.513512 282.388866,595.784935 281.957225,596.327007 L281.957225,596.327007 L281.957225,593.057609 Z M287.652325,595.513463 C286.969039,595.513463 286.431767,595.76952 286.040168,596.281584 C285.758903,596.653647 285.618271,597.236342 285.618271,598.029623 L285.618271,598.029623 L285.618271,600.63629 C285.618271,601.430201 285.763945,602.012315 286.055293,602.383747 C286.446891,602.896393 286.989545,603.15245 287.682575,603.15245 C288.405903,603.15245 288.948217,602.885728 289.309857,602.35374 C289.490483,602.082316 289.595824,601.811765 289.626074,601.540244 C289.646289,601.449495 289.656372,601.158729 289.656372,600.666249 L289.656372,600.666249 L289.656372,600.470159 L288.285389,600.470159 C288.285389,600.982805 288.275015,601.288987 288.255139,601.389577 C288.184799,601.750926 287.983958,601.9316 287.652568,601.9316 C287.190338,601.9316 286.959538,601.585667 286.959538,600.892347 L286.959538,600.892347 L286.959538,599.581572 L289.656081,599.581572 L289.656081,598.029623 C289.656081,597.236294 289.520491,596.653647 289.249309,596.281584 C288.85771,595.769471 288.325189,595.513463 287.652325,595.513463 Z M275.373587,593.057609 L270.672657,593.057609 L270.672657,594.473676 L272.254516,594.473676 L272.254516,603.046867 L273.76109,603.046867 L273.76109,594.473676 L275.373587,594.473676 L275.373587,593.057609 Z M282.635421,596.733489 C283.02702,596.733489 283.222819,597.070211 283.223158,597.743462 L283.223158,597.743462 L283.223158,600.922354 C283.223158,601.595508 283.02702,601.931649 282.635421,601.931649 C282.40433,601.931649 282.178281,601.821557 281.957516,601.600259 L281.957516,601.600259 L281.957516,597.065509 C282.178233,596.844162 282.404282,596.733489 282.635421,596.733489 Z M287.637443,596.733489 C288.089589,596.733489 288.315348,597.075544 288.315687,597.758248 L288.315687,597.758248 L288.315687,598.451617 L286.959586,598.451617 L286.959586,597.758248 C286.959586,597.075301 287.185344,596.733489 287.637443,596.733489 Z M284.352919,581.576659 L284.352919,587.10621 C284.352919,587.437309 284.357961,587.613524 284.368044,587.633399 C284.398003,587.854698 284.503586,587.964789 284.684309,587.964789 C284.955782,587.964789 285.241749,587.749405 285.54318,587.316843 L285.54318,587.316843 L285.54318,581.576659 L286.914163,581.576659 L286.914163,589.094841 L285.542889,589.094841 L285.542889,588.266221 C285.010609,588.88954 284.493212,589.200182 283.991231,589.200182 C283.52934,589.200182 283.232902,589.014708 283.102402,588.642694 C283.022027,588.401763 282.981984,588.025289 282.981984,587.512643 L282.981984,587.512643 L282.981984,581.576659 L284.352919,581.576659 Z M279.848128,581.486153 C280.541207,581.486153 281.073438,581.742209 281.445161,582.254855 C281.726425,582.626627 281.867058,583.214025 281.867058,584.017437 L281.867058,584.017437 L281.867058,586.654063 C281.867058,587.467559 281.726425,588.06058 281.445161,588.432061 C281.073438,588.944126 280.541158,589.200182 279.848128,589.200182 C279.174925,589.200182 278.647445,588.944126 278.26593,588.432061 C277.984665,588.050836 277.844033,587.458057 277.844033,586.654063 L277.844033,586.654063 L277.844033,584.017437 C277.844033,583.214316 277.984665,582.626918 278.26593,582.254855 C278.647736,581.742209 279.174974,581.486153 279.848128,581.486153 Z M274.197821,579 L275.267955,582.962768 L276.292375,579 L277.829199,579 L276.006117,585.011898 L276.006069,589.094599 L274.499252,589.094599 L274.499252,585.011947 C274.358329,584.268452 274.052147,583.20399 273.580125,581.8173 C273.208402,580.783379 272.882053,579.844085 272.600789,579 L272.600789,579 L274.197821,579 Z M279.84808,582.70676 C279.416148,582.70676 279.200134,583.053226 279.200134,583.746014 L279.200134,583.746014 L279.200134,586.91012 C279.200134,587.613572 279.416099,587.964838 279.84808,587.964838 C280.279769,587.964838 280.496026,587.613572 280.496026,586.91012 L280.496026,586.91012 L280.496026,583.746014 C280.496026,583.053275 280.279769,582.70676 279.84808,582.70676 Z" id="Combined-Shape"></path>
        </g>
    </g>
</svg>